<?xml version="1.0" encoding="UTF-8"?>
<svg width="1408px" height="321px" viewBox="0 0 1408 321" version="1.1" xmlns="http://www.w3.org/2000/svg" xmlns:xlink="http://www.w3.org/1999/xlink">
    <!-- Generator: Sketch 42 (36781) - http://www.bohemiancoding.com/sketch -->
    <title>hielo</title>
    <desc>Created with Sketch.</desc>
    <defs></defs>
    <g id="Page-1" stroke="none" stroke-width="1" fill="none" fill-rule="evenodd">
        <g id="Clima" transform="translate(-32.000000, -2347.000000)">
            <g id="background-pola" transform="translate(-121.000000, 2347.000000)">
                <g id="hielo" transform="translate(153.000000, 0.000000)">
                    <polygon id="Fill-1" fill="#FFFFFF" points="261.675321 197.418845 265.346191 284.488443 266.99572 284.497895 292.956805 160.764776"></polygon>
                    <polygon id="Fill-2" fill="#D4F0FF" points="261.515812 197.605797 210.59507 192.962248 197.756268 284.054428 265.34691 284.488254 261.675013 197.418656"></polygon>
                    <polygon id="Fill-3" fill="#D4F0FF" points="295.408297 157.892166 292.956599 160.765438 266.995515 284.498556 404.888354 285.382277 352.315001 127.520545"></polygon>
                    <polygon id="Fill-4" fill="#FFFFFF" points="210.419435 192.946464 190.013957 207.035895 189.842431 207.34118 175.391076 283.911048 197.756268 284.054711 210.59507 192.962532"></polygon>
                    <polygon id="Fill-5" fill="#D4F0FF" points="146.847338 283.727499 175.391589 283.910859 189.842944 207.340991"></polygon>
                    <polygon id="Fill-6" fill="#FFFFFF" points="575.793655 144.564909 513.027321 140.047066 537.417963 286.232349 560.025552 286.377903 578.575053 146.097951"></polygon>
                    <polygon id="Fill-7" fill="#FFFFFF" points="871.584137 282.283018 806.880685 214.270586 769.693352 220.173081 814.489472 283.171464"></polygon>
                    <polygon id="Fill-8" fill="#D4F0FF" points="769.693147 220.173176 766.825472 220.628741 709.982448 189.497215 718.342049 284.666794 814.489267 283.171558"></polygon>
                    <polygon id="Fill-9" fill="#FFFFFF" points="709.824274 189.409977 672.850579 198.082722 672.14085 197.691428 695.573204 285.021889 718.342049 284.667456 709.982448 189.496931"></polygon>
                    <polygon id="Fill-10" fill="#D4F0FF" points="578.574539 146.098045 560.026066 286.377053 594.281016 286.597274 695.572999 285.0217 672.140645 197.691239"></polygon>
                    <polygon id="Fill-11" fill="#D4F0FF" points="511.089586 139.907939 451.373752 149.572153 456.39321 285.71327 537.418374 286.23216 513.027732 140.046877"></polygon>
                    <polygon id="Fill-12" fill="#FFFFFF" points="451.007076 149.631792 353.949843 126.64845 352.31572 127.519883 404.888046 285.38256 456.39321 285.712419 451.373752 149.572247"></polygon>
                    <polygon id="Fill-13" fill="#0C273D" opacity="0.2" points="709.824377 189.410166 672.850682 198.082911 578.574847 146.098423 575.793449 144.564436 513.027116 140.047539 451.374163 149.571869 353.950254 126.648072 352.315104 127.52045 295.408399 157.892071 292.956702 160.765343 261.675218 197.418467 210.595275 192.963005 190.014163 207.035422 146.84703 283.727215 175.391281 283.91152 197.756474 284.054239 265.346088 284.488065 265.622379 291.042717 266.995618 284.498462 404.888456 285.382182 456.393621 285.712986 537.417757 286.232822 560.026374 286.377431 594.280297 286.596707 695.573307 285.021133 718.342151 284.6667 814.489369 283.171464 871.584034 282.283018"></polygon>
                    <polygon id="Fill-15" fill="#D4F4FF" points="9.24393723 29.2490601 8.98613409 30.0656743 33.2165478 310.102909 109.871384 313.935513 57.5229672 104.760354"></polygon>
                    <polygon id="Fill-16" fill="#FFFFFF" points="0 58.497364 0 308.441798 33.2165478 310.103381 8.98613409 30.0652017"></polygon>
                    <polygon id="Fill-17" fill="#FFFFFF" points="153.038516 140.925966 105.791726 85.0871351 58.5449358 106.359746 57.5229672 104.760543 109.871384 313.935702 132.656662 315.07556 153.375407 140.751113"></polygon>
                    <polygon id="Fill-18" fill="#D4F4FF" points="194.122682 119.65449 153.375407 140.751302 132.656662 315.075749 214.231327 319.153149 194.894037 120.729131"></polygon>
                    <polygon id="Fill-19" fill="#FFFFFF" points="214.231019 319.15296 239.314956 320.407181 290.972131 316.693666 273.944799 230.925546 194.893729 120.728942"></polygon>
                    <polygon id="Fill-20" fill="#D4F4FF" points="346.134094 215.145611 274.236805 231.332341 273.945107 230.924979 290.971412 316.693099 405.706134 308.441893"></polygon>
                    <polygon id="Fill-21" fill="#D4F0FF" points="983.981786 196.324166 990.440217 311.08776 993.69511 311.020654 1045.52895 170.310656"></polygon>
                    <polygon id="Fill-22" fill="#FFFFFF" points="982.938659 196.764892 898.913324 208.417712 879.533923 311.543609 925.420827 312.43111 990.440628 311.088044 983.982197 196.32445"></polygon>
                    <polygon id="Fill-23" fill="#FFFFFF" points="761.084165 263.698334 759.728388 264.924201 748.749672 309.13195 874.650043 311.735853 867.764337 263.698334"></polygon>
                    <polygon id="Fill-24" fill="#D4F0FF" points="718.972896 308.441798 748.749672 309.017398 759.728388 264.695284"></polygon>
                    <polygon id="Fill-25" fill="#D4F0FF" points="896.661912 208.959664 867.902996 263.698334 867.764337 263.698334 874.650043 311.678199 879.533923 311.658351 898.913324 208.590108"></polygon>
                    <polygon id="Fill-26" fill="#FFFFFF" points="1340.3709 -0.000283546596 1339.72382 0.737882758 1395.96805 309.875504 1440 308.441704 1440 74.4524365"></polygon>
                    <polygon id="Fill-27" fill="#FFFFFF" points="1130.84165 135.608144 1083.59486 154.221088 1045.52833 170.310467 993.695521 311.020465 1109.46351 308.629222 1131.13438 135.311366"></polygon>
                    <polygon id="Fill-28" fill="#D4F0FF" points="1254.09436 98.3821624 1275.79399 313.731076 1276.69065 313.760376 1395.96825 309.874843 1339.72403 0.738166305"></polygon>
                    <polygon id="Fill-29" fill="#FFFFFF" points="1188.35949 77.1104968 1187.84799 77.6303322 1220.53352 311.872901 1275.79378 313.731076 1254.09415 98.3821624"></polygon>
                    <polygon id="Fill-30" fill="#D4F0FF" points="1131.13458 135.310893 1109.46269 308.629695 1118.51661 308.441609 1220.53373 311.872523 1187.84819 77.6308993"></polygon>
                </g>
            </g>
        </g>
    </g>
</svg>