<?xml version="1.0" encoding="utf-8"?>
<!-- Generator: Adobe Illustrator 18.0.0, SVG Export Plug-In . SVG Version: 6.00 Build 0)  -->
<!DOCTYPE svg PUBLIC "-//W3C//DTD SVG 1.1//EN" "http://www.w3.org/Graphics/SVG/1.1/DTD/svg11.dtd">
<svg version="1.1" id="Capa_1" xmlns="http://www.w3.org/2000/svg" xmlns:xlink="http://www.w3.org/1999/xlink" x="0px" y="0px"
	 viewBox="25.6 0 1293.2 321" enable-background="new 25.6 0 1293.2 321" xml:space="preserve">
<title>hielo</title>
<desc>Created with Sketch.</desc>
<g id="Page-1">
	<g id="Clima" transform="translate(-32.000000, -2347.000000)">
		<g id="background-pola" transform="translate(-121.000000, 2347.000000)">
			<g id="hielo" transform="translate(153.000000, 0.000000)">
				<polygon id="Fill-1" fill="#FFFFFF" points="140.4,201.3 144.1,288.4 145.7,288.4 171.7,164.6 				"/>
				<polygon id="Fill-2" fill="#D4F0FF" points="140.2,201.5 89.3,196.8 76.5,287.9 144.1,288.4 140.4,201.3 				"/>
				<polygon id="Fill-3" fill="#D4F0FF" points="174.1,161.8 171.7,164.7 145.7,288.4 283.6,289.3 231,131.4 				"/>
				<polygon id="Fill-4" fill="#FFFFFF" points="89.1,196.8 68.7,210.9 68.6,211.2 54.1,287.8 76.5,287.9 89.3,196.8 				"/>
				<polygon id="Fill-5" fill="#D4F0FF" points="25.6,287.6 54.1,287.8 68.6,211.2 				"/>
				<polygon id="Fill-6" fill="#FFFFFF" points="454.5,148.4 391.7,143.9 416.1,290.1 438.7,290.3 457.3,150 				"/>
				<polygon id="Fill-7" fill="#FFFFFF" points="750.3,286.2 685.6,218.2 648.4,224.1 693.2,287.1 				"/>
				<polygon id="Fill-8" fill="#D4F0FF" points="648.4,224.1 645.5,224.5 588.7,193.4 597.1,288.6 693.2,287.1 				"/>
				<polygon id="Fill-9" fill="#FFFFFF" points="588.5,193.3 551.6,202 550.9,201.6 574.3,288.9 597.1,288.6 588.7,193.4 				"/>
				<polygon id="Fill-10" fill="#D4F0FF" points="457.3,150 438.7,290.3 473,290.5 574.3,288.9 550.9,201.6 				"/>
				<polygon id="Fill-11" fill="#D4F0FF" points="389.8,143.8 330.1,153.5 335.1,289.6 416.1,290.1 391.7,143.9 				"/>
				<polygon id="Fill-12" fill="#FFFFFF" points="329.7,153.5 232.7,130.5 231,131.4 283.6,289.3 335.1,289.6 330.1,153.5 				"/>
				<polygon id="Fill-13" opacity="0.2" fill="#0C273D" enable-background="new    " points="588.5,193.3 551.6,202 457.3,150 
					454.5,148.4 391.7,143.9 330.1,153.5 232.7,130.5 231,131.4 174.1,161.8 171.7,164.7 140.4,201.3 89.3,196.8 68.7,210.9 
					25.6,287.6 54.1,287.8 76.5,287.9 144.1,288.4 144.3,294.9 145.7,288.4 283.6,289.3 335.1,289.6 416.1,290.1 438.7,290.3 
					473,290.5 574.3,288.9 597.1,288.6 693.2,287.1 750.3,286.2 				"/>
				<polygon id="Fill-21" fill="#D4F0FF" points="862.7,200.2 869.2,315 872.4,314.9 924.2,174.2 				"/>
				<polygon id="Fill-22" fill="#FFFFFF" points="861.7,200.6 777.6,212.3 758.3,315.4 804.1,316.3 869.2,315 862.7,200.2 				"/>
				<polygon id="Fill-23" fill="#FFFFFF" points="639.8,267.6 638.4,268.8 627.5,313 753.4,315.6 746.5,267.6 				"/>
				<polygon id="Fill-24" fill="#D4F0FF" points="597.7,312.3 627.5,312.9 638.4,268.6 				"/>
				<polygon id="Fill-25" fill="#D4F0FF" points="775.4,212.8 746.6,267.6 746.5,267.6 753.4,315.6 758.3,315.5 777.6,212.5 				"/>
				<polygon id="Fill-26" fill="#FFFFFF" points="1219.1,3.9 1218.4,4.6 1274.7,313.8 1318.7,312.3 1318.7,78.3 				"/>
				<polygon id="Fill-27" fill="#FFFFFF" points="1009.6,139.5 962.3,158.1 924.2,174.2 872.4,314.9 988.2,312.5 1009.9,139.2 				
					"/>
				<polygon id="Fill-28" fill="#D4F0FF" points="1132.8,102.3 1154.5,317.6 1155.4,317.6 1274.7,313.8 1218.4,4.6 				"/>
				<polygon id="Fill-29" fill="#FFFFFF" points="1067.1,81 1066.6,81.5 1099.3,315.8 1154.5,317.6 1132.8,102.3 				"/>
				<polygon id="Fill-30" fill="#D4F0FF" points="1009.9,139.2 988.2,312.5 997.2,312.3 1099.3,315.8 1066.6,81.5 				"/>
			</g>
		</g>
	</g>
</g>
</svg>
