<?xml version="1.0" encoding="UTF-8"?>
<svg width="1462px" height="218px" viewBox="0 0 1462 218" version="1.1" xmlns="http://www.w3.org/2000/svg" xmlns:xlink="http://www.w3.org/1999/xlink">
    <!-- Generator: Sketch 42 (36781) - http://www.bohemiancoding.com/sketch -->
    <title>background-ice</title>
    <desc>Created with Sketch.</desc>
    <defs></defs>
    <g id="Page-1" stroke="none" stroke-width="1" fill="none" fill-rule="evenodd">
        <g id="background-ice" fill-rule="nonzero">
            <polygon id="Fill-4" fill="#FFFFFF" points="161.136921 139.581422 145.353724 147.546818 145.221052 147.71941 134.043241 191.007841 151.342234 191.08906 161.272771 139.590505"></polygon>
            <polygon id="Fill-5" fill="#D4F0FF" points="133 212.313045 162.337147 212.453021 177.189929 154"></polygon>
            <polygon id="Fill-43" fill="#D4F4FF" points="5.53201429 53.0358289 5.33260913 53.4974981 24 217 83 217 42.8748022 95.7258"></polygon>
            <polygon id="Fill-44" fill="#FFFFFF" points="0 26.656498 0 217.462722 34 217 9.23574893 4.95153959"></polygon>
            <polygon id="Fill-45" fill="#FFFFFF" points="114.754018 116.171867 78.2096456 84.603634 41.6652728 96.630009 40.8748022 95.7259069 81.5 217 98.5 217 115.014596 116.073014"></polygon>
            <polygon id="Fill-46" fill="#D4F4FF" points="144.531734 104.146133 113.014596 116.073121 97 216.931804 160.085337 216.931804 145.12836 104.753677"></polygon>
            <polygon id="Fill-62" fill="#D4F0FF" points="1027.56922 136.082239 1033.77923 215.573914 1036.90892 215.527433 1086.74899 118.063829"></polygon>
            <polygon id="Fill-63" fill="#FFFFFF" points="1027.56621 136.38751 946.77288 144.458904 928.1389 215.890315 972.260784 216.504393 1034.77962 215.574111 1028.56961 136.082435"></polygon>
            <polygon id="Fill-66" fill="#D4F0FF" points="945.608068 144.83429 917.955352 182.749351 917.822027 182.749351 924.442877 215.982885 929.1389 215.969137 947.77288 144.578315"></polygon>
            <polygon id="Fill-67" fill="#FFFFFF" points="1365.24997 0.09722095 1364.62778 0.60786149 1418.70859 214.7345 1461.04687 213.74137 1461.04687 51.6666788"></polygon>
            <polygon id="Fill-68" fill="#FFFFFF" points="1169.78018 94.026931 1122.35072 106.919295 1085.7484 118.063698 1035.90932 215.527302 1147.22434 213.870994 1168.06165 93.821365"></polygon>
            <polygon id="Fill-69" fill="#D4F0FF" points="1283.29182 68.2423328 1304.15678 217.404364 1305.01895 217.425314 1419.70958 214.733976 1365.62778 0.6086471"></polygon>
            <polygon id="Fill-70" fill="#FFFFFF" points="1221.08561 53.5081926 1220.59379 53.8682597 1252.02209 216.117747 1305.15678 217.404168 1284.29182 68.2421364"></polygon>
            <polygon id="Fill-71" fill="#D4F0FF" points="1167.06184 93.821038 1146.22355 213.870666 1154.92921 213.741042 1253.02229 216.117485 1221.59399 53.8686525"></polygon>
        </g>
    </g>
</svg>