<?xml version="1.0" encoding="UTF-8"?>
<svg width="116px" height="151px" viewBox="0 0 116 151" version="1.1" xmlns="http://www.w3.org/2000/svg" xmlns:xlink="http://www.w3.org/1999/xlink">
    <!-- Generator: Sketch 42 (36781) - http://www.bohemiancoding.com/sketch -->
    <title>bear-up</title>
    <desc>Created with Sketch.</desc>
    <defs></defs>
    <g id="Page-1" stroke="none" stroke-width="1" fill="none" fill-rule="evenodd">
        <g id="bear-up" fill-rule="nonzero">
            <path d="M28.9738329,123.262987 C28.966523,115.961355 28.0445675,108.437686 26.9161085,101.570077 C25.9219682,95.5175163 25.6368838,76.6708814 15.0193187,82.8824311 C8.32623226,86.7968587 6.09489887,97.2216264 6.0099218,104.624683 C5.92311727,112.109975 13.2530749,123.901685 7.19320466,130.02643 C4.98745577,132.25685 1.81406475,134.174773 0.964294046,137.492534 C-0.135839207,141.790729 4.61191194,143.254528 7.74601248,143.683982 C11.2474333,144.164605 14.6931164,144.312629 18.1799175,143.597177 C20.7173511,143.07635 23.0738657,141.912255 25.0493542,140.15789 C27.1418003,138.300273 28.0683245,135.191757 28.4274212,132.427718 C28.813016,129.459003 28.976574,126.38064 28.9738329,123.262987" id="Fill-1" fill="#E1E1E1"></path>
            <path d="M113.966254,132.903864 C112.831399,131.834797 108.462846,130.209268 107.003616,129.949768 C100.333373,128.764658 105.534335,97.9691505 104.770456,88.2516113 C104.185667,80.8120059 97.5163377,67.5875636 87.0367461,72.3837425 C82.7001743,74.3683683 86.7589716,87.4319938 85.3627892,91.490791 C81.3204391,103.238643 82.7102253,116.728981 82.2917361,128.991263 C81.8220779,142.807804 104.16922,145.503313 113.090899,141.216997 C114.581195,140.500631 116.003876,139.186684 116.006617,137.34917 C116.010272,135.390128 115.313095,134.172124 113.966254,132.903864" id="Fill-3" fill="#E1E1E1"></path>
            <path d="M91.6733874,69.2171131 C88.5794911,60.6837705 83.296293,48.2725496 78.9652036,40.3093758 C78.7029626,39.8278391 78.4462039,39.3490435 78.2095473,38.8638519 C79.8661433,35.3341054 80.9114527,31.647197 81.1883134,28.2289258 C81.2138979,27.9136883 81.2358275,27.5975371 81.2541021,27.2795584 C81.3774559,25.0272091 81.3052711,22.771205 81.2440511,20.517942 C81.1992782,18.8302791 81.3920756,16.6382362 80.8273893,14.955142 C80.9123664,14.9103691 80.9946023,14.8619413 81.0795793,14.8135135 C81.0475987,14.7714819 81.0156181,14.7285365 80.9836375,14.6855911 C82.2180893,13.98019 83.0605502,13.008893 83.9962117,11.9343442 C86.1818585,9.42432258 84.8350176,5.77944588 83.2853282,3.35440132 C80.2362047,-1.41071074 72.763705,-1.09730068 70.6246585,4.28549416 C70.537854,4.33483568 70.4537906,4.38417721 70.3788646,4.43077754 C70.0654546,4.62266124 69.7355973,4.88124738 69.4422894,5.18369265 C65.6959884,4.02142563 61.6143479,3.09307398 57.6058059,3.00626945 C55.5809759,2.66270624 53.35147,2.88565683 51.4161857,3.09398771 C49.0148982,3.35074639 46.7269134,3.80669862 44.4334462,4.48286026 C43.282144,4.63636722 42.1820108,4.79078792 41.0818775,5.22937925 C39.7761546,5.74929272 38.4887063,6.30301428 37.2423759,6.95085022 C36.1979803,7.49360699 35.2760248,8.15058025 34.4509248,8.89161686 C34.4198579,8.85872251 34.3906185,8.82582816 34.3577242,8.79293381 C33.2000258,7.64802769 31.8184631,6.84485732 30.2267421,6.49763918 C27.3923456,5.88087012 22.6436807,6.11844043 21.2420159,9.18492481 C20.5201677,10.7638536 20.6371254,12.7000516 20.8646447,14.3840595 C21.1250583,16.3102065 22.0369627,17.4825245 23.6725429,18.4885434 C24.9526813,19.2752666 26.3598285,19.4735464 27.803525,19.5868492 C27.9460672,20.6504332 28.1598804,21.7067073 28.3535916,22.7675501 C28.0675935,26.2077508 28.5409067,29.7804427 29.6191103,33.2507966 C30.0193249,34.9201848 30.5273599,36.5575925 31.0600656,38.0926621 C31.2117451,38.5275985 31.3725619,38.9433465 31.5452573,39.3444749 C30.5776151,40.6428879 29.8356648,41.9568345 29.0635613,43.3849975 C22.5989079,55.3530584 16.7921414,68.869895 15.1702672,82.7211574 C13.6991588,95.2895402 12.853043,116.605079 21.1460741,127.085584 C22.0927004,128.279832 22.8538391,129.776525 23.9749882,130.81361 C24.45287,131.254943 24.9736972,131.60673 25.526505,131.882677 C25.550262,131.942983 25.5749328,132.002376 25.5977761,132.063596 C25.955959,133.989743 26.5069394,135.859238 27.1301046,137.740612 C27.575092,139.081057 27.8400743,140.464447 28.3170423,141.800323 C28.7419277,142.990916 29.2015349,144.483954 30.0851136,145.421443 C30.8910252,146.27761 31.863236,146.800264 32.9341298,147.251648 C33.8679639,147.645466 34.6784441,148.275028 35.6022271,148.703568 C38.2621007,149.935279 41.5889987,149.42633 44.4672543,149.443691 C45.9100371,149.452828 47.2002266,149.21343 48.4118351,148.730066 C49.0825143,148.902762 49.7614172,149.0517 50.4613358,149.130281 C52.3180391,149.336784 54.0824555,148.627728 55.4082805,147.378657 C56.6774542,146.183495 57.4970718,144.538778 57.9265258,142.873958 C58.3861329,141.087612 57.8470311,139.039939 57.4102672,137.303848 C56.865683,135.136476 55.614784,133.428711 54.1893621,131.827853 C55.5517365,131.564698 56.916852,131.313422 58.28014,131.053008 C60.3205034,130.663758 62.4970129,130.831885 64.5602196,130.903156 C65.1660239,130.923258 65.7672595,130.95067 66.3675814,130.982651 C65.8750799,132.006031 65.3789234,133.020273 64.7950487,134.008017 C63.2206886,136.669718 61.9807544,139.269286 62.0200448,142.431712 C62.0511117,144.951785 62.9611887,147.720392 65.2811541,148.992307 C67.4466988,150.179245 70.1294158,149.948985 72.50786,149.951726 C74.1196832,149.95264 75.6620627,150.050409 77.2382503,149.667555 C78.8473322,149.276478 80.3732645,148.756565 82.0335155,148.881746 C85.3467075,149.130281 87.3130586,146.646757 87.9645495,143.644234 C88.3108539,142.047945 88.2953204,140.511048 88.3008028,138.881863 C88.3017166,138.336365 88.1929825,137.829244 88.0422167,137.334915 C88.1582606,135.637201 88.0020125,133.862734 87.7982503,132.160451 C89.3497671,131.622263 90.9369195,131.173621 92.4482321,130.530354 C97.7122418,128.288055 96.5052019,116.351061 96.879832,112.016317 C97.0305978,110.271089 97.1439005,108.535912 97.2179128,106.808045 C97.7688932,93.9664563 96.1552426,81.5753375 91.6733874,69.2171131" id="Fill-5" fill="#FFFFFF"></path>
            <g id="head" transform="translate(26.000000, 5.000000)">
                <path d="M41.1873021,28.3961831 C41.0337951,25.7518429 39.9985368,23.0645572 37.8996946,20.624893 C37.5588726,19.8802014 37.1696228,19.1492159 36.7703219,18.4246265 C35.8118171,16.6830534 34.247508,14.8053343 32.1980073,14.4434964 C29.7638254,14.0131287 27.3004041,15.1827055 25.9736653,17.256877 C22.4905192,22.6999782 17.3717929,27.6030638 19.7803903,34.7959616 C20.3487315,36.4918481 21.6087679,37.3041557 22.7728624,38.5267291 C24.8442927,40.7014111 27.4246717,42.7819787 30.617251,42.3132342 C30.9873125,42.2584103 31.3235658,42.1597273 31.6424583,42.034546 C37.7251718,39.6341722 41.5162456,34.1134038 41.1873021,28.3961831" id="Fill-7" fill="#E1E1E1"></path>
                <path d="M34.1763283,23.439096 C32.2657148,23.4655942 30.3267757,23.4180801 28.4417467,23.7570747 C27.8405111,23.864895 27.6139055,24.5236958 27.7628438,25.044523 C27.755534,25.1167078 27.7473104,25.1898064 27.7527928,25.2647324 C27.9254881,27.2722014 29.2933448,29.2412938 31.4141167,29.4231264 C32.3634841,29.5044486 33.2498041,28.3357854 33.7404782,27.6715023 C34.2101364,27.0364586 34.582939,26.2597864 35.090974,25.6768255 C35.8082536,24.8562942 35.3888506,23.4226488 34.1763283,23.439096" id="Fill-9" fill="#542F31"></path>
                <path d="M34.6686471,35.0037442 C33.3473907,34.8986651 32.5825971,33.3124264 31.2339287,33.5043101 C30.7514783,33.5737537 30.3110595,33.8031005 29.8176442,33.8268575 C29.0875724,33.8615793 28.5393332,34.4993642 27.7900731,34.5386547 C26.6186687,34.598961 26.6442532,36.4648016 27.7818495,36.340534 C29.0272661,36.2053017 29.9419118,35.4286296 31.1215397,35.0741016 C31.5336328,34.949834 32.3669563,35.9567666 32.7269667,36.1952507 C33.2971354,36.5744494 33.9961404,36.6904934 34.6604235,36.7489722 C35.7797451,36.8476553 35.7852275,35.0923762 34.6686471,35.0037442" id="Fill-11" fill="#542F31"></path>
                <g id="eyes" transform="translate(14.000000, 15.000000)" fill="#542F31">
                    <path d="M2.140265,0.9639464 C0.0596974,0.954809 0.0450776,4.179369 2.1247315,4.1894201 C4.2043854,4.1994711 4.2199189,0.9739974 2.140265,0.9639464" id="Fill-13"></path>
                    <path d="M30.0117389,0.6351856 C29.8874713,0.6068599 29.7622901,0.579448 29.6380225,0.5511223 C29.2661336,0.4670589 28.8997271,0.4917297 28.5634738,0.6863546 C28.1385884,0.9330622 27.8690375,1.3954106 27.86721,1.8879121 C27.8653826,2.2561461 28.0115797,2.614329 28.2710795,2.8756563 C28.6347449,3.2429766 29.131815,3.3462283 29.6252303,3.2402354 C29.7504116,3.2137371 29.8755928,3.1863252 29.9998604,3.1598269 C30.5645467,3.0383006 30.9647613,2.4617357 30.9665888,1.9025318 C30.96933,1.3433279 30.5755115,0.7621943 30.0117389,0.6351856" id="Fill-15"></path>
                </g>
                <path d="M6.7587964,8.3314521 C5.5718586,7.0878629 3.8942468,6.2856063 2.1910505,7.0321253 C0.6066393,7.7274753 0.0721061,9.2826471 0.5033876,10.8880741 C0.9611673,12.5912704 2.7776664,13.9682644 4.4991373,13.0755483 C5.1880912,12.7182791 5.6531808,12.1206985 6.0753249,11.4874822 C6.2580713,11.2124489 6.4444726,10.9328469 6.5979796,10.6404527 C6.7377806,10.4037961 6.8072242,10.1479512 6.8108791,9.8729179 C6.8081379,9.8546432 6.8053968,9.8363686 6.8026556,9.818094 C6.8254989,9.7696662 6.8437735,9.7175835 6.855652,9.6609321 C6.8583932,9.6481398 6.8547383,9.6499673 6.8492559,9.6581909 C6.8657031,9.6252965 6.8839777,9.5869198 6.9086485,9.5357508 C7.1069283,9.1218302 7.0877399,8.6768428 6.7587964,8.3314521" id="Fill-17" fill="#E1E1E1"></path>
                <path d="M54.2766035,4.29887895 C54.2044186,3.92150766 54.0527391,3.55418742 53.9184205,3.1960045 C53.8508044,3.01691304 53.7850157,2.83782158 53.7219682,2.65690266 C53.6799365,2.53720377 53.5849084,1.94693294 53.616889,2.37273202 C53.5648063,1.68651934 53.0293594,0.8842627 52.2316714,0.97380843 C50.8391439,1.13005659 50.1328291,2.02185896 49.3726042,3.03427395 C48.7750235,3.20240062 48.2669885,3.65743913 48.3355184,4.37106377 C48.404962,5.08834334 48.7019249,5.44287133 49.1258965,5.98654184 C48.9029459,5.70054374 49.4338242,6.3876702 49.4877344,6.4562001 C49.6330178,6.6407739 49.7901797,6.8134692 49.9637887,6.9724586 C50.9277759,7.8624335 52.2919777,7.9711676 53.2934279,7.0720554 C53.3829736,6.9980431 53.4642958,6.9176347 53.5383081,6.828089 C53.3226673,6.889309 53.3911972,6.8189516 53.7448115,6.6170169 C53.8992322,6.4680786 54.0426881,6.296297 54.1304064,6.0998446 C54.4045259,5.48673047 54.3990435,4.94854236 54.2766035,4.29887895" id="Fill-19" fill="#E1E1E1"></path>
                <path d="M46.7607014,40.4576274 C46.0333708,40.932768 45.2804557,41.099981 44.4900776,41.4243558 C43.735335,41.7341109 43.2017155,42.5829679 42.6708373,43.1750662 C42.0860488,43.8292983 41.4564875,44.0421978 40.6560583,44.3409881 C39.7898405,44.6644493 39.0679922,45.3049753 38.2986299,45.8020455 C37.6626725,46.2132249 37.0321975,46.6170944 36.3542084,46.9542615 C35.3710328,47.4440218 34.2891742,47.3864567 33.2255902,47.4312296 C31.252843,47.5152929 29.1704479,48.1220109 27.2241989,47.5838228 C25.7549179,47.1772121 25.1354077,45.6256952 23.5263257,45.3990897 C22.8391993,45.3022341 22.1931908,45.3890387 21.524339,45.5571654 C20.7248236,45.7572726 20.1866355,45.3926936 19.4666147,44.9614121 C18.8151238,44.5721623 18.5391768,43.8457454 18.0110397,43.3367967 C17.4628006,42.8086597 16.8378079,42.3636722 16.1589051,42.0219365 C15.5960462,41.7395933 14.7654639,41.7286285 14.2683937,41.3969438 C13.7713236,41.0652592 13.1170915,41.1977503 12.7260142,40.6933703 C12.484789,40.3845289 12.0196994,40.5965147 11.915534,40.9035286 C11.5390764,42.0137129 12.7707871,42.5391088 13.5538554,43.0023709 C14.2345856,43.4053266 15.0660817,43.5286805 15.7596042,43.9462559 C16.6175985,44.464342 17.0516212,45.3177676 17.7140769,46.0259098 C18.6881151,47.0657368 20.3172992,47.8670797 21.7244463,47.5673756 C22.5979741,47.3809743 23.3636814,47.1525413 24.1001494,47.7930674 C24.8156015,48.4162326 25.3921663,49.0430527 26.3104669,49.3838747 C28.379156,50.1514095 30.6095757,49.6707865 32.7431398,49.4926088 C34.8401546,49.3171723 36.4803034,49.2934152 38.3443165,48.1978507 C39.0853531,47.7629143 39.951571,47.3060483 40.6030619,46.7486718 C41.3961812,46.069769 42.4908321,46.0277373 43.3113634,45.3872112 C44.0368665,44.8206974 44.5997254,44.0979355 45.1991335,43.4053266 C45.4997513,43.0571948 46.2033249,42.892723 46.6236416,42.7108904 C47.0923861,42.5071281 47.4551377,42.1772709 47.7886498,41.8035546 C48.4081601,41.1118595 47.6113859,39.9020784 46.7607014,40.4576274" id="Fill-21" fill="#E1E1E1"></path>
            </g>
            <path d="M65.9035883,132.876634 C67.1672796,131.0711 68.3405114,129.081906 69.0797205,126.993114 C69.5831868,125.571348 69.6334421,123.920234 69.8481691,122.433592 C70.1031003,120.663693 70.3562041,118.893795 70.6129627,117.12481 C71.0442442,114.155181 71.4490275,111.213878 71.4042546,108.205872 C71.3603955,105.29655 71.0625188,102.396364 71.0095224,99.4861282 C70.9537847,96.4269537 70.5334681,93.4253443 70.2182305,90.3862719 C70.070206,88.9718148 69.9952799,87.6670056 69.6069439,86.2863567 C69.2122117,84.8810369 68.716969,83.4665799 68.5406187,82.0110049 C68.4784849,81.5020562 68.1486277,81.0058998 67.5684079,81.0296568 C67.4331756,81.0351392 67.2979433,81.0406216 67.1636247,81.046104 C66.1731392,81.0863082 65.973032,82.2522302 66.5678714,82.7456454 C66.6080756,84.8454014 67.4350031,86.8492155 67.3893165,88.9462303 C67.3280964,91.7888504 67.8397863,94.6141095 67.9832422,97.4475923 C68.1221295,100.219855 68.1120784,103.006737 68.2400009,105.783569 C68.3706646,108.627103 68.2902561,111.421295 67.8873004,114.241072 C67.4615013,117.21801 66.9863607,120.188553 66.5368046,123.16275 C66.3421797,124.449285 66.2279632,125.733992 65.6925162,126.936463 C65.2721996,127.879434 64.694721,129.282927 64.0066808,130.050462 C63.8339855,130.244173 63.6704275,130.574944 63.491336,130.861855 C63.8495189,130.875561 64.2067881,130.890181 64.5594886,130.902973 C65.1662067,130.923076 65.7674423,130.950487 66.3677642,130.982468 C65.8871412,131.980263 65.403777,132.967094 64.8381769,133.931081 C65.2237718,133.677977 65.5819547,133.336242 65.9035883,132.876634" id="Fill-23" fill="#E1E1E1"></path>
            <path d="M58.2799573,131.053191 C59.1141945,130.893288 59.9703614,130.83024 60.8329243,130.812879 C60.3002186,130.557948 59.78396,130.282915 59.3389726,130.121184 C58.560473,129.8361 57.1789103,130.273778 56.68915,129.841582 C56.2825393,129.484313 55.8686187,129.265018 55.4373372,129.176386 C55.2783479,128.983588 55.0617934,128.82003 54.780364,128.710382 C55.2655556,128.898611 55.2454535,129.048463 54.9841262,128.626319 C54.8662548,128.434435 54.7639168,128.226104 54.6853358,128.015946 C54.4660402,127.42202 54.1873519,126.904848 53.9013538,126.330111 C53.5513945,125.627451 53.4910882,124.800523 53.4792097,124.032988 C53.4618488,123.021487 52.8962487,121.915872 52.5526855,120.981124 C51.855508,119.082389 51.4351913,117.126089 51.1884837,115.117706 C50.9262426,112.980487 50.7233942,110.786617 50.6274523,108.63295 C50.4383098,104.42887 50.7891829,100.189154 51.2414802,96.0143124 C51.7339817,91.478547 51.6499183,86.8925264 51.6828127,82.336659 C51.6937775,80.8929625 49.4478244,80.8819978 49.4441694,82.3266079 C49.4322909,87.1346654 49.3144195,91.949119 48.5971399,96.7124036 C47.9081861,101.292942 47.543607,105.991351 47.8698093,110.620317 C48.0214888,112.749313 48.1896155,114.903893 48.5002844,117.016441 C48.8374514,119.310822 49.5629546,121.346617 50.2939401,123.532263 C50.6027815,124.45696 50.5634911,125.461152 50.7928378,126.410519 C50.8805561,126.776012 51.0304081,127.132367 51.1793464,127.475017 C51.313665,127.782944 51.7275856,128.295548 51.7687035,128.605303 C51.8911436,129.506243 52.5892348,130.7078 53.4463153,131.256039 C53.5340336,131.37848 53.6391128,131.487214 53.7578979,131.574932 C53.9662288,131.726611 54.1635949,131.876463 54.3582198,132.019919 C54.3015684,131.955044 54.2467445,131.891083 54.1891794,131.828036 C55.5524674,131.563967 56.9166692,131.313605 58.2799573,131.053191" id="Fill-25" fill="#E1E1E1"></path>
            <path d="M42.0792159,142.696694 C41.7274291,141.50336 39.6541713,141.666918 39.8232118,142.99183 C39.9639265,144.090136 40.2014968,145.149151 40.4436357,146.229182 C40.7040493,147.397845 40.4582555,148.974946 41.4085367,149.814666 C41.8480417,150.202088 42.4584147,150.234069 42.8979197,149.821062 C44.581014,148.243961 42.6164903,144.522331 42.0792159,142.696694" id="Fill-27" fill="#542F31"></path>
            <path d="M50.0337093,146.308585 C50.0172621,144.740621 49.2497273,143.380988 49.1464756,141.821248 C49.0377415,140.179271 46.5587867,140.129016 46.5670103,141.809369 C46.5688378,142.393244 46.632799,142.952448 46.7132074,143.529926 C46.8201141,144.303857 47.2788075,145.111596 47.2632741,145.891924 C47.2413445,147.049622 47.0083428,148.196355 47.7731365,149.148464 C48.1587314,149.629087 49.100789,149.633656 49.4900388,149.156688 C50.198181,148.292297 50.0455878,147.369428 50.0337093,146.308585" id="Fill-29" fill="#542F31"></path>
            <path d="M72.6754385,148.682918 C72.6142184,148.525756 72.5246727,148.385955 72.4049738,148.263515 C72.4671076,148.331131 72.3236517,148.01498 72.3117731,147.976603 C72.1463877,147.413744 72.2085214,146.766822 72.2313647,146.189343 C72.2761376,145.024335 72.561222,143.633635 72.1610074,142.507917 C71.8576484,141.657233 70.8269588,141.715712 70.4961878,142.500607 C69.864799,143.996387 69.6518995,145.827505 69.6783977,147.446638 C69.7048959,149.157145 70.9777245,151.284313 72.5922889,149.890871 C72.9522992,149.580202 72.925801,149.042928 72.6754385,148.682918" id="Fill-31" fill="#542F31"></path>
            <path d="M79.4042518,148.157613 C79.3247571,147.805826 79.0625161,147.532621 79.0177432,147.179006 C78.9428172,146.585994 78.9958136,145.971053 79.0415002,145.378041 C79.1292185,144.238617 79.3942008,143.104676 79.4252677,141.962511 C79.4691268,140.394547 77.0541333,140.389978 76.9974819,141.951546 C76.9463129,143.32854 75.3390584,150.963684 78.9409897,149.28059 C79.3521691,149.088706 79.495625,148.566051 79.4042518,148.157613" id="Fill-33" fill="#542F31"></path>
        </g>
    </g>
</svg>