<svg xmlns="http://www.w3.org/2000/svg" version="1.1" x="0px" y="0px" viewBox="0 0 480 208" enable-background="new 0 0 480 208" xml:space="preserve">
  <g>
    <g transform="translate(119.000000, 118.499399)" opacity="0.4">
      <polygon fill="#D4F4FF" points="32 29.8 31.6 28.5 30.3 28.4 30.3 61.7 30.8 61.8 47.3 69.6 47.3 17.7 "/>
      <polygon fill="#BBE8F2" fill-opacity="0.5" points="0.3 9.3 0.3 54.6 0.1 54.8 0.3 54.8 0.3 55 1.1 55 30.3 61.7 30.3 28.4 "/>
      <polygon fill="#BBE8F2" fill-opacity="0.5" points="60.3 7.1 47.3 17.7 47.3 69.6 47.9 70.1 136.3 75.2 136.3 24.4 "/>
      <polygon fill="#BBE8F2" fill-opacity="0.5" points="261.3 29 218.3 29 218.3 88.6 220 88.9 291.3 70.9 291.3 23.6 "/>
      <polygon fill="#D4F4FF" fill-opacity="0.5" points="210 29 156.9 29 136.3 24.4 136.3 75.2 138.3 75.3 218.3 88.6 218.3 29 "/>
      <polygon fill="#D4F4FF" fill-opacity="0.5" points="338.3 10.5 332 16.3 291.3 23.6 291.3 70.9 291.5 70.8 360.3 45.2 361 -0.5 "/>
      <polygon fill="#FFFFFF" points="361 -0.5 291.7 42.2 220.3 60.3 138.8 46.8 48 41.5 30.5 33.2 0.3 9.2 60.4 0.7 156.9 0.7 210 0.7 261.3 0.7 332.2 9.8 "/>
    </g>
    <g>
      <polygon fill="#D4F4FF" points="151 103.8 150.6 102.6 149.3 102.5 149.3 135.7 149.8 135.9 166.3 143.6 166.3 91.8 "/>
      <polygon fill="#BBE8F2" points="119.3 100.5 119.3 128.7 119.1 128.9 119.3 128.9 119.3 129.1 120.1 129 149.3 135.7 149.3 102.5 "/>
      <polygon fill="#BBE8F2" points="179.3 81.1 166.3 91.8 166.3 143.6 166.9 144.1 255.3 149.3 255.3 98.5 "/>
      <polygon fill="#BBE8F2" points="380.3 103 337.3 103 337.3 162.7 339 163 410.3 144.9 410.3 97.6 "/>
      <polygon fill="#D4F4FF" points="329 103 275.9 103 255.3 98.5 255.3 149.3 257.3 149.4 337.3 162.7 337.3 103 "/>
      <polygon fill="#D4F4FF" points="410.3 97.6 410.3 144.9 410.5 144.9 479.3 119.3 480 90.7 457.3 96.7 451 90.4 "/>
      <polygon fill="#FFFFFF" points="329 74.8 275.9 74.8 179.4 74.8 119.3 100.4 149.5 107.3 167 115.6 257.8 120.8 339.3 134.4 410.7 116.3 480 90.7 451.2 83.9 380.3 74.8 "/>
    </g>
    <g>
      <path fill="#FFFFFF" d="M149.3 101.2c-3.4-9-14.8-22.8-18.9-27.6 7.5-18.6 9.4-38.6-3.1-51.4C109.6 3.9 84.2 30.7 40 57.4c-29.8 18-43.9 50.7-39.1 68.1l0 0c5.3 19.8 12.6 39.6 8.4 53.7 -4.5 14.9 12 17.2 16.2 10.1 4.2-7.1 12.8-23.2 12.8-28.8 0-1.4 0.2-3.9 0.5-6.8 0.3 0 0.7 0.1 1 0.1 4.2 10.5-3 17.2-4.1 28.4 -1.6 15.4 14.4 16.2 17.2 8.4 2.8-7.8 14.7-28 13.7-33.5 -0.4-2.3 0.1-7.8 1-13.3 10.1-6.8 22.5-17.4 38.3-32.7 3.8-3.6 7.8-8.4 11.5-13.8 9.3 6.6 20.2 15.7 24.4 17.3C151.1 118.4 152.4 109.3 149.3 101.2z"/>
      <path fill="#FFFFFF" d="M135.5 52.7c0 0 20.5 13.3 27.4 22.7 5.1 6.9 6.3 16.1-3.7 15.1 -6.6-0.6-32-14.9-41-15.3"/>
      <path fill="#FFFFFF" d="M159.3 10.6c0-5.9 0.1-8.6-6-8.6 -2.7 0-5.8 0.5-8.3 1.7C140.3 1.3 134.6 0 128.5 0c-5.1 0-9.9 0.9-14.1 2.6 -2.8-1.7-6.8-2.6-10.1-2.6 -6.1 0-6 2.7-6 8.6 0 2.6 1 5 2.7 6.9 -1.1 2.7-1.7 5.8-1.7 9.3 0 15.9 13.1 28.8 29.3 28.8 16.2 0 29.3-12.9 29.3-28.8 0-2.7-0.4-5.1-1.1-7.4C158.3 15.6 159.3 13.2 159.3 10.6z"/>
      <path fill="#020101" d="M131.3 34.9c-0.6 1.3-1.7 2.5-2.5 2.5 -0.8 0-1.9-1.3-2.5-2.5 -1-1.9 1.1-1.5 2.5-1.5C130.2 33.4 132.1 33 131.3 34.9"/>
      <g>
        <path fill="#020101" d="M138.3 25.8c0 1.4-1.1 2.5-2.5 2.5 -1.4 0-2.5-1.1-2.5-2.5 0-1.4 1.1-2.5 2.5-2.5C137.2 23.3 138.3 24.4 138.3 25.8"/>
        <path fill="#020101" d="M124.3 25.8c0 1.4-1.1 2.5-2.5 2.5 -1.4 0-2.5-1.1-2.5-2.5 0-1.4 1.1-2.5 2.5-2.5C123.2 23.3 124.3 24.4 124.3 25.8"/>
      </g>
      <path fill="#020101" d="M134.2 42.4c-2.6 0-4.4-0.4-5.3-1.3 -0.6-0.5-0.6-1.1-0.6-1.4 0-1.1 0-4.3 0-4.4l1 0c0 0.1 0 3.3 0 4.4 0 0.2 0 0.4 0.3 0.6 0.5 0.5 2.2 1.3 7.3 0.9l0.1 1C136 42.4 135 42.4 134.2 42.4"/>
      <path fill="#020101" d="M123.1 42.2c-0.8 0-1.8 0-2.8-0.1l0.1-1c7.3 0.5 7.9-1.1 7.9-1.1l1 0c0 0.1 0 0.5-0.5 0.9C127.9 41.8 125.9 42.2 123.1 42.2"/>
      <path fill="#1C5168" fill-opacity="0.3" d="M1.3 113.6c-0.5 4.4-0.3 8.5 0.6 12l0 0c5.3 19.8 12.6 39.6 8.4 53.7 -4.5 14.9 12 17.2 16.2 10.1 4.2-7.1 12.8-23.2 12.8-28.8 0-1.4 0.2-3.9 0.5-6.8 0.3 0 0.7 0.1 1 0.1 4.2 10.5-3 17.2-4.1 28.4 -1.6 15.4 14.4 16.2 17.2 8.4 2.8-7.8 14.7-28 13.7-33.5 -0.4-2.3 0.1-7.8 1-13.3 9.5-6.4 21-16.1 35.5-29.9C60.9 119 20.7 115.8 1.3 113.6"/>
    </g>
    <g>
      <path fill="#92CDDF" d="M332.7 98.2c0 3.5-19.8 6.4-44.2 6.4 -24.4 0-44.2-2.9-44.2-6.4s19.8-6.4 44.2-6.4C312.9 91.8 332.7 94.7 332.7 98.2"/>
      <path fill="#FFFFFF" d="M252 45.5c-0.3-21.5 34-15.1 46-6.7 36.6 25.7 32.4 46.5 18.5 55.9 -10.5 7.1-32.4 6.1-46.8-11.5C251.8 61.3 252.3 62.6 252 45.5"/>
      <path fill="#FFFFFF" d="M283.4 39.1c0 10.2-8.4 18.5-18.8 18.5 -10.4 0-18.8-8.3-18.8-18.5s8.4-15.9 18.8-15.9C275 23.3 283.4 28.9 283.4 39.1"/>
      <path fill="#FFFFFF" d="M245.2 28.8c0 3.8 3.2 6.8 7.1 6.8 3.9 0 5.8-3 5.8-6.8 0-3.8-5.1-5.5-9-5.5S245.2 25 245.2 28.8"/>
      <path fill="#FFFFFF" d="M284.3 30.1c0 3.8-3.2 6.8-7.1 6.8 -3.9 0-5.8-3-5.8-6.8 0-3.8 5.1-5.5 9-5.5S284.3 26.3 284.3 30.1"/>
      <path fill="#020101" d="M270.9 39.8c0 0.9-0.7 1.6-1.6 1.6 -0.9 0-1.6-0.7-1.6-1.6 0-0.9 0.7-1.6 1.6-1.6C270.2 38.2 270.9 38.9 270.9 39.8"/>
      <path fill="#020101" d="M266.4 45.6c-0.4 0.8-1.1 1.6-1.6 1.6 -0.5 0-1.2-0.8-1.6-1.6 -0.6-1.2 0.7-1 1.6-1C265.7 44.6 266.9 44.4 266.4 45.6"/>
      <path fill="#020101" d="M261.9 39.8c0 0.9-0.7 1.6-1.6 1.6s-1.6-0.7-1.6-1.6c0-0.9 0.7-1.6 1.6-1.6S261.9 38.9 261.9 39.8"/>
      <path fill="#020101" d="M268.2 50.4c-1.7 0-2.8-0.3-3.4-0.8 -0.4-0.3-0.4-0.7-0.4-0.9 0-0.7 0-2.8 0-2.8l0.6 0c0 0.1 0 2.1 0 2.8 0 0.1 0 0.3 0.2 0.4 0.3 0.3 1.4 0.8 4.7 0.6l0.1 0.6C269.4 50.4 268.8 50.4 268.2 50.4"/>
      <path fill="#020101" d="M261.1 50.3c-0.5 0-1.1 0-1.8-0.1l0-0.6c4.7 0.3 5.1-0.7 5.1-0.7l0.6 0c0 0.1 0 0.3-0.3 0.6C264.2 50.1 263 50.3 261.1 50.3"/>
      <path fill="#FFFFFF" d="M253.9 51.5c0 0-0.6 27.5 0.1 36.4 0.6 6.6 3.5 13.2 7.1 8.7 2.4-3 7.2-22.2 10.6-25.8"/>
      <path fill="#FFFFFF" d="M266.5 67c0 0-1.7 16.9-0.2 24.8 1.1 5.8 4.4 10.5 7.4 4.8 2-3.8 5.7-23 8.6-28"/>
      <path display="none" fill="#FFFFFF" d="M299.3 82.1c0 0-16.4 3.7-23.3 7.6 -5.1 2.9-8.5 7.5-2.1 8.6 4.2 0.7 23.4-1.8 29-0.6"/>
    </g>
  </g>
</svg>
