<?xml version="1.0" encoding="UTF-8"?>
<svg width="1273px" height="427px" viewBox="0 0 1273 427" version="1.1" xmlns="http://www.w3.org/2000/svg" xmlns:xlink="http://www.w3.org/1999/xlink">
    <!-- Generator: Sketch 42 (36781) - http://www.bohemiancoding.com/sketch -->
    <title>bubbles</title>
    <desc>Created with Sketch.</desc>
    <defs>
        <polygon id="path-1" points="0 0 0 122.827972 122.827972 122.827972 122.827972 0"></polygon>
        <polygon id="path-3" points="29.7 28.8 29.7 0 0.9 0 0.9 28.8"></polygon>
    </defs>
    <g id="Page-1" stroke="none" stroke-width="1" fill="none" fill-rule="evenodd" opacity="0.12">
        <g id="bubbles">
            <path d="M378.1,301.7 C378.1,315.8 366.7,327.1 352.7,327.1 C338.7,327.1 327.3,315.7 327.3,301.7 C327.3,287.7 338.7,276.3 352.7,276.3 C366.7,276.3 378.1,287.6 378.1,301.7" id="Fill-1" fill="#00A2A8" fill-rule="nonzero" opacity="0.661231884"></path>
            <path d="M343.4,113.2 C343.4,118.4 339.2,122.5 334.1,122.5 C328.9,122.5 324.8,118.3 324.8,113.2 C324.8,108.1 329,103.9 334.1,103.9 C339.2,103.9 343.4,108 343.4,113.2" id="Fill-3" fill="#00A2A8" fill-rule="nonzero" opacity="0.762737772"></path>
            <path d="M514.7,297 C514.7,302.2 510.5,306.3 505.4,306.3 C500.3,306.3 496.1,302.1 496.1,297 C496.1,291.8 500.3,287.7 505.4,287.7 C510.5,287.7 514.7,291.9 514.7,297" id="Fill-5" fill="#00A2A8" fill-rule="nonzero"></path>
            <path d="M138.4,268.7 C138.4,271.8 135.9,274.4 132.7,274.4 C129.6,274.4 127,271.9 127,268.7 C127,265.6 129.5,263 132.7,263 C135.8,263 138.4,265.6 138.4,268.7" id="Fill-7" fill="#00A2A8" fill-rule="nonzero" opacity="0.661231884"></path>
            <path d="M939,56.4 C939,61.6 934.8,65.7 929.7,65.7 C924.5,65.7 920.4,61.5 920.4,56.4 C920.4,51.3 924.6,47.1 929.7,47.1 C934.9,47.1 939,51.3 939,56.4" id="Fill-9" fill="#00A2A8" fill-rule="nonzero" opacity="0.762737772"></path>
            <path d="M987.3,29.6 C987.3,45.5 974.4,58.4 958.5,58.4 C942.6,58.4 929.7,45.5 929.7,29.6 C929.7,13.7 942.6,0.8 958.5,0.8 C974.4,0.8 987.3,13.8 987.3,29.6" id="Fill-11" fill="#00A2A8" fill-rule="nonzero" opacity="0.762737772"></path>
            <path d="M617.1,58.4 C617.1,72.5 605.7,83.9 591.6,83.9 C577.5,84 566,72.5 566,58.4 C566,44.3 577.4,32.9 591.5,32.9 C605.7,32.9 617.1,44.3 617.1,58.4" id="Fill-13" fill="#00A2A8" fill-rule="nonzero" opacity="0.762737772"></path>
            <path d="M722.4,14.4 C722.4,19.3 718.5,23.2 713.6,23.2 C708.7,23.2 704.8,19.3 704.8,14.4 C704.8,9.5 708.7,5.6 713.6,5.6 C718.5,5.6 722.4,9.6 722.4,14.4" id="Fill-15" fill="#00A2A8" fill-rule="nonzero" opacity="0.762737772"></path>
            <path d="M578.2,68.1 C578.2,74.8 572.8,80.2 566.1,80.2 C559.4,80.2 554,74.8 554,68.1 C554,61.4 559.5,56 566.1,56 C572.7,56 578.2,61.4 578.2,68.1" id="Fill-17" fill="#00A2A8" fill-rule="nonzero" opacity="0.762737772"></path>
            <path d="M181.5,278.9 C195.5,277.5 208.1,287.7 209.5,301.7 C210.9,315.7 200.7,328.3 186.7,329.7 C172.7,331.1 160.1,320.9 158.7,306.9 C157.3,292.9 167.5,280.4 181.5,278.9" id="Fill-19" fill="#00A2A8" fill-rule="nonzero" opacity="0.661231884"></path>
            <path d="M93.0677762,249.850635 C93.7677762,256.450635 88.9677762,262.350635 82.2677762,263.050635 C75.6677762,263.750635 69.7677762,258.950635 69.0677762,252.250635 C68.3677762,245.650635 73.1677762,239.750635 79.8677762,239.050635 C86.4677762,238.450635 92.3677762,243.250635 93.0677762,249.850635 Z" id="Fill-21" fill="#00A2A8" fill-rule="nonzero" opacity="0.661231884"></path>
            <path d="M1023.6,397.8 C1023.6,413.7 1010.7,426.6 994.8,426.6 C978.9,426.6 966,413.7 966,397.8 C966,381.9 978.9,369 994.8,369 C1010.7,369 1023.6,381.9 1023.6,397.8" id="Fill-23" fill-opacity="0.6" fill="#00A2A8" fill-rule="nonzero" opacity="0.661231884"></path>
            <path d="M421.8,291.1 C421.8,307 408.9,319.9 393,319.9 C377.1,319.9 364.2,307 364.2,291.1 C364.2,275.2 377.1,262.3 393,262.3 C409,262.4 421.8,275.2 421.8,291.1" id="Fill-25" fill="#00A2A8" fill-rule="nonzero" opacity="0.661231884"></path>
            <path d="M871.8,228.4 C871.8,267.8 839.8,299.8 800.4,299.8 C761,299.8 729,267.8 729,228.4 C729,189 761,157 800.4,157 C839.8,157 871.8,189 871.8,228.4" id="Fill-27" fill="#00A2A8" fill-rule="nonzero" opacity="0.6"></path>
            <g id="Fill-29-Clipped" transform="translate(0.000000, 19.000000)">
                <mask id="mask-2" fill="white">
                    <use xlink:href="#path-1"></use>
                </mask>
                <g id="path-1"></g>
                <path d="M122.827972,61.413986 C122.827972,95.3034965 95.3034965,122.827972 61.413986,122.827972 C27.5244755,122.827972 0,95.3034965 0,61.413986 C0,27.5244755 27.5244755,0 61.413986,0 C95.3034965,0 122.827972,27.4384615 122.827972,61.413986" id="Fill-29" fill="#00A2A8" fill-rule="nonzero" opacity="0.762737772" mask="url(#mask-2)"></path>
            </g>
            <path d="M819.8,362.901635 C819.8,368.401635 815.4,372.801635 809.9,372.801635 C804.4,372.801635 800,368.401635 800,362.901635 C800,357.401635 804.4,353.001635 809.9,353.001635 C815.4,352.901635 819.8,357.401635 819.8,362.901635" id="Fill-32" fill="#00A2A8" fill-rule="nonzero" opacity="0.661231884"></path>
            <path d="M978.8,373.4 C978.8,381.3 972.4,387.8 964.4,387.8 C956.5,387.8 950,381.4 950,373.4 C950,365.4 956.4,359 964.4,359 C972.3,359.1 978.8,365.5 978.8,373.4" id="Fill-34" fill="#00A2A8" fill-rule="nonzero" opacity="0.661231884"></path>
            <path d="M238.5,142 C238.5,157.9 225.6,170.8 209.7,170.8 C193.8,170.8 180.9,157.9 180.9,142 C180.9,126.1 193.8,113.2 209.7,113.2 C225.6,113.2 238.5,126.1 238.5,142" id="Fill-36" fill="#00A2A8" fill-rule="nonzero" opacity="0.762737772"></path>
            <path d="M304.7,218.6 C304.7,226.5 298.3,233 290.3,233 C282.4,233 275.9,226.6 275.9,218.6 C275.9,210.7 282.3,204.2 290.3,204.2 C298.3,204.2 304.7,210.7 304.7,218.6" id="Fill-38" fill="#00A2A8" fill-rule="nonzero"></path>
            <path d="M391.4,42.7 C391.4,54.1 382.1,63.4 370.7,63.4 C359.3,63.4 350,54.1 350,42.7 C350,31.3 359.3,22 370.7,22 C382.1,22 391.4,31.2 391.4,42.7" id="Fill-40" fill="#00A2A8" fill-rule="nonzero" opacity="0.762737772"></path>
            <path d="M810.7,47.1 C810.7,54.3 804.9,60.1 797.7,60.1 C790.5,60.1 784.7,54.3 784.7,47.1 C784.7,39.9 790.5,34.1 797.7,34.1 C804.9,34.1 810.7,39.9 810.7,47.1" id="Fill-42" fill="#00A2A8" fill-rule="nonzero" opacity="0.762737772"></path>
            <path d="M595.8,355.4 C595.8,359 592.9,362 589.2,362 C585.6,362 582.6,359.1 582.6,355.4 C582.6,351.7 585.5,348.8 589.2,348.8 C592.9,348.9 595.8,351.8 595.8,355.4" id="Fill-44" fill="#00A2A8" fill-rule="nonzero"></path>
            <path d="M350.3,229.5 C350.3,231.4 348.7,233 346.8,233 C344.9,233 343.3,231.4 343.3,229.5 C343.3,227.6 344.9,226 346.8,226 C348.8,226 350.3,227.6 350.3,229.5" id="Fill-46" fill="#00A2A8" fill-rule="nonzero"></path>
            <path d="M990.7,186.3 C990.7,188.2 989.1,189.8 987.2,189.8 C985.3,189.8 983.7,188.2 983.7,186.3 C983.7,184.4 985.3,182.8 987.2,182.8 C989.2,182.8 990.7,184.4 990.7,186.3" id="Fill-48" fill="#00A2A8" fill-rule="nonzero"></path>
            <path d="M1124.8,56.4 C1124.8,61.6 1120.6,65.7 1115.5,65.7 C1110.3,65.7 1106.2,61.5 1106.2,56.4 C1106.2,51.3 1110.4,47.1 1115.5,47.1 C1120.6,47.1 1124.8,51.3 1124.8,56.4" id="Fill-50" fill="#00A2A8" fill-rule="nonzero" opacity="0.762737772"></path>
            <path d="M1182.6,36.9 C1182.6,52.8 1169.7,65.7 1153.8,65.7 C1137.9,65.7 1125,52.8 1125,36.9 C1125,21 1137.9,8.1 1153.8,8.1 C1169.7,8.2 1182.6,21.1 1182.6,36.9" id="Fill-52" fill="#00A2A8" fill-rule="nonzero" opacity="0.762737772"></path>
            <path d="M1175.7,182.8 C1175.7,206.2 1156.8,225.1 1133.4,225.1 C1110,225.1 1091.1,206.2 1091.1,182.8 C1091.1,159.4 1110,140.5 1133.4,140.5 C1156.7,140.5 1175.7,159.4 1175.7,182.8" id="Fill-54" fill="#00A2A8" fill-rule="nonzero" opacity="0.720335145"></path>
            <path d="M917,195.1 C917,200 913.1,203.9 908.2,203.9 C903.3,203.9 899.4,200 899.4,195.1 C899.4,190.2 903.3,186.3 908.2,186.3 C913,186.3 917,190.2 917,195.1" id="Fill-56" fill="#00A2A8" fill-rule="nonzero" opacity="0.720335145"></path>
            <path d="M974.5,126.7 C974.5,133.4 969.1,138.8 962.4,138.8 C955.7,138.8 950.3,133.4 950.3,126.7 C950.3,120 955.7,114.6 962.4,114.6 C969.1,114.6 974.5,120 974.5,126.7" id="Fill-58" fill="#00A2A8" fill-rule="nonzero" opacity="0.720335145"></path>
            <path d="M1151.3,317.7 C1151.3,327.6 1143.3,335.6 1133.4,335.6 C1123.5,335.6 1115.5,327.6 1115.5,317.7 C1115.5,307.8 1123.5,299.8 1133.4,299.8 C1143.3,299.8 1151.3,307.8 1151.3,317.7" id="Fill-60" fill="#00A2A8" fill-rule="nonzero" opacity="0.661231884"></path>
            <g id="Fill-62-Clipped" transform="translate(1243.000000, 288.910000)">
                <mask id="mask-4" fill="white">
                    <use xlink:href="#path-3"></use>
                </mask>
                <g id="path-3"></g>
                <path d="M29.7,14.4 C29.7,22.3 23.3,28.8 15.3,28.8 C7.3,28.8 0.9,22.3 0.9,14.4 C0.9,6.5 7.3,0 15.3,0 C23.3,0 29.7,6.4 29.7,14.4" id="Fill-62" fill="#00A2A8" fill-rule="nonzero" opacity="0.661231884" mask="url(#mask-4)"></path>
            </g>
            <path d="M1004.5,34.1 C1004.5,41.3 998.7,47.1 991.5,47.1 C984.3,47.1 978.5,41.3 978.5,34.1 C978.5,26.9 984.3,21.1 991.5,21.1 C998.6,21 1004.5,26.9 1004.5,34.1" id="Fill-65" fill="#00A2A8" fill-rule="nonzero" opacity="0.762737772"></path>
            <path d="M392.6,384.2 C392.6,400.1 379.7,413 363.8,413 C347.9,413 335,400.1 335,384.2 C335,368.3 347.9,355.4 363.8,355.4 C379.7,355.4 392.6,368.4 392.6,384.2" id="Fill-11" fill="#00A2A8" fill-rule="nonzero" opacity="0.661231884"></path>
            <path d="M410,389.401253 C410,396.601253 404.2,402.401253 397,402.401253 C389.8,402.401253 384,396.601253 384,389.401253 C384,382.201253 389.8,376.401253 397,376.401253 C404.1,376.301253 410,382.201253 410,389.401253" id="Fill-65" fill="#00A2A8" fill-rule="nonzero" opacity="0.661231884"></path>
            <path d="M1176.5,186.3 C1176.5,188.2 1174.9,189.8 1173,189.8 C1171.1,189.8 1169.5,188.2 1169.5,186.3 C1169.5,184.4 1171.1,182.8 1173,182.8 C1174.9,182.8 1176.5,184.4 1176.5,186.3" id="Fill-67" fill="#00A2A8" fill-rule="nonzero"></path>
            <path d="M362,14.4 C362,20.1 357.4,24.8 351.6,24.8 C345.8,24.8 341.2,20.2 341.2,14.4 C341.2,8.6 345.8,4 351.6,4 C357.4,4 362,8.7 362,14.4" id="Fill-69" fill="#00A2A8" fill-rule="nonzero" opacity="0.762737772"></path>
        </g>
    </g>
</svg>