<?xml version="1.0" encoding="UTF-8"?>
<svg width="1024px" height="854px" viewBox="0 0 1024 854" version="1.1" xmlns="http://www.w3.org/2000/svg" xmlns:xlink="http://www.w3.org/1999/xlink">
    <!-- Generator: Sketch 42 (36781) - http://www.bohemiancoding.com/sketch -->
    <title>Group 2</title>
    <desc>Created with Sketch.</desc>
    <defs>
        <polygon id="path-1" points="0 0 0 122.827972 122.827972 122.827972 122.827972 0"></polygon>
        <polygon id="path-3" points="0 0 0 122.827972 122.827972 122.827972 122.827972 0"></polygon>
    </defs>
    <g id="Page-1" stroke="none" stroke-width="1" fill="none" fill-rule="evenodd" opacity="0.15">
        <g id="Group-2">
            <path d="M378.1,301.7 C378.1,315.8 366.7,327.1 352.7,327.1 C338.7,327.1 327.3,315.7 327.3,301.7 C327.3,287.7 338.7,276.3 352.7,276.3 C366.7,276.3 378.1,287.6 378.1,301.7" id="Fill-1" fill="#00A2A8" fill-rule="nonzero" opacity="0.661231884"></path>
            <path d="M343.4,113.2 C343.4,118.4 339.2,122.5 334.1,122.5 C328.9,122.5 324.8,118.3 324.8,113.2 C324.8,108.1 329,103.9 334.1,103.9 C339.2,103.9 343.4,108 343.4,113.2" id="Fill-3" fill="#00A2A8" fill-rule="nonzero" opacity="0.762737772"></path>
            <path d="M514.7,297 C514.7,302.2 510.5,306.3 505.4,306.3 C500.3,306.3 496.1,302.1 496.1,297 C496.1,291.8 500.3,287.7 505.4,287.7 C510.5,287.7 514.7,291.9 514.7,297" id="Fill-5" fill="#00A2A8" fill-rule="nonzero"></path>
            <path d="M138.4,268.7 C138.4,271.8 135.9,274.4 132.7,274.4 C129.6,274.4 127,271.9 127,268.7 C127,265.6 129.5,263 132.7,263 C135.8,263 138.4,265.6 138.4,268.7" id="Fill-7" fill="#00A2A8" fill-rule="nonzero" opacity="0.661231884"></path>
            <path d="M939,56.4 C939,61.6 934.8,65.7 929.7,65.7 C924.5,65.7 920.4,61.5 920.4,56.4 C920.4,51.3 924.6,47.1 929.7,47.1 C934.9,47.1 939,51.3 939,56.4" id="Fill-9" fill="#00A2A8" fill-rule="nonzero" opacity="0.762737772"></path>
            <path d="M987.3,29.6 C987.3,45.5 974.4,58.4 958.5,58.4 C942.6,58.4 929.7,45.5 929.7,29.6 C929.7,13.7 942.6,0.8 958.5,0.8 C974.4,0.8 987.3,13.8 987.3,29.6" id="Fill-11" fill="#00A2A8" fill-rule="nonzero" opacity="0.762737772"></path>
            <path d="M617.1,58.4 C617.1,72.5 605.7,83.9 591.6,83.9 C577.5,84 566,72.5 566,58.4 C566,44.3 577.4,32.9 591.5,32.9 C605.7,32.9 617.1,44.3 617.1,58.4" id="Fill-13" fill="#00A2A8" fill-rule="nonzero" opacity="0.762737772"></path>
            <path d="M722.4,14.4 C722.4,19.3 718.5,23.2 713.6,23.2 C708.7,23.2 704.8,19.3 704.8,14.4 C704.8,9.5 708.7,5.6 713.6,5.6 C718.5,5.6 722.4,9.6 722.4,14.4" id="Fill-15" fill="#00A2A8" fill-rule="nonzero" opacity="0.762737772"></path>
            <path d="M578.2,68.1 C578.2,74.8 572.8,80.2 566.1,80.2 C559.4,80.2 554,74.8 554,68.1 C554,61.4 559.5,56 566.1,56 C572.7,56 578.2,61.4 578.2,68.1" id="Fill-17" fill="#00A2A8" fill-rule="nonzero" opacity="0.762737772"></path>
            <path d="M181.5,278.9 C195.5,277.5 208.1,287.7 209.5,301.7 C210.9,315.7 200.7,328.3 186.7,329.7 C172.7,331.1 160.1,320.9 158.7,306.9 C157.3,292.9 167.5,280.4 181.5,278.9" id="Fill-19" fill="#00A2A8" fill-rule="nonzero" opacity="0.661231884"></path>
            <path d="M93.0677762,249.850635 C93.7677762,256.450635 88.9677762,262.350635 82.2677762,263.050635 C75.6677762,263.750635 69.7677762,258.950635 69.0677762,252.250635 C68.3677762,245.650635 73.1677762,239.750635 79.8677762,239.050635 C86.4677762,238.450635 92.3677762,243.250635 93.0677762,249.850635 Z" id="Fill-21" fill="#00A2A8" fill-rule="nonzero" opacity="0.661231884"></path>
            <path d="M1023.6,397.8 C1023.6,413.7 1010.7,426.6 994.8,426.6 C978.9,426.6 966,413.7 966,397.8 C966,381.9 978.9,369 994.8,369 C1010.7,369 1023.6,381.9 1023.6,397.8" id="Fill-23" fill-opacity="0.6" fill="#00A2A8" fill-rule="nonzero" opacity="0.661231884"></path>
            <path d="M421.8,291.1 C421.8,307 408.9,319.9 393,319.9 C377.1,319.9 364.2,307 364.2,291.1 C364.2,275.2 377.1,262.3 393,262.3 C409,262.4 421.8,275.2 421.8,291.1" id="Fill-25" fill="#00A2A8" fill-rule="nonzero" opacity="0.661231884"></path>
            <path d="M871.8,228.4 C871.8,267.8 839.8,299.8 800.4,299.8 C761,299.8 729,267.8 729,228.4 C729,189 761,157 800.4,157 C839.8,157 871.8,189 871.8,228.4" id="Fill-27" fill="#00A2A8" fill-rule="nonzero" opacity="0.6"></path>
            <g id="Fill-29-Clipped" transform="translate(0.000000, 19.000000)">
                <mask id="mask-2" fill="white">
                    <use xlink:href="#path-1"></use>
                </mask>
                <g id="path-1"></g>
                <path d="M122.827972,61.413986 C122.827972,95.3034965 95.3034965,122.827972 61.413986,122.827972 C27.5244755,122.827972 0,95.3034965 0,61.413986 C0,27.5244755 27.5244755,0 61.413986,0 C95.3034965,0 122.827972,27.4384615 122.827972,61.413986" id="Fill-29" fill="#00A2A8" fill-rule="nonzero" opacity="0.762737772" mask="url(#mask-2)"></path>
            </g>
            <path d="M819.8,362.901635 C819.8,368.401635 815.4,372.801635 809.9,372.801635 C804.4,372.801635 800,368.401635 800,362.901635 C800,357.401635 804.4,353.001635 809.9,353.001635 C815.4,352.901635 819.8,357.401635 819.8,362.901635" id="Fill-32" fill="#00A2A8" fill-rule="nonzero" opacity="0.661231884"></path>
            <path d="M978.8,373.4 C978.8,381.3 972.4,387.8 964.4,387.8 C956.5,387.8 950,381.4 950,373.4 C950,365.4 956.4,359 964.4,359 C972.3,359.1 978.8,365.5 978.8,373.4" id="Fill-34" fill="#00A2A8" fill-rule="nonzero" opacity="0.661231884"></path>
            <path d="M238.5,142 C238.5,157.9 225.6,170.8 209.7,170.8 C193.8,170.8 180.9,157.9 180.9,142 C180.9,126.1 193.8,113.2 209.7,113.2 C225.6,113.2 238.5,126.1 238.5,142" id="Fill-36" fill="#00A2A8" fill-rule="nonzero" opacity="0.762737772"></path>
            <path d="M304.7,218.6 C304.7,226.5 298.3,233 290.3,233 C282.4,233 275.9,226.6 275.9,218.6 C275.9,210.7 282.3,204.2 290.3,204.2 C298.3,204.2 304.7,210.7 304.7,218.6" id="Fill-38" fill="#00A2A8" fill-rule="nonzero"></path>
            <g id="Group" transform="translate(350.000000, 22.000000)" fill-rule="nonzero" fill="#00A2A8" opacity="0.762737772">
                <path d="M41.4,20.7 C41.4,32.1 32.1,41.4 20.7,41.4 C9.3,41.4 0,32.1 0,20.7 C0,9.3 9.3,0 20.7,0 C32.1,0 41.4,9.2 41.4,20.7" id="Fill-40"></path>
            </g>
            <path d="M810.7,47.1 C810.7,54.3 804.9,60.1 797.7,60.1 C790.5,60.1 784.7,54.3 784.7,47.1 C784.7,39.9 790.5,34.1 797.7,34.1 C804.9,34.1 810.7,39.9 810.7,47.1" id="Fill-42" fill="#00A2A8" fill-rule="nonzero" opacity="0.762737772"></path>
            <path d="M595.8,355.4 C595.8,359 592.9,362 589.2,362 C585.6,362 582.6,359.1 582.6,355.4 C582.6,351.7 585.5,348.8 589.2,348.8 C592.9,348.9 595.8,351.8 595.8,355.4" id="Fill-44" fill="#00A2A8" fill-rule="nonzero"></path>
            <path d="M350.3,229.5 C350.3,231.4 348.7,233 346.8,233 C344.9,233 343.3,231.4 343.3,229.5 C343.3,227.6 344.9,226 346.8,226 C348.8,226 350.3,227.6 350.3,229.5" id="Fill-46" fill="#00A2A8" fill-rule="nonzero"></path>
            <path d="M990.7,186.3 C990.7,188.2 989.1,189.8 987.2,189.8 C985.3,189.8 983.7,188.2 983.7,186.3 C983.7,184.4 985.3,182.8 987.2,182.8 C989.2,182.8 990.7,184.4 990.7,186.3" id="Fill-48" fill="#00A2A8" fill-rule="nonzero"></path>
            <path d="M917,195.1 C917,200 913.1,203.9 908.2,203.9 C903.3,203.9 899.4,200 899.4,195.1 C899.4,190.2 903.3,186.3 908.2,186.3 C913,186.3 917,190.2 917,195.1" id="Fill-56" fill="#00A2A8" fill-rule="nonzero" opacity="0.720335145"></path>
            <path d="M974.5,126.7 C974.5,133.4 969.1,138.8 962.4,138.8 C955.7,138.8 950.3,133.4 950.3,126.7 C950.3,120 955.7,114.6 962.4,114.6 C969.1,114.6 974.5,120 974.5,126.7" id="Fill-58" fill="#00A2A8" fill-rule="nonzero" opacity="0.720335145"></path>
            <path d="M1004.5,34.1 C1004.5,41.3 998.7,47.1 991.5,47.1 C984.3,47.1 978.5,41.3 978.5,34.1 C978.5,26.9 984.3,21.1 991.5,21.1 C998.6,21 1004.5,26.9 1004.5,34.1" id="Fill-65" fill="#00A2A8" fill-rule="nonzero" opacity="0.762737772"></path>
            <path d="M392.6,384.2 C392.6,400.1 379.7,413 363.8,413 C347.9,413 335,400.1 335,384.2 C335,368.3 347.9,355.4 363.8,355.4 C379.7,355.4 392.6,368.4 392.6,384.2" id="Fill-11" fill="#00A2A8" fill-rule="nonzero" opacity="0.661231884"></path>
            <path d="M410,389.401253 C410,396.601253 404.2,402.401253 397,402.401253 C389.8,402.401253 384,396.601253 384,389.401253 C384,382.201253 389.8,376.401253 397,376.401253 C404.1,376.301253 410,382.201253 410,389.401253" id="Fill-65" fill="#00A2A8" fill-rule="nonzero" opacity="0.661231884"></path>
            <path d="M362,14.4 C362,20.1 357.4,24.8 351.6,24.8 C345.8,24.8 341.2,20.2 341.2,14.4 C341.2,8.6 345.8,4 351.6,4 C357.4,4 362,8.7 362,14.4" id="Fill-69" fill="#00A2A8" fill-rule="nonzero" opacity="0.762737772"></path>
            <path d="M378.1,728.7 C378.1,742.8 366.7,754.1 352.7,754.1 C338.7,754.1 327.3,742.7 327.3,728.7 C327.3,714.7 338.7,703.3 352.7,703.3 C366.7,703.3 378.1,714.6 378.1,728.7" id="Fill-1" fill="#00A2A8" fill-rule="nonzero" opacity="0.661231884"></path>
            <path d="M343.4,540.2 C343.4,545.4 339.2,549.5 334.1,549.5 C328.9,549.5 324.8,545.3 324.8,540.2 C324.8,535.1 329,530.9 334.1,530.9 C339.2,530.9 343.4,535 343.4,540.2" id="Fill-3" fill="#00A2A8" fill-rule="nonzero" opacity="0.762737772"></path>
            <path d="M514.7,724 C514.7,729.2 510.5,733.3 505.4,733.3 C500.3,733.3 496.1,729.1 496.1,724 C496.1,718.8 500.3,714.7 505.4,714.7 C510.5,714.7 514.7,718.9 514.7,724" id="Fill-5" fill="#00A2A8" fill-rule="nonzero"></path>
            <path d="M138.4,695.7 C138.4,698.8 135.9,701.4 132.7,701.4 C129.6,701.4 127,698.9 127,695.7 C127,692.6 129.5,690 132.7,690 C135.8,690 138.4,692.6 138.4,695.7" id="Fill-7" fill="#00A2A8" fill-rule="nonzero" opacity="0.661231884"></path>
            <path d="M939,483.4 C939,488.6 934.8,492.7 929.7,492.7 C924.5,492.7 920.4,488.5 920.4,483.4 C920.4,478.3 924.6,474.1 929.7,474.1 C934.9,474.1 939,478.3 939,483.4" id="Fill-9" fill="#00A2A8" fill-rule="nonzero" opacity="0.762737772"></path>
            <path d="M987.3,456.6 C987.3,472.5 974.4,485.4 958.5,485.4 C942.6,485.4 929.7,472.5 929.7,456.6 C929.7,440.7 942.6,427.8 958.5,427.8 C974.4,427.8 987.3,440.8 987.3,456.6" id="Fill-11" fill="#00A2A8" fill-rule="nonzero" opacity="0.762737772"></path>
            <path d="M617.1,485.4 C617.1,499.5 605.7,510.9 591.6,510.9 C577.5,511 566,499.5 566,485.4 C566,471.3 577.4,459.9 591.5,459.9 C605.7,459.9 617.1,471.3 617.1,485.4" id="Fill-13" fill="#00A2A8" fill-rule="nonzero" opacity="0.762737772"></path>
            <path d="M722.4,441.4 C722.4,446.3 718.5,450.2 713.6,450.2 C708.7,450.2 704.8,446.3 704.8,441.4 C704.8,436.5 708.7,432.6 713.6,432.6 C718.5,432.6 722.4,436.6 722.4,441.4" id="Fill-15" fill="#00A2A8" fill-rule="nonzero" opacity="0.762737772"></path>
            <path d="M578.2,495.1 C578.2,501.8 572.8,507.2 566.1,507.2 C559.4,507.2 554,501.8 554,495.1 C554,488.4 559.5,483 566.1,483 C572.7,483 578.2,488.4 578.2,495.1" id="Fill-17" fill="#00A2A8" fill-rule="nonzero" opacity="0.762737772"></path>
            <path d="M181.5,705.9 C195.5,704.5 208.1,714.7 209.5,728.7 C210.9,742.7 200.7,755.3 186.7,756.7 C172.7,758.1 160.1,747.9 158.7,733.9 C157.3,719.9 167.5,707.4 181.5,705.9" id="Fill-19" fill="#00A2A8" fill-rule="nonzero" opacity="0.661231884"></path>
            <path d="M93.0677762,676.850635 C93.7677762,683.450635 88.9677762,689.350635 82.2677762,690.050635 C75.6677762,690.750635 69.7677762,685.950635 69.0677762,679.250635 C68.3677762,672.650635 73.1677762,666.750635 79.8677762,666.050635 C86.4677762,665.450635 92.3677762,670.250635 93.0677762,676.850635 Z" id="Fill-21" fill="#00A2A8" fill-rule="nonzero" opacity="0.661231884"></path>
            <path d="M1023.6,824.8 C1023.6,840.7 1010.7,853.6 994.8,853.6 C978.9,853.6 966,840.7 966,824.8 C966,808.9 978.9,796 994.8,796 C1010.7,796 1023.6,808.9 1023.6,824.8" id="Fill-23" fill-opacity="0.6" fill="#00A2A8" fill-rule="nonzero" opacity="0.661231884"></path>
            <path d="M421.8,718.1 C421.8,734 408.9,746.9 393,746.9 C377.1,746.9 364.2,734 364.2,718.1 C364.2,702.2 377.1,689.3 393,689.3 C409,689.4 421.8,702.2 421.8,718.1" id="Fill-25" fill="#00A2A8" fill-rule="nonzero" opacity="0.661231884"></path>
            <path d="M871.8,655.4 C871.8,694.8 839.8,726.8 800.4,726.8 C761,726.8 729,694.8 729,655.4 C729,616 761,584 800.4,584 C839.8,584 871.8,616 871.8,655.4" id="Fill-27" fill="#00A2A8" fill-rule="nonzero" opacity="0.6"></path>
            <g id="Fill-29-Clipped" transform="translate(0.000000, 446.000000)">
                <mask id="mask-4" fill="white">
                    <use xlink:href="#path-3"></use>
                </mask>
                <g id="path-1"></g>
                <path d="M122.827972,61.413986 C122.827972,95.3034965 95.3034965,122.827972 61.413986,122.827972 C27.5244755,122.827972 0,95.3034965 0,61.413986 C0,27.5244755 27.5244755,0 61.413986,0 C95.3034965,0 122.827972,27.4384615 122.827972,61.413986" id="Fill-29" fill="#00A2A8" fill-rule="nonzero" opacity="0.762737772" mask="url(#mask-4)"></path>
            </g>
            <path d="M819.8,789.901635 C819.8,795.401635 815.4,799.801635 809.9,799.801635 C804.4,799.801635 800,795.401635 800,789.901635 C800,784.401635 804.4,780.001635 809.9,780.001635 C815.4,779.901635 819.8,784.401635 819.8,789.901635" id="Fill-32" fill="#00A2A8" fill-rule="nonzero" opacity="0.661231884"></path>
            <path d="M978.8,800.4 C978.8,808.3 972.4,814.8 964.4,814.8 C956.5,814.8 950,808.4 950,800.4 C950,792.4 956.4,786 964.4,786 C972.3,786.1 978.8,792.5 978.8,800.4" id="Fill-34" fill="#00A2A8" fill-rule="nonzero" opacity="0.661231884"></path>
            <path d="M238.5,569 C238.5,584.9 225.6,597.8 209.7,597.8 C193.8,597.8 180.9,584.9 180.9,569 C180.9,553.1 193.8,540.2 209.7,540.2 C225.6,540.2 238.5,553.1 238.5,569" id="Fill-36" fill="#00A2A8" fill-rule="nonzero" opacity="0.762737772"></path>
            <path d="M304.7,645.6 C304.7,653.5 298.3,660 290.3,660 C282.4,660 275.9,653.6 275.9,645.6 C275.9,637.7 282.3,631.2 290.3,631.2 C298.3,631.2 304.7,637.7 304.7,645.6" id="Fill-38" fill="#00A2A8" fill-rule="nonzero"></path>
            <path d="M391.4,469.7 C391.4,481.1 382.1,490.4 370.7,490.4 C359.3,490.4 350,481.1 350,469.7 C350,458.3 359.3,449 370.7,449 C382.1,449 391.4,458.2 391.4,469.7" id="Fill-40" fill="#00A2A8" fill-rule="nonzero" opacity="0.762737772"></path>
            <path d="M810.7,474.1 C810.7,481.3 804.9,487.1 797.7,487.1 C790.5,487.1 784.7,481.3 784.7,474.1 C784.7,466.9 790.5,461.1 797.7,461.1 C804.9,461.1 810.7,466.9 810.7,474.1" id="Fill-42" fill="#00A2A8" fill-rule="nonzero" opacity="0.762737772"></path>
            <path d="M595.8,782.4 C595.8,786 592.9,789 589.2,789 C585.6,789 582.6,786.1 582.6,782.4 C582.6,778.7 585.5,775.8 589.2,775.8 C592.9,775.9 595.8,778.8 595.8,782.4" id="Fill-44" fill="#00A2A8" fill-rule="nonzero"></path>
            <path d="M350.3,656.5 C350.3,658.4 348.7,660 346.8,660 C344.9,660 343.3,658.4 343.3,656.5 C343.3,654.6 344.9,653 346.8,653 C348.8,653 350.3,654.6 350.3,656.5" id="Fill-46" fill="#00A2A8" fill-rule="nonzero"></path>
            <path d="M990.7,613.3 C990.7,615.2 989.1,616.8 987.2,616.8 C985.3,616.8 983.7,615.2 983.7,613.3 C983.7,611.4 985.3,609.8 987.2,609.8 C989.2,609.8 990.7,611.4 990.7,613.3" id="Fill-48" fill="#00A2A8" fill-rule="nonzero"></path>
            <path d="M917,622.1 C917,627 913.1,630.9 908.2,630.9 C903.3,630.9 899.4,627 899.4,622.1 C899.4,617.2 903.3,613.3 908.2,613.3 C913,613.3 917,617.2 917,622.1" id="Fill-56" fill="#00A2A8" fill-rule="nonzero" opacity="0.720335145"></path>
            <path d="M974.5,553.7 C974.5,560.4 969.1,565.8 962.4,565.8 C955.7,565.8 950.3,560.4 950.3,553.7 C950.3,547 955.7,541.6 962.4,541.6 C969.1,541.6 974.5,547 974.5,553.7" id="Fill-58" fill="#00A2A8" fill-rule="nonzero" opacity="0.720335145"></path>
            <path d="M1004.5,461.1 C1004.5,468.3 998.7,474.1 991.5,474.1 C984.3,474.1 978.5,468.3 978.5,461.1 C978.5,453.9 984.3,448.1 991.5,448.1 C998.6,448 1004.5,453.9 1004.5,461.1" id="Fill-65" fill="#00A2A8" fill-rule="nonzero" opacity="0.762737772"></path>
            <path d="M392.6,811.2 C392.6,827.1 379.7,840 363.8,840 C347.9,840 335,827.1 335,811.2 C335,795.3 347.9,782.4 363.8,782.4 C379.7,782.4 392.6,795.4 392.6,811.2" id="Fill-11" fill="#00A2A8" fill-rule="nonzero" opacity="0.661231884"></path>
            <path d="M362,441.4 C362,447.1 357.4,451.8 351.6,451.8 C345.8,451.8 341.2,447.2 341.2,441.4 C341.2,435.6 345.8,431 351.6,431 C357.4,431 362,435.7 362,441.4" id="Fill-69" fill="#00A2A8" fill-rule="nonzero" opacity="0.762737772"></path>
            <path d="M410,816.401253 C410,823.601253 404.2,829.401253 397,829.401253 C389.8,829.401253 384,823.601253 384,816.401253 C384,809.201253 389.8,803.401253 397,803.401253 C404.1,803.301253 410,809.201253 410,816.401253" id="Fill-65" fill="#00A2A8" fill-rule="nonzero" opacity="0.27977808"></path>
        </g>
    </g>
</svg>