<?xml version="1.0" encoding="utf-8"?>
<!-- Generator: Adobe Illustrator 18.0.0, SVG Export Plug-In . SVG Version: 6.00 Build 0)  -->
<!DOCTYPE svg PUBLIC "-//W3C//DTD SVG 1.1//EN" "http://www.w3.org/Graphics/SVG/1.1/DTD/svg11.dtd">
<svg version="1.1" id="Capa_1" xmlns="http://www.w3.org/2000/svg" xmlns:xlink="http://www.w3.org/1999/xlink" x="0px" y="0px"
	 viewBox="0 0 1293 506.7" enable-background="new 0 0 1293 506.7" xml:space="preserve">
<title>burbujas</title>
<desc>Created with Sketch.</desc>
<g id="Page-1" opacity="0.2">
	<g id="Clima" transform="translate(-84.000000, -637.000000)">
		<g id="background-top-copy" transform="translate(1.000000, 1.000000)">
			<g id="burbujas" transform="translate(83.000000, 636.000000)">
				<path id="Fill-1" fill="#00A2A8" d="M398.1,309.7c0,14.1-11.4,25.4-25.4,25.4s-25.4-11.4-25.4-25.4s11.4-25.4,25.4-25.4
					S398.1,295.6,398.1,309.7"/>
				<path id="Fill-3" fill="#00A2A8" d="M363.4,121.2c0,5.2-4.2,9.3-9.3,9.3c-5.2,0-9.3-4.2-9.3-9.3s4.2-9.3,9.3-9.3
					C359.2,111.9,363.4,116,363.4,121.2"/>
				<path id="Fill-5" fill="#00A2A8" d="M534.7,305c0,5.2-4.2,9.3-9.3,9.3s-9.3-4.2-9.3-9.3c0-5.2,4.2-9.3,9.3-9.3
					S534.7,299.9,534.7,305"/>
				<path id="Fill-7" fill="#00A2A8" d="M229.7,326.7c0,3.1-2.5,5.7-5.7,5.7c-3.1,0-5.7-2.5-5.7-5.7c0-3.1,2.5-5.7,5.7-5.7
					C227.1,321,229.7,323.6,229.7,326.7"/>
				<path id="Fill-9" fill="#00A2A8" d="M959,64.4c0,5.2-4.2,9.3-9.3,9.3c-5.2,0-9.3-4.2-9.3-9.3s4.2-9.3,9.3-9.3
					C954.9,55.1,959,59.3,959,64.4"/>
				<path id="Fill-11" opacity="0.6" fill="#00A2A8" d="M1007.3,37.6c0,15.9-12.9,28.8-28.8,28.8s-28.8-12.9-28.8-28.8
					s12.9-28.8,28.8-28.8S1007.3,21.8,1007.3,37.6"/>
				<path id="Fill-13" fill="#00A2A8" d="M637.1,66.4c0,14.1-11.4,25.5-25.5,25.5C597.5,92,586,80.5,586,66.4s11.4-25.5,25.5-25.5
					C625.7,40.9,637.1,52.3,637.1,66.4"/>
				<path id="Fill-15" fill="#00A2A8" d="M742.4,22.4c0,4.9-3.9,8.8-8.8,8.8s-8.8-3.9-8.8-8.8s3.9-8.8,8.8-8.8
					S742.4,17.6,742.4,22.4"/>
				<path id="Fill-17" fill="#00A2A8" d="M611.6,12.1c0,6.7-5.4,12.1-12.1,12.1s-12.1-5.4-12.1-12.1S592.9,0,599.5,0
					S611.6,5.4,611.6,12.1"/>
				<path id="Fill-19" fill="#00A2A8" d="M201.5,286.9c14-1.4,26.6,8.8,28,22.8c1.4,14-8.8,26.6-22.8,28c-14,1.4-26.6-8.8-28-22.8
					C177.3,300.9,187.5,288.4,201.5,286.9"/>
				<path id="Fill-21" fill="#00A2A8" d="M171.5,280.9c0.7,6.6-4.1,12.5-10.8,13.2c-6.6,0.7-12.5-4.1-13.2-10.8
					c-0.7-6.6,4.1-12.5,10.8-13.2C164.9,269.5,170.8,274.3,171.5,280.9z"/>
				<path id="Fill-23" fill="#00A2A8" fill-opacity="0.6" d="M1061.3,477.9c0,15.9-12.9,28.8-28.8,28.8s-28.8-12.9-28.8-28.8
					c0-15.9,12.9-28.8,28.8-28.8S1061.3,462,1061.3,477.9"/>
				<path id="Fill-25" opacity="0.6" fill="#00A2A8" d="M441.8,299.1c0,15.9-12.9,28.8-28.8,28.8c-15.9,0-28.8-12.9-28.8-28.8
					c0-15.9,12.9-28.8,28.8-28.8C429,270.4,441.8,283.2,441.8,299.1"/>
				<path id="Fill-27" opacity="0.6" fill="#00A2A8" d="M927.6,406.5c0,39.4-32,71.4-71.4,71.4c-39.4,0-71.4-32-71.4-71.4
					s32-71.4,71.4-71.4C895.6,335.1,927.6,367.1,927.6,406.5"/>
				<g id="Group-31" transform="translate(0.000000, 7.910000)" opacity="0.6">
					<g id="Clip-30">
					</g>
					<defs>
						<filter id="Adobe_OpacityMaskFilter" filterUnits="userSpaceOnUse" x="0" y="1" width="142.8" height="142.8">
							<feColorMatrix  type="matrix" values="1 0 0 0 0  0 1 0 0 0  0 0 1 0 0  0 0 0 1 0"/>
						</filter>
					</defs>
					<mask maskUnits="userSpaceOnUse" x="0" y="1" width="142.8" height="142.8" id="mask-2">
						<g filter="url(#Adobe_OpacityMaskFilter)">
							<polygon id="path-1" fill="#FFFFFF" points="0,1 0,143.8 142.8,143.8 142.8,1 							"/>
						</g>
					</mask>
					<path id="Fill-29" mask="url(#mask-2)" fill="#00A2A8" d="M142.8,72.4c0,39.4-32,71.4-71.4,71.4C32,143.8,0,111.8,0,72.4
						S32,1,71.4,1C110.8,1,142.8,32.9,142.8,72.4"/>
				</g>
				<path id="Fill-32" fill="#00A2A8" d="M840.6,373.4c0,5.5-4.4,9.9-9.9,9.9c-5.5,0-9.9-4.4-9.9-9.9c0-5.5,4.4-9.9,9.9-9.9
					C836.2,363.4,840.6,367.9,840.6,373.4"/>
				<path id="Fill-34" fill="#00A2A8" d="M1007.3,284.7c0,7.9-6.4,14.4-14.4,14.4c-7.9,0-14.4-6.4-14.4-14.4s6.4-14.4,14.4-14.4
					C1000.8,270.4,1007.3,276.8,1007.3,284.7"/>
				<path id="Fill-36" fill="#00A2A8" d="M258.5,150c0,15.9-12.9,28.8-28.8,28.8s-28.8-12.9-28.8-28.8s12.9-28.8,28.8-28.8
					S258.5,134.1,258.5,150"/>
				<path id="Fill-38" fill="#00A2A8" d="M324.7,226.6c0,7.9-6.4,14.4-14.4,14.4c-7.9,0-14.4-6.4-14.4-14.4
					c0-7.9,6.4-14.4,14.4-14.4C318.3,212.2,324.7,218.7,324.7,226.6"/>
				<path id="Fill-40" fill="#00A2A8" d="M413.1,53.5c0,11.4-9.3,20.7-20.7,20.7c-11.4,0-20.7-9.3-20.7-20.7s9.3-20.7,20.7-20.7
					C403.8,32.8,413.1,42,413.1,53.5"/>
				<path id="Fill-42" fill="#00A2A8" d="M830.7,55.1c0,7.2-5.8,13-13,13c-7.2,0-13-5.8-13-13s5.8-13,13-13
					C824.9,42.1,830.7,47.9,830.7,55.1"/>
				<path id="Fill-44" fill="#00A2A8" d="M615.8,363.4c0,3.6-2.9,6.6-6.6,6.6c-3.6,0-6.6-2.9-6.6-6.6s2.9-6.6,6.6-6.6
					C612.9,356.9,615.8,359.8,615.8,363.4"/>
				<path id="Fill-46" fill="#00A2A8" d="M370.3,237.5c0,1.9-1.6,3.5-3.5,3.5c-1.9,0-3.5-1.6-3.5-3.5c0-1.9,1.6-3.5,3.5-3.5
					C368.8,234,370.3,235.6,370.3,237.5"/>
				<path id="Fill-48" fill="#00A2A8" d="M1010.7,194.3c0,1.9-1.6,3.5-3.5,3.5c-1.9,0-3.5-1.6-3.5-3.5s1.6-3.5,3.5-3.5
					C1009.2,190.8,1010.7,192.4,1010.7,194.3"/>
				<path id="Fill-50" fill="#00A2A8" d="M1144.8,64.4c0,5.2-4.2,9.3-9.3,9.3c-5.2,0-9.3-4.2-9.3-9.3s4.2-9.3,9.3-9.3
					C1140.6,55.1,1144.8,59.3,1144.8,64.4"/>
				<path id="Fill-52" fill="#00A2A8" d="M1193,37.6c0,15.9-12.9,28.8-28.8,28.8c-15.9,0-28.8-12.9-28.8-28.8s12.9-28.8,28.8-28.8
					C1180.1,8.9,1193,21.8,1193,37.6"/>
				<path id="Fill-54" opacity="0.6" fill="#00A2A8" d="M1195.7,190.8c0,23.4-18.9,42.3-42.3,42.3c-23.4,0-42.3-18.9-42.3-42.3
					s18.9-42.3,42.3-42.3C1176.7,148.5,1195.7,167.4,1195.7,190.8"/>
				<path id="Fill-56" fill="#00A2A8" d="M937,203.1c0,4.9-3.9,8.8-8.8,8.8c-4.9,0-8.8-3.9-8.8-8.8c0-4.9,3.9-8.8,8.8-8.8
					C933,194.3,937,198.2,937,203.1"/>
				<path id="Fill-58" fill="#00A2A8" d="M994.5,134.7c0,6.7-5.4,12.1-12.1,12.1c-6.7,0-12.1-5.4-12.1-12.1s5.4-12.1,12.1-12.1
					C989.1,122.6,994.5,128,994.5,134.7"/>
				<path id="Fill-60" fill="#00A2A8" d="M1171.3,325.7c0,9.9-8,17.9-17.9,17.9s-17.9-8-17.9-17.9s8-17.9,17.9-17.9
					S1171.3,315.8,1171.3,325.7"/>
				<g id="Group-64" transform="translate(1263.000000, 295.910000)">
					<g id="Clip-63">
					</g>
					<defs>
						<filter id="Adobe_OpacityMaskFilter_1_" filterUnits="userSpaceOnUse" x="0.9" y="1" width="28.8" height="28.8">
							<feColorMatrix  type="matrix" values="1 0 0 0 0  0 1 0 0 0  0 0 1 0 0  0 0 0 1 0"/>
						</filter>
					</defs>
					<mask maskUnits="userSpaceOnUse" x="0.9" y="1" width="28.8" height="28.8" id="mask-4">
						<g filter="url(#Adobe_OpacityMaskFilter_1_)">
							<polygon id="path-3" fill="#FFFFFF" points="29.7,29.8 29.7,1 0.9,1 0.9,29.8 							"/>
						</g>
					</mask>
					<path id="Fill-62" mask="url(#mask-4)" fill="#00A2A8" d="M29.7,15.4c0,7.9-6.4,14.4-14.4,14.4S0.9,23.3,0.9,15.4S7.3,1,15.3,1
						S29.7,7.4,29.7,15.4"/>
				</g>
				<path id="Fill-65" fill="#00A2A8" d="M1024.5,42.1c0,7.2-5.8,13-13,13c-7.2,0-13-5.8-13-13s5.8-13,13-13
					C1018.6,29,1024.5,34.9,1024.5,42.1"/>
				<path id="Fill-67" fill="#00A2A8" d="M1196.5,194.3c0,1.9-1.6,3.5-3.5,3.5s-3.5-1.6-3.5-3.5s1.6-3.5,3.5-3.5
					S1196.5,192.4,1196.5,194.3"/>
				<path id="Fill-69" fill="#00A2A8" d="M382,22.4c0,5.7-4.6,10.4-10.4,10.4s-10.4-4.6-10.4-10.4s4.6-10.4,10.4-10.4
					S382,16.7,382,22.4"/>
			</g>
		</g>
	</g>
</g>
</svg>
