<?xml version="1.0" encoding="utf-8"?>
<!-- Generator: Adobe Illustrator 18.0.0, SVG Export Plug-In . SVG Version: 6.00 Build 0)  -->
<!DOCTYPE svg PUBLIC "-//W3C//DTD SVG 1.1//EN" "http://www.w3.org/Graphics/SVG/1.1/DTD/svg11.dtd">
<svg version="1.1" id="Capa_1" xmlns="http://www.w3.org/2000/svg" xmlns:xlink="http://www.w3.org/1999/xlink" x="0px" y="0px"
	 viewBox="-22 0 1461 479" enable-background="new -22 0 1461 479" xml:space="preserve">
<title>Page 1</title>
<desc>Created with Sketch.</desc>
<g id="Page-1_1_">
	<g id="Clima" transform="translate(0.000000, -4424.000000)">
		<g id="background3" transform="translate(-22.000000, 4424.000000)">
			<path id="Page-1" fill="#071A2A" d="M573.2,1.4h-17.6l-2,1.2l-7.6,0.9l-19.5,0.9v12.5h-4.9v1.7l1.1,3.6l-2.7,1.7l1.1,3.6
				l-2.7,1.7l1.1,3.6l-2.7,1.7l1.1,3.6l-2.7,1.7l1.1,3.6l-2.7,1.7l1.1,3.6l-2.7,1.7l1.1,3.6l-2.7,1.7l2.7,3.6l-4.3,1.7l1.1,3.6
				l-2.7,1.7l1.1,3.6l-2.7,1.7l1.1,95.4H490v35l-1.7-53.3h-23.3v7.2l-3.4-13.4h-11.7V256l-3.3-134.4l-28.7-3.8l-21.7,3l-7,0.8v121.2
				l-2.6,47.2h-5.7v-63.3l-4.4-4.6v-78.4l-34.4,0l-5-3.1l-53,2.3l-25.5-4.8l-17.4,0.2l-11.6-4.5l-2.6,4v14.7h-5.3v-2.3l-11.6-6.2
				l-7.6,6.2l-2.1-4.3l-0.8,4.3l-1,2.3h-7.9v6.9l-3.7,3.4l-1.6,3.1l1.6,3.1l-1.6,3.1l1.6,3.1l-1.6,3.1l1.6,3.1l-1.6,3.1l1.6,3.1
				l-1.6,3.1l1.6,3.1l-1.6,3.1l1.6,3.1l-1.6,3.1l1.6,3.1l-1.6,3.1l1.6,3.1l-1.6,3.1l1.6,3.1l-1.6,3.1l1.6,3.1l-1.6,3.1l1.6,3.1
				l-1.6,3.1l1.6,3.1h-5.6l-0.9,3l-0.8,1.6h-7.8v-1.3l-4.3-1.3h-5.7v2.6l-0.6,4v5.7v18.9l-2.8-5.7l-1.5-2.4l-2.4,2.4l-0.9,2.4
				c-2.4,2.1-5.1,3.4-7.9,4.4V202l-3.1-3.1l-4.4-27.7l-5.4-7.2l2-2.4h-7.1v-2.7c-5-2.2-7-4.4-10.4-5.4l-4.5-1.1l-5-0.9l-3,2.1h-6.5
				l-1.1,2.8l1.1,2.2l-1.5,3.1H86.8v2.4l1.1,2.8l-3,1.7l-2.4,2l1.2,2l-1.2,2l1.2,2l-1.2,2l1.2,2l-1.2,2l1.2,2l-1.2,2l1.2,2l-1.2,2
				l1.2,2l-1.2,2l1.2,2l-1.2,2l1.2,2l-1.2,2l1.2,2l-1.2,2l1.2,2l-1.2,2l1.2,2l-1.2,2l1.2,2l-1.2,2l1.2,2l-1.2,2l1.2,2l-1.2,2l1.2,2
				l-1.2,2l1.2,2l-1.2,2l1.2,2l-1.2,2l1.2,2l-1.2,2l1.2,2l-1.2,2l1.2,2l-1.2,2l1.2,2l-1.2,2l1.2,2l-1.2,2l1.2,2l-1.2,2l1.2,2l-1.2,2
				l-3.4,11.6l-1.9,5l-6.3-0.8v-20l-6.2-0.9L64,195.1l-1.7-5l-3.3-6.9c-2.3-3.8-6-6-11.1-6.6c-7.1-0.2-17.1-1-23.5,4l-4,4.8
				l-3.3,1.4l-2.6,6.5l-1.2,1.5v93.1L0,290v189h1461V212.1h-14.6v-3.8h-9.5v3.8h-15.5v-15.4h-24.4v-3.3h-38.7v-59.7h-10.9l-5.6-0.7
				v-1.3l-1.4-1.3l-2.2,1.3h-5.3v1.3l-2.3-4.4l-1.5,4.4l-2.5-1.4l-2.7,1.4l-4.2-3.3l-1.3,3.3h-8.4l-8.4,0.7v90.5c-1.6,0-3.3,0-5,0
				c-1.1,0-3.4-62-3.4-62h-11.2l-13.8,2v2.4h-9.1v4.6l-3.6,17.1h-7.9v14.2l1.5,22.8c-3.1,0.2-6,0.4-8.7,0.6v-10.4l-2.2-9.5l-1.8-4.6
				l-1.3-1.8l-9.3-13.5l-12.1,13.5v1.8l-1.3,4.6l-2.3,9.5l-4.4,3.4h-4.7v-2.3h-6.3v-2.2h-4.6v2.2h-5.2v-8.2h-11.2V207h-10.1v1.4
				h-8.2v8.2h-8.4v-36.2l1.4-2.2v-10l-5-0.9l5.2-0.1l-2.7-3.4l0.4-1.2l-0.6-3.4l-0.1,3l-0.1,1.7l-1.2,2.3l-0.9-11.5l2.3-1.8
				l-2.5-1.5l-0.5-2.6l0-2.2l-0.8-5.5l-1.2,4.6l-0.4,2.2l-2.2-6.6l-0.6-1.4v-15.6l-0.3-2.4l-0.3-3.2l0-2.7l-0.4-2.9l-0.2,2.3
				l-0.1,2.3l-0.8-4.8l-0.4-2.6c-0.1-2.7-1.4-5.1-3.2-6.1l0.2-1.4l-0.4-4.7c0.1-1.2-0.3-1.6-0.7-1.9c-0.2-0.6-0.5-1.1-0.8-1.3
				l-0.1-3.1L1130,88c0.9-0.9-0.3-1.3,0.1-1.5c1.2-0.6,1.4-1.3,0.7-1.4c-0.8-0.8-1-2.4-1-2.4l0,1.5c-0.9,0.5,0,1.3,0,1.3
				c-0.9,1.2-1.1,1.4-1.3,1.3c0.3,0.9,0.6,1,1,1.2c0.1,0,0.2,2.5,0.2,2.5l-0.1,4.2c-0.3,0.2-0.6,0.7-0.8,1.3
				c-0.4,0.3-0.8,0.7-0.9,1.2l0.2,5.4l-0.1,1.4c-1.8,1-3.1,3.4-3.1,6.1c0,0-0.1,1.8-0.1,1.8l-0.4,5.6l-0.8-1.6l-0.3-2.9l-0.2,2.3
				l-0.1,2.3l0,4.3l-0.3,1.4l-0.3,16.6l-0.6,1.4v6.6l-2.2-1.3l-0.8-5.5l-1.2,4.6l-0.4,2.2v3.5l-0.5,1.5l-0.2,1.8v12.2l-2.1-3
				l0.3-1.2l-0.6-3.4l-0.1,3l-0.1,1.7l-1.2,2.3l3.7,1.1l-5.5,0.1l0.6,10.6v1.9l1.4,68.2h-6.5v-55.4h-16.9v32.1l-2.8,15.4l-1.8-3
				h-9.5l-3.5,1v-2.1l3.5-2.1l-3.5-2.1l3.5-2.1l-3.5-2.1l3.5-2.1l-3.5-2.1l3.5-2.1l-3.5-2.1l3.5-2.1l-3.5-2.1l3.5-2.1l-3.5-2.1
				l3.5-2.1l-3.5-2.1l3.5-2.1l-3.5-2.1l3.5-2.1l-3.5-2.1l3.5-2.1l-3.5-2.1l3.5-2.1l-3.5-2.1l3.5-2.1l-3.5-9.3l-2.1-4.8h-7.9
				l-14.4,1.8l-4.5-0.7l-4,0.7v-1.4h-9.1l-2,1.1v-2.3l2-2.3l-2-2.3l2-2.3l-2-2.3l2-2.3l-2-2.3l2-2.3l-2-2.3l2-2.3l-2-2.3l2-2.3
				l-2-2.3l2-2.3l-2-2.3l2-2.3l-2-5.1l1.9-6.3v-3.1v-9.2h-6.1v-5.6h-10.5v-2.3c-13.2,1.6-21.7,4.8-27.2,9v2.3l1.8,5.9l-2.3,7.3
				l-3.3-8.2h-8.9V69.1l-4-12.3H964v-20h-8.6l-7.7-1.1l-10.1-1.2v2.3h-14.8v-2.9h-11.3v22.9L908,107l-3.8,54l-4.1,31.7l-3.7,12.3
				h-5.1v24.5h-4.9v-12.6h-5.6v-14.5h-4.9v-74.7l-0.6-1.5l-2-2.7l-3.5-2.2l-3.8-0.7v-1.2l-0.9-1.4l-0.9-4.3l-0.7,4.3l-2.8,1.4h-7.3
				v4.1l-3.9,4.2l-0.5,2.5l-3.9,56.7h-5v14h-12.5v15.6h-5.9v6.3l-2.1,2.6h-6.6v-4h-6.3l0.8-3.4l-0.8-2.9l0.8-2.9l-0.8-2.9l0.8-2.9
				l-0.8-2.9l0.8-2.9l-0.8-2.9l0.8-2.9l-0.8-2.9l0.8-2.9l-0.8-2.9l0.8-2.9l-0.8-2.9l0.8-2.9l-0.8-2.9l0.8-2.9l-0.8-2.9l0.8-2.9
				l-0.8-6.6h-7.4v-4.8l-3.4-0.8l-1.1-2.3l-0.9,2.3h-7.4l-2.2-1.6l-1.2,2.4h-6.1v-25.8l-0.8,25.8h-6.8v4.8h-17.4v99.3h-6.4l2.6-2.5
				l-2.6-11.6l2.6-2.3l-2.6-2.3l2.6-2.3l-2.6-2.3l2.6-2.3l-2.6-2.3l2.6-2.3l-2.6-2.3l2.6-2.3l-2.6-2.3l2.6-2.3l-2.6-2.3l2.6-2.3
				l-2.6-2.3l2.6-2.3l-2.6-2.3l2.6-2.3l-2.6-2.3l2.6-2.3l-2.6-2.3l2.6-2.3l-2.6-2.3l2.6-2.3l-2.6-2.3l2.6-2.3l-2.6-2.3l2.6-2.3
				l-2.6-2.3l2.6-2.3l-2.6-2.3l2.6-2.3l-2.6-2.3l2.6-2.3l-2.6-2.3l2.6-2.3l-2.6-2.3l2.6-2.3l-2.6-2.3l2.6-2.3l-2.6-2.3l2.6-2.3
				l-2.6-2.3l2.6-2.3l-2.6-2.3l2.6-2.3l-2.6-2.3l2.6-2.3l-2.6-2.3l2.6-2.3l-2.6-2.3l2.6-2.3l-2.6-2.3l2.6-2.3l-2.6-2.3l2.6-2.3
				l-2.6-2.3l2.6-2.3l-2.6-2.3l2.6-2.3l-2.6-2.3l2.6-2.3l-2.6-2.3l2.6-2.3h-12v-7l3.8-4.7h-50v4.7l3.8,7h-9.3l-2.6,2.3l2.6,2.3
				l-2.6,2.3l2.6,2.3l-2.6,2.3l2.6,2.3l-2.6,2.3l2.6,2.3l-2.6,2.3l2.6,2.3l-2.6,2.3l2.6,2.3l-2.6,2.3l2.6,2.3l-2.6,2.3l2.6,2.3
				l-2.6,2.3l2.6,2.3l-2.6,2.3l2.6,2.3l-2.6,2.3l2.6,1.2l-3.5-3.6h-15.1v-3.2h-6.1v-1.3h-4.9l-0.9-66.3l-1,66.3h-8.1v4.5h-21.2v7.1
				l3.9,14.8v78.8l-3.9,10.5v11.7l-1.4-79.8h-7.2v-66.2l-2.4-1.4l-12.1-3.5h-8.9V99.4l-0.9,17.3L586,4.4l-9-2.9L575.9,0L573.2,1.4z"
				/>
		</g>
	</g>
</g>
</svg>
