<?xml version="1.0" encoding="utf-8"?>
<!-- Generator: Adobe Illustrator 18.0.0, SVG Export Plug-In . SVG Version: 6.00 Build 0)  -->
<!DOCTYPE svg PUBLIC "-//W3C//DTD SVG 1.1//EN" "http://www.w3.org/Graphics/SVG/1.1/DTD/svg11.dtd">
<svg version="1.1" id="Capa_1" xmlns="http://www.w3.org/2000/svg" xmlns:xlink="http://www.w3.org/1999/xlink" x="0px" y="0px"
	 viewBox="163 295.7 449 200.6" enable-background="new 163 295.7 449 200.6" xml:space="preserve">
<title>Page 1</title>
<desc>Created with Sketch.</desc>
<g id="Page-1_1_">
	<g id="Clima" transform="translate(0.000000, -4424.000000)">
		<g id="background3" transform="translate(-22.000000, 4424.000000)">
			<path fill="#071A2A" d="M627.9,384.5v-1.6h-4v1.6h-6.5v-6.5h-10.2v-1.4H591v-25h-4.6l-2.3-0.3v-0.5l-0.6-0.5l-0.9,0.5h-2.2v0.5
				l-1-1.8l-0.6,1.8l-1-0.6l-1.1,0.6l-1.8-1.4l-0.5,1.4h-3.5l-3.5,0.3v37.9h-2.1c-0.5,0-1.4-26-1.4-26H559l-5.8,0.8v1h-3.8v1.9
				l-1.5,7.2h-3.3v5.9l0.6,9.6c-1.3,0.1-2.5,0.2-3.6,0.3v-4.4l-0.9-4l-0.8-1.9l-0.5-0.8l-3.9-5.7l-5.1,5.7v0.8l-0.5,1.9l-1,4
				l-1.8,1.4h-2v-1h-2.6v-0.9h-1.9v0.9h-2.2V383h-4.7v-0.6h-4.2v0.6H506v3.4h-3.5v-15.2l0.6-0.9v-4.2l-2.1-0.4l2.2,0l-1.1-1.4
				l0.2-0.5l-0.3-1.4l0,1.3l0,0.7l-0.5,1l-0.4-4.8l1-0.8l-1-0.6l-0.2-1.1v-0.9l-0.3-2.3l-0.5,1.9l-0.2,0.9l-0.9-2.8l-0.3-0.6v-6.5
				l-0.1-1l-0.1-1.3v-1.1l-0.2-1.2l-0.1,1l0,1l-0.3-2l-0.2-1.1c0-1.1-0.6-2.1-1.3-2.6l0.1-0.6l-0.2-2c0-0.5-0.1-0.7-0.3-0.8
				c-0.1-0.3-0.2-0.5-0.3-0.5l0-1.3v-1.6c0.4-0.4-0.1-0.5,0-0.6c0.5-0.3,0.6-0.5,0.3-0.6c-0.3-0.3-0.4-1-0.4-1v0.6
				c-0.4,0.2,0,0.5,0,0.5c-0.4,0.5-0.5,0.6-0.5,0.5c0.1,0.4,0.3,0.4,0.4,0.5c0,0,0.1,1,0.1,1l0,1.8c-0.1,0.1-0.3,0.3-0.3,0.5
				c-0.2,0.1-0.3,0.3-0.4,0.5l0.1,2.3l0,0.6c-0.8,0.4-1.3,1.4-1.3,2.6l0,0.8l-0.2,2.3l-0.3-0.7l-0.1-1.2l-0.1,1l0,1v1.8l-0.1,0.6
				l-0.1,7l-0.3,0.6v2.8l-0.9-0.5l-0.3-2.3l-0.5,1.9l-0.2,0.9v1.5l-0.2,0.6l-0.1,0.8v5.1l-0.9-1.3l0.1-0.5l-0.3-1.4l0,1.3l0,0.7
				l-0.5,1l1.5,0.5l-2.3,0l0.3,4.4v0.8l0.6,28.6h-2.7v-23.2h-7.1v13.4l-1.2,6.5l-0.8-1.3h-4l-1.5,0.4v-0.9l1.5-0.9l-1.5-0.9l1.5-0.9
				l-1.5-0.9l1.5-0.9l-1.5-0.9l1.5-0.9l-1.5-0.9l1.5-0.9l-1.5-0.9l1.5-0.9l-1.5-0.9l1.5-0.9l-1.5-0.9l1.5-0.9l-1.5-0.9l1.5-0.9
				l-1.5-0.9l1.5-0.9L471,377l1.5-0.9l-1.5-0.9l1.5-0.9l-1.5-3.9l-0.9-2h-3.3l-6,0.8l-1.9-0.3l-1.7,0.3v-0.6h-3.8l-0.8,0.5v-1l0.8-1
				l-0.8-1l0.8-1l-0.8-1l0.8-1l-0.8-1l0.8-1l-0.8-1l0.8-1l-0.8-1l0.8-1l-0.8-1l0.8-1l-0.8-1l0.8-1l-0.8-2.1l0.8-2.6v-5.2h-2.6v-2.3
				h-4.4v-1c-5.5,0.7-9.1,2-11.4,3.8v1l0.8,2.5l-1,3.1l-1.4-3.4h-3.7v-22.7l-1.7-5.2h-2.2v-8.4h-3.6l-3.2-0.5l-4.2-0.5v1h-6.2v-1.2
				h-4.7v9.6l-1.5,21l-1.6,22.6l-1.7,13.3l-1.5,5.2h-2.1v10.3h-2.1v-5.3H391v-6.1h-2.1v-31.3l-0.3-0.6l-0.8-1.1l-1.5-0.9l-1.6-0.3
				v-0.5l-0.4-0.6l-0.4-1.8l-0.3,1.8l-1.2,0.6h-3.1v1.7l-1.6,1.8l-0.2,1L376,374h-2.1v5.9h-5.2v6.5h-2.5v2.6l-0.9,1.1h-2.8v-1.7
				h-2.6l0.3-1.4l-0.3-1.2l0.3-1.2l-0.3-1.2l0.3-1.2l-0.3-1.2l0.3-1.2l-0.3-1.2l0.3-1.2l-0.3-1.2l0.3-1.2l-0.3-1.2l0.3-1.2l-0.3-1.2
				l0.3-1.2l-0.3-1.2l0.3-1.2l-0.3-1.2l0.3-1.2l-0.3-2.8h-3.1v-2l-1.4-0.3l-0.5-1l-0.4,1h-3.1l-0.9-0.7l-0.5,1h-2.6v-10.8l-0.3,10.8
				h-2.8v2H337V404h-2.7l1.1-1l-1.1-4.9l1.1-1l-1.1-1l1.1-1l-1.1-1l1.1-1l-1.1-1l1.1-1l-1.1-1l1.1-1l-1.1-1l1.1-1l-1.1-1l1.1-1
				l-1.1-1l1.1-1l-1.1-1l1.1-1l-1.1-1l1.1-1l-1.1-1l1.1-1l-1.1-1l1.1-1l-1.1-1l1.1-1l-1.1-1l1.1-1l-1.1-1l1.1-1l-1.1-1l1.1-1l-1.1-1
				l1.1-1l-1.1-1l1.1-1l-1.1-1l1.1-1l-1.1-1l1.1-1l-1.1-1l1.1-1l-1.1-1l1.1-1l-1.1-1l1.1-1l-1.1-1l1.1-1l-1.1-1l1.1-1l-1.1-1l1.1-1
				l-1.1-1l1.1-1l-1.1-1l1.1-1l-1.1-1l1.1-1l-1.1-1l1.1-1l-1.1-1l1.1-1l-1.1-1l1.1-1h-5v-2.9l1.6-2H311v2l1.6,2.9h-3.9l-1.1,1l1.1,1
				l-1.1,1l1.1,1l-1.1,1l1.1,1l-1.1,1l1.1,1l-1.1,1l1.1,1l-1.1,1l1.1,1l-1.1,1l1.1,1l-1.1,1l1.1,1l-1.1,1l1.1,1l-1.1,1l1.1,1
				l-0.8,0.7l-0.7-0.7h-6.3v-1.3h-2.6v-0.5h-2.1l-0.4-27.8l-0.4,27.8h-3.4v1.9h-8.9v3l1.6,6.2v33l-1.6,4.4v4.9l-0.6-33.4h-3v-27.7
				l-1-0.6l-5.1-1.5h-3.7v-7.5l-0.4,7.2l-2-47l-3.8-1.2l-0.5-0.6l-1.1,0.6h-7.4l-0.8,0.5l-3.2,0.4l-8.2,0.4v5.2h-2.1v0.7l0.5,1.5
				l-1.1,0.7l0.5,1.5l-1.1,0.7l0.5,1.5l-1.1,0.7l0.5,1.5l-1.1,0.7l0.5,1.5l-1.1,0.7l0.5,1.5l-1.1,0.7l0.5,1.5l-1.1,0.7l1.1,1.5
				l-1.8,0.7l0.5,1.5l-1.1,0.7l0.5,1.5l-1.1,0.7l0.5,40h-7v14.7l-0.7-22.3h-9.8v3l-1.4-5.6h-4.9v47.5l-1.4-56.3l-12-1.6l-9.1,1.3
				l-2.9,0.3v149.7h449V384.5H627.9z"/>
		</g>
	</g>
</g>
</svg>
