<?xml version="1.0" encoding="UTF-8"?>
<svg width="679px" height="309px" viewBox="0 0 679 309" version="1.1" xmlns="http://www.w3.org/2000/svg" xmlns:xlink="http://www.w3.org/1999/xlink">
    <!-- Generator: Sketch 42 (36781) - http://www.bohemiancoding.com/sketch -->
    <title>Fill 1</title>
    <desc>Created with Sketch.</desc>
    <defs></defs>
    <g id="Page-1" stroke="none" stroke-width="1" fill="none" fill-rule="evenodd">
        <g id="Clima" transform="translate(-539.000000, -5740.000000)" fill="#10415A">
            <g id="background4" transform="translate(-15.000000, 4906.000000)">
                <g id="Page-1" transform="translate(0.000000, 834.364162)">
                    <path d="M761.822238,0.122267497 L761.822238,18.5913683 L747.840031,18.5913683 L747.840031,0.122267497 L723.958932,0.122267497 L723.958932,18.5913683 L716.173954,18.5913683 L716.173954,216.260861 L680.74878,216.260861 L680.74878,199.175415 L665.143621,199.175415 L665.143621,216.260861 L659.996865,216.260861 L659.996865,254.274695 L622.544855,254.274695 L622.544855,197.322393 L554.123377,161.115133 L554.123377,307.660297 L605.980006,307.660297 L622.544855,307.660297 L659.996865,307.660297 L679.261075,307.660297 L716.173954,307.660297 L733.277934,307.660297 L763.484096,307.660297 L793.488316,307.660297 L810.703457,307.660297 L888.017819,307.660297 L915.632076,307.660297 L942.034678,307.660297 L955.546303,307.660297 L989.852455,307.660297 L1020.36802,307.660297 L1031.5712,307.660297 L1048.82154,307.660297 L1107.78877,307.660297 L1110.09351,307.660297 L1126.40639,307.660297 L1141.9393,307.660297 L1151.8104,307.660297 L1232.03533,307.660297 L1232.03533,214.769643 L1221.84927,214.769643 L1221.84927,202.328974 L1226.95527,202.328974 L1226.95527,199.884355 L1147.2917,199.884355 L1147.2917,202.328974 L1152.1235,202.328974 L1152.1235,214.769643 L1141.9393,214.769643 L1141.9393,241.829137 L1126.40639,241.829137 L1126.40639,179.437557 L1062.79448,179.437557 L1062.79448,165.821026 L1057.91266,165.821026 L1057.91266,179.437557 L1048.82154,179.437557 L1048.82154,282.331594 L1031.5712,282.331594 L1031.5712,220.822521 L1020.36802,220.822521 L1020.36802,73.1552768 L981.202273,49.7529338 L942.034678,73.1552768 L942.034678,144.486831 L928.636066,144.486831 L928.636066,126.311085 L915.632076,126.311085 L915.632076,144.486831 L904.92912,144.486831 L904.92912,137.399879 L895.925075,137.399879 L895.925075,144.486831 L888.017819,144.486831 L888.017819,18.5913683 L872.349669,18.5913683 L872.349669,9.35559557 L883.323117,9.35559557 L883.323117,3.15848499 L815.396306,3.15848499 L815.396306,9.35559557 L826.369754,9.35559557 L826.369754,18.5913683 L810.703457,18.5913683 L810.703457,144.486831 L810.703457,220.822521 L793.488316,220.822521 L793.488316,18.5913683 L785.703337,18.5913683 L785.703337,0.122267497 L761.822238,0.122267497 Z M832.950488,18.5889236 L865.767082,18.5889236 L865.767082,9.35559557 L832.950488,9.35559557 L832.950488,18.5889236 Z M1157.00532,214.769643 L1216.9693,214.769643 L1216.9693,202.328974 L1157.00532,202.328974 L1157.00532,214.769643 Z" id="Fill-1"></path>
                </g>
            </g>
        </g>
    </g>
</svg>