<?xml version="1.0" encoding="UTF-8"?>
<svg width="300px" height="262px" viewBox="0 0 300 262" version="1.1" xmlns="http://www.w3.org/2000/svg" xmlns:xlink="http://www.w3.org/1999/xlink">
    <!-- Generator: Sketch 41.2 (35397) - http://www.bohemiancoding.com/sketch -->
    <title>Page 1</title>
    <desc>Created with Sketch.</desc>
    <defs>
        <polygon id="path-1" points="81.7294338 0.154 0.126526674 0.154 0.126526674 80.850985 81.7294338 80.850985 81.7294338 0.154"></polygon>
        <path d="M12.8351381,99.0004042 C4.88102733,80.1116335 0.470322581,59.2620958 0.470322581,37.348 C0.470322581,24.6885039 1.94238773,12.384066 4.71937575,0.6074 L295.555441,0.6074 C298.331718,12.3845914 299.804516,24.689239 299.804516,37.348 C299.804516,59.2620958 295.393875,80.1116335 287.439875,99.0004042 L12.8351363,99.0004 L12.8351381,99.0004042 Z" id="path-3"></path>
        <path d="M0.525987222,0.6074 C1.51306997,38.3293727 15.5713939,72.6807883 38.190075,99.0004 L262.085286,99.0004 C284.703662,72.6807883 298.761784,38.3293727 299.748852,0.6074 L0.525987222,0.6074 L0.525987222,0.6074 Z" id="path-5"></path>
        <path d="M0.318553697,0.107400444 C15.2682525,46.6449415 51.0329104,83.370558 96.2088015,98.5004 L188.583543,98.5004 C233.75887,83.370558 269.523033,46.6449415 284.472522,0.107400444 L0.318549516,0.1074 L0.318553697,0.107400444 Z" id="path-7"></path>
        <path d="M0.524341889,0.6074 C27.6960886,39.6101084 72.0148806,65.005 122.073871,65.005 C172.132275,65.005 216.450481,39.6101084 243.621857,0.6074 L0.524341889,0.6074 L0.524341889,0.6074 Z" id="path-9"></path>
    </defs>
    <g id="Page-1" stroke="none" stroke-width="1" fill="none" fill-rule="evenodd">
        <g id="Clima" transform="translate(-869.000000, -3461.000000)">
            <g id="consecuencias" transform="translate(219.000000, 3200.000000)">
                <g id="inundaciones" transform="translate(1.000000, 260.000000)">
                    <g id="Page-1" transform="translate(649.000000, 0.000000)">
                        <g id="Group-34" transform="translate(11.612903, 0.846000)">
                            <path d="M45.3100645,133.9723 L55.602,133.9723 L55.602,68.0863 L45.3100645,68.0863 L45.3100645,91.6423 C44.3568387,90.3923 43.3387742,89.2443 42.2549032,88.1993 C35.0684516,81.2713 27.7242581,81.5813 26.9074839,81.6423 L27.6216774,92.2513 L27.5123226,92.2573 C27.6797419,92.2573 31.5023226,92.2053 35.5174839,96.2553 C39.9845806,100.7623 45.3100645,110.9643 45.3100645,133.9723" id="Fill-1" fill="#412313"></path>
                            <g id="Group-5" transform="translate(6.774194, 0.000000)">
                                <mask id="mask-2" fill="white">
                                    <use xlink:href="#path-1"></use>
                                </mask>
                                <g id="Clip-4"></g>
                                <path d="M72.9490645,9.7457 C76.1774516,14.0427 77.4035806,19.2877 76.7803548,24.2897 C76.8519677,24.3787 76.9322903,24.4617 77.0029355,24.5537 C81.1739032,30.1067 81.8135806,37.3347 79.2800323,43.3567 C83.9377742,52.2407 81.8532581,63.5477 73.8742258,69.9467 C68.5497097,74.2177 61.8239032,75.3047 55.8026129,73.5267 C54.9829355,75.2647 53.7897097,76.8487 52.2103548,78.1167 C46.7106774,82.5247 38.7926129,81.4937 34.5258387,75.8127 C33.4129355,74.3327 32.6668065,72.6807 32.2564839,70.9727 C26.5835806,75.4247 18.4893871,74.3427 14.1113226,68.5147 C13.4068065,67.5777 12.857129,66.5677 12.4264839,65.5257 C9.09067742,64.5157 6.01616129,62.4667 3.72164516,59.4137 C-0.615774194,53.6387 -0.946741935,45.9657 2.28745161,39.9557 C-0.699,33.3727 0.991645161,25.3057 6.78358065,20.6607 C9.83293548,18.2147 13.4929355,17.1527 17.0677742,17.3597 C17.6929355,13.7897 19.5297097,10.4377 22.521,8.0387 C24.8251935,6.1907 27.4913226,5.1717 30.1961613,4.9127 C30.407129,4.7287 30.6026129,4.5337 30.8232581,4.3567 C37.3003548,-0.8383 45.9500323,-1.1133 52.6022903,2.9557 C59.8729355,0.7577 68.0222903,3.1867 72.9490645,9.7457" id="Fill-3" fill="#48AE4C" mask="url(#mask-2)"></path>
                            </g>
                            <polygon id="Fill-6" fill="#F1F1F1" points="145.422484 48.3629 163.89571 53.0559 170.074742 27.0839 151.601516 22.3909"></polygon>
                            <polygon id="Fill-8" fill="#FEFEFE" points="60.7001613 42.7524 126.801774 11.6824 171.428226 70.8794 154.439516 142.2904 43.7114516 114.1634"></polygon>
                            <path d="M101.426903,107.756 C101.306903,108.259 100.814323,108.567 100.328516,108.443 L81.1856129,103.58 C80.6988387,103.457 80.4007742,102.949 80.5207742,102.445 L88.5017419,68.895 C88.6217419,68.391 89.1143226,68.084 89.600129,68.208 L108.743032,73.071 C109.229806,73.194 109.527871,73.702 109.408839,74.206 L101.426903,107.756 Z" id="Fill-10" fill="#8C6239"></path>
                            <path d="M82.085129,101.5095 C81.9719032,101.9855 82.2535161,102.4645 82.7131935,102.5815 L99.4222258,106.8265 C99.8819032,106.9425 100.346419,106.6525 100.459645,106.1765 L107.842548,75.1425 C107.955774,74.6665 107.674161,74.1865 107.214484,74.0695 L90.5054516,69.8255 C90.0467419,69.7085 89.5812581,69.9985 89.4680323,70.4745 L82.085129,101.5095 Z" id="Fill-12" fill="#9CD6E7"></path>
                            <path d="M81.786871,102.767 C81.666871,103.27 81.1752581,103.578 80.6884839,103.454 L61.5455806,98.591 C61.0588065,98.468 60.7607419,97.96 60.8807419,97.456 L68.8617097,63.906 C68.9817097,63.402 69.4742903,63.095 69.9600968,63.219 L89.103,68.082 C89.5897742,68.205 89.8878387,68.713 89.7688065,69.217 L81.786871,102.767 Z" id="Fill-14" fill="#8C6239"></path>
                            <path d="M62.4451935,96.5206 C62.3319677,96.9966 62.6135806,97.4756 63.0732581,97.5926 L79.7822903,101.8376 C80.2419677,101.9536 80.7064839,101.6636 80.8197097,101.1876 L88.2026129,70.1526 C88.3158387,69.6776 88.0342258,69.1976 87.5745484,69.0806 L70.8655161,64.8366 C70.4068065,64.7196 69.9413226,65.0096 69.8280968,65.4856 L62.4451935,96.5206 Z" id="Fill-16" fill="#9CD6E7"></path>
                            <path d="M115.508129,129.9677 C115.394903,130.4437 115.676516,130.9227 116.136194,131.0397 L142.846839,137.8247 C143.306516,137.9417 143.771032,137.6517 143.884258,137.1757 L154.786839,91.3467 C154.900065,90.8717 154.618452,90.3917 154.158774,90.2747 L127.448129,83.4897 C126.988452,83.3727 126.523935,83.6627 126.41071,84.1387 L115.508129,129.9677 Z" id="Fill-18" fill="#5F3814"></path>
                            <polygon id="Fill-20" fill="#8C6239" points="123.917903 106.2077 147.093387 112.0947 151.816935 92.2397 128.641452 86.3527"></polygon>
                            <polygon id="Fill-22" fill="#9CD6E7" points="146.395161 110.7124 125.157097 105.3174 129.339677 87.7354 150.577742 93.1304"></polygon>
                            <path d="M122.61029,113.6331 C122.355774,114.7021 122.988677,115.7831 124.023194,116.0451 C125.058677,116.3081 126.103839,115.6541 126.358355,114.5851 C126.612871,113.5161 125.979968,112.4361 124.944484,112.1731 C123.909968,111.9101 122.864806,112.5641 122.61029,113.6331" id="Fill-24" fill="#F8B03D"></path>
                            <polygon id="Fill-26" fill="#C1292D" points="128.920355 2.7751 182.654226 74.1521 49.284871 40.2731"></polygon>
                            <polygon id="Fill-28" fill="#C1292D" points="146.275839 22.5079 174.741 29.7389 177.283258 19.0489 148.819065 11.8179"></polygon>
                            <polygon id="Fill-30" fill="#A31F29" points="182.654032 74.1517 128.920161 2.7747 115.483065 56.9657"></polygon>
                            <path d="M0.651096774,81.15 C0.651096774,78.418 1.72722581,75.946 3.46529032,74.159 C3.46432258,74.101 3.45658065,74.043 3.45658065,73.983 C3.45658065,70.452 5.35625806,67.38 8.15787097,65.797 C8.95625806,60.789 13.1543226,56.966 18.2272258,56.966 C21.6143226,56.966 24.6075484,58.675 26.4665806,61.297 C27.3104516,60.867 28.2559355,60.619 29.2594839,60.619 C32.7569032,60.619 35.5914194,63.549 35.5914194,67.161 C35.5914194,68.103 35.3959355,68.996 35.0494839,69.804 C38.6272258,69.842 41.517871,72.848 41.517871,76.554 C41.517871,77.151 41.4346452,77.726 41.2952903,78.277 C42.3172258,79.739 42.9269032,81.531 42.9269032,83.473 C42.9269032,87.145 40.7717419,90.296 37.6962581,91.651 C36.9191613,95.214 33.8436774,97.877 30.1614194,97.877 C28.2220645,97.877 26.454,97.134 25.0962581,95.914 C23.7849677,97.131 22.0556129,97.877 20.154,97.877 C18.6888387,97.877 17.3272258,97.432 16.1775484,96.674 C16.0381935,96.68 15.9027097,96.696 15.7614194,96.696 C11.6436774,96.696 8.12883871,94.052 6.70141935,90.32 C3.16141935,88.879 0.651096774,85.321 0.651096774,81.15" id="Fill-32" fill="#8DBF43"></path>
                        </g>
                        <g id="Group-47" opacity="0.8" transform="translate(0.000000, 70.846000)">
                            <g id="Group-37">
                                <mask id="mask-4" fill="white">
                                    <use xlink:href="#path-3"></use>
                                </mask>
                                <g id="Clip-36"></g>
                                <path d="M300.522194,0.6074 C299.563161,0.6074 298.757032,1.3494 298.645742,2.3344 C297.709935,10.6664 285.478645,19.9844 270.509613,19.9844 C257.758645,19.9844 240.347032,9.7204 240.347032,0.6074 C240.347032,9.7204 225.302516,19.9844 210.332516,19.9844 C198.001548,19.9844 179.029935,9.9704 179.029935,0.6074 C179.029935,9.5954 161.443161,19.9844 150.15929,19.9844 C135.190258,19.9844 120.144774,9.5954 120.144774,0.6074 C120.144774,9.7204 104.802194,19.9844 89.984129,19.9844 C75.014129,19.9844 59.8225161,9.4704 59.8225161,0.6074 C59.8225161,9.4704 44.778,19.9844 29.8099355,19.9844 C14.8389677,19.9844 2.60670968,10.6664 1.67187097,2.3344 C1.56154839,1.3494 0.755419355,0.6074 -0.203612903,0.6074 L-0.351677419,0.6074 C-1.30780645,0.6074 -2.11296774,1.3444 -2.22716129,2.3264 C-2.26103226,2.6184 -2.31329032,2.9064 -2.37522581,3.1924 C-2.40425806,3.3324 -2.41974194,3.4724 -2.41974194,3.6144 L-2.41974194,97.0484 C-2.41974194,98.1274 -1.57393548,99.0004 -0.530709677,99.0004 L300.581226,96.1104 C301.624452,96.1104 302.470258,95.2364 302.470258,94.1594 L302.470258,2.5594 C302.470258,1.4814 301.565419,0.6074 300.522194,0.6074" id="Fill-35" fill="#0C273D" mask="url(#mask-4)"></path>
                            </g>
                            <g id="Group-40" transform="translate(0.000000, 41.000000)">
                                <mask id="mask-6" fill="white">
                                    <use xlink:href="#path-5"></use>
                                </mask>
                                <g id="Clip-39"></g>
                                <path d="M299.070581,0.6074 C298.111548,0.6074 297.305419,1.3494 297.194129,2.3344 C296.258323,10.6664 284.027032,19.9844 269.058,19.9844 C256.307032,19.9844 238.895419,9.7204 238.895419,0.6074 C238.895419,9.7204 223.850903,19.9844 208.880903,19.9844 C196.549935,19.9844 177.578323,9.9704 177.578323,0.6074 C177.578323,9.5954 159.991548,19.9844 148.707677,19.9844 C133.738645,19.9844 118.693161,9.5954 118.693161,0.6074 C118.693161,9.7204 103.350581,19.9844 88.5325161,19.9844 C73.5625161,19.9844 58.3709032,9.4704 58.3709032,0.6074 C58.3709032,9.4704 43.3263871,19.9844 28.3583226,19.9844 C13.3873548,19.9844 1.15509677,10.6664 0.220258065,2.3344 C0.109935484,1.3494 -0.696193548,0.6074 -1.65522581,0.6074 L-1.80329032,0.6074 C-2.75941935,0.6074 -3.56458065,1.3444 -3.67877419,2.3264 C-3.71264516,2.6184 -3.76490323,2.9064 -3.82683871,3.1924 C-3.85587097,3.3324 -3.87135484,3.4724 -3.87135484,3.6144 L-3.87135484,97.0484 C-3.87135484,98.1274 -3.02554839,99.0004 -1.98232258,99.0004 L299.129613,96.1104 C300.172839,96.1104 301.018645,95.2364 301.018645,94.1594 L301.018645,2.5594 C301.018645,1.4814 300.113806,0.6074 299.070581,0.6074" id="Fill-38" fill="#1B567B" mask="url(#mask-6)"></path>
                            </g>
                            <g id="Group-43" transform="translate(7.741935, 86.000000)">
                                <mask id="mask-8" fill="white">
                                    <use xlink:href="#path-7"></use>
                                </mask>
                                <g id="Clip-42"></g>
                                <path d="M293.264129,0.1074 C292.305097,0.1074 291.498968,0.8494 291.387677,1.8344 C290.451871,10.1664 278.220581,19.4844 263.251548,19.4844 C250.500581,19.4844 233.088968,9.2204 233.088968,0.1074 C233.088968,9.2204 218.044452,19.4844 203.074452,19.4844 C190.743484,19.4844 171.771871,9.4704 171.771871,0.1074 C171.771871,9.0954 154.185097,19.4844 142.901226,19.4844 C127.932194,19.4844 112.88671,9.0954 112.88671,0.1074 C112.88671,9.2204 97.544129,19.4844 82.7260645,19.4844 C67.7560645,19.4844 52.5644516,8.9704 52.5644516,0.1074 C52.5644516,8.9704 37.5199355,19.4844 22.551871,19.4844 C7.58090323,19.4844 -4.65135484,10.1664 -5.58619355,1.8344 C-5.69651613,0.8494 -6.50264516,0.1074 -7.46167742,0.1074 L-7.60974194,0.1074 C-8.56587097,0.1074 -9.37103226,0.8444 -9.48522581,1.8264 C-9.51909677,2.1184 -9.57135484,2.4064 -9.63329032,2.6924 C-9.66232258,2.8324 -9.67780645,2.9724 -9.67780645,3.1144 L-9.67780645,96.5484 C-9.67780645,97.6274 -8.832,98.5004 -7.78877419,98.5004 L293.323161,95.6104 C294.366387,95.6104 295.212194,94.7364 295.212194,93.6594 L295.212194,2.0594 C295.212194,0.9814 294.307355,0.1074 293.264129,0.1074" id="Fill-41" fill="#2594BE" mask="url(#mask-8)"></path>
                            </g>
                            <g id="Group-46" transform="translate(28.064516, 127.000000)">
                                <mask id="mask-10" fill="white">
                                    <use xlink:href="#path-9"></use>
                                </mask>
                                <g id="Clip-45"></g>
                                <path d="M272.457677,0.6074 C271.498645,0.6074 270.692516,1.3494 270.581226,2.3344 C269.645419,10.6664 257.414129,19.9844 242.445097,19.9844 C229.694129,19.9844 212.282516,9.7204 212.282516,0.6074 C212.282516,9.7204 197.238,19.9844 182.268,19.9844 C169.937032,19.9844 150.965419,9.9704 150.965419,0.6074 C150.965419,9.5954 133.378645,19.9844 122.094774,19.9844 C107.125742,19.9844 92.0802581,9.5954 92.0802581,0.6074 C92.0802581,9.7204 76.7376774,19.9844 61.9196129,19.9844 C46.9496129,19.9844 31.758,9.4704 31.758,0.6074 C31.758,9.4704 16.7134839,19.9844 1.74541935,19.9844 C-13.2255484,19.9844 -25.4578065,10.6664 -26.3926452,2.3344 C-26.5029677,1.3494 -27.3090968,0.6074 -28.268129,0.6074 L-28.4161935,0.6074 C-29.3723226,0.6074 -30.1774839,1.3444 -30.2916774,2.3264 C-30.3255484,2.6184 -30.3778065,2.9064 -30.4397419,3.1924 C-30.4687742,3.3324 -30.4842581,3.4724 -30.4842581,3.6144 L-30.4842581,97.0484 C-30.4842581,98.1274 -29.6384516,99.0004 -28.5952258,99.0004 L272.51671,96.1104 C273.559935,96.1104 274.405742,95.2364 274.405742,94.1594 L274.405742,2.5594 C274.405742,1.4814 273.500903,0.6074 272.457677,0.6074" id="Fill-44" fill="#1888B2" mask="url(#mask-10)"></path>
                            </g>
                        </g>
                    </g>
                </g>
            </g>
        </g>
    </g>
</svg>