<?xml version="1.0" encoding="utf-8"?>
<!-- Generator: Adobe Illustrator 18.0.0, SVG Export Plug-In . SVG Version: 6.00 Build 0)  -->
<!DOCTYPE svg PUBLIC "-//W3C//DTD SVG 1.1//EN" "http://www.w3.org/Graphics/SVG/1.1/DTD/svg11.dtd">
<svg version="1.1" id="Capa_1" xmlns="http://www.w3.org/2000/svg" xmlns:xlink="http://www.w3.org/1999/xlink" x="0px" y="0px"
	 viewBox="-5.3 -9.3 305.8 317.8" enable-background="new -5.3 -9.3 305.8 317.8" xml:space="preserve">
<g id="house-flood">
	<g id="tree-house">
		<path id="Fill-1" fill="#412313" d="M59.9,149.8h10.3V83.9H59.9v23.6c-1-1.2-2-2.4-3.1-3.4c-7.2-6.9-14.5-6.6-15.3-6.6l0.7,10.6
			l-0.1,0c0.2,0,4-0.1,8,4C54.6,116.6,59.9,126.8,59.9,149.8"/>
		<g id="Group-5" transform="translate(6.774194, 0.000000)">
			<g id="Clip-4">
			</g>
			<defs>
				<filter id="Adobe_OpacityMaskFilter" filterUnits="userSpaceOnUse" x="14.7" y="16" width="81.6" height="80.7">
					<feColorMatrix  type="matrix" values="1 0 0 0 0  0 1 0 0 0  0 0 1 0 0  0 0 0 1 0"/>
				</filter>
			</defs>
			<mask maskUnits="userSpaceOnUse" x="14.7" y="16" width="81.6" height="80.7" id="mask-2">
				<g filter="url(#Adobe_OpacityMaskFilter)">
					<polygon id="path-1" fill="#FFFFFF" points="96.3,16 14.7,16 14.7,96.7 96.3,96.7 					"/>
				</g>
			</mask>
			<path id="Fill-3" mask="url(#mask-2)" fill="#48AE4C" d="M87.6,25.6c3.2,4.3,4.5,9.5,3.8,14.5c0.1,0.1,0.2,0.2,0.2,0.3
				c4.2,5.6,4.8,12.8,2.3,18.8c4.7,8.9,2.6,20.2-5.4,26.6c-5.3,4.3-12.1,5.4-18.1,3.6c-0.8,1.7-2,3.3-3.6,4.6
				c-5.5,4.4-13.4,3.4-17.7-2.3c-1.1-1.5-1.9-3.1-2.3-4.8c-5.7,4.5-13.8,3.4-18.1-2.5c-0.7-0.9-1.3-1.9-1.7-3
				c-3.3-1-6.4-3.1-8.7-6.1c-4.3-5.8-4.7-13.4-1.4-19.5c-3-6.6-1.3-14.6,4.5-19.3c3-2.4,6.7-3.5,10.3-3.3c0.6-3.6,2.5-6.9,5.5-9.3
				c2.3-1.8,5-2.9,7.7-3.1c0.2-0.2,0.4-0.4,0.6-0.6c6.5-5.2,15.1-5.5,21.8-1.4C74.5,16.6,82.6,19,87.6,25.6"/>
		</g>
	</g>
	<path id="Fill-10" fill="#8C6239" d="M116,123.6c-0.1,0.5-0.6,0.8-1.1,0.7l-19.1-4.9c-0.5-0.1-0.8-0.6-0.7-1.1l8-33.6
		c0.1-0.5,0.6-0.8,1.1-0.7l19.1,4.9c0.5,0.1,0.8,0.6,0.7,1.1L116,123.6z"/>
	<g id="house">
		<polygon id="Fill-6" fill="#F1F1F1" points="161.1,63.4 180.2,68.3 186.6,41.4 167.5,36.6 		"/>
		<polygon id="Fill-8" fill="#FEFEFE" points="73.6,57.6 141.9,25.5 188,86.7 170.4,160.5 56,131.4 		"/>
		<path id="Fill-12" fill="#9CD6E7" d="M95.7,118.3c-0.1,0.5,0.2,1,0.6,1.1l17.3,4.4c0.5,0.1,1-0.2,1.1-0.7l7.6-32.1
			c0.1-0.5-0.2-1-0.6-1.1l-17.3-4.4c-0.5-0.1-1,0.2-1.1,0.7L95.7,118.3z"/>
		<path id="Fill-14" fill="#8C6239" d="M95.4,119.6c-0.1,0.5-0.6,0.8-1.1,0.7l-19.8-5c-0.5-0.1-0.8-0.7-0.7-1.2L82,79.5
			c0.1-0.5,0.6-0.8,1.1-0.7l19.8,5c0.5,0.1,0.8,0.7,0.7,1.2L95.4,119.6z"/>
		<path id="Fill-16" fill="#9CD6E7" d="M75.4,113.2c-0.1,0.5,0.2,1,0.6,1.1l17.3,4.4c0.5,0.1,1-0.2,1.1-0.7l7.6-32.1
			c0.1-0.5-0.2-1-0.6-1.1l-17.3-4.4c-0.5-0.1-1,0.2-1.1,0.7L75.4,113.2z"/>
		<path id="Fill-18" fill="#5F3814" d="M130.2,147.7c-0.1,0.5,0.2,1,0.6,1.1l27.6,7c0.5,0.1,1-0.2,1.1-0.7l11.3-47.4
			c0.1-0.5-0.2-1-0.6-1.1l-27.6-7c-0.5-0.1-1,0.2-1.1,0.7L130.2,147.7z"/>
		<polygon id="Fill-20" fill="#8C6239" points="138.9,123.2 162.8,129.3 167.7,108.7 143.8,102.7 		"/>
		<polygon id="Fill-22" fill="#9CD6E7" points="162.1,127.8 140.2,122.3 144.5,104.1 166.4,109.7 		"/>
		<path id="Fill-24" fill="#F8B03D" d="M137.5,130.9c-0.3,1.1,0.4,2.2,1.5,2.5c1.1,0.3,2.2-0.4,2.4-1.5s-0.4-2.2-1.5-2.5
			C138.9,129.1,137.8,129.7,137.5,130.9"/>
		<polygon id="Fill-26" fill="#C1292D" points="144.1,16.3 199.6,90.1 61.8,55 		"/>
		<polygon id="Fill-28" fill="#C1292D" points="162,36.7 191.4,44.2 194,33.1 164.6,25.6 		"/>
		<polygon id="Fill-30" fill="#A31F29" points="199.6,90.1 144.1,16.3 130.2,72.3 		"/>
	</g>
	<path id="Fill-32" fill="#8DBF43" d="M15.3,97c0-2.7,1.1-5.2,2.8-7c0-0.1,0-0.1,0-0.2c0-3.5,1.9-6.6,4.7-8.2c0.8-5,5-8.8,10.1-8.8
		c3.4,0,6.4,1.7,8.2,4.3c0.8-0.4,1.8-0.7,2.8-0.7c3.5,0,6.3,2.9,6.3,6.5c0,0.9-0.2,1.8-0.5,2.6c3.6,0,6.5,3,6.5,6.8
		c0,0.6-0.1,1.2-0.2,1.7c1,1.5,1.6,3.3,1.6,5.2c0,3.7-2.2,6.8-5.2,8.2c-0.8,3.6-3.9,6.2-7.5,6.2c-1.9,0-3.7-0.7-5.1-2
		c-1.3,1.2-3,2-4.9,2c-1.5,0-2.8-0.4-4-1.2c-0.1,0-0.3,0-0.4,0c-4.1,0-7.6-2.6-9.1-6.4C17.8,104.7,15.3,101.2,15.3,97"/>
</g>
<g opacity="0.8">
	<g>
		<defs>
			<circle id="SVGID_1_" cx="147.5" cy="139.5" r="141.7"/>
		</defs>
		<clipPath id="SVGID_2_">
			<use xlink:href="#SVGID_1_"  overflow="visible"/>
		</clipPath>
		<path id="_x31_" clip-path="url(#SVGID_2_)" fill="#52CAE7" d="M288.6,88c-0.9,7.6-12.5,16.2-26.7,16.2
			c-12.1,0-28.7-9.4-28.7-17.9c0,8.4-14.2,17.9-28.5,17.9c-11.7,0-29.7-9.2-29.7-17.9c0,8.2-16.7,17.9-27.5,17.9
			c-14.2,0-28.5-9.5-28.5-17.9c0,8.4-14.6,17.9-28.7,17.9c-14.2,0-28.7-9.6-28.7-17.9c0,8.1-14.2,17.9-28.5,17.9S7,95.7,6.2,88
			c-0.1-0.9-0.9-1.6-1.7-1.6c-1,0-1.9,0.6-1.9,1.6c0,0.2-0.1,0.5-0.1,0.7c0,0.1,0,0.2,0,0.4V175c0,1-1,99.9,0,99.9H290
			c1,0,2.4-101.6,2.4-102.6c0,0-0.9-86-1.9-86C289.5,86.4,288.7,87,288.6,88z"/>
	</g>
	<g>
		<defs>
			<circle id="SVGID_3_" cx="147.5" cy="139.5" r="141.7"/>
		</defs>
		<clipPath id="SVGID_4_">
			<use xlink:href="#SVGID_3_"  overflow="visible"/>
		</clipPath>
		<path id="_x32_" clip-path="url(#SVGID_4_)" fill="#2FACCA" d="M291.2,125c-0.9,0-1.6,0.6-1.7,1.6c-0.9,7.6-12.5,16.2-26.7,16.2
			c-12.1,0-28.7-9.4-28.7-17.9c0,8.4-14.2,17.9-28.5,17.9c-11.7,0-29.7-9.2-29.7-17.9c0,8.2-16.7,17.9-27.5,17.9
			c-14.2,0-28.5-9.5-28.5-17.9c0,8.4-14.6,17.9-28.7,17.9c-14.2,0-28.7-9.6-28.7-17.9c0,8.1-14.2,17.9-28.5,17.9S7.9,134.2,7,126.6
			c-0.1-0.9-0.9-1.6-1.7-1.6H5c-0.9,0-1.6,0.6-1.7,1.6c0,0.2-0.1,0.5-0.1,0.7c0,0.1,0,0.2,0,0.4v85.9c0,1,1.2,81.7,2.2,81.7
			l286.5-2.6c1,0,1.4-80.7,1.4-81.7v-84.2C293.1,125.9,292.2,125,291.2,125"/>
	</g>
	<g>
		<defs>
			<circle id="SVGID_5_" cx="147.5" cy="139.5" r="141.7"/>
		</defs>
		<clipPath id="SVGID_6_">
			<use xlink:href="#SVGID_5_"  overflow="visible"/>
		</clipPath>
		<path id="_x33_" clip-path="url(#SVGID_6_)" fill="#2494BE" d="M290.9,165.5c-0.9,0-1.6,0.6-1.7,1.6c-0.9,7.6-12.5,16.2-26.7,16.2
			c-12.1,0-28.7-9.4-28.7-17.9c0,8.4-14.2,17.9-28.5,17.9c-11.7,0-29.7-9.2-29.7-17.9c0,8.2-16.7,17.9-27.5,17.9
			c-14.2,0-28.5-9.5-28.5-17.9c0,8.4-14.6,17.9-28.7,17.9c-14.2,0-28.7-9.6-28.7-17.9c0,8.1-14.2,17.9-28.5,17.9
			s-25.9-8.6-26.7-16.2c-0.1-0.9-0.9-1.6-1.7-1.6H4.8c-0.9,0-1.6,0.6-1.7,1.6c0,0.2-0.1,0.5-0.1,0.7c0,0.1,0,0.2,0,0.4v85.9
			c0,1,0.9,33.7,1.9,33.7H290c1,0,2.7-35.5,2.7-36.5v-84C292.7,166.4,291.9,165.5,290.9,165.5"/>
	</g>
	<g>
		<defs>
			<circle id="SVGID_7_" cx="147.5" cy="139.5" r="141.7"/>
		</defs>
		<clipPath id="SVGID_8_">
			<use xlink:href="#SVGID_7_"  overflow="visible"/>
		</clipPath>
		<path id="_x34_" clip-path="url(#SVGID_8_)" fill="#1788B2" d="M290.5,205.4c-0.9,0-1.6,0.6-1.7,1.6c-0.9,7.6-12.5,16.2-26.7,16.2
			c-12.1,0-28.7-9.4-28.7-17.9c0,8.4-14.2,17.9-28.5,17.9c-11.7,0-29.7-9.2-29.7-17.9c0,8.2-16.7,17.9-27.5,17.9
			c-14.2,0-28.5-9.5-28.5-17.9c0,8.4-14.6,17.9-28.7,17.9c-14.2,0-28.7-9.6-28.7-17.9c0,8.1-14.2,17.9-28.5,17.9S7.2,214.6,6.3,207
			c-0.1-0.9-0.9-1.6-1.7-1.6H4.4c-0.9,0-1.6,0.6-1.7,1.6c0,0.2-0.1,0.5-0.1,0.7c0,0.1,0,0.2,0,0.4V294c0,1,0.7,1.7,1.7,1.7
			l286.5-2.6c1,0,1.7-0.7,1.7-1.7v-84.2C292.2,206.3,291.4,205.4,290.5,205.4"/>
	</g>
</g>
</svg>
