<?xml version="1.0" encoding="utf-8"?>
<!-- Generator: Adobe Illustrator 18.0.0, SVG Export Plug-In . SVG Version: 6.00 Build 0)  -->
<!DOCTYPE svg PUBLIC "-//W3C//DTD SVG 1.1//EN" "http://www.w3.org/Graphics/SVG/1.1/DTD/svg11.dtd">
<svg version="1.1" id="Capa_1" xmlns="http://www.w3.org/2000/svg" xmlns:xlink="http://www.w3.org/1999/xlink" x="0px" y="0px"
	 viewBox="0 0 300 230" enable-background="new 0 0 300 230" xml:space="preserve">
<title>globlal</title>
<desc>Created with Sketch.</desc>
<g id="Page-1">
	<g id="Clima" transform="translate(-228.000000, -5457.000000)">
		<g id="que-hacer" transform="translate(219.000000, 4935.000000)">
			<g id="informate-e-imagen" transform="translate(9.000000, 522.000000)">
				<g id="globlal">
					<g id="Group-3" transform="translate(0.000000, 0.783019)">
						<path id="Fill-1" fill="#42A047" d="M1.4,96.8c-9.8,62.4,32.9,121,95.4,130.9c62.8,9.6,121.2-33,131-95.3
							c9.8-62.3-32.7-120.8-95-130.8C69.9-8.3,11.2,34.3,1.4,96.8z"/>
					</g>
					<polygon id="Fill-4" fill="#004346" points="105.9,173 105.9,173 105.9,173 					"/>
					<path id="Fill-6" fill="#52CAE7" d="M116.1,58.9l-1.6-0.1l-0.6,1.5l-1.4,0.6l-2-0.1c0-0.5,0-0.8,0-0.8l-0.8-0.1l0.3-1.7
						l3.2,0.5l0.9-1.6l1.3,0.2l1.4,0.5L116.1,58.9z M107.3,60.5l-2.4-0.2l0.4-1.6l1.3-1.1l1.2,1.3L107.3,60.5z M171.1,56.2l2.8-3.3
						l3.2-0.2l2,1.3l-0.6,2.4l-5.2,2.6l-2.6-0.4L171.1,56.2z M178.3,50.1l1.3-1.4l3.8-0.2l0.2,4.7l1.5,3.5l1.1,1.7l2.3,1.3l-2.7,2.3
						l-4.4-0.3l-3.3-0.5l1-3.8l2.8-0.1l0.1-1.9l-2.3-2l-1.6-1.5L178.3,50.1z M225.7,91.8c-3.2-2.5-8.3-3.5-7.4-10.4
						c-1.7,2.3-4.1,3.3-5.6,6.2c-3.5-5.9-4.2-15.4-12.6-15.7c1,4,10.8,19.8-1.2,11.4c1.4-0.2,2.8-0.2,4-0.8
						c-9.2-7.3-4.9-8.5-15.8-5.5c-5,1.4-12.4,8.7-18,4.9c-9.8-6.6,4.9-11.8,11.3-9.8c0.1,0.5,1.2-3,1.1-2.8
						c-3.4-5.9,13.2-12.5,19.7-10.1c0.3-2.3,0.5-2.4,0.1-4.7c0.3,1.4-6.8-1.3-7.6-3.7c-1.6-5,5.7-7.3,8.9-9.3
						C166.7,1,111.9-10.4,62.8,13.1c8.6,0.9,11.9,7.3,20,7.7c0,0-0.6-2.4-0.6-2.5c-2.1-0.1-4.6-1-6.7-1.4c0.1,1.2,1.7-3.4,1.5-2.9
						c-1.8-0.1-4.3-0.7-6.1-1.1c11.6-10,16,7.7,24.7,0.4c0,0,2,1.4,2,1.4c-4,2.6-5.1,4.2-10.2,2.7c0,1.3,0,2.7-0.2,4
						c5.2,0.8,8.2,0.3,12.9-0.4c0,0.1,0.9-2.6,0.9-2.6c-0.5-0.7-1.9-0.5-2.5-1c2.6-3.3,6.7-3.3,11-1.1c-4.5,2.2-2.7,3.5-4.5,6.1
						c1.4,0.4,2.8,0.9,4.2,1.3c-0.1-1.7,0.4-3.6,0.6-5.3c8.8-3.6,14.6,0.2,21.8,5.2c0.3,0.9-0.4,3-0.5,4.1c0.8,0.7,2.5,0.5,3.2,1.4
						c-3.7,1.7-5.8,2.9-8.9,5.6c-3.3-1-7.6-2.5-10.6-4.3c3.2-0.4,6.2-2.6,9.3-3.3c-4.3-6.1-11.9-2.7-17.4-1.1c0,1.4,0.8,1.8,1,2.8
						c-2.4,0.9-3.7,1.1-6.1,1.4c-0.2-1,0.3-2.4-0.1-3.3c-5.7,0.4-10.7,2.8-16,4.8c0.2,4.8,3.1,8,7.9,9c-0.3,1.7,0.2,3.7-0.2,5.5
						c2.9-2.3,29.3-23.4,23.3-7c2.4-1,6.4-0.4,8.7-1.3c-2.2,6.1,2.6,8.3,1.9,13.9c-1.4,0.3-2.9,0.6-4.3,0.9c1.9,1.4,2.9,3.5,2.4,5.7
						c-0.9,0.2-5.8-0.4-5.8-1.8c0,0,0.1-2.1,0-2.1l2-1l0.3-1.8l-1.9-0.8l-0.8,1.6l-3.6,0l-0.3-0.2l0,0.2l-1.2,0l-0.7-2.1l-1.1-0.7
						l-2.5-0.4l-1.3,0.7c-0.3,1.9,0.7,3.8,1.4,5.3c-3.2-6.6-29.3,15.6-31.2,18c-3.5,4.1-7.5,3.4-6.4,10.7c-1.2-1.2-3.2-1.8-4.4-3
						c0.2-1.2,0.7-2.8,0.7-4c-7.2-1.1-15.6-4.1-21.8,1.3c-9.9,8.7-0.3,15.6,9.6,11c1.5,2.3,0.9,4.6-1.3,6.5c2.1,0.1,4.3,2,6.4,2.2
						c-1,3.2,0.2,7.1-0.9,10.3c9.8,6.6,8.8-3.3,15.8-2.7c7.6,0.6,7.2,7.7,15.2,6.9c0.4-0.2,0.1-1.5,0.5-1.8c3.7,2.3,3.1,5.8,5.9,8.1
						c0.9,0.7,6.7,4,6.9,4.3c2.8,3.9,2.3,7.7,6.1,11.2c5.2,4.9,14.2,5.3,19.9,11.8c-2.4,5.1-4.3,11.2-7.5,15.8
						c-5.3,7.4-6.3,4-12.9,8.2c-11,7-10.9,24.2-27,24.6c-0.1,2.1,0.6,1.3,1.9,2.9c-0.7,1.2-2.8,2.7-3,4c1.1,0.8,2.7,2.3,3.7,3.3
						c-2.2,4.4-1.3,9.1,2.2,12.4c-0.2,0.5-0.5,0.9-1,1.2C69.2,218,67.9,189.1,72.6,177c-2.8-5.2,1.6-10.1,0.6-16.2
						c-1.7-9.7-15.3-16.9-15.8-28c-0.1-1.4,13.2-19.1,9.4-20l-8.6-2l-5.6-8.8l-4.6-2.1l-3-1.1l0.8-2.8c-13.6-4.2-21.7-14-19.5-30
						c-0.1,0-2.3-0.3-2.4-0.4c-1.2,6.3,2.7,10.8,2.1,16.5c0,0.4-6.3-6.8-6.8-8.5c-0.7-2.9,0.8-7.1,1.3-9.9l-4.3-3l1-6.4
						C9.5,67,3.9,81.5,1.4,97.2c-9.8,62.5,33,121.3,95.5,131.1c0.1,0,0.2,0,0.3,0c35.3,5.5,69.4-5.9,94.2-28.1l-3.7-0.6l1.2-7.5
						l-3.4-6.5l1.4-9.1c0,0-2.3-3.1-2.7-3.7c-2.1-2.8,4-8.5,4.4-11.2c1.4-8.5-3-16.1-2.5-24.6c-5-1.6-9.4-4.9-14.7-5.6
						c-4.4-0.6-9.3,3-13.7,0.7c-10.3-5.4-12.5-19.4-5.8-27.9c-0.5-0.3-2,0-2.4-0.4c-0.2-0.9,0-3.3-0.5-4c4.2-2.1,10.1-4,13.8-6.9
						c4.2-3.4-0.1-5.7,7.1-8.8c4.1-1.7,12.9-1.5,17.1-0.1c8.1,2.8,4.1,2,9.2,8.3c1.6,2,8.3,3.7,10.8,4.7c4.5-7.2,13.8,3.6,20.7,3.5
						C229,95.7,227.7,93.4,225.7,91.8L225.7,91.8z"/>
					<polygon id="Fill-8" fill="#594947" points="223.4,140.2 213.1,159.1 192.1,147.7 202.3,128.8 					"/>
					<path id="Fill-10" fill="#7F6565" d="M98.3,84.8c-15.1,28-4.7,63,23.3,78.1c28,15.1,63,4.7,78.1-23.3c15.1-28,4.7-63-23.3-78.1
						C148.4,46.4,113.4,56.8,98.3,84.8 M112.5,92.5c10.9-20.1,36.1-27.6,56.2-16.7s27.6,36.1,16.8,56.2
						c-10.9,20.1-36.1,27.6-56.2,16.7C109.2,137.8,101.7,112.6,112.5,92.5"/>
					<path id="Fill-12" fill="#F29323" d="M294.5,173.8c4.8,2.6,6.6,8.7,4,13.5l-4.9,9c-2.6,4.8-8.7,6.6-13.5,4l-66.6-36
						c-4.8-2.6-6.6-8.7-4-13.5l4.9-9c2.6-4.8,8.7-6.6,13.5-4L294.5,173.8z"/>
					<path id="Fill-14" opacity="0.5" fill="#FFFFFF" enable-background="new    " d="M168.7,96.8c0,9.3-7.5,16.8-16.8,16.8
						c-9.3,0-16.8-7.5-16.8-16.8S142.6,80,151.8,80C161.1,80,168.7,87.5,168.7,96.8"/>
				</g>
			</g>
		</g>
	</g>
</g>
</svg>
