<?xml version="1.0" encoding="UTF-8" standalone="no"?>
<!-- Generator: Adobe Illustrator 18.0.0, SVG Export Plug-In . SVG Version: 6.00 Build 0)  -->
<!DOCTYPE svg  PUBLIC '-//W3C//DTD SVG 1.1//EN'  'http://www.w3.org/Graphics/SVG/1.1/DTD/svg11.dtd'>
<svg id="Capa_1" xmlns="http://www.w3.org/2000/svg" xml:space="preserve" viewBox="0 0 300 230" version="1.1" y="0px" x="0px" xmlns:xlink="http://www.w3.org/1999/xlink" enable-background="new 0 0 300 230">
<title>globlal</title>
<desc>Created with Sketch.</desc>
<g id="Page-1">
	<g id="Clima" transform="translate(-228 -5457)">
		<g id="que-hacer" transform="translate(219 4935)">
			<g id="informate-e-imagen" transform="translate(9 522)">
				<g id="globlal">
					<g id="Group-3" transform="translate(0 .78302)">
						<path id="Fill-1" d="m1.4 96.8c-9.8 62.4 32.9 121 95.4 130.9 62.8 9.6 121.2-33 131-95.3s-32.7-120.8-95-130.8c-62.9-9.9-121.6 32.7-131.4 95.2z" fill="#42A047"/>
					</g>
					<polygon id="Fill-4" points="105.9 173 105.9 173" fill="#004346"/>
					<path id="Fill-6" d="m116.1 58.9l-1.6-0.1-0.6 1.5-1.4 0.6-2-0.1v-0.8l-0.8-0.1 0.3-1.7 3.2 0.5 0.9-1.6 1.3 0.2 1.4 0.5-0.7 1.1zm-8.8 1.6l-2.4-0.2 0.4-1.6 1.3-1.1 1.2 1.3-0.5 1.6zm63.8-4.3l2.8-3.3 3.2-0.2 2 1.3-0.6 2.4-5.2 2.6-2.6-0.4 0.4-2.4zm7.2-6.1l1.3-1.4 3.8-0.2 0.2 4.7 1.5 3.5 1.1 1.7 2.3 1.3-2.7 2.3-4.4-0.3-3.3-0.5 1-3.8 2.8-0.1 0.1-1.9-2.3-2-1.6-1.5 0.2-1.8zm47.4 41.7c-3.2-2.5-8.3-3.5-7.4-10.4-1.7 2.3-4.1 3.3-5.6 6.2-3.5-5.9-4.2-15.4-12.6-15.7 1 4 10.8 19.8-1.2 11.4 1.4-0.2 2.8-0.2 4-0.8-9.2-7.3-4.9-8.5-15.8-5.5-5 1.4-12.4 8.7-18 4.9-9.8-6.6 4.9-11.8 11.3-9.8 0.1 0.5 1.2-3 1.1-2.8-3.4-5.9 13.2-12.5 19.7-10.1 0.3-2.3 0.5-2.4 0.1-4.7 0.3 1.4-6.8-1.3-7.6-3.7-1.6-5 5.7-7.3 8.9-9.3-35.9-40.5-90.7-51.9-139.8-28.4 8.6 0.9 11.9 7.3 20 7.7 0 0-0.6-2.4-0.6-2.5-2.1-0.1-4.6-1-6.7-1.4 0.1 1.2 1.7-3.4 1.5-2.9-1.8-0.1-4.3-0.7-6.1-1.1 11.6-10 16 7.7 24.7 0.4l2 1.4c-4 2.6-5.1 4.2-10.2 2.7 0 1.3 0 2.7-0.2 4 5.2 0.8 8.2 0.3 12.9-0.4 0 0.1 0.9-2.6 0.9-2.6-0.5-0.7-1.9-0.5-2.5-1 2.6-3.3 6.7-3.3 11-1.1-4.5 2.2-2.7 3.5-4.5 6.1 1.4 0.4 2.8 0.9 4.2 1.3-0.1-1.7 0.4-3.6 0.6-5.3 8.8-3.6 14.6 0.2 21.8 5.2 0.3 0.9-0.4 3-0.5 4.1 0.8 0.7 2.5 0.5 3.2 1.4-3.7 1.7-5.8 2.9-8.9 5.6-3.3-1-7.6-2.5-10.6-4.3 3.2-0.4 6.2-2.6 9.3-3.3-4.3-6.1-11.9-2.7-17.4-1.1 0 1.4 0.8 1.8 1 2.8-2.4 0.9-3.7 1.1-6.1 1.4-0.2-1 0.3-2.4-0.1-3.3-5.7 0.4-10.7 2.8-16 4.8 0.2 4.8 3.1 8 7.9 9-0.3 1.7 0.2 3.7-0.2 5.5 2.9-2.3 29.3-23.4 23.3-7 2.4-1 6.4-0.4 8.7-1.3-2.2 6.1 2.6 8.3 1.9 13.9-1.4 0.3-2.9 0.6-4.3 0.9 1.9 1.4 2.9 3.5 2.4 5.7-0.9 0.2-5.8-0.4-5.8-1.8 0 0 0.1-2.1 0-2.1l2-1 0.3-1.8-1.9-0.8-0.8 1.6h-3.6l-0.3-0.2v0.2h-1.2l-0.7-2.1-1.1-0.7-2.5-0.4-1.3 0.7c-0.3 1.9 0.7 3.8 1.4 5.3-3.2-6.6-29.3 15.6-31.2 18-3.5 4.1-7.5 3.4-6.4 10.7-1.2-1.2-3.2-1.8-4.4-3 0.2-1.2 0.7-2.8 0.7-4-7.2-1.1-15.6-4.1-21.8 1.3-9.9 8.7-0.3 15.6 9.6 11 1.5 2.3 0.9 4.6-1.3 6.5 2.1 0.1 4.3 2 6.4 2.2-1 3.2 0.2 7.1-0.9 10.3 9.8 6.6 8.8-3.3 15.8-2.7 7.6 0.6 7.2 7.7 15.2 6.9 0.4-0.2 0.1-1.5 0.5-1.8 3.7 2.3 3.1 5.8 5.9 8.1 0.9 0.7 6.7 4 6.9 4.3 2.8 3.9 2.3 7.7 6.1 11.2 5.2 4.9 14.2 5.3 19.9 11.8-2.4 5.1-4.3 11.2-7.5 15.8-5.3 7.4-6.3 4-12.9 8.2-11 7-10.9 24.2-27 24.6-0.1 2.1 0.6 1.3 1.9 2.9-0.7 1.2-2.8 2.7-3 4 1.1 0.8 2.7 2.3 3.7 3.3-2.2 4.4-1.3 9.1 2.2 12.4-0.2 0.5-0.5 0.9-1 1.2-17.9-0.5-19.2-29.4-14.5-41.5-2.8-5.2 1.6-10.1 0.6-16.2-1.7-9.7-15.3-16.9-15.8-28-0.1-1.4 13.2-19.1 9.4-20l-8.6-2-5.6-8.8-4.6-2.1-3-1.1 0.8-2.8c-13.6-4.2-21.7-14-19.5-30-0.1 0-2.3-0.3-2.4-0.4-1.2 6.3 2.7 10.8 2.1 16.5 0 0.4-6.3-6.8-6.8-8.5-0.7-2.9 0.8-7.1 1.3-9.9l-4.3-3 1-6.4c-7.7 12.7-13.3 27.2-15.8 42.9-9.8 62.5 33 121.3 95.5 131.1h0.3c35.3 5.5 69.4-5.9 94.2-28.1l-3.7-0.6 1.2-7.5-3.4-6.5 1.4-9.1s-2.3-3.1-2.7-3.7c-2.1-2.8 4-8.5 4.4-11.2 1.4-8.5-3-16.1-2.5-24.6-5-1.6-9.4-4.9-14.7-5.6-4.4-0.6-9.3 3-13.7 0.7-10.3-5.4-12.5-19.4-5.8-27.9-0.5-0.3-2 0-2.4-0.4-0.2-0.9 0-3.3-0.5-4 4.2-2.1 10.1-4 13.8-6.9 4.2-3.4-0.1-5.7 7.1-8.8 4.1-1.7 12.9-1.5 17.1-0.1 8.1 2.8 4.1 2 9.2 8.3 1.6 2 8.3 3.7 10.8 4.7 4.5-7.2 13.8 3.6 20.7 3.5 1.3-4.8 0-7.1-2-8.7z" fill="#52CAE7"/>
					<polygon id="Fill-8" points="223.4 140.2 213.1 159.1 192.1 147.7 202.3 128.8" fill="#594947"/>
					<path id="Fill-10" d="m98.3 84.8c-15.1 28-4.7 63 23.3 78.1s63 4.7 78.1-23.3 4.7-63-23.3-78.1-63-4.7-78.1 23.3m14.2 7.7c10.9-20.1 36.1-27.6 56.2-16.7s27.6 36.1 16.8 56.2c-10.9 20.1-36.1 27.6-56.2 16.7s-27.6-36.1-16.8-56.2" fill="#7F6565"/>
					<path id="Fill-12" d="m294.5 173.8c4.8 2.6 6.6 8.7 4 13.5l-4.9 9c-2.6 4.8-8.7 6.6-13.5 4l-66.6-36c-4.8-2.6-6.6-8.7-4-13.5l4.9-9c2.6-4.8 8.7-6.6 13.5-4l66.6 36z" fill="#F29323"/>
					<path id="Fill-14" opacity=".5" d="m168.7 96.8c0 9.3-7.5 16.8-16.8 16.8s-16.8-7.5-16.8-16.8 7.5-16.8 16.7-16.8c9.3 0 16.9 7.5 16.9 16.8" enable-background="new    " fill="#fff"/>
				</g>
			</g>
		</g>
	</g>
</g>
</svg>
