<?xml version="1.0" encoding="UTF-8"?>
<svg width="300px" height="230px" viewBox="0 0 300 230" version="1.1" xmlns="http://www.w3.org/2000/svg" xmlns:xlink="http://www.w3.org/1999/xlink">
    <!-- Generator: Sketch 41.2 (35397) - http://www.bohemiancoding.com/sketch -->
    <title>globlal</title>
    <desc>Created with Sketch.</desc>
    <defs></defs>
    <g id="Page-1" stroke="none" stroke-width="1" fill="none" fill-rule="evenodd">
        <g id="Clima" transform="translate(-228.000000, -5457.000000)">
            <g id="que-hacer" transform="translate(219.000000, 4935.000000)">
                <g id="informate-e-imagen" transform="translate(9.000000, 522.000000)">
                    <g id="globlal">
                        <g id="Group-3" transform="translate(0.000000, 0.783019)" fill="#42A047">
                            <path d="M1.40622642,96.7818868 C-8.42018868,159.230943 34.2835849,217.830943 96.7911321,227.666792 C159.555283,237.312075 217.960943,194.710189 227.76283,132.402642 C237.570377,70.0875472 195.072264,11.6101887 132.789245,1.58 C69.8703774,-8.32188679 11.2345283,34.3290566 1.40622642,96.7818868 Z" id="Fill-1"></path>
                        </g>
                        <polygon id="Fill-4" fill="#004346" points="105.93566 172.985094 105.937547 173.011509 105.943208 172.973774"></polygon>
                        <path d="M116.07398,58.8737398 L114.443791,58.7586455 L113.86832,60.2661926 L112.507942,60.8416643 L110.494735,60.6944945 C110.502282,60.2152493 110.507942,59.8548719 110.507942,59.8548719 L109.738131,59.7322304 L110.002282,58.0624191 L113.243791,58.571853 L114.190961,56.9473247 L115.479641,57.12657 L116.907942,57.6605323 L116.07398,58.8737398 Z M107.343791,60.4661926 L104.958886,60.2926077 L105.340018,58.671853 L106.604169,57.5246832 L107.845678,58.8586455 L107.343791,60.4661926 Z M171.081527,56.2209096 L173.917376,52.9510983 L177.079641,52.7227964 L179.106056,54.0095889 L178.523037,56.42657 L173.349452,58.9888342 L170.711716,58.5756266 L171.081527,56.2209096 Z M178.311716,50.117136 L179.602282,48.6850606 L183.440018,48.5152493 L183.666433,53.1831738 L185.141905,56.6963813 L186.22115,58.4133625 L188.47398,59.7246832 L185.792848,62.0567587 L181.349452,61.7926077 L178.056999,61.271853 L179.040018,57.4246832 L181.866433,57.2888342 L181.923037,55.417136 L179.628697,53.4114757 L178.028697,51.9133625 L178.311716,50.117136 Z M225.700395,91.8077021 C222.475867,89.2605323 217.390961,88.3152493 218.294735,81.4378908 C216.57398,83.7586455 214.200395,84.7284568 212.647565,87.6586455 C209.106056,81.7586455 208.481527,72.2624191 200.036244,71.9378908 C201.002282,75.9699662 210.847565,91.6944945 198.883414,83.3586455 C200.26832,83.1963813 201.707942,83.1699662 202.917376,82.5322304 C193.755112,75.2548719 198.045678,74.02657 187.117376,77.081287 C182.132471,78.4756266 174.741905,85.7831738 169.11549,81.9982681 C159.343791,75.4227964 174.060773,70.1944945 180.389074,72.181287 C180.536244,72.6926077 181.634357,69.1586455 181.455112,69.4133625 C178.055112,63.4699662 194.681527,56.9246832 201.183414,59.2794002 C201.441905,57.0209096 201.685301,56.8548719 201.253225,54.5850606 C201.509829,55.936004 194.477754,53.3284568 193.670207,50.9020417 C192.02115,45.9397776 199.407942,43.6284568 202.583414,41.6454379 C166.664546,0.99072095 111.898508,-10.4394677 62.8456783,13.1454379 C71.4607726,14.0284568 74.7758669,20.4114757 82.8551122,20.8020417 C82.8136028,20.7775134 82.2173764,18.4001549 82.2381311,18.3378908 C80.1494518,18.2699662 77.611716,17.3794002 75.5400179,16.9737398 C75.6419047,18.1416643 77.2268103,13.6209096 77.0645462,14.0322304 C75.2890745,13.9416643 72.7532254,13.317136 70.9249235,12.917136 C82.5645462,2.86996623 86.9192632,20.6284568 95.602282,13.2775134 C95.611716,13.3001549 97.5758669,14.6775134 97.5834141,14.6775134 C93.556999,17.2322304 92.456999,18.871853 87.4079424,17.3643059 C87.3947349,18.7058153 87.4003952,20.017136 87.2551122,21.3548719 C92.4192632,22.2001549 95.4154896,21.6680794 100.130584,20.9095889 C100.166433,20.9869474 101.034357,18.3077021 101.038131,18.3001549 C100.532471,17.6190228 99.1645462,17.817136 98.5003952,17.2944945 C101.051339,14.0114757 105.185301,14.0077021 109.458886,16.1888342 C104.928697,18.3548719 106.758886,19.7227964 104.956999,22.2944945 C106.349452,22.6926077 107.762659,23.2020417 109.147565,23.6397776 C109.051339,21.9737398 109.534357,20.017136 109.730584,18.3473247 C118.502282,14.7077021 124.347565,18.5510983 131.507942,23.5039285 C131.828697,24.4473247 131.136244,26.5435511 130.960773,27.5643059 C131.785301,28.2605323 133.496622,28.0926077 134.136244,28.9643059 C130.389074,30.6454379 128.349452,31.890721 125.202282,34.5586455 C121.883414,33.5227964 117.583414,32.0831738 114.623037,30.2586455 C117.81549,29.8680794 120.809829,27.6133625 123.955112,27.0077021 C119.656999,20.8624191 112.062659,24.2737398 106.558886,25.9548719 C106.596622,27.3133625 107.356999,27.7794002 107.547565,28.7926077 C105.179641,29.7284568 103.830584,29.8831738 101.432471,30.1737398 C101.228697,29.1492115 101.77398,27.7794002 101.37398,26.8378908 C95.6871877,27.2850606 90.7003952,29.6794002 85.3871877,31.636004 C85.5928481,36.4378908 88.4400179,39.681287 93.2928481,40.5944945 C93.0343575,42.3209096 93.5003952,44.2548719 93.0890745,46.1227964 C96.0098292,43.8454379 122.383414,22.7510983 116.390961,39.1699662 C118.781527,38.1661926 122.77398,38.7492115 125.119263,37.8944945 C122.96832,43.9756266 127.690961,46.1850606 127.058886,51.7586455 C125.636244,52.0114757 124.202282,52.3397776 122.807942,52.6209096 C124.732471,54.0567587 125.683414,56.081287 125.240018,58.3209096 C124.385301,58.4756266 119.440018,57.871853 119.485301,56.5341172 C119.485301,56.5341172 119.536244,54.4737398 119.52681,54.4699662 L121.560773,53.4926077 L121.853225,51.6548719 L119.955112,50.8473247 L119.194735,52.4680794 L115.643791,52.4586455 L115.317376,52.2926077 L115.287188,52.4661926 L114.056999,52.4548719 L113.389074,50.3246832 L112.332471,49.6492115 L109.858886,49.2586455 L108.589074,50.0001549 C108.298508,51.8567587 109.253225,53.836004 109.958886,55.2850606 C106.758886,48.7209096 80.7060556,70.9246832 78.7305839,73.2416643 C75.2249235,77.3586455 71.2683198,76.617136 72.3702066,83.9397776 C71.1513386,82.6982681 69.2154896,82.1378908 67.9362443,80.9473247 C68.1853009,79.7284568 68.6324707,78.1661926 68.6041688,76.9095889 C61.4041688,75.7737398 52.9645462,72.8510983 46.8381311,78.2322304 C36.966433,86.8963813 46.5739801,93.790721 56.4003952,89.2284568 C57.9305839,91.5605323 57.3419047,93.871853 55.1041688,95.6963813 C57.2381311,95.7982681 59.3551122,97.6643059 61.5003952,97.8699662 C60.4683198,101.036004 61.6551122,105.003928 60.5626594,108.154872 C70.3136028,114.796381 69.3324707,104.886947 76.3268103,105.417136 C83.8909613,105.996381 83.4985084,113.134117 91.5494518,112.286947 C91.9815273,112.039778 91.6720933,110.815249 92.0437915,110.454872 C95.747565,112.713362 95.1098292,116.27374 97.9400179,118.551098 C98.8249235,119.266193 104.606056,122.530344 104.840018,122.854872 C107.641905,126.754872 107.177754,130.528457 110.919263,134.054872 C116.094735,138.930344 125.119263,139.402042 130.77398,145.809589 C128.375867,150.87374 126.481527,157.037891 123.22681,161.600155 C117.92681,169.02657 116.947565,165.588834 110.289074,169.822796 C99.2588858,176.828457 99.4041688,194.007702 83.3041688,194.390721 C83.1853009,196.443551 83.8966217,195.647325 85.202282,197.298268 C84.5098292,198.496381 82.4381311,199.97374 82.2268103,201.345438 C83.2947349,202.134117 84.8796405,203.630344 85.8890745,204.654872 C83.6513386,209.051098 84.6173764,213.786947 88.0683198,217.069966 C87.8928481,217.600155 87.5720933,218.005815 87.0985084,218.292608 C69.2249235,217.994495 67.8890745,189.062419 72.647565,176.9794 C69.8305839,171.749212 74.2626594,166.885061 73.2098292,160.752985 C71.4966217,151.005815 57.92115,143.871853 57.4419047,132.786947 C57.3834141,131.422796 70.6777537,113.660532 66.8702066,112.794495 L58.3136028,110.7794 L52.7494518,101.990721 L48.156999,99.9190228 L45.1456783,98.8643059 L45.9626594,96.1001549 C32.3947349,91.9303436 24.2456783,82.1020417 26.4909613,66.1303436 C26.3966217,66.1624191 24.147565,65.8095889 24.0853009,65.7510983 C22.8853009,72.02657 26.7607726,76.5435511 26.2249235,82.2039285 C26.1909613,82.5586455 19.8834141,75.390721 19.4739801,73.6737398 C18.7890745,70.8209096 20.3173764,66.5869474 20.7588858,63.771853 L16.411716,60.771853 L17.4268103,54.32657 C9.4588858,67.0322304 3.87775373,81.5077021 1.40416882,97.2322304 C-8.42413307,159.700155 34.3947349,218.513362 96.8588858,228.341664 C96.9437915,228.356759 97.0286971,228.364306 97.111716,228.3794 C132.436244,233.854872 166.560773,222.498268 191.306056,200.294495 L187.56832,199.705815 L188.753225,192.175627 L185.353225,185.671853 L186.777754,176.613362 C186.777754,176.613362 184.506056,173.511476 184.062659,172.909589 C181.998508,170.094495 188.047565,164.430344 188.507942,161.688834 C189.919263,153.209589 185.511716,145.581287 186.004169,137.094495 C180.987188,135.505815 176.566433,132.203928 171.302282,131.534117 C166.875867,130.966193 161.983414,134.519023 157.590961,132.203928 C147.292848,126.7794 145.136244,112.824683 151.770207,104.292608 C151.247565,103.971853 149.736244,104.319023 149.375867,103.866193 C149.217376,102.988834 149.402282,100.607702 148.881527,99.8680794 C153.12681,97.7303436 158.990961,95.8831738 162.690961,92.9284568 C166.919263,89.5492115 162.585301,87.1831738 169.828697,84.1058153 C173.904169,82.3737398 182.766433,82.5944945 186.907942,84.0435511 C194.996622,86.8699662 191.023037,86.0661926 196.138131,92.317136 C197.766433,94.3020417 204.458886,96.017136 206.917376,97.0227964 C211.394735,89.7963813 220.723037,100.585061 227.590961,100.515249 C229.043791,95.6850606 227.745678,93.4246832 225.700395,91.8077021 L225.700395,91.8077021 Z" id="Fill-6" fill="#52CAE7"></path>
                        <polygon id="Fill-8" fill="#594947" points="223.355283 140.191132 213.113774 159.128868 192.074151 147.749623 202.31566 128.81566"></polygon>
                        <path d="M98.2981132,84.8145283 C83.1566038,112.822075 93.5849057,147.801321 121.590566,162.939057 C149.598113,178.082453 184.575472,167.652264 199.718868,139.648491 C214.862264,111.64283 204.432075,76.6635849 176.424528,61.5239623 C148.418868,46.3786792 113.439623,56.8069811 98.2981132,84.8145283 M112.543396,92.5164151 C123.415094,72.4107547 148.616981,64.8956604 168.724528,75.7673585 C188.832075,86.6390566 196.345283,111.840943 185.475472,131.950377 C174.603774,152.057925 149.401887,159.571132 129.292453,148.699434 C109.186792,137.825849 101.673585,112.625849 112.543396,92.5164151" id="Fill-10" fill="#7F6565"></path>
                        <path d="M294.491509,173.759057 C299.329245,176.376038 301.133019,182.423208 298.516038,187.260943 L293.659434,196.242075 C291.04434,201.083585 284.99717,202.887358 280.153774,200.266604 L213.521698,164.240189 C208.680189,161.626981 206.876415,155.579811 209.495283,150.738302 L214.348113,141.753396 C216.968868,136.91566 223.014151,135.113774 227.857547,137.728868 L294.491509,173.759057 Z" id="Fill-12" fill="#F29323"></path>
                        <path d="M168.660377,96.7984906 C168.660377,106.085283 161.132075,113.613585 151.843396,113.613585 C142.556604,113.613585 135.028302,106.085283 135.028302,96.7984906 C135.028302,87.5116981 142.556604,79.9833962 151.843396,79.9833962 C161.132075,79.9833962 168.660377,87.5116981 168.660377,96.7984906" id="Fill-14" fill="#FFFFFF" opacity="0.5"></path>
                    </g>
                </g>
            </g>
        </g>
    </g>
</svg>