<?xml version="1.0" encoding="UTF-8"?>
<svg width="308px" height="254px" viewBox="0 0 308 254" version="1.1" xmlns="http://www.w3.org/2000/svg" xmlns:xlink="http://www.w3.org/1999/xlink">
    <!-- Generator: Sketch 41.2 (35397) - http://www.bohemiancoding.com/sketch -->
    <title>Group</title>
    <desc>Created with Sketch.</desc>
    <defs>
        <path d="M154.944791,154.942857 C240.517538,154.942857 309.886681,85.5717802 309.886681,0 L0,0 C0,85.5717802 69.3701099,154.942857 154.944791,154.942857 Z" id="path-1"></path>
    </defs>
    <g id="Page-1" stroke="none" stroke-width="1" fill="none" fill-rule="evenodd">
        <g id="Clima" transform="translate(-260.000000, -3824.000000)">
            <g id="consecuencias" transform="translate(219.000000, 3200.000000)">
                <g id="deshielo" transform="translate(40.000000, 624.000000)">
                    <g id="Group">
                        <g id="Page-1-+-Page-1-Mask" transform="translate(0.000000, 108.307692)">
                            <mask id="mask-2" fill="white">
                                <use xlink:href="#path-1"></use>
                            </mask>
                            <g id="Mask"></g>
                            <g id="Page-1" mask="url(#mask-2)">
                                <g transform="translate(0.000000, 33.846154)">
                                    <polygon id="Fill-16" fill="#D4F4FF" points="26.9979518 36.9088627 26.633426 35.3708957 25.5525054 35.2533682 25.5525054 76.8454562 25.9828485 76.9983682 39.8972742 86.7430386 39.8972742 21.8767199"></polygon>
                                    <polygon id="Fill-17" fill="#BBE8F2" points="0.237870019 32.756099 0.237870019 68.0269781 0.0564508843 68.2418133 0.237870019 68.3050001 0.237870019 68.5185715 0.970297038 68.4705496 25.5521679 76.8453298 25.5521679 35.2545056"></polygon>
                                    <polygon id="Fill-18" fill="#BBE8F2" points="50.8878986 8.54392319 39.8972742 21.8763408 39.8972742 86.7426594 40.4525012 87.3618902 114.996358 93.8094726 114.996358 30.2182638"></polygon>
                                    <polygon id="Fill-19" fill="#BBE8F2" points="220.511836 35.935154 184.18835 35.935154 184.18835 110.594165 185.599201 110.917681 245.786475 88.346088 245.786475 29.193121"></polygon>
                                    <polygon id="Fill-20" fill="#D4F4FF" points="177.205992 35.935154 132.360869 35.935154 114.996105 30.2192748 114.996105 93.8092199 116.720852 93.9583408 184.188519 110.594165 184.188519 35.935154"></polygon>
                                    <polygon id="Fill-21" fill="#D4F4FF" points="245.786728 29.1935001 245.786728 88.3452034 246.001056 88.3047638 304.032396 56.2690496 304.583404 20.506577 285.439888 27.9638847 280.174514 20.1287199"></polygon>
                                    <polygon id="Fill-22" fill="#FEFEFF" points="177.205739 0.550159449 132.36146 0.550159449 50.9447714 0.550159449 0.258796505 32.6730715 25.7005097 41.2361485 40.509374 51.5987858 117.12394 58.1954891 185.913013 75.1548298 246.104507 52.5427968 304.609225 20.5058188 280.279653 11.9414781 220.512596 0.550159449"></polygon>
                                </g>
                            </g>
                            <g id="Page-1" mask="url(#mask-2)">
                                <g transform="translate(-5.802198, 3.868132)">
                                    <polygon id="Fill-16" fill="#D4F4FF" points="28.112153 25.2927473 27.7325832 24.2228571 26.6070533 24.1410989 26.6070533 53.0747253 27.0551565 53.1810989 41.5438284 59.96 41.5438284 14.8356044"></polygon>
                                    <polygon id="Fill-17" fill="#BBE8F2" points="0.247686877 22.4038681 0.247686877 46.9401319 0.0587806033 47.0895824 0.247686877 47.1335385 0.247686877 47.2821099 1.01034104 47.2487033 26.6067018 53.0746374 26.6067018 24.1418901"></polygon>
                                    <polygon id="Fill-18" fill="#BBE8F2" points="52.9880341 5.56061538 41.5438284 14.8353407 41.5438284 59.9597363 42.1219695 60.3905055 119.742239 64.8757802 119.742239 20.6384176"></polygon>
                                    <polygon id="Fill-19" fill="#BBE8F2" points="229.612325 24.6153846 191.789774 24.6153846 191.789774 76.5520879 193.25885 76.7771429 255.930044 61.0751648 255.930044 19.9252747"></polygon>
                                    <polygon id="Fill-20" fill="#D4F4FF" points="184.519255 24.6153846 137.823381 24.6153846 119.741976 20.6391209 119.741976 64.8756044 121.537903 64.9793407 191.78995 76.5520879 191.78995 24.6153846"></polygon>
                                    <polygon id="Fill-21" fill="#D4F4FF" points="255.930308 19.9255385 255.930308 61.0745495 256.153481 61.0464176 316.579765 38.7607033 317.153513 13.8824615 297.219947 19.0701538 291.737272 13.6196044"></polygon>
                                    <polygon id="Fill-22" fill="#FEFEFF" points="184.518991 -0.000263736264 137.823996 -0.000263736264 53.047254 -0.000263736264 0.269476996 22.3461099 26.7611657 28.303033 42.1811894 35.5118242 121.957627 40.1008352 193.585614 51.8986374 256.261201 36.1685275 317.180399 13.8819341 291.84675 7.92413187 229.613116 -0.000263736264"></polygon>
                                </g>
                            </g>
                        </g>
                        <g id="Page-1" transform="translate(93.802198, 0.000000)">
                            <path d="M28.1716349,123.262987 C28.164325,115.961355 27.2423695,108.437686 26.1139105,101.570077 C25.1197702,95.5175163 24.8346858,76.6708814 14.2171207,82.8824311 C7.52403426,86.7968587 5.29270087,97.2216264 5.2077238,104.624683 C5.12091927,112.109975 12.4508769,123.901685 6.39100666,130.02643 C4.18525777,132.25685 1.01186675,134.174773 0.162096046,137.492534 C-0.938037207,141.790729 3.80971394,143.254528 6.94381448,143.683982 C10.4452353,144.164605 13.8909184,144.312629 17.3777195,143.597177 C19.9151531,143.07635 22.2716677,141.912255 24.2471562,140.15789 C26.3396023,138.300273 27.2661265,135.191757 27.6252232,132.427718 C28.010818,129.459003 28.174376,126.38064 28.1716349,123.262987" id="Fill-1" fill="#E1E1E1"></path>
                            <path d="M113.164056,132.903864 C112.029201,131.834797 107.660648,130.209268 106.201418,129.949768 C99.5311752,128.764658 104.732137,97.9691505 103.968258,88.2516113 C103.383469,80.8120059 96.7141397,67.5875636 86.2345481,72.3837425 C81.8979763,74.3683683 85.9567736,87.4319938 84.5605912,91.490791 C80.5182411,103.238643 81.9080273,116.728981 81.4895381,128.991263 C81.0198799,142.807804 103.367022,145.503313 112.288701,141.216997 C113.778997,140.500631 115.201678,139.186684 115.204419,137.34917 C115.208074,135.390128 114.510897,134.172124 113.164056,132.903864" id="Fill-3" fill="#E1E1E1"></path>
                            <path d="M90.8711894,69.2171131 C87.7772931,60.6837705 82.494095,48.2725496 78.1630056,40.3093758 C77.9007646,39.8278391 77.6440059,39.3490435 77.4073493,38.8638519 C79.0639453,35.3341054 80.1092547,31.647197 80.3861154,28.2289258 C80.4116999,27.9136883 80.4336295,27.5975371 80.4519041,27.2795584 C80.5752579,25.0272091 80.5030731,22.771205 80.4418531,20.517942 C80.3970802,18.8302791 80.5898776,16.6382362 80.0251913,14.955142 C80.1101684,14.9103691 80.1924043,14.8619413 80.2773813,14.8135135 C80.2454007,14.7714819 80.2134201,14.7285365 80.1814395,14.6855911 C81.4158913,13.98019 82.2583522,13.008893 83.1940137,11.9343442 C85.3796605,9.42432258 84.0328196,5.77944588 82.4831302,3.35440132 C79.4340067,-1.41071074 71.961507,-1.09730068 69.8224605,4.28549416 C69.735656,4.33483568 69.6515926,4.38417721 69.5766666,4.43077754 C69.2632566,4.62266124 68.9333993,4.88124738 68.6400914,5.18369265 C64.8937904,4.02142563 60.8121499,3.09307398 56.8036079,3.00626945 C54.7787779,2.66270624 52.549272,2.88565683 50.6139877,3.09398771 C48.2127002,3.35074639 45.9247154,3.80669862 43.6312482,4.48286026 C42.479946,4.63636722 41.3798128,4.79078792 40.2796795,5.22937925 C38.9739566,5.74929272 37.6865083,6.30301428 36.4401779,6.95085022 C35.3957823,7.49360699 34.4738268,8.15058025 33.6487268,8.89161686 C33.6176599,8.85872251 33.5884205,8.82582816 33.5555262,8.79293381 C32.3978278,7.64802769 31.0162651,6.84485732 29.4245441,6.49763918 C26.5901476,5.88087012 21.8414827,6.11844043 20.4398179,9.18492481 C19.7179697,10.7638536 19.8349274,12.7000516 20.0624467,14.3840595 C20.3228603,16.3102065 21.2347647,17.4825245 22.8703449,18.4885434 C24.1504833,19.2752666 25.5576305,19.4735464 27.001327,19.5868492 C27.1438692,20.6504332 27.3576824,21.7067073 27.5513936,22.7675501 C27.2653955,26.2077508 27.7387087,29.7804427 28.8169123,33.2507966 C29.2171269,34.9201848 29.7251619,36.5575925 30.2578676,38.0926621 C30.4095471,38.5275985 30.5703639,38.9433465 30.7430593,39.3444749 C29.7754171,40.6428879 29.0334668,41.9568345 28.2613633,43.3849975 C21.7967099,55.3530584 15.9899434,68.869895 14.3680692,82.7211574 C12.8969608,95.2895402 12.050845,116.605079 20.3438761,127.085584 C21.2905024,128.279832 22.0516411,129.776525 23.1727902,130.81361 C23.650672,131.254943 24.1714992,131.60673 24.724307,131.882677 C24.748064,131.942983 24.7727348,132.002376 24.7955781,132.063596 C25.153761,133.989743 25.7047414,135.859238 26.3279066,137.740612 C26.772894,139.081057 27.0378763,140.464447 27.5148443,141.800323 C27.9397297,142.990916 28.3993369,144.483954 29.2829156,145.421443 C30.0888272,146.27761 31.061038,146.800264 32.1319318,147.251648 C33.0657659,147.645466 33.8762461,148.275028 34.8000291,148.703568 C37.4599027,149.935279 40.7868007,149.42633 43.6650563,149.443691 C45.1078391,149.452828 46.3980286,149.21343 47.6096371,148.730066 C48.2803163,148.902762 48.9592192,149.0517 49.6591378,149.130281 C51.5158411,149.336784 53.2802575,148.627728 54.6060825,147.378657 C55.8752562,146.183495 56.6948738,144.538778 57.1243278,142.873958 C57.5839349,141.087612 57.0448331,139.039939 56.6080692,137.303848 C56.063485,135.136476 54.812586,133.428711 53.3871641,131.827853 C54.7495385,131.564698 56.114654,131.313422 57.477942,131.053008 C59.5183054,130.663758 61.6948149,130.831885 63.7580216,130.903156 C64.3638259,130.923258 64.9650615,130.95067 65.5653834,130.982651 C65.0728819,132.006031 64.5767254,133.020273 63.9928507,134.008017 C62.4184906,136.669718 61.1785564,139.269286 61.2178468,142.431712 C61.2489137,144.951785 62.1589907,147.720392 64.4789561,148.992307 C66.6445008,150.179245 69.3272178,149.948985 71.705662,149.951726 C73.3174852,149.95264 74.8598647,150.050409 76.4360523,149.667555 C78.0451342,149.276478 79.5710665,148.756565 81.2313175,148.881746 C84.5445095,149.130281 86.5108606,146.646757 87.1623515,143.644234 C87.5086559,142.047945 87.4931224,140.511048 87.4986048,138.881863 C87.4995186,138.336365 87.3907845,137.829244 87.2400187,137.334915 C87.3560626,135.637201 87.1998145,133.862734 86.9960523,132.160451 C88.5475691,131.622263 90.1347215,131.173621 91.6460341,130.530354 C96.9100438,128.288055 95.7030039,116.351061 96.077634,112.016317 C96.2283998,110.271089 96.3417025,108.535912 96.4157148,106.808045 C96.9666952,93.9664563 95.3530446,81.5753375 90.8711894,69.2171131" id="Fill-5" fill="#FFFFFF"></path>
                            <path d="M65.3851041,32.3961831 C65.2315971,29.7518429 64.1963388,27.0645572 62.0974966,24.624893 C61.7566746,23.8802014 61.3674248,23.1492159 60.9681239,22.4246265 C60.0096191,20.6830534 58.44531,18.8053343 56.3958093,18.4434964 C53.9616274,18.0131287 51.4982061,19.1827055 50.1714673,21.256877 C46.6883212,26.6999782 41.5695949,31.6030638 43.9781923,38.7959616 C44.5465335,40.4918481 45.8065699,41.3041557 46.9706644,42.5267291 C49.0420947,44.7014111 51.6224737,46.7819787 54.815053,46.3132342 C55.1851145,46.2584103 55.5213678,46.1597273 55.8402603,46.034546 C61.9229738,43.6341722 65.7140476,38.1134038 65.3851041,32.3961831" id="Fill-7" fill="#E1E1E1"></path>
                            <path d="M58.3741303,27.439096 C56.4635168,27.4655942 54.5245777,27.4180801 52.6395487,27.7570747 C52.0383131,27.864895 51.8117075,28.5236958 51.9606458,29.044523 C51.953336,29.1167078 51.9451124,29.1898064 51.9505948,29.2647324 C52.1232901,31.2722014 53.4911468,33.2412938 55.6119187,33.4231264 C56.5612861,33.5044486 57.4476061,32.3357854 57.9382802,31.6715023 C58.4079384,31.0364586 58.780741,30.2597864 59.288776,29.6768255 C60.0060556,28.8562942 59.5866526,27.4226488 58.3741303,27.439096" id="Fill-9" fill="#542F31"></path>
                            <path d="M58.8664491,39.0037442 C57.5451927,38.8986651 56.7803991,37.3124264 55.4317307,37.5043101 C54.9492803,37.5737537 54.5088615,37.8031005 54.0154462,37.8268575 C53.2853744,37.8615793 52.7371352,38.4993642 51.9878751,38.5386547 C50.8164707,38.598961 50.8420552,40.4648016 51.9796515,40.340534 C53.2250681,40.2053017 54.1397138,39.4286296 55.3193417,39.0741016 C55.7314348,38.949834 56.5647583,39.9567666 56.9247687,40.1952507 C57.4949374,40.5744494 58.1939424,40.6904934 58.8582255,40.7489722 C59.9775471,40.8476553 59.9830295,39.0923762 58.8664491,39.0037442" id="Fill-11" fill="#542F31"></path>
                            <path d="M40.338067,19.9639464 C38.2574994,19.954809 38.2428796,23.179369 40.3225335,23.1894201 C42.4021874,23.1994711 42.4177209,19.9739974 40.338067,19.9639464" id="Fill-13" fill="#542F31"></path>
                            <path d="M68.2095409,19.6351856 C68.0852733,19.6068599 67.9600921,19.579448 67.8358245,19.5511223 C67.4639356,19.4670589 67.0975291,19.4917297 66.7612758,19.6863546 C66.3363904,19.9330622 66.0668395,20.3954106 66.065012,20.8879121 C66.0631846,21.2561461 66.2093817,21.614329 66.4688815,21.8756563 C66.8325469,22.2429766 67.329617,22.3462283 67.8230323,22.2402354 C67.9482136,22.2137371 68.0733948,22.1863252 68.1976624,22.1598269 C68.7623487,22.0383006 69.1625633,21.4617357 69.1643908,20.9025318 C69.167132,20.3433279 68.7733135,19.7621943 68.2095409,19.6351856" id="Fill-15" fill="#542F31"></path>
                            <path d="M30.9565984,12.3314521 C29.7696606,11.0878629 28.0920488,10.2856063 26.3888525,11.0321253 C24.8044413,11.7274753 24.2699081,13.2826471 24.7011896,14.8880741 C25.1589693,16.5912704 26.9754684,17.9682644 28.6969393,17.0755483 C29.3858932,16.7182791 29.8509828,16.1206985 30.2731269,15.4874822 C30.4558733,15.2124489 30.6422746,14.9328469 30.7957816,14.6404527 C30.9355826,14.4037961 31.0050262,14.1479512 31.0086811,13.8729179 C31.0059399,13.8546432 31.0031988,13.8363686 31.0004576,13.818094 C31.0233009,13.7696662 31.0415755,13.7175835 31.053454,13.6609321 C31.0561952,13.6481398 31.0525403,13.6499673 31.0470579,13.6581909 C31.0635051,13.6252965 31.0817797,13.5869198 31.1064505,13.5357508 C31.3047303,13.1218302 31.2855419,12.6768428 30.9565984,12.3314521" id="Fill-17" fill="#E1E1E1"></path>
                            <path d="M78.4744055,8.29887895 C78.4022206,7.92150766 78.2505411,7.55418742 78.1162225,7.1960045 C78.0486064,7.01691304 77.9828177,6.83782158 77.9197702,6.65690266 C77.8777385,6.53720377 77.7827104,5.94693294 77.814691,6.37273202 C77.7626083,5.68651934 77.2271614,4.8842627 76.4294734,4.97380843 C75.0369459,5.13005659 74.3306311,6.02185896 73.5704062,7.03427395 C72.9728255,7.20240062 72.4647905,7.65743913 72.5333204,8.37106377 C72.602764,9.08834334 72.8997269,9.44287133 73.3236985,9.98654184 C73.1007479,9.70054374 73.6316262,10.3876702 73.6855364,10.4562001 C73.8308198,10.6407739 73.9879817,10.8134692 74.1615907,10.9724586 C75.1255779,11.8624335 76.4897797,11.9711676 77.4912299,11.0720554 C77.5807756,10.9980431 77.6620978,10.9176347 77.7361101,10.828089 C77.5204693,10.889309 77.5889992,10.8189516 77.9426135,10.6170169 C78.0970342,10.4680786 78.2404901,10.296297 78.3282084,10.0998446 C78.6023279,9.48673047 78.5968455,8.94854236 78.4744055,8.29887895" id="Fill-19" fill="#E1E1E1"></path>
                            <path d="M70.9585034,44.4576274 C70.2311728,44.932768 69.4782577,45.099981 68.6878796,45.4243558 C67.933137,45.7341109 67.3995175,46.5829679 66.8686393,47.1750662 C66.2838508,47.8292983 65.6542895,48.0421978 64.8538603,48.3409881 C63.9876425,48.6644493 63.2657942,49.3049753 62.4964319,49.8020455 C61.8604745,50.2132249 61.2299995,50.6170944 60.5520104,50.9542615 C59.5688348,51.4440218 58.4869762,51.3864567 57.4233922,51.4312296 C55.450645,51.5152929 53.3682499,52.1220109 51.4220009,51.5838228 C49.9527199,51.1772121 49.3332097,49.6256952 47.7241277,49.3990897 C47.0370013,49.3022341 46.3909928,49.3890387 45.722141,49.5571654 C44.9226256,49.7572726 44.3844375,49.3926936 43.6644167,48.9614121 C43.0129258,48.5721623 42.7369788,47.8457454 42.2088417,47.3367967 C41.6606026,46.8086597 41.0356099,46.3636722 40.3567071,46.0219365 C39.7938482,45.7395933 38.9632659,45.7286285 38.4661957,45.3969438 C37.9691256,45.0652592 37.3148935,45.1977503 36.9238162,44.6933703 C36.682591,44.3845289 36.2175014,44.5965147 36.113336,44.9035286 C35.7368784,46.0137129 36.9685891,46.5391088 37.7516574,47.0023709 C38.4323876,47.4053266 39.2638837,47.5286805 39.9574062,47.9462559 C40.8154005,48.464342 41.2494232,49.3177676 41.9118789,50.0259098 C42.8859171,51.0657368 44.5151012,51.8670797 45.9222483,51.5673756 C46.7957761,51.3809743 47.5614834,51.1525413 48.2979514,51.7930674 C49.0134035,52.4162326 49.5899683,53.0430527 50.5082689,53.3838747 C52.576958,54.1514095 54.8073777,53.6707865 56.9409418,53.4926088 C59.0379566,53.3171723 60.6781054,53.2934152 62.5421185,52.1978507 C63.2831551,51.7629143 64.149373,51.3060483 64.8008639,50.7486718 C65.5939832,50.069769 66.6886341,50.0277373 67.5091654,49.3872112 C68.2346685,48.8206974 68.7975274,48.0979355 69.3969355,47.4053266 C69.6975533,47.0571948 70.4011269,46.892723 70.8214436,46.7108904 C71.2901881,46.5071281 71.6529397,46.1772709 71.9864518,45.8035546 C72.6059621,45.1118595 71.8091879,43.9020784 70.9585034,44.4576274" id="Fill-21" fill="#E1E1E1"></path>
                            <path d="M65.1013903,132.876634 C66.3650816,131.0711 67.5383134,129.081906 68.2775225,126.993114 C68.7809888,125.571348 68.8312441,123.920234 69.0459711,122.433592 C69.3009023,120.663693 69.5540061,118.893795 69.8107647,117.12481 C70.2420462,114.155181 70.6468295,111.213878 70.6020566,108.205872 C70.5581975,105.29655 70.2603208,102.396364 70.2073244,99.4861282 C70.1515867,96.4269537 69.7312701,93.4253443 69.4160325,90.3862719 C69.268008,88.9718148 69.1930819,87.6670056 68.8047459,86.2863567 C68.4100137,84.8810369 67.914771,83.4665799 67.7384207,82.0110049 C67.6762869,81.5020562 67.3464297,81.0058998 66.7662099,81.0296568 C66.6309776,81.0351392 66.4957453,81.0406216 66.3614267,81.046104 C65.3709412,81.0863082 65.170834,82.2522302 65.7656734,82.7456454 C65.8058776,84.8454014 66.6328051,86.8492155 66.5871185,88.9462303 C66.5258984,91.7888504 67.0375883,94.6141095 67.1810442,97.4475923 C67.3199315,100.219855 67.3098804,103.006737 67.4378029,105.783569 C67.5684666,108.627103 67.4880581,111.421295 67.0851024,114.241072 C66.6593033,117.21801 66.1841627,120.188553 65.7346066,123.16275 C65.5399817,124.449285 65.4257652,125.733992 64.8903182,126.936463 C64.4700016,127.879434 63.892523,129.282927 63.2044828,130.050462 C63.0317875,130.244173 62.8682295,130.574944 62.689138,130.861855 C63.0473209,130.875561 63.4045901,130.890181 63.7572906,130.902973 C64.3640087,130.923076 64.9652443,130.950487 65.5655662,130.982468 C65.0849432,131.980263 64.601579,132.967094 64.0359789,133.931081 C64.4215738,133.677977 64.7797567,133.336242 65.1013903,132.876634" id="Fill-23" fill="#E1E1E1"></path>
                            <path d="M57.4777593,131.053191 C58.3119965,130.893288 59.1681634,130.83024 60.0307263,130.812879 C59.4980206,130.557948 58.981762,130.282915 58.5367746,130.121184 C57.758275,129.8361 56.3767123,130.273778 55.886952,129.841582 C55.4803413,129.484313 55.0664207,129.265018 54.6351392,129.176386 C54.4761499,128.983588 54.2595954,128.82003 53.978166,128.710382 C54.4633576,128.898611 54.4432555,129.048463 54.1819282,128.626319 C54.0640568,128.434435 53.9617188,128.226104 53.8831378,128.015946 C53.6638422,127.42202 53.3851539,126.904848 53.0991558,126.330111 C52.7491965,125.627451 52.6888902,124.800523 52.6770117,124.032988 C52.6596508,123.021487 52.0940507,121.915872 51.7504875,120.981124 C51.05331,119.082389 50.6329933,117.126089 50.3862857,115.117706 C50.1240446,112.980487 49.9211962,110.786617 49.8252543,108.63295 C49.6361118,104.42887 49.9869849,100.189154 50.4392822,96.0143124 C50.9317837,91.478547 50.8477203,86.8925264 50.8806147,82.336659 C50.8915795,80.8929625 48.6456264,80.8819978 48.6419714,82.3266079 C48.6300929,87.1346654 48.5122215,91.949119 47.7949419,96.7124036 C47.1059881,101.292942 46.741409,105.991351 47.0676113,110.620317 C47.2192908,112.749313 47.3874175,114.903893 47.6980864,117.016441 C48.0352534,119.310822 48.7607566,121.346617 49.4917421,123.532263 C49.8005835,124.45696 49.7612931,125.461152 49.9906398,126.410519 C50.0783581,126.776012 50.2282101,127.132367 50.3771484,127.475017 C50.511467,127.782944 50.9253876,128.295548 50.9665055,128.605303 C51.0889456,129.506243 51.7870368,130.7078 52.6441173,131.256039 C52.7318356,131.37848 52.8369148,131.487214 52.9556999,131.574932 C53.1640308,131.726611 53.3613969,131.876463 53.5560218,132.019919 C53.4993704,131.955044 53.4445465,131.891083 53.3869814,131.828036 C54.7502694,131.563967 56.1144712,131.313605 57.4777593,131.053191" id="Fill-25" fill="#E1E1E1"></path>
                            <path d="M41.2770179,142.696694 C40.9252311,141.50336 38.8519733,141.666918 39.0210138,142.99183 C39.1617285,144.090136 39.3992988,145.149151 39.6414377,146.229182 C39.9018513,147.397845 39.6560575,148.974946 40.6063387,149.814666 C41.0458437,150.202088 41.6562167,150.234069 42.0957217,149.821062 C43.778816,148.243961 41.8142923,144.522331 41.2770179,142.696694" id="Fill-27" fill="#542F31"></path>
                            <path d="M49.2315113,146.308585 C49.2150641,144.740621 48.4475293,143.380988 48.3442776,141.821248 C48.2355435,140.179271 45.7565887,140.129016 45.7648123,141.809369 C45.7666398,142.393244 45.830601,142.952448 45.9110094,143.529926 C46.0179161,144.303857 46.4766095,145.111596 46.4610761,145.891924 C46.4391465,147.049622 46.2061448,148.196355 46.9709385,149.148464 C47.3565334,149.629087 48.298591,149.633656 48.6878408,149.156688 C49.395983,148.292297 49.2433898,147.369428 49.2315113,146.308585" id="Fill-29" fill="#542F31"></path>
                            <path d="M71.8732405,148.682918 C71.8120204,148.525756 71.7224747,148.385955 71.6027758,148.263515 C71.6649096,148.331131 71.5214537,148.01498 71.5095751,147.976603 C71.3441897,147.413744 71.4063234,146.766822 71.4291667,146.189343 C71.4739396,145.024335 71.759024,143.633635 71.3588094,142.507917 C71.0554504,141.657233 70.0247608,141.715712 69.6939898,142.500607 C69.062601,143.996387 68.8497015,145.827505 68.8761997,147.446638 C68.9026979,149.157145 70.1755265,151.284313 71.7900909,149.890871 C72.1501012,149.580202 72.123603,149.042928 71.8732405,148.682918" id="Fill-31" fill="#542F31"></path>
                            <path d="M78.6020538,148.157613 C78.5225591,147.805826 78.2603181,147.532621 78.2155452,147.179006 C78.1406192,146.585994 78.1936156,145.971053 78.2393022,145.378041 C78.3270205,144.238617 78.5920028,143.104676 78.6230697,141.962511 C78.6669288,140.394547 76.2519353,140.389978 76.1952839,141.951546 C76.1441149,143.32854 74.5368604,150.963684 78.1387917,149.28059 C78.5499711,149.088706 78.693427,148.566051 78.6020538,148.157613" id="Fill-33" fill="#542F31"></path>
                        </g>
                    </g>
                </g>
            </g>
        </g>
    </g>
</svg>