<?xml version="1.0" encoding="UTF-8"?>
<svg width="63px" height="99px" viewBox="0 0 63 99" version="1.1" xmlns="http://www.w3.org/2000/svg" xmlns:xlink="http://www.w3.org/1999/xlink">
    <!-- Generator: Sketch 41.2 (35397) - http://www.bohemiancoding.com/sketch -->
    <title>light</title>
    <desc>Created with Sketch.</desc>
    <defs></defs>
    <g id="Page-1" stroke="none" stroke-width="1" fill="none" fill-rule="evenodd">
        <g id="Clima" transform="translate(-305.000000, -5165.000000)">
            <g id="que-hacer" transform="translate(219.000000, 4935.000000)">
                <g id="items" transform="translate(25.000000, 229.000000)">
                    <g id="electricidad">
                        <g id="light" transform="translate(61.000000, 0.000000)">
                            <g id="Group-3" transform="translate(0.000000, 0.791413)" fill="#FFC409">
                                <path d="M14.9955435,20.7726087 C12.4683696,23.5671739 12.3825,27.9932609 11.6151087,31.4791304 C10.9227174,34.6236957 6.39880435,33.2628261 6.40532609,30.4052174 C6.41619565,25.3063043 7.78358696,19.7791304 12.8227174,17.5182609 C14.9694565,16.5552174 16.4433696,19.1726087 14.9955435,20.7726087 L14.9955435,20.7726087 Z M11.408587,44.8084783 C8.21619565,44.8084783 8.60206522,39.8715217 11.7803261,39.8715217 C14.9727174,39.8715217 14.5868478,44.8084783 11.408587,44.8084783 L11.408587,44.8084783 Z M28.7651087,73.4313043 L28.7651087,47.788913 C28.7651087,47.788913 24.7988043,45.6921739 23.9607609,41.5019565 C23.1227174,37.3117391 19.5738043,30.1878261 19.5738043,30.1878261 C31.308587,36.4736957 31.7455435,42.7606522 31.7455435,42.7606522 C33.4227174,29.7682609 45.6118478,22.6443478 45.6118478,22.6443478 C43.0977174,42.7606522 35.2868478,40.6030435 33.1129348,47.788913 L33.1129348,73.4313043 L40.2107609,73.4313043 C41.2955435,73.4313043 42.2661957,73.8965217 42.9553261,74.6291304 C43.5346739,73.1421739 43.8618478,71.2671739 43.8618478,68.8986957 C43.8618478,59.6802174 62.5781522,53.2356522 62.5781522,31.5845652 C62.5781522,14.3041304 48.5694565,0.295434783 31.2890217,0.295434783 C14.0096739,0.295434783 -0.000108695652,14.3041304 -0.000108695652,31.5845652 C-0.000108695652,53.6552174 18.7183696,60.0997826 18.7183696,68.8986957 C18.7183696,70.9943478 19.0020652,72.7084783 19.5042391,74.1204348 C20.1172826,73.688913 20.8607609,73.4313043 21.6672826,73.4313043 L28.7651087,73.4313043 Z" id="Fill-1"></path>
                            </g>
                            <path d="M12.8232609,18.3095652 C7.78304348,20.5704348 6.41673913,26.0976087 6.40478261,31.1965217 C6.39826087,34.0541304 10.9221739,35.415 11.6156522,32.2704348 C12.3819565,28.7845652 12.468913,24.3584783 14.996087,21.563913 C16.4428261,19.963913 14.97,17.3465217 12.8232609,18.3095652" id="Fill-4" fill="#FFFFFF"></path>
                            <path d="M11.7797826,40.6632609 C8.60152174,40.6632609 8.21565217,45.6002174 11.4080435,45.6002174 C14.5863043,45.6002174 14.9732609,40.6632609 11.7797826,40.6632609" id="Fill-6" fill="#FFFFFF"></path>
                            <path d="M31.2893478,99.7044565 C35.6154348,99.7044565 39.236087,96.7196739 40.2295652,92.7011957 L22.3502174,92.7011957 C23.3436957,96.7196739 26.9643478,99.7044565 31.2893478,99.7044565" id="Fill-8" fill="#42A047"></path>
                            <path d="M29.6132609,80.7447826 L32.9654348,80.7447826 L40.9284783,80.7447826 C41.4741304,80.7447826 41.9893478,80.8697826 42.4567391,81.0752174 C43.3773913,80.3871739 43.9828261,79.2980435 43.9828261,78.06 L43.9828261,77.9947826 C43.9828261,76.9969565 43.5871739,76.0958696 42.9545652,75.4208696 C42.2665217,74.6871739 41.2958696,74.2230435 40.211087,74.2230435 L33.1132609,74.2230435 L33.1132609,48.5795652 C35.2871739,41.3936957 43.0969565,43.5513043 45.6121739,23.436087 C45.6121739,23.436087 33.4219565,30.56 31.7458696,43.5513043 C31.7458696,43.5513043 31.3078261,37.2654348 19.5741304,30.9795652 C19.5741304,30.9795652 23.1219565,38.1034783 23.96,42.2936957 C24.7980435,46.483913 28.7654348,48.5795652 28.7654348,48.5795652 L28.7654348,74.2230435 L21.6665217,74.2230435 C20.861087,74.2230435 20.1176087,74.4806522 19.5045652,74.911087 C18.533913,75.5936957 17.8958696,76.7176087 17.8958696,77.9947826 L17.8958696,78.06 C17.8958696,79.4317391 18.635,80.6208696 19.7306522,81.2806522 C20.2947826,80.9567391 20.9469565,80.7447826 21.6513043,80.7447826 L29.6132609,80.7447826 Z" id="Fill-10" fill="#66BA6A"></path>
                            <path d="M44.6990217,84.0056522 C44.6990217,82.8947826 43.7761957,81.6523913 42.4566304,81.0752174 C41.9892391,80.8697826 41.4740217,80.7447826 40.9283696,80.7447826 L32.9653261,80.7447826 L29.6131522,80.7447826 L21.6511957,80.7447826 C20.9468478,80.7447826 20.2946739,80.9567391 19.7305435,81.2806522 C18.6272826,81.9154348 17.8805435,83.01 17.8805435,84.0056522 C17.8805435,85.51 19.568587,87.2665217 21.6511957,87.2665217 L40.9283696,87.2665217 C43.0109783,87.2665217 44.6990217,85.51 44.6990217,84.0056522" id="Fill-12" fill="#42A047"></path>
                            <path d="M21.6516304,87.2665217 C19.5690217,87.2665217 17.8798913,88.4795652 17.8798913,89.983913 C17.8798913,91.4882609 19.5690217,92.7013043 21.6516304,92.7013043 L22.3505435,92.7013043 L40.2298913,92.7013043 L40.9288043,92.7013043 C43.0103261,92.7013043 44.6994565,91.4882609 44.6994565,89.983913 C44.6994565,88.4795652 43.0103261,87.2665217 40.9288043,87.2665217 L21.6516304,87.2665217 Z" id="Fill-14" fill="#66BA6A"></path>
                        </g>
                    </g>
                </g>
            </g>
        </g>
    </g>
</svg>