<?xml version="1.0" encoding="utf-8"?>
<!-- Generator: Adobe Illustrator 18.0.0, SVG Export Plug-In . SVG Version: 6.00 Build 0)  -->
<!DOCTYPE svg PUBLIC "-//W3C//DTD SVG 1.1//EN" "http://www.w3.org/Graphics/SVG/1.1/DTD/svg11.dtd">
<svg version="1.1" id="Capa_1" xmlns="http://www.w3.org/2000/svg" xmlns:xlink="http://www.w3.org/1999/xlink" x="0px" y="0px"
	 viewBox="0 330.5 612 131.2" enable-background="new 0 330.5 612 131.2" xml:space="preserve">
<title>Fill 1</title>
<desc>Created with Sketch.</desc>
<g id="Page-1">
	<g id="Clima" transform="translate(0.000000, -4620.000000)">
		<g id="background3" transform="translate(-22.000000, 4424.000000)">
			<linearGradient id="Fill-1_1_" gradientUnits="userSpaceOnUse" x1="328" y1="657.705" x2="328" y2="526.4948">
				<stop  offset="0" style="stop-color:#215870"/>
				<stop  offset="1" style="stop-color:#071E32"/>
			</linearGradient>
			<path id="Fill-1" fill="url(#Fill-1_1_)" d="M573.6,601.4c-1.1-0.3-1.5,0-2,0.3c-2,0.3-4,0.3-5.9,0c1.4-1,3-1.9,5-2.6
				c3.1,0.4,6.7,0.3,9.6-0.4c-2.3-0.2-5.2,0.1-8.3-0.2c-2.4-0.4-3.2-0.6-4-0.9c4.2-1.2,8.2-2.4,12.7-2c2.5,0.2,2.9-0.6,0.8-0.8
				c-5.3-0.6-12.8,1.5-17.1,3c-1.1,0.3-2.2,0.6-3.4,0.8c6.6-3.4,9.8-7.9,17.4-9.8c4.1,1.9,9.3,2.9,13.8,2.5c-2.9-0.5-7.4-0.7-11-2.9
				c4.3-0.6,8.5-1.2,12.4-0.2c-3.7-2.1-11.3-1-15.9-0.1c-1.1,0.2-2.3,0.3-3.4,0.4c7.3-2.5,12-6.7,19.7-7.5c2.7-0.3,2.8-1,0.4-0.8
				c-5.7,0.4-12.3,3.7-16.1,5.8c3.7-4.9,10.7-7.1,14.6-7.9c2.7-0.5,2.6-1.2,0.2-0.9c-5.9,0.9-12.9,4.3-16.4,8.1
				c-3,0.9-5.6,2.1-7.9,3.6c-2.1,0.3-4.3,0.5-6.6,0.4c-0.7,0-1.4,0-2,0.2c0.6-0.6,1.3-1.3,1.9-1.9c3.6-0.5,11.7-1.4,18.5-7.4
				c-3.6,1.9-8.7,5.2-16.8,6.3c1-0.5,2-1,3.1-1.6c3.3-1.4,7.9-3.6,10.3-6.6c2-1.3,11.5,0.6,22-5.8c-4.2,1.5-10.7,4.4-19.4,4
				c3.2-0.8,11.9-2.3,16.9-6.5c-6.5,3.7-12.6,4-18.9,6.2c-1.9,0.6-5.6,4.4-12.2,8.1c1.9-1.9,3.6-3.3,4.1-3.7
				c1.6-1.2,0.6-1.8-1.8,0.2c-0.4,0.3-2.7,2.3-5.4,4.8c-0.8,0.3-1.6,0.7-2.4,1.1c-0.8-0.9,0.6-2.3,1.8-3.2c-3.4,1.4-4.4,3.3-3.7,4.8
				c-0.7,0.8-1.6,1.7-2.6,2.8c0.7-3,2.8-6,4.8-8.8c3.1-0.7,6.2-2.1,9-3.7c4.2-2.5,6.9-5,7.7-6.7c0.9-1.8-1.1-0.8-2.1,0.6
				c-0.7,0.9-1.6,1.8-2.5,2.6c0.1-0.7,0-1.4-0.3-2c-2.3,0.3-4.1,1.4-6.4,2.4c3.3-1.8,5.4-3.1,7-4.5c2.6-1.1,4.7-2.4,6.7-3.7
				c4.8,0,10.7-1.5,14.2-3.6c-3.1,0.9-7.5,2.6-13,2.8c3.3-2.2,6.4-4.3,11.1-5.3c-5.5,0.2-11.3,4.1-14.5,6.5
				c-0.8,0.6-1.7,1.1-2.8,1.7c4-4.6,3.8-9.2,10-12.8c-5.2,1.9-7.8,6.7-9,9.6c-1.8-4.6,2.2-8.9,5-11c-5.8,2.9-8.8,9.3-6.3,13
				c-1.4,1.7-3.6,3.6-6.6,5.1c0.3-1.1,0.7-1.7,1-2.4c3.1-1.1,2.6-1.8,0.4-1.1c1.1-3.1,0.1-5.5-1-7.7c1-0.9,1.8-2,2.4-3.1
				c2.3-1.2,4.4-2.7,5.1-4.8c-1.7,1-2.6,2.2-4.5,3.5c0.8-1.8,0.9-3.6,0.4-5c-0.7,1.7-0.7,3.6-2,5.9c-0.5,0.8-1.1,1.7-1.9,2.5
				c-1.2-2.5-2.4-4.8-1-7.8c-3.1,3.3-0.9,7.7,0.6,10.2c0.8,1.3,0.8,3.5,0.2,5.8c-0.8-1.6-2.1-3.1-3.9-4c0.8,1.5,2.6,3,3.2,5.4
				c-1.9,0.9-3.7,2.2-5.3,3.4c0.2-0.6,0.3-1.2,0.3-1.9c0.4-1.1,0.3-1.5,0-1.5c-0.1-1.3-0.4-2.7-0.9-4.2c-0.6-1.5-1-2.4-1.5-3.3
				c2.2-2.2,3.6-4.8,3.5-6.8c-1.1,1.6-1.8,3.7-4,6c-0.6-1-1.4-2-2.2-2.8c-0.4-0.4,3.4-2.8,5.4-6.6c1.1-0.9,2.3-1.8,3.2-2.9
				c2.3-0.8,4.2-1.8,5.3-2.9c-1.5,0.6-2.8,1.4-4.7,2.2c0.9-1.2,1.7-2.5,2.1-4.1c-1.8,1.6-2.8,3.7-5.2,5.8c0.4-1.6,0.4-3.4-0.4-5.3
				c-0.3,2.8,0,7.2-5.9,12.2c0.8-2,3.8-7.4,0.7-11.3c1.6,4.6-1.7,8.2-2.2,12.4c-0.2,1.1,2.6,3.7,4.2,7.7c-0.4,0.3-0.8,0.7-1.1,1.1
				c-1-0.4-1.9-0.9-2.6-1.3c-2,0.6-2.3,1.1-2.7,1.7c-0.9-1.3-1.4-2.5-1.7-3.7c4-6.4,1.9-9.7-0.6-12.6c1.4-1.7,2.1-3.6,2.2-5.4
				c2.5-1.1,4.8-2.7,5.6-4.8c-1.7,1.1-2.8,2.6-5.6,4.1c0-1.1-0.3-2.1-0.9-3c-0.1,2,0.5,4.8-2,8.2c-1.8-2.2-3.6-4.2-2.8-7.2
				c-2.4,3.4,0.9,7.3,3.1,9.4c2,2,2.7,5.2,0.9,9c-0.3-0.9-1.2-0.6-1.4,0.8c-0.1,0.9,0,1.8,0.2,2.7c-2-0.7-3.4-1.6-4.5-2.5
				c7.1-10.8-5.6-13-3.4-20.2c-2.5,3.4,0.5,7.4,2.5,9.6c-6.7-1.9-7.8-6.2-7.6-8.6c-1.6,1.6-1.1,3.4,0,5c-1.4-0.6-3-0.9-5.1-0.8
				c1.7,0.8,4.2,1.1,6.5,2.7c1.9,1.7,4.4,3.1,7.4,3.6c0.9,2.2,0.7,5-1.2,8c-2.1-2-3-4.3-3-6c-1.6,1.1-1.2,2.4-0.7,3.5
				c-0.6-0.1-1.2-0.3-1.7-0.5c-2-0.9-2.6-1.4-3.1-1.8c-0.2,1.2,0.7,1.7,1.7,2.2c0,0.3,0,0.7,0,1.1c-1.3,0.5-0.8,0.8-0.3,1.2
				c-0.3,1-0.8,2.1-1.6,3.3c-0.2-1.5-0.9-3.1-2.4-4.8c0.2,2,1.6,4.5,0.7,7.9c-0.6,0.4-1.4,0.9-2,1.4c0-2.3-0.4-5.5-3.5-7.6
				c2.2,3.2,1.9,6,2,8.8c-0.6,0.5-1.3,1.1-2,1.7c-1.1-2-2.9-3.3-4.8-4.6c0.8-1.7,0.8-3.6,0.3-5.3c2.2-1.4,3.9-3.2,4-5.3
				c-1.4,1.3-2,2.8-4.2,4.6c-0.4-1-1.1-2-2-2.6c0.6,1.9,2.3,4.4,0.9,7.9c-0.9-1.1-1.7-2-2.6-2.9c0,0,0.5,0.7,1.1,2
				c-2.1-1.4-3.8-3-4-5.3c-1.2,2.9,2.2,5.6,5,7.4c0.9,2.2,1.9,5.2,2.3,8.6c-0.6,0.8-1.1,1.6-1.5,2.4c1.4-6.4-2.2-9.2-5.7-11.6
				c0-0.1-4.5-4.7,0.3-10.9c0,0-4.2,4.2-3,8.9c-1.6-1.3-2.8-2.8-2.9-4.8c-1.4,2.8,1.6,5.4,4.2,7.3c0,0,0.3,0.4,0.7,1.3
				c-1.4-0.3-2.7-0.7-3.8-1.2c-0.8-0.8-1.8-1.3-2.9-1.7c-0.5-3-0.4-6-0.1-9.4c0,0-1,3.2-1.5,7.9c-0.8-0.9-1.3-1.9-1.5-2.6
				c-1.2,0.8-1,1.4-0.6,2c-0.6-0.6-1.3-1.3-2-2c0.3-3.6,1-7.2,2.4-10.7c0,0-2.5,3.5-4.2,9.2c-2-1.7-4.5-3.2-7.3-4.8
				c0,0,3.3,2.4,6.9,6.2c-0.8,3.3-1.3,7.1-1,11.4c-0.4-1.7-0.8-3.4-1-5.3c0,0,0,1.8,0.4,4.6c-3.6-6.5-7.1-14.9-8.2-24.4
				c0,0-0.1,13.6,5.7,25.9c-0.1,0.8-0.2,1.8-0.2,3c-2.2-2.5-4.5-5-6.9-6.6c-1-3.7-1.5-7.8-1.1-12.5c0,0-1.7,4.7-0.8,11.3
				c-1.1-0.5-9.9-4.8-11.4-14.2c0,0-0.4,9,10.7,16.3c0,0,0.5,0.3,1.3,0.9c0.3,1.4,0.9,2.8,1.5,4.2c-0.1,0.7-0.1,1.7,0.1,3.1
				c-3.1-3-6.4-5.9-8.3-6.9c0,0-1-0.7-2.6-1.4c-0.2-0.3-0.3-0.7-0.4-1c0.1-1.7-0.3-2.5-0.3-2.5c0.6-0.8-0.2-1.6-0.2-1.6
				c1,0.3,1.4-1.1,1.4-1.1c-1-0.5-0.8-1-0.8-1c0.4-1.4-1.4-1.4-1.4-1.4c-0.9-0.2-0.8,1.9-0.8,1.9c-0.2,0.5-1.3,0.7-1.9,0.9
				c-0.2-0.3-0.5-0.8-1.1-1.1c0.3-0.4,1.4,0.3,2.3-0.9c0,0,1.1-0.1,1.1-2.3c0,0-0.9-1.1-1.8-0.3c0,0-0.8,1.1-1.1,1.8
				c0,0-0.7,1.2-1.2,1.2c-1.1,0-2,0.1-3.3,0.6c-0.3-0.6,0.1-2.2,0.1-2.2c0.9-0.3,0.7-1.5,0.7-1.5c-0.6-1.4-1.8,0.2-1.8,0.2
				c-1.7-0.5-1.6,1-1.6,1c-0.2,0.7,1.3,1.2,1.3,1.2c0.5,0.3,0.5,1.1,0.5,1.6c-0.8,0.4-1.7,0.9-2.6,1.6c-0.2-0.7-0.2-1-0.2-1.4
				c2.3-1.7,1.7-2.2,0.2-1.3c0.9-0.3,0.7-1.5,0.7-1.5c-0.6-1.4-1.8,0.2-1.8,0.2c-1.7-0.5-1.6,1-1.6,1c-0.2,0.7,1.3,1.2,1.3,1.2
				c-0.4,0.5-0.9,1-1.4,1.4c-0.3-0.2-0.2-1.2-1.9-0.7c-0.1-0.9,0-1.2,0.1-1.4c0-0.8-0.2-1-0.8-1.1c0,0-1.3,0.1-1.5,0.9
				c-1.6,0-1.6-0.4-1.7-0.7c0.1-0.5,0.2-0.9,0.3-1.4c0.5,0,2,0.4,2.6,0.5c0,0,1.7-0.3,1.1-1.2c-0.6-0.8,0.1-2.5-0.9-2.3
				c0,0-1.6,0.1-2,0.9c-0.3-0.6,0-2.1,0.2-3.4c1-0.3,2.5,0.3,3-0.3c0,0,1.4-0.9,0.6-1.4c-0.8-0.2-0.2-2-1.9-1.4c0,0-1.1,0.7-0.9,1.4
				c-0.4-0.8-0.3-2-0.1-2.9c1.7,0.3,3.2-0.4,2.6-1.1c-0.7-0.3,0.3-2-1.4-1.8c0,0-1.2,0.5-1.2,1.2c-0.2-0.4-0.4-0.7-0.7-0.9
				c0.3-0.3,2.6-0.2,2.3-1c0,0,0-1.7-1.5-1.3c-0.9,0.6-0.4-0.7-1.1-0.7c0,0-1.6,0.3-1.2,1.3c-1.7,0.3-2.3,1.7-1.3,1.5
				c0.6,0.7,0.3,1,0,1.3c0-1.2-1.4-1.5-1.4-1.5c-0.9-0.3-1.1,1.4-1.1,1.4c-1.7,1.2-1.1,1.6-0.7,1.8c-0.4,0.4-0.5,1.3-0.5,1.3
				c-2,1.4-0.4,2-0.4,2c-1.4,0.4-0.5,1.9-0.5,1.9c-1.1,0.9-0.8,1.2-0.5,1.4c-0.6,0.8-1.3,1.7-2.3,2.6c0.4-1.6,0.4-3.4-0.4-5.3
				c-0.3,2.8,0,7.2-5.9,12.2c0.8-2,3.8-7.4,0.7-11.3c1.6,4.6-1.7,8.2-2.2,12.4c-0.2,1.1,2.6,3.7,4.2,7.7c-0.4,0.3-0.8,0.7-1.1,1.1
				c-1-0.4-1.9-0.8-2.5-1.3c-2,0.6-2.3,1.1-2.7,1.7c-0.9-1.2-1.4-2.5-1.7-3.7c4-6.4,1.9-9.7-0.6-12.6c1.4-1.7,2.1-3.6,2.2-5.4
				c2.5-1.1,4.8-2.7,5.6-4.8c-1.7,1.1-2.8,2.6-5.6,4.1c0-1.1-0.3-2.1-0.9-3c-0.1,2,0.5,4.8-2,8.2c-1.8-2.2-3.6-4.2-2.8-7.2
				c-2.4,3.4,0.9,7.3,3.1,9.4c2,2,2.7,5.2,0.9,9c-0.3-0.9-1.2-0.6-1.4,0.8c-0.1,0.9,0,1.8,0.2,2.7c-2-0.7-3.4-1.6-4.5-2.5
				c7.1-10.8-5.6-13-3.4-20.2c-2.5,3.4,0.5,7.4,2.5,9.6c-6.7-1.9-7.8-6.2-7.6-8.6c-1.6,1.6-1.1,3.4,0,5c-1.4-0.6-3-0.9-5.1-0.9
				c1.7,0.8,4.2,1.1,6.5,2.7c1.9,1.7,4.4,3.1,7.4,3.6c0.9,2.2,0.7,5-1.2,8c-2.1-2-3-4.3-3-6c-1.6,1.1-1.2,2.4-0.7,3.5
				c-0.6-0.1-1.2-0.3-1.7-0.5c-2-0.9-2.6-1.4-3.1-1.8c-0.2,1.2,0.7,1.7,1.7,2.2c0,0.3,0,0.7,0,1.1c-1.3,0.5-0.8,0.8-0.3,1.2
				c-0.3,1-0.8,2.1-1.6,3.3c-0.2-1.5-0.8-3.1-2.4-4.8c0.7,2.6,2.6,6.7-1.6,12.2c0.1-2,1.2-7.4-3.4-10.5c3.3,4.1,1.3,7.9,2.3,11.8
				c0.3,1.2,5,3.6,8.2,7.9c-3.2-0.3-5.4-1.2-6.7-1.9c0.8,1.7,3.9,2.5,7.2,2.7c0.8,1.2,1.4,2.5,1.8,3.9c-0.4-0.3-1.1-0.5-1.9-0.7
				c-5.7-1.1-9.1-4-10.6-6.3c1.8-6.5-1.6-9.3-5.2-11.6c0.8-1.7,0.8-3.6,0.3-5.3c2.2-1.4,3.9-3.2,4-5.3c-1.4,1.3-2,2.8-4.2,4.6
				c-0.4-1-1.1-2-2-2.6c0.6,1.9,2.3,4.4,0.9,7.9c-2.7-1.7-5.2-3.4-5.5-6.2c-1.2,3.5,3.6,6.6,6.5,8.3c2.8,1.6,4.7,4.5,4.2,8.2
				c-0.6-0.8-1.4-0.3-1.1,0.9c0.2,0.8,0.6,1.7,1.2,2.5c-2.3-0.4-4-1-5.5-1.6c3.3-10.9-10.2-11.3-10.8-18c0.3,0.3,0.7,1.8,1.5,1.8
				c1.4-0.5,1.6-0.8,1.1-1.3c0,0,1.7-0.7,0.3-1.7c-1.6,0.3-2.3,0.3-3.1,0.1c-0.5-1-0.2-1.8,0.1-2.6c0.5,0,1.6,0.2,2,0.9
				c0,0,0.5,1.5,1.2,1.5c1.4-0.5,1.6-0.8,1.1-1.3c0,0,1.7-0.7,0.3-1.7c-1.6,0.3-3.3,0.2-3.9-0.3c-0.2-0.7,0-1.3,0.1-1.8
				c0.8,0.2,2,1.1,2.5,1.5c0,0,1.7,0.4,1.2-0.8c0,0,0.2-1-0.3-1c0,0,1-1.4,0-1.7c0,0-1.4-0.5-2,0.1c-0.8,0-0.7-0.6-0.5-1.3
				c1.2-0.3,2.7,0.5,3.1-0.1c0,0,1.2-0.8,0.5-1.4c-0.8-0.3-0.3-2.1-1.9-1.7c0,0-1.1,0.6-0.7,1.4c-0.4-0.6-0.2-1.8,0-3
				c0.3,0.2,1.3,1.6,2,1.3c0,0,1.5,0,1.1-0.9c-0.6-0.6,0.8-1.9-0.9-2.3c0,0-1.2,0-1.4,0.8c-0.7-0.5-0.7-1.2-0.7-1.9
				c0.3,0.4,0.9,0.8,1.3,0.7c0,0,1.5,0,1.1-0.9c-0.6-0.6,0.8-1.9-0.9-2.3c0,0-1.2,0-1.4,0.8c-0.4-0.9-0.6-1.8-1-2.7
				c0.5-0.7,1.4-0.8,2-0.3c0,0,0.9,1.4,1.6,1.1c0,0,1.5,0,1.1-0.9c-0.6-0.6,0.8-1.9-0.9-2.3c0,0-1.2,0-1.4,0.8c0,0-1.6,0.5-2.3,0.3
				c-0.1-0.7,0-1.5,0-2.5c0.4-0.1,1.5-0.4,2.2,0.2c0,0,0.9,1.4,1.6,1.1c0,0,1.5,0,1.1-0.9c-0.6-0.6,0.8-1.9-0.9-2.4
				c0,0-1.2,0-1.4,0.8c0,0-1.6,0.5-2.3,0.3c-0.2-0.6-0.1-1.2,0-1.8c0.4,0.3,1.5-0.5,2-0.2c0,0,1.5,0.6,2,0.8c0,0,1.7-0.1,0.9-1.1
				c0,0-0.2-1-0.6-0.8c0,0,0.2-0.9,0-1.3c0.4-0.1,1.1-0.4,0.5-1.1c0,0-0.2-1-0.6-0.9c0,0,0.4-1.7-0.6-1.6c0,0-1.5,0-1.8,0.8
				c1.2-0.5,1.1-1.9,1.1-1.9c-0.1-1.3-1.5-0.7-1.5-0.7c0.6-0.8-0.8-1.5-0.8-1.5c-0.7-0.2-0.7,1.2-0.7,1.2c-1.9-1.6-2.5,0.1-2.5,0.1
				c-0.5,0.8,1.7,1.2,1.7,1.2c0,0.5-0.3,0.7-0.7,1.1c0.3-0.8-0.8-1.5-0.8-1.5c-1.6-0.6-1.1,1.2-1.1,1.2c-1.6,0.6-0.3,1.6-0.3,1.6
				c1.6,1,1.4,2.3,1.1,3.7c0-1.4-0.8-2.3-0.8-2.3c-1.4-1-1.4,0.9-1.4,0.9c-1.7,0.3-0.7,1.5-0.7,1.5c0.3,0.7,1.9,0.5,1.9,0.5
				c0.6,1.8,0.4,3.3,0.2,4.7c-0.3-0.4-0.2-0.9-0.2-0.9c-0.2-0.8-1.6-1.3-1.6-1.3c-0.9-0.4-0.9,1.4-0.9,1.4c-1.7,1.3-0.1,2-0.1,2
				c0.6,0,2.1-0.1,2.1-0.1c0.3,1.1,0.2,2,0.1,2.8c-0.7-0.3-1.7-0.9-1.7-0.9c0-0.8-1.2-1.2-1.2-1.2c-1.7-0.1-0.6,1.6-0.6,1.6
				c-3.6,1.1-3.3,2.4-3.3,2.4c-1.5-0.6-2.1-1.2-2.1-1.2c0.6,0.1,0.7-1.5,1.7-1.9c0,0,1.6-0.1,1.6-0.9c0,0,0.5-1.4-0.4-1.4
				c-0.8,0.2-1.4-1.7-2.5-0.5c0,0-0.5,1.1,0.2,1.6c0,0-0.1,1.7-0.6,2.1c-0.9-0.5-1.5-1.1-2.2-1.7c0.1-0.5,0.3-1.2,0.9-1.4
				c0,0,1.6-0.1,1.6-0.8c0,0,0.5-1.4-0.4-1.4c-0.8,0.2-1.4-1.7-2.5-0.5c0,0-0.5,1.1,0.2,1.6c0,0-0.1,1.6-0.6,2.1
				c-1.1-0.7-1.9-1-1.9-1c-1.7-0.5-1.9-1.8-1.9-1.8c-0.1-0.8-0.6-2-0.6-2c-2.6,1.9-1.6,2.3-1.6,2.3c0.5,1.4,1.7,0.9,1.7,0.9
				c-0.5,0.6-0.9,1-1.2,1.3c-0.6-0.3-1.5-0.8-1.6-1.3c0,0,0.9-2-0.1-2c0,0-1.8-0.5-1.8,1c0,0,0,0.6,0.4,0.9
				c-1.5-0.1-1.6,1.4-0.6,1.3c0,0-1,0.6-0.5,1.3c-0.2,0.2-1.3,1.5,0,2.3c1,0.1-0.2,0.9,0.3,1.4c1.7-0.1,1.8,1.5,3,0.9
				c0,0,1.3-0.6,0.6-1.2c0,0-0.7-0.5-0.4-0.9c0,0,0.4-1.6,1.1-1.7c0.7-0.3,2-0.1,2-0.1c0.6,0,1.3,0.3,1.9,0.7
				c-0.2,0.3-0.7,1.4-1.6,1.4c0,0-1.6-0.4-1.9,0.3c0,0-1,1.1-0.1,1.5c0.9,0.1,0.9,2,2.3,1.2c0,0,0.8-0.8,0.3-1.5
				c0,0,0.7-1.5,1.3-1.7c1.5,0.5,2,1.2,2.7,2c-2.1,0.2-3.4,0.4-3.4,0.4c-1.1,0.6-0.5,2.2-0.5,2.2c2,1.5,2.5,0.3,2.5,0.3
				c1.4-0.2,1.2-1.8,1.2-1.8c1.1,0.4,1.5,0.9,1.8,1.4c-0.6-0.3-1.1,1.1-2.2,1.1c0,0-1.6-0.4-1.9,0.3c0,0-1,1.1-0.1,1.5
				c0.9,0.1,0.9,2,2.3,1.2c0,0,0.9-0.8,0.3-1.5c0,0,0.7-1.5,1.3-1.7c1.4,0.8,1.7,1.3,2.1,2c-1.5,0.6-2.4,1-2.4,1
				c-0.7,0.6,0.1,1.8,0.1,1.8c1.7,0.8,1.9-0.3,1.9-0.3c1-0.5,0.5-1.7,0.5-1.7c0.6,0.5,0.8,1.2,1.1,1.9c-1,0.3-1.9,0.7-1.9,0.7
				c-0.7,0.7,0.1,1.8,0.1,1.8c0.6,0.8,1.8,1.3,1.8,1.3c1.7,1.6,0.8,1.6,0.8,1.6c1.6,0.6,1.4,1.3,1.1,2c-0.1-0.4-0.4-0.9-1.1-1.1
				c0,0-0.5-1.3-2.5-0.2c0,0-0.7,1.5,0.4,2.3c-0.3,0.4-0.8,0.8-1.3,1.1c-1.6-0.2-1.4,0.5-1.2,1c-2,1.9-3.5,4.1-4.5,6.1
				c-1.3-4.1,1.7-7.2,4-8.8c-4.1,1.7-6.5,5.2-7.1,8.5c-0.3,0.9-0.3,1.1-0.1,1.3c-0.4,0-0.8-0.6-1.3-1.2c0-0.7,0.4-1.8,0.4-1.8
				c0.8-0.1,0.8-1.3,0.8-1.3c-0.4-1.6-1.7-0.4-1.7-0.4c-1.5-1.1-1.6,0.4-1.6,0.4c0-0.6,0.3-1,0.5-1.4c2.3-1.2,4.4-2.7,5.1-4.8
				c-1.7,1-2.5,2.2-4.5,3.5c0.8-1.8,0.9-3.6,0.4-5c-0.7,1.7-0.7,3.6-2,5.9c-0.2,0.4-0.4,0.6-0.6,0.9c-0.3-1,0.2-2.2,0.2-2.2
				c0.8-0.1,0.8-1.3,0.8-1.3c-0.4-1.6-1.7-0.4-1.7-0.4c-1.5-1.1-1.6,0.4-1.6,0.4c-0.3,0.6,1,1.7,1,1.7c-0.7,0-1-0.6-1.7-1.4
				c0-1.1,0.4-2,0.4-2c0.8-0.1,0.9-1.3,0.9-1.3c-2-1-2.4-1-2.4-1c-0.8-0.5-1,1-1,1c-0.3,0.6,0.7,1.4,1,1.6c-1.7-0.6-1.8-1-1.8-1
				c0.8-1.1,0.6-1.5,0.3-1.7c0.7-0.6,1.3-1.2,1.9-1.9c2.3-0.8,4.2-1.8,5.3-2.9c-1.5,0.6-2.8,1.4-4.7,2.2c0.9-1.2,1.7-2.6,2.1-4.1
				c-1.8,1.6-2.8,3.7-5.2,5.8c0.4-1.6,0.4-3.4-0.4-5.3c-0.7,1.8-0.3,3.8-1.3,6.2c-1.5,0.6-1,1.1-0.6,1.4c-1.5,0.6-1.4,1.3-1.1,1.7
				c-0.7,0.9-1.7,1.9-2.8,2.9c0.8-2,3.8-7.4,0.7-11.3c1.6,4.6-1.7,8.2-2.2,12.4c-0.6,1.1-1.3,1.6-2,2.1c1.4-4.2-0.3-6.8-2.3-9.2
				c1.4-1.7,2.1-3.6,2.2-5.4c2.5-1.1,4.8-2.7,5.6-4.8c-1.7,1.1-2.8,2.6-5.6,4.1c0-1.1-0.3-2.1-0.9-3c-0.1,2,0.5,4.8-2,8.2
				c-1.8-2.2-3.6-4.2-2.8-7.2c-2.4,3.4,0.9,7.3,3.1,9.4c2,2,2.7,5.2,0.9,9c-0.3-0.9-1.2-0.6-1.4,0.8c-0.6,1.1-1,1.5-1.5,2
				c-1.1-0.5-2-1.1-2.8-1.7c7-10.8-5.7-13-3.5-20.3c-2.5,3.4,0.5,7.4,2.5,9.6c-6.7-1.9-7.8-6.2-7.6-8.6c-1.6,1.6-1.1,3.4,0,5
				c-1.4-0.6-3-0.9-5.1-0.8c1.4,0.8,3.2,1,5.1,1.9c-1.1,1.6-2.5,4.3-1.8,7.2c-0.5,0-0.6,0.4,0,0.9c0.8,0.9,1.1,1.4,1.4,1.8
				c-0.9-0.3-1.5,0.2-0.5,1.1c0.5,0.4,1,0.8,1.5,1.1c-0.2,0.8-0.6,1.7-1.1,2.5c-1.2-3.1-3.2-5.7-6.3-6.5c-0.1-2.8,0-5.9,0.3-9.3
				c0,0-1.2,3.7-1.6,9.1c-0.7-0.9-1-1.1-1.4-1.1c-0.8-0.9-1.7-1.8-2.6-2.6c0.3-3.6,1-7.2,2.4-10.7c0,0-2.5,3.5-4.2,9.2
				c-2-1.7-4.5-3.2-7.3-4.8c0,0,3.3,2.4,6.9,6.2c-0.4,1.6-0.7,3.3-0.9,5.1c-0.5,0.8-0.3,1.1-0.1,1.3c-0.1,1.6-0.1,3.3,0,5
				c-0.4-1.7-0.8-3.4-1-5.3c0,0,0,1.8,0.4,4.6c-3.6-6.5-7.1-14.9-8.2-24.4c0,0-0.1,9.3,3.2,19.5c-0.2,0.2-0.3,0.5-0.3,1
				c0.1,1.5,1,2.9,2.2,4.2c0.2,0.4,0.4,0.8,0.6,1.2c-0.1,0.6-0.2,1.3-0.2,2.2c-0.7-0.5-1.4-1-2.1-1.5c-1.2-1.3-2.6-2.5-3.8-3.5
				c-0.5-0.8-0.8-1.6-0.9-2.6c0-0.9-0.5-1.3-0.8-1.1c-0.5-2.8-0.7-6-0.5-9.5c0,0-1.7,4.7-0.8,11.3c-0.7-0.3-4.7-2.3-7.8-6.2
				c1.4-0.5,1.5-0.8,1-1.3c0,0,1.7-0.7,0.3-1.7c-1.6,0.3-2.5,0.2-3.2,0c-0.3-0.5-0.5-1-0.7-1.6c0.9-0.3,2.2,0.6,2.6,1
				c0,0,1.7,0.4,1.2-0.8c0,0,0.2-1-0.3-1c0,0,1-1.4,0-1.7c0,0-1.4-0.5-2,0.1c-0.9,0-0.7-0.6-0.5-1.3c1.2-0.3,2.7,0.5,3.1-0.1
				c0,0,1.2-0.8,0.5-1.4c-0.8-0.3-0.3-2.1-1.9-1.7c0,0-1.1,0.6-0.7,1.4c-0.4-0.6-0.2-1.8,0-3c0.3,0.2,1.3,1.6,2,1.3
				c0,0,1.5,0,1.1-0.9c-0.6-0.6,0.8-1.9-0.9-2.3c0,0-1.2,0-1.4,0.8c-0.7-0.5-0.7-1.2-0.7-1.9c0.3,0.4,0.8,0.8,1.3,0.7
				c0,0,1.5,0,1.1-0.9c-0.6-0.6,0.8-1.9-0.9-2.3c0,0-1.2,0-1.4,0.8c-0.4-0.9-0.6-1.8-1-2.7c0.5-0.7,1.4-0.8,2-0.3
				c0,0,0.9,1.4,1.6,1.1c0,0,1.5,0,1.1-0.9c-0.6-0.6,0.8-1.9-0.9-2.3c0,0-1.2,0-1.4,0.8c0,0-1.6,0.5-2.3,0.3c-0.1-0.7,0-1.5,0-2.5
				c0.4-0.1,1.5-0.4,2.2,0.2c0,0,0.9,1.4,1.6,1.1c0,0,1.5,0,1.1-0.9c-0.6-0.6,0.8-1.9-0.9-2.4c0,0-1.2,0-1.4,0.8
				c0,0-1.6,0.5-2.3,0.3c-0.2-0.6-0.1-1.2,0-1.8c0.4,0.3,1.5-0.5,2-0.2c0,0,1.5,0.6,2,0.8c0,0,1.7-0.1,0.9-1.1c0,0-0.2-1-0.6-0.8
				c0,0,0.2-0.9,0-1.3c0.4-0.1,1.1-0.4,0.5-1.1c0,0-0.2-1-0.6-0.9c0,0,0.4-1.7-0.6-1.6c0,0-1.5,0-1.8,0.8c1.2-0.5,1.1-1.9,1.1-1.9
				c-0.1-1.3-1.5-0.7-1.5-0.7c0.6-0.8-0.8-1.5-0.8-1.5c-0.7-0.2-0.7,1.2-0.7,1.2c-1.9-1.6-2.5,0.1-2.5,0.1c-0.5,0.8,1.7,1.2,1.7,1.2
				c0,0.5-0.3,0.7-0.7,1.1c0.3-0.8-0.8-1.5-0.8-1.5c-1.6-0.6-1.1,1.2-1.1,1.2c-1.6,0.6-0.3,1.6-0.3,1.6c1.6,1,1.4,2.3,1.1,3.7
				c0-1.4-0.8-2.3-0.8-2.3c-1.4-1-1.4,0.9-1.4,0.9c-1.7,0.3-0.7,1.5-0.7,1.5c0.3,0.7,1.9,0.5,1.9,0.5c0.6,1.8,0.4,3.3,0.2,4.7
				c-0.3-0.4-0.2-0.9-0.2-0.9c-0.2-0.8-1.6-1.3-1.6-1.3c-0.9-0.4-0.9,1.4-0.9,1.4c-1.7,1.3-0.1,2-0.1,2c0.6,0,2.1-0.1,2.1-0.1
				c0.3,1.1,0.2,2,0.1,2.8c-0.7-0.3-1.7-0.9-1.7-0.9c0-0.8-1.2-1.2-1.2-1.2c-1.7-0.1-0.6,1.6-0.6,1.6c-3.6,1.1-3.3,2.4-3.3,2.4
				c-1.5-0.6-2.1-1.2-2.1-1.2c0.6,0.1,0.7-1.5,1.7-1.9c0,0,1.6-0.1,1.6-0.8c0,0,0.5-1.4-0.4-1.4c-0.8,0.2-1.4-1.7-2.5-0.5
				c0,0-0.5,1.1,0.2,1.6c0,0-0.1,1.7-0.6,2.1c-0.9-0.5-1.5-1.1-2.2-1.7c0.1-0.5,0.3-1.2,0.9-1.4c0,0,1.6-0.1,1.6-0.8
				c0,0,0.5-1.4-0.4-1.4c-0.8,0.2-1.4-1.7-2.5-0.5c0,0-0.5,1.1,0.2,1.6c0,0-0.1,1.6-0.6,2.1c-1.1-0.7-1.9-1-1.9-1
				c-1.7-0.5-1.9-1.8-1.9-1.8c-0.1-0.8-0.6-2-0.6-2c-2.6,1.9-1.6,2.3-1.6,2.3c0.5,1.4,1.7,0.9,1.7,0.9c-0.5,0.6-0.9,1-1.2,1.3
				c-0.6-0.3-1.5-0.8-1.6-1.3c0,0,0.9-2-0.1-2c0,0-1.8-0.5-1.8,1c0,0,0,0.6,0.4,0.9c-1.5-0.1-1.6,1.4-0.6,1.3c0,0-1,0.6-0.5,1.3
				c-0.2,0.2-1.3,1.5,0,2.3c1,0.1-0.2,0.9,0.3,1.4c1.7-0.1,1.8,1.5,3,0.9c0,0,1.3-0.6,0.6-1.2c0,0-0.7-0.5-0.4-0.9
				c0,0,0.4-1.6,1.1-1.7c0.7-0.3,2-0.1,2-0.1c0.6,0,1.3,0.3,1.9,0.7c-0.2,0.3-0.7,1.4-1.6,1.4c0,0-1.6-0.4-1.9,0.3
				c0,0-1,1.1-0.1,1.5c0.9,0.1,0.9,2,2.3,1.2c0,0,0.8-0.8,0.3-1.5c0,0,0.7-1.5,1.3-1.7c1.5,0.5,2,1.2,2.7,2
				c-2.1,0.2-3.4,0.4-3.4,0.4c-1.1,0.6-0.5,2.2-0.5,2.2c2,1.5,2.5,0.3,2.5,0.3c1.4-0.2,1.2-1.8,1.2-1.8c1.1,0.4,1.5,0.9,1.8,1.4
				c-0.6-0.3-1.1,1.1-2.2,1.1c0,0-1.6-0.4-1.9,0.3c0,0-1,1.1-0.1,1.5c0.9,0.1,0.9,2,2.3,1.2c0,0,0.9-0.8,0.3-1.5
				c0,0,0.7-1.5,1.3-1.7c1.4,0.8,1.7,1.3,2.1,2c-1.5,0.6-2.4,1-2.4,1c-0.7,0.6,0.1,1.8,0.1,1.8c1.7,0.8,1.9-0.3,1.9-0.3
				c1-0.5,0.5-1.7,0.5-1.7c0.6,0.5,0.8,1.2,1.1,1.9c-1,0.3-1.9,0.7-1.9,0.7c-0.7,0.7,0.1,1.8,0.1,1.8c0.6,0.8,1.8,1.3,1.8,1.3
				c1.7,1.6,0.8,1.6,0.8,1.6c1.6,0.6,1.4,1.3,1.1,2c-0.1-0.4-0.4-0.9-1.1-1.1c0,0-0.5-1.3-2.5-0.2c0,0-0.7,1.5,0.4,2.3
				c0,0,1.3,0.4,2.1,0.6c0.1,0.7-0.2,1.3-0.6,2c-1.8-0.3-2.1-0.4-2.1-0.4c0-0.8-1.2-1.1-1.2-1.1c-1.7,0-0.6,1.6-0.6,1.6
				c-1.2,1.2,0.3,1.7,0.3,1.7c0.6,0.5,1.7-0.6,1.7-0.6c0.5,0.5,0.6,1.2,0.8,2.1c-1.7-0.3-2.5-1.1-2.5-1.1c-1.1-0.6-2.2,0.6-2.2,0.6
				c0,1,0.2,1.5,0.4,1.8c-0.9,0-1.5-0.2-1.7,0.3c0,0.8-1.9,0.8-0.9,2.2c1.6,0.4,3.2,1.1,3.6,1.7c0,1.4-0.7,2.2-1.4,2.8
				c0,0,0,0.8-0.4,1.6c-0.3,0.4-0.5,0.7-0.8,0.9c0,0-0.8,0.3-2-1.8c0,0-0.5-0.9-1.2-2.1c0-1.4,0.6-2.9,0.6-2.9
				c0.8-0.1,0.9-1.3,0.9-1.3c-0.4-1.6-1.7-0.4-1.7-0.4c-1.5-1.1-1.6,0.4-1.6,0.4c-0.2,0.4,0.2,0.9,0.6,1.2c-0.8-0.4-1.3-1.2-1.8-1.9
				c0-0.7,0.4-1.8,0.4-1.8c0.8,0,0.8-1.3,0.8-1.3c-0.4-1.6-1.7-0.4-1.7-0.4c-1.5-1.1-1.6,0.4-1.6,0.4c-0.5-0.3-0.9-0.7-1.3-1.1
				c0-0.7,0.4-1.9,0.4-1.9c0.8-0.1,0.9-1.3,0.9-1.3c-0.4-1.6-1.7-0.4-1.7-0.4c-1.5-1.1-1.6,0.4-1.6,0.4c-0.3,0.6,1,1.7,1,1.7
				c-0.7,0-1-0.7-1.7-1.4c-0.1-0.7,0.4-2,0.4-2c0.8-0.1,0.9-1.3,0.9-1.3c-0.4-1.6-1.7-0.4-1.7-0.4c-1.5-1.1-1.6,0.4-1.6,0.4
				c-0.3,0.6,1,1.7,1,1.7c-1.8-0.6-1.9-1-1.9-1c1.1-1.4-0.3-2.1-0.3-2.1c-1.2-0.7-1.3,0.8-1.3,0.8c-2.2,0.2-0.9,1.1-0.9,1.1
				c-2.3,0.7-1.1,2.1-1.1,2.1c0.4,0.9,1.8-0.7,1.8-0.7c0.4-0.1,1.1,0.3,1.7,0.8c0,0.4,0.1,0.9,0.3,1.5c-0.9-0.6-2.1-1.1-2.1-1.1
				c-1.3-0.1-1.6,1.5-1.6,1.5c0.9,2.3,2.1,1.6,2.1,1.6c1.4,0.6,2.1-0.8,2.1-0.8c0.5,0.4,0.9,0.7,1.4,1.2c-0.9,0.3-1.1,1.4-1.1,1.4
				c0.9,2.3,2.1,1.6,2.1,1.6c1,0.4,1.6-0.1,1.9-0.5c0.8,0.8,1.6,1.6,2.3,2.4c-0.9-0.2-2.1,0.1-2.1,0.1c-1.4,0.7,0.3,1.7,0.3,1.7
				c-0.3,1-0.3,1.2-0.1,1.3c-0.5,0.6-1,1.2-1.7,1.8c0.4-1.6,0.4-3.4-0.4-5.3c-0.3,2.8,0,7.2-5.9,12.2c0.8-2,3.8-7.4,0.7-11.3
				c1.6,4.6-1.7,8.2-2.2,12.4c-0.1,0.8,1.1,2.3,2.5,4.4c-1.1,0.5-2.3,1-3.4,1.6c-1.5,0.7-2,0.9-2.4,1.1c-0.2-0.6-0.4-1.1-0.5-1.6
				c4-6.4,1.9-9.7-0.6-12.6c1.4-1.7,2.1-3.6,2.2-5.4c2.6-1.1,4.8-2.7,5.6-4.8c-1.7,1.1-2.8,2.6-5.6,4.1c0-1.1-0.3-2.1-0.9-3
				c-0.1,2,0.5,4.8-2,8.2c-0.9-1-1.7-2-2.2-3c-0.1-0.9-0.4-1.7-0.8-2.3c-0.1-0.6,0-1.3,0.1-2c-2-0.5-2.6-1.3-2.7-2.6
				c-0.3-3.3,4.1-1,4.7-6.3c0.6-5.3-2.9-5.3-2.6-7.9c0.3-2.7,4.2-0.5,5.1-4.3c1-3.8-3.7-6.2-2.5-7.8c1.1-1.5,3.9-0.3,6.2-3.4
				c2.3-3.1-2.4-5.5-1.1-7.4c1.3-1.9,3.6-0.1,5.4-3.7c1.8-3.6,0.4-7.8,0-9c-1.1-1.5-7-0.3-8.5,1.2c-1.6,1.6-0.9,6.1-2.7,7.1
				c-1.7,1.1-4.2-0.9-6.1,2.8c-1.8,3.7,1.3,8.2-0.3,10.2s-3-0.3-4.1,3.1c-1.1,3.5,2.5,7.1,1.1,9.2c-1.4,2.1-3.7,2.5-4.1,7.3
				c-0.3,4.8,2.6,5,2.3,8.2c-0.1,0.9-0.3,1.6-0.6,2.2c-0.3-0.4-1,0-1.1,1c-0.1,0.5-0.1,1,0,1.5c-0.1,0.5-0.3,1-0.3,1.6
				c-1.7-1.9-3.9-2.8-4.4-5.1c-0.7-3.8,3.7-5.2,3.9-9.9c0.2-4.8-3.2-6-3.5-9.6c-0.3-3.7,2.8-2.8,3.4-8.1c0.6-5.3-2.8-6.7-3.8-9.4
				c-1.1-2.7,1.2-4-0.2-8c-0.1-0.3-0.3-0.6-0.4-0.9c-0.3-0.4-0.4-0.6-0.6-0.9c-2.4-1.9-4.9-1-6.3,1.9c-2,3.9,1.9,6.7-0.1,9.9
				c-2,3.2-4.9,2.5-4.9,7.7c0,6.1,1.3,4.6,2,8.9c0.8,4.3-2.6,5.9-2,10.9c0.6,4.4,3.8,4,5.1,6.2c-1.4,0.9-2.9,2.1-4.4,3.4
				c-0.3-0.7-0.6-1.4-1-2.1c-2.1-3.4-3.7-3.6-5-3.4c-0.7-0.9-1.4-1.8-2.3-2.7c0,0,0.7,1,1.5,2.8c-2-0.2-3.4-0.9-3.7-3.4
				c-0.1-1.6-1.4-2.2-2.6-2.3c0.2-1.4,0.8-2.9,2.1-4.5c0,0-1.9,1.9-2.8,4.5c-1.1,0.3-1.3,0.5-1.4,0.7c-0.3,0.4-0.5,1-0.6,1.6
				c-0.1,0.9-0.1,1.1-0.1,1.4c0,0.9,0.1,1,0.1,1.2c0.5,1.5,2,1.5,3,2c0,0,0.5,0.6,1,2c-0.3,0.6-0.9,1.3-1.1,2.4
				c-1.2-2.9-3.1-5.3-6.2-6.1c1-1.1,2.4-1.4,2.7-3.9c0.4-4.1-2.3-4.1-2-6.2c0.3-2.1,3.2-0.4,4-3.3c0.8-2.9-2.8-4.8-2-6
				s3-0.2,4.8-2.6c1.8-2.4-1.8-4.2-0.8-5.7c1-1.5,2.8-0.1,4.2-2.8c1.4-2.8,0.3-6,0-6.9c-0.9-1.1-5.4-0.3-6.5,0.9
				c-1.2,1.2-0.7,4.7-2.1,5.6s-3.3-0.7-4.7,2.2c-1.4,2.9,1,6.4-0.3,7.9c-1.3,1.5-2.3-0.3-3.2,2.4s1.9,5.5,0.9,7.1
				c-0.4,0.6-1,1.1-1.5,1.6c-0.7,0.3-1.5,0.7-2.3,1.1c-0.3-0.6-0.6-1.2-1-1.7c1.4-0.7,2.7-1.5,3.8-2.4c-2.2,0.5-3.2,1.1-4.3,1.7
				c-0.4-0.7-0.8-1.4-0.8-2.3c-0.2-2.7,2-2.3,2.6-5.7c0.5-4.8-2-5.8-2.8-7.9c-0.8-2.1,0.9-3.1-0.1-6.2c-0.5-1-0.6-1.2-0.7-1.3
				c-1.9-1.4-3.8-0.8-4.9,1.4c-1.5,3,1.4,5.2-0.1,7.7s-3.8,2-3.8,6c0,0.6,0,1.2,0,1.7c-1.7,1.1-3.2,2.1-4.4,3
				c-0.8,0.6-1.7,1.1-2.8,1.7c4-4.6,3.8-9.2,10-12.8c-5.2,1.9-7.8,6.7-9,9.6c-1.8-4.6,2.2-8.9,5-11c-5.8,2.9-8.8,9.3-6.3,13
				c-1.4,1.7-3.6,3.6-6.6,5.1c0.3-1.1,0.7-1.7,1-2.4c3.1-1.1,2.6-1.8,0.4-1.1c1.1-3.1,0.1-5.5-1-7.7c1-0.9,1.8-2,2.4-3.1
				c2.3-1.1,4.4-2.7,5.1-4.8c-1.7,1-2.6,2.2-4.5,3.5c0.8-1.8,0.9-3.6,0.4-5c-0.7,1.7-0.7,3.6-2,5.9c-0.5,0.9-1.1,1.7-1.9,2.5
				c-1.2-2.5-2.4-4.8-1-7.8c-3.1,3.3-0.9,7.7,0.6,10.2c0.8,1.3,0.8,3.5,0.2,5.8c-0.8-1.6-2.1-3.1-3.9-4c0.8,1.5,2.6,3,3.2,5.4
				c-1.9,0.9-3.7,2.2-5.3,3.4c0.2-0.6,0.3-1.2,0.3-1.9c0.4-1.1,0.3-1.5,0-1.5c-0.1-1.3-0.4-2.7-0.9-4.2c-0.6-1.5-1-2.4-1.5-3.3
				c2.2-2.2,3.6-4.8,3.5-6.8c-1.1,1.6-1.8,3.7-4,6c-0.6-1-1.4-2-2.2-2.8c-0.4-0.4,3.4-2.8,5.4-6.6c1.1-0.9,2.3-1.8,3.2-2.9
				c2.3-0.8,4.2-1.8,5.3-2.9c-1.5,0.6-2.8,1.4-4.7,2.2c0.9-1.2,1.7-2.5,2.1-4.1c-1.8,1.6-2.8,3.7-5.2,5.8c0.4-1.6,0.4-3.4-0.4-5.3
				c-0.3,2.8,0,7.2-5.9,12.2c0.8-2,3.8-7.4,0.7-11.3c1.6,4.6-1.7,8.2-2.2,12.4c-0.2,1.1,2.6,3.7,4.2,7.7c-0.4,0.3-0.8,0.7-1.1,1.1
				c-1-0.4-1.9-0.8-2.6-1.3c-2,0.6-2.3,1.1-2.7,1.7c-0.9-1.3-1.4-2.5-1.7-3.7c4-6.4,1.9-9.7-0.6-12.6c1.4-1.7,2.1-3.6,2.2-5.4
				c2.6-1.1,4.8-2.7,5.6-4.8c-1.7,1.1-2.8,2.6-5.6,4.1c0-1.1-0.3-2.1-0.9-3c-0.1,2,0.5,4.8-2,8.2c-1.8-2.2-3.6-4.2-2.8-7.2
				c-2.4,3.4,0.9,7.3,3.1,9.4c2,2,2.7,5.2,0.9,9c-0.3-0.9-1.2-0.6-1.4,0.8c-0.1,0.9,0,1.8,0.2,2.7c-2-0.7-3.4-1.6-4.5-2.5
				c7.1-10.8-5.6-13-3.4-20.2c-2.5,3.4,0.5,7.4,2.5,9.6c-6.7-1.9-7.8-6.2-7.6-8.6c-1.6,1.6-1.1,3.4,0,5c-1.4-0.6-3-0.9-5.1-0.9
				c1.7,0.8,4.2,1.1,6.5,2.7c1.9,1.7,4.4,3.1,7.4,3.6c0.9,2.2,0.7,5-1.2,8c-2.1-2-3-4.3-3-5.9c-1.6,1.1-1.2,2.4-0.7,3.5
				c-0.6-0.1-1.2-0.3-1.7-0.5c-2-0.9-2.6-1.4-3.1-1.8c-0.2,1.2,0.7,1.7,1.7,2.2c0,0.3,0,0.7,0,1.1c-1.3,0.5-0.8,0.8-0.3,1.2
				c-0.3,1-0.8,2.1-1.6,3.3c-0.2-1.5-0.9-3.1-2.4-4.8c0.7,2.6,2.6,6.7-1.6,12.2c0.1-2,1.2-7.4-3.4-10.5c3.3,4.1,1.3,7.9,2.3,11.8
				c0.3,1.2,5,3.6,8.2,7.9c-3.2-0.3-5.4-1.2-6.7-1.9c0.8,1.7,3.9,2.5,7.2,2.7c0.8,1.1,1.4,2.5,1.8,3.9c-0.4-0.3-1.1-0.5-1.9-0.7
				c-1.4-0.3-2.6-0.6-3.7-1.1c0.6-0.3,1.1-0.6,1.7-0.8c0,0-0.8,0.2-2,0.7c-3.4-1.4-5.5-3.4-6.5-5.1c1.8-6.5-1.6-9.3-5.2-11.6
				c0.8-1.7,0.8-3.6,0.3-5.3c2.2-1.4,3.9-3.2,4-5.3c-1.4,1.3-2,2.8-4.2,4.6c-0.4-1-1.1-2-2-2.6c0.6,1.9,2.3,4.4,0.9,7.9
				c-2.7-1.7-5.2-3.4-5.5-6.2c-1.2,3.5,3.6,6.6,6.5,8.3c2.8,1.6,4.7,4.5,4.2,8.2c-0.6-0.8-1.4-0.3-1.1,0.9c0.2,0.9,0.6,1.7,1.2,2.5
				c-2.3-0.4-4-1-5.5-1.6c0.6-1.8,0.6-3.4,0.3-4.7c-1.4-6.6-10.9-7.8-11.2-13.6c-1.4,3.5,3.2,6.7,6.1,8.5
				c-7.5-0.8-10.2-4.6-10.9-6.9c-1,1.7,0.1,3.3,1.8,4.6c-1.3-0.3-2.8-0.4-4.4-0.2c1.9,0.6,4.1,0.8,6.4,1.7c2.5,1.3,5.7,2.2,8.9,2.3
				c1,1.1,1.7,2.5,1.9,4c-0.8,0.4-1.9,1-3,1.7c-1.3-1.1-2.1-2.3-2.5-3.2c-1.1,1.3-0.4,2.4,0.6,3.4c-2.7-0.1-4.6-0.8-5.7-1.4
				c1.4,1.8,4,2.2,6.2,2.2c-0.5,0.4-1.1,0.8-1.6,1.2c-1-0.3-1.8-0.6-2.4-0.9c-0.3,1,0.6,1.4,1.4,1.7c-1.3,1.1-2.6,2.3-3.8,3.7
				c-0.8-3.7-2.5-7.5-5.8-10.8c0,0,3.5,5.2,4.4,12.7c-1.1,1.5-2,3.1-2.8,4.9c-1.1-0.2-1.3-0.5-1.4-0.9c-0.1-4.8-0.8-10.3-3-13.3
				c0,0-4.4-4.6,0.3-10.8c0,0-5.9,5.9-1.7,11.4c0,0,1.8,2.2,2.2,9.2c0.1,1.9,0.1,3.5,0,5.4c-0.7-5.6-2.2-14.5-8.6-16.2
				c-0.1-2.8,0-5.9,0.3-9.3c0,0-1.2,3.7-1.6,9.1c-1.5-1.3-2.6-2.5-4-3.7c0.3-3.6,1-7.2,2.4-10.7c0,0-2.5,3.5-4.2,9.2
				c-2-1.7-4.5-3.2-7.3-4.8c0,0,3.3,2.4,6.9,6.2c-0.8,3.3-1.3,7.1-1,11.4c-0.4-1.7-0.8-3.4-1-5.3c0,0,0,1.8,0.4,4.6
				c-3.6-6.5-7.1-14.9-8.2-24.4c0,0-0.1,13.6,5.7,25.9c-0.1,0.8-0.2,1.8-0.2,3c-2.2-2.5-4.5-5-6.9-6.6c-1-3.7-1.5-7.8-1.1-12.5
				c0,0-1.7,4.7-0.8,11.3c-1.1-0.5-9.9-4.8-11.4-14.2c0,0-0.4,9,10.7,16.3c0,0,0.5,0.3,1.3,0.9c0.3,1.4,0.9,2.8,1.5,4.2
				c-0.1,0.7-0.1,1.7,0.1,3.1c-3.1-3-6.4-5.9-8.3-6.9c0,0-1-0.7-2.6-1.4c-1.2-2.6-2-5.4-2-8.3c0,0-1.1,2.9,0,7.6
				c-2-0.7-4.4-1.2-7-1.1c-0.6-1.1-1.1-2.3-1.4-3.5c0,0-0.1,1.4,0.5,3.6c-2,0.2-4.2,0.8-6.2,2.2c0,0,2.5-1.2,6.6-1
				c1.2,3.6,4.1,8.8,11,14.4c-3-1.1-6.5-2-10.4-2.4c-0.9-1.1-1.6-2.2-2.2-3.4c0,0,0.4,1.3,1.6,3.3c-1.5-0.1-3.1-0.2-4.8-0.1
				c-0.3-1.3-0.5-2.7-0.7-4.2c0,0,0,1.7,0.2,4.2c-1.8,0.1-3.8,0.3-5.8,0.6c0,0,2.3-0.2,5.9,0.2c0.1,0.9,0.3,1.9,0.5,2.8
				c-1.7-0.6-3.5-0.9-5.4-0.8c0,0,2.6,0.6,5.8,2.4c0.5,1.9,1.3,4,2.3,5.9C35.7,602,22,608.3,22,608.3s0,46.4,0,49.4l612-0.2
				c0,0-0.2-61.5,0-62.6C620.7,592.1,589.3,598.2,573.6,601.4z"/>
		</g>
	</g>
</g>
</svg>
