<?xml version="1.0" encoding="UTF-8"?>
<svg width="315px" height="115px" viewBox="0 0 315 115" version="1.1" xmlns="http://www.w3.org/2000/svg" xmlns:xlink="http://www.w3.org/1999/xlink">
    <!-- Generator: Sketch 41.2 (35397) - http://www.bohemiancoding.com/sketch -->
    <title>svg hielo</title>
    <desc>Created with Sketch.</desc>
    <defs>
        <polygon id="path-1" points="314.935429 52.8825758 314.935429 0.398143939 0.209592798 0.398143939 0.209592798 52.8825758"></polygon>
    </defs>
    <g id="Page-1" stroke="none" stroke-width="1" fill="none" fill-rule="evenodd">
        <g id="Clima" transform="translate(-884.000000, -1446.000000)">
            <g id="porque-sube" transform="translate(221.000000, 1004.000000)">
                <g id="svg-hielo" transform="translate(663.000000, 442.000000)">
                    <g id="Group-16" opacity="0.4" transform="translate(0.000000, 36.881894)">
                        <polygon id="Fill-1" fill="#D4F4FF" points="27.860223 26.5166477 27.4832701 25.4563826 26.3655 25.3753598 26.3655 54.0486932 26.8105139 54.1541098 41.199295 60.8720265 41.199295 16.1535795"></polygon>
                        <polygon id="Fill-3" fill="#BBE8F2" points="0.187865651 8.84315152 0.187865651 47.9692879 0.000261772853 48.1173939 0.187865651 48.1609545 0.187865651 48.3081894 0.945261773 48.2750833 26.365151 54.0486061 26.365151 25.3761439"></polygon>
                        <polygon id="Fill-5" fill="#BBE8F2" points="52.5645997 6.9620303 41.199295 16.1533182 41.199295 60.8717652 41.7734501 61.2986591 118.858575 65.7435833 118.858575 21.9041894"></polygon>
                        <polygon id="Fill-7" fill="#BBE8F2" points="227.971172 25.8453788 190.409385 25.8453788 190.409385 77.3148485 191.868332 77.5378788 254.107446 61.9771591 254.107446 21.1974621"></polygon>
                        <polygon id="Fill-9" fill="#D4F4FF" points="183.188992 25.8453788 136.815058 25.8453788 118.858313 21.9048864 118.858313 65.7434091 120.641859 65.8462121 190.40956 77.3148485 190.40956 25.8453788"></polygon>
                        <polygon id="Fill-11" fill="#D4F4FF" points="295.11268 9.89557576 289.667805 14.9486061 254.107708 21.1978106 254.107708 61.9766364 254.329342 61.9487576 314.339024 39.8635303 314.907943 0.398492424"></polygon>
                        <g id="Group-15">
                            <mask id="mask-2" fill="white">
                                <use xlink:href="#path-1"></use>
                            </mask>
                            <g id="Clip-14"></g>
                            <polygon id="Fill-13" fill="#FFFFFF" mask="url(#mask-2)" points="314.935604 0.398143939 254.436407 37.2948485 192.192931 52.8825758 121.057903 41.1909091 41.832349 36.644053 26.5177645 29.4992424 0.209592798 8.78530303 52.6234986 1.45143939 136.815756 1.45143939 183.188817 1.45143939 227.971172 1.45143939 289.775742 9.30454545"></polygon>
                        </g>
                    </g>
                    <polygon id="Fill-17" fill="#D4F4FF" points="27.860223 25.0652083 27.4832701 24.0049432 26.3655 23.9239205 26.3655 52.5972538 26.8105139 52.7026705 41.199295 59.4205871 41.199295 14.7021402"></polygon>
                    <polygon id="Fill-18" fill="#BBE8F2" points="0.187691136 46.5182841 8.72576177e-05 46.6655189 0.187691136 46.7099508 0.187691136 46.8563144 0.945087258 46.8232083 26.365849 52.5967311 26.365849 23.9242689 0.187691136 22.2018826"></polygon>
                    <polygon id="Fill-19" fill="#BBE8F2" points="52.5645997 5.51059091 41.199295 14.7018788 41.199295 59.4203258 41.7734501 59.8472197 118.858575 64.2921439 118.858575 20.45275"></polygon>
                    <polygon id="Fill-20" fill="#BBE8F2" points="227.971172 24.3939394 190.409385 24.3939394 190.409385 75.8634091 191.868332 76.0864394 254.107446 60.5257197 254.107446 19.7460227"></polygon>
                    <polygon id="Fill-21" fill="#D4F4FF" points="183.188992 24.3939394 136.815058 24.3939394 118.858313 20.453447 118.858313 64.2919697 120.641859 64.3947727 190.40956 75.8634091 190.40956 24.3939394"></polygon>
                    <polygon id="Fill-22" fill="#D4F4FF" points="254.107882 19.7462841 254.107882 60.5251098 254.329517 60.4972311 314.339198 38.4120038 314.908118 13.757572 295.112855 18.8985947 289.667979 13.4970795"></polygon>
                    <polygon id="Fill-23" fill="#FFFFFF" points="52.6234114 -0.000261363636 0.20950554 22.1450795 26.5176773 28.0484129 41.8322618 35.1923523 121.057816 39.7400795 192.192843 51.4317462 254.43632 35.8431477 314.935517 13.7570492 289.775655 7.8528447 227.971084 -0.000261363636"></polygon>
                </g>
            </g>
        </g>
    </g>
</svg>