<?xml version="1.0" encoding="UTF-8"?>
<svg width="480px" height="208px" viewBox="0 0 480 208" version="1.1" xmlns="http://www.w3.org/2000/svg" xmlns:xlink="http://www.w3.org/1999/xlink">
    <!-- Generator: Sketch 42 (36781) - http://www.bohemiancoding.com/sketch -->
    <title>osos</title>
    <desc>Created with Sketch.</desc>
    <defs></defs>
    <g id="Page-1" stroke="none" stroke-width="1" fill="none" fill-rule="evenodd">
        <g id="Clima" transform="translate(-371.000000, -2775.000000)">
            <g id="background-pola" transform="translate(0.000000, 2388.000000)">
                <g id="osos" transform="translate(371.000000, 386.012657)">
                    <g id="Group-15" opacity="0.4" transform="translate(119.000000, 118.499399)">
                        <polygon id="Fill-1" fill="#D4F4FF" points="31.9953 30.7388051 31.5633 29.5097174 30.2823 29.4157937 30.2823 62.6546862 30.7923 62.776888 47.2823 70.5644762 47.2823 18.7256601"></polygon>
                        <polygon id="Fill-3" fill-opacity="0.5" fill="#BBE8F2" points="0.2819 10.251217 0.2819 55.6072775 0.0669 55.778966 0.2819 55.8294626 0.2819 56.0001412 1.1499 55.9617638 30.2819 62.6545852 30.2819 29.4167027"></polygon>
                        <polygon id="Fill-5" fill-opacity="0.5" fill="#BBE8F2" points="60.3073 8.07057116 47.2823 18.7253571 47.2823 70.5641732 47.9403 71.05904 136.2823 76.2117147 136.2823 25.3919204"></polygon>
                        <polygon id="Fill-7" fill-opacity="0.5" fill="#BBE8F2" points="261.3288 29.9606522 218.2818 29.9606522 218.2818 89.6254338 219.9538 89.8839765 291.2818 71.8455753 291.2818 24.5726633"></polygon>
                        <polygon id="Fill-9" fill-opacity="0.5" fill="#D4F4FF" points="210.007 29.9606522 156.861 29.9606522 136.282 25.3927283 136.282 76.2115127 138.326 76.3306847 218.282 89.6254338 218.282 29.9606522"></polygon>
                        <polygon id="Fill-11" fill-opacity="0.5" fill="#D4F4FF" points="338.2751 11.4712153 332.0351 17.3288227 291.2821 24.5730673 291.2821 71.8449694 291.5361 71.8126515 360.3091 46.2108672 360.9611 0.461943043"></polygon>
                        <polygon id="Fill-13" fill="#FFFFFF" points="360.9928 0.46153907 291.6588 43.2331828 220.3258 61.3028918 138.8028 47.7496001 48.0078 42.4787633 30.4568 34.1963084 0.3068 10.1841575 60.3748 1.68254725 156.8618 1.68254725 210.0068 1.68254725 261.3288 1.68254725 332.1588 10.7860772"></polygon>
                    </g>
                    <polygon id="Fill-16" fill="#D4F4FF" points="150.9953 104.801182 150.5633 103.572094 149.2823 103.47817 149.2823 136.717063 149.7923 136.839265 166.2823 144.626853 166.2823 92.7880369"></polygon>
                    <polygon id="Fill-17" fill="#BBE8F2" points="119.2819 101.482443 119.2819 129.669654 119.0669 129.841343 119.2819 129.891839 119.2819 130.062518 120.1499 130.024141 149.2819 136.716962 149.2819 103.479079"></polygon>
                    <polygon id="Fill-18" fill="#BBE8F2" points="179.3073 82.1329479 166.2823 92.7877339 166.2823 144.62655 166.9403 145.121417 255.2823 150.274091 255.2823 99.4542971"></polygon>
                    <polygon id="Fill-19" fill="#BBE8F2" points="380.3288 104.023029 337.2818 104.023029 337.2818 163.687811 338.9538 163.946353 410.2818 145.907952 410.2818 98.63504"></polygon>
                    <polygon id="Fill-20" fill="#D4F4FF" points="329.007 104.023029 275.861 104.023029 255.282 99.4551051 255.282 150.273889 257.326 150.393061 337.282 163.687811 337.282 104.023029"></polygon>
                    <polygon id="Fill-21" fill="#D4F4FF" points="410.2821 98.635343 410.2821 145.907245 410.5361 145.874927 479.3091 120.273143 479.9621 91.6930682 457.2751 97.6526789 451.0351 91.3910985"></polygon>
                    <polygon id="Fill-22" fill="#FFFFFF" points="329.0067 75.744621 275.8617 75.744621 179.3747 75.744621 119.3067 101.416091 149.4577 108.259392 167.0077 116.540837 257.8037 121.812684 339.3257 135.365976 410.6587 117.295257 479.9927 91.6924623 451.1597 84.848151 380.3297 75.744621"></polygon>
                    <g id="Group-77" transform="translate(0.000000, 0.337317)">
                        <path d="M127.3361,22.8023529 C149.8861,46.0934121 125.2671,93.1562582 105.8001,111.911711 C46.1891,169.348582 36.4101,160.205665 5.9521,134.538235 C-8.8029,122.103948 4.3621,79.6564929 40.0371,58.0984776 C84.2391,31.3877876 109.6381,4.52257792 127.3361,22.8023529" id="Fill-23" fill="#FFFFFF"></path>
                        <path d="M135.529,53.3627029 C135.529,53.3627029 156.018,66.6332136 162.949,76.0811305 C168.032,83.011286 169.282,92.1845013 159.282,91.2301153 C152.645,90.5958778 127.282,76.3093752 118.282,75.9124718" id="Fill-25" fill="#FFFFFF"></path>
                        <path d="M128.9323,72.5533359 C128.9323,72.5533359 145.1473,90.8856274 149.3163,101.864602 C152.3723,109.918812 151.1413,119.095057 141.7603,115.46637 C135.5353,113.058691 114.3473,94.1184207 105.7823,91.2996996" id="Fill-27" fill="#FFFFFF"></path>
                        <path d="M41.3468,131.963817 C41.3468,131.963817 38.2818,155.697226 38.2818,161.251854 C38.2818,166.806482 29.7468,182.965399 25.5138,190.034925 C21.2818,197.104451 4.7818,194.786656 9.2818,179.935602 C13.5548,165.832907 6.2198,145.987737 0.9298,126.232451" id="Fill-29" fill="#FFFFFF"></path>
                        <path d="M70.1056,129.677633 C70.1056,129.677633 65.4556,152.415249 66.5016,157.867874 C67.5476,163.321508 55.6636,183.574691 52.8396,191.328951 C50.0156,199.083212 34.0366,198.376259 35.6576,182.931364 C37.1976,168.266137 48.9776,161.295584 32.1686,143.495527" id="Fill-31" fill="#FFFFFF"></path>
                        <path d="M157.8141,25.4159568 C157.8141,41.3122915 144.6971,54.1990279 128.5161,54.1990279 C112.3351,54.1990279 99.2181,41.3122915 99.2181,25.4159568 C99.2181,9.51962205 112.3351,0.672614925 128.5161,0.672614925 C144.6971,0.672614925 157.8141,9.51962205 157.8141,25.4159568" id="Fill-33" fill="#FFFFFF"></path>
                        <path d="M98.2819,9.25703964 C98.2819,15.1136372 103.2069,19.861329 109.2819,19.861329 C115.3569,19.861329 118.2819,15.1136372 118.2819,9.25703964 C118.2819,3.40044212 110.3569,0.672614925 104.2819,0.672614925 C98.2069,0.672614925 98.2819,3.40044212 98.2819,9.25703964" id="Fill-35" fill="#FFFFFF"></path>
                        <path d="M159.2819,11.2769043 C159.2819,17.1335018 154.3569,21.8811936 148.2819,21.8811936 C142.2069,21.8811936 139.2819,17.1335018 139.2819,11.2769043 C139.2819,5.42030676 147.2069,2.69247957 153.2819,2.69247957 C159.3569,2.69247957 159.2819,5.42030676 159.2819,11.2769043" id="Fill-37" fill="#FFFFFF"></path>
                        <path d="M138.2819,26.4258891 C138.2819,27.8206056 137.1629,28.9507199 135.7819,28.9507199 C134.4009,28.9507199 133.2819,27.8206056 133.2819,26.4258891 C133.2819,25.0311726 134.4009,23.9010583 135.7819,23.9010583 C137.1629,23.9010583 138.2819,25.0311726 138.2819,26.4258891" id="Fill-39" fill="#020101"></path>
                        <path d="M131.2819,35.51528 C130.7209,36.7898146 129.6149,38.0401108 128.7819,38.0401108 C127.9899,38.0401108 126.8999,36.7615364 126.2819,35.51528 C125.3229,33.5802496 127.4009,34.0003815 128.7819,34.0003815 C130.1629,34.0003815 132.1149,33.6216569 131.2819,35.51528" id="Fill-41" fill="#020101"></path>
                        <path d="M124.2819,26.4258891 C124.2819,27.8206056 123.1629,28.9507199 121.7819,28.9507199 C120.4009,28.9507199 119.2819,27.8206056 119.2819,26.4258891 C119.2819,25.0311726 120.4009,23.9010583 121.7819,23.9010583 C123.1629,23.9010583 124.2819,25.0311726 124.2819,26.4258891" id="Fill-43" fill="#020101"></path>
                        <path d="M134.174,43.0661399 C131.555,43.0661399 129.788,42.6399485 128.903,41.7936252 C128.341,41.2553313 128.273,40.67765 128.282,40.37972 C128.317,39.3102016 128.282,36.0592295 128.282,36.0259017 L129.282,36.0147925 C129.283,36.1481036 129.317,39.3213109 129.281,40.4130477 C129.276,40.5685773 129.326,40.8079313 129.591,41.0614243 C130.13,41.5764898 131.798,42.3753462 136.927,41.9228966 L137.014,42.9287892 C135.977,43.020693 135.03,43.0661399 134.174,43.0661399" id="Fill-45" fill="#020101"></path>
                        <path d="M123.0876,42.885665 C122.2396,42.885665 121.3126,42.8482975 120.3076,42.7725526 L120.3816,41.76666 C127.7026,42.3110136 128.2596,40.6617941 128.2626,40.6456352 L129.2596,40.6910821 C129.2596,40.8031846 129.2246,41.2021079 128.7656,41.633349 C127.8816,42.4614935 125.9406,42.885665 123.0876,42.885665" id="Fill-47" fill="#020101"></path>
                        <path d="M0.299,114.219003 C-0.216,118.665735 -0.018,122.753941 0.942,126.234167 L0.93,126.232148 C6.219,145.987434 13.555,165.832604 9.282,179.935299 C4.782,194.786354 21.282,197.104148 25.514,190.034622 C29.747,182.965096 38.282,166.806179 38.282,161.251551 C38.282,159.881073 38.469,157.398659 38.751,154.441577 C39.095,154.479955 39.443,154.508233 39.791,154.531461 C43.971,165.011529 36.834,171.728589 35.658,182.931768 C34.037,198.376663 50.016,199.082606 52.839,191.329355 C55.664,183.575095 67.548,163.320902 66.502,157.868278 C66.055,155.542403 66.647,150.0716 67.47,144.563429 C76.988,138.178637 88.448,128.464098 102.95,114.644184 C59.969,119.678697 19.737,116.462062 0.299,114.219003" id="Fill-49" fill-opacity="0.3" fill="#1C5168"></path>
                        <path d="M332.6857,98.8342997 C332.6857,102.359973 312.8807,105.218082 288.4507,105.218082 C264.0207,105.218082 244.2157,102.359973 244.2157,98.8342997 C244.2157,95.3086259 264.0207,92.4505175 288.4507,92.4505175 C312.8807,92.4505175 332.6857,95.3086259 332.6857,98.8342997" id="Fill-51" fill="#92CDDF"></path>
                        <path d="M252.0192,46.1255279 C251.6892,24.5806417 286.0262,31.0280497 297.9732,39.4135177 C334.5572,65.0940768 330.4092,85.8744442 316.4792,95.2890333 C305.9542,102.402997 284.0982,101.361756 269.6542,83.7525764 C251.7562,61.9350085 252.2822,63.2691291 252.0192,46.1255279" id="Fill-53" fill="#FFFFFF"></path>
                        <path d="M283.4064,39.7739626 C283.4064,49.9722591 274.9914,58.2385552 264.6114,58.2385552 C254.2314,58.2385552 245.8164,49.9722591 245.8164,39.7739626 C245.8164,29.575666 254.2314,23.9008563 264.6114,23.9008563 C274.9914,23.9008563 283.4064,29.575666 283.4064,39.7739626" id="Fill-55" fill="#FFFFFF"></path>
                        <path d="M245.216,29.4083202 C245.216,33.1652684 248.375,36.2102144 252.273,36.2102144 C256.17,36.2102144 258.046,33.1652684 258.046,29.4083202 C258.046,25.6503621 252.962,23.9011593 249.065,23.9011593 C245.168,23.9011593 245.216,25.6503621 245.216,29.4083202" id="Fill-57" fill="#FFFFFF"></path>
                        <path d="M284.3478,30.7042654 C284.3478,34.4612136 281.1888,37.5061595 277.2908,37.5061595 C273.3938,37.5061595 271.5178,34.4612136 271.5178,30.7042654 C271.5178,26.9463072 276.6018,25.1971044 280.4988,25.1971044 C284.3958,25.1971044 284.3478,26.9463072 284.3478,30.7042654" id="Fill-59" fill="#FFFFFF"></path>
                        <path d="M270.8761,40.4219351 C270.8761,41.3167352 270.1581,42.0418666 269.2721,42.0418666 C268.3861,42.0418666 267.6681,41.3167352 267.6681,40.4219351 C267.6681,39.5271351 268.3861,38.8020037 269.2721,38.8020037 C270.1581,38.8020037 270.8761,39.5271351 270.8761,40.4219351" id="Fill-61" fill="#020101"></path>
                        <path d="M266.3854,46.2526784 C266.0264,47.0707236 265.3164,47.8726098 264.7824,47.8726098 C264.2744,47.8726098 263.5744,47.0525448 263.1784,46.2526784 C262.5634,45.0114716 263.8964,45.2811235 264.7824,45.2811235 C265.6674,45.2811235 266.9204,45.0387398 266.3854,46.2526784" id="Fill-63" fill="#020101"></path>
                        <path d="M261.8952,40.4219351 C261.8952,41.3167352 261.1772,42.0418666 260.2912,42.0418666 C259.4052,42.0418666 258.6872,41.3167352 258.6872,40.4219351 C258.6872,39.5271351 259.4052,38.8020037 260.2912,38.8020037 C261.1772,38.8020037 261.8952,39.5271351 261.8952,40.4219351" id="Fill-65" fill="#020101"></path>
                        <path d="M268.2414,51.0972227 C266.5614,51.0972227 265.4274,50.824541 264.8594,50.2801875 C264.4984,49.9358006 264.4554,49.5641455 264.4614,49.3732683 C264.4834,48.6875242 264.4614,46.602014 264.4614,46.5808054 L265.1024,46.5737359 C265.1034,46.6585702 265.1254,48.6945938 265.1024,49.3944769 C265.0994,49.4944602 265.1314,49.6479699 265.3014,49.810569 C265.6464,50.1418268 266.7174,50.6548724 270.0064,50.363002 L270.0634,51.0093586 C269.3974,51.0679347 268.7904,51.0972227 268.2414,51.0972227" id="Fill-67" fill="#020101"></path>
                        <path d="M261.1291,50.9808785 C260.5851,50.9808785 259.9901,50.9566402 259.3451,50.9091734 L259.3931,50.2628167 C264.0891,50.6122532 264.4471,49.5548541 264.4491,49.5437449 L265.0881,49.5730329 C265.0881,49.645748 265.0651,49.9012609 264.7711,50.1779824 C264.2041,50.7081968 262.9591,50.9808785 261.1291,50.9808785" id="Fill-69" fill="#020101"></path>
                        <path d="M253.8542,52.1791632 C253.8542,52.1791632 253.2062,79.6634614 253.9732,88.6064121 C254.5352,95.1679424 257.4562,101.76381 261.0732,97.3130386 C263.4732,94.3599965 268.2262,75.1611831 271.6542,71.4668507" id="Fill-71" fill="#FFFFFF"></path>
                        <path d="M266.5461,67.6673843 C266.5461,67.6673843 264.8861,84.5322441 266.3401,92.4410241 C267.4071,98.2430853 270.7061,102.990777 273.7601,97.2129543 C275.7881,93.3792512 279.4621,74.2006365 282.4001,69.2065212" id="Fill-73" fill="#FFFFFF"></path>
                        <path d="M299.2829,82.7484007 C299.2829,82.7484007 282.9149,86.48818 275.9449,90.3804592 C270.8319,93.2365478 267.4149,97.8973855 273.8079,98.9982117 C278.0499,99.7283928 297.2269,97.188413 302.8469,98.4255801" id="Fill-75" fill="#FFFFFF"></path>
                    </g>
                </g>
            </g>
        </g>
    </g>
</svg>