<?xml version="1.0" encoding="UTF-8"?>
<svg width="1440px" height="399px" viewBox="0 0 1440 399" version="1.1" xmlns="http://www.w3.org/2000/svg" xmlns:xlink="http://www.w3.org/1999/xlink">
    <!-- Generator: Sketch 42 (36781) - http://www.bohemiancoding.com/sketch -->
    <title>Page 1</title>
    <desc>Created with Sketch.</desc>
    <defs>
        <polygon id="path-1" points="125.141853 310.269159 125.141853 0.658091585 0.464361548 0.658091585 0.464361548 310.269159 125.141853 310.269159"></polygon>
        <polygon id="path-3" points="63.1505918 310.27087 63.1505918 0.657358199 0.812031461 0.657358199 0.812031461 310.27087 63.1505918 310.27087"></polygon>
    </defs>
    <g id="Page-1" stroke="none" stroke-width="1" fill="none" fill-rule="evenodd">
        <g id="Clima" transform="translate(0.000000, -5740.000000)">
            <g id="background4" transform="translate(-15.000000, 4906.000000)">
                <g id="Page-1" transform="translate(0.000000, 834.364162)">
                    <path d="M761.822238,0.122267497 L761.822238,18.5913683 L747.840031,18.5913683 L747.840031,0.122267497 L723.958932,0.122267497 L723.958932,18.5913683 L716.173954,18.5913683 L716.173954,216.260861 L680.74878,216.260861 L680.74878,199.175415 L665.143621,199.175415 L665.143621,216.260861 L659.996865,216.260861 L659.996865,254.274695 L622.544855,254.274695 L622.544855,197.322393 L554.123377,161.115133 L554.123377,307.660297 L605.980006,307.660297 L622.544855,307.660297 L659.996865,307.660297 L679.261075,307.660297 L716.173954,307.660297 L733.277934,307.660297 L763.484096,307.660297 L793.488316,307.660297 L810.703457,307.660297 L888.017819,307.660297 L915.632076,307.660297 L942.034678,307.660297 L955.546303,307.660297 L989.852455,307.660297 L1020.36802,307.660297 L1031.5712,307.660297 L1048.82154,307.660297 L1107.78877,307.660297 L1110.09351,307.660297 L1126.40639,307.660297 L1141.9393,307.660297 L1151.8104,307.660297 L1232.03533,307.660297 L1232.03533,214.769643 L1221.84927,214.769643 L1221.84927,202.328974 L1226.95527,202.328974 L1226.95527,199.884355 L1147.2917,199.884355 L1147.2917,202.328974 L1152.1235,202.328974 L1152.1235,214.769643 L1141.9393,214.769643 L1141.9393,241.829137 L1126.40639,241.829137 L1126.40639,179.437557 L1062.79448,179.437557 L1062.79448,165.821026 L1057.91266,165.821026 L1057.91266,179.437557 L1048.82154,179.437557 L1048.82154,282.331594 L1031.5712,282.331594 L1031.5712,220.822521 L1020.36802,220.822521 L1020.36802,73.1552768 L981.202273,49.7529338 L942.034678,73.1552768 L942.034678,144.486831 L928.636066,144.486831 L928.636066,126.311085 L915.632076,126.311085 L915.632076,144.486831 L904.92912,144.486831 L904.92912,137.399879 L895.925075,137.399879 L895.925075,144.486831 L888.017819,144.486831 L888.017819,18.5913683 L872.349669,18.5913683 L872.349669,9.35559557 L883.323117,9.35559557 L883.323117,3.15848499 L815.396306,3.15848499 L815.396306,9.35559557 L826.369754,9.35559557 L826.369754,18.5913683 L810.703457,18.5913683 L810.703457,144.486831 L810.703457,220.822521 L793.488316,220.822521 L793.488316,18.5913683 L785.703337,18.5913683 L785.703337,0.122267497 L761.822238,0.122267497 Z M832.950488,18.5889236 L865.767082,18.5889236 L865.767082,9.35559557 L832.950488,9.35559557 L832.950488,18.5889236 Z M1157.00532,214.769643 L1216.9693,214.769643 L1216.9693,202.328974 L1157.00532,202.328974 L1157.00532,214.769643 Z" id="Fill-1" fill="#10415A"></path>
                    <g id="Group-255" transform="translate(0.000000, 24.965509)">
                        <path d="M409.220874,292.563024 L0,292.563024 L0,219.126652 C31.4029963,192.138052 66.0481898,168.009657 127.92784,168.009657 C268.58362,168.009657 268.58362,292.563024 409.220874,292.563024" id="Fill-3" fill="#66BB6A"></path>
                        <path d="M127.932287,292.55129 L409.21791,292.55129 C268.575098,292.55129 268.575098,168.015035 127.934139,168.015035 L127.932287,168.015035 L127.932287,292.55129 Z" id="Fill-5" fill="#42A147"></path>
                        <path d="M768.90153,292.55129 C589.06148,292.55129 589.06148,133.303882 409.219577,133.303882 C229.375822,133.303882 229.375822,292.55129 49.5339191,292.55129 L768.90153,292.55129 Z" id="Fill-7" fill="#66BB6A"></path>
                        <path d="M409.217539,292.55129 L768.901344,292.55129 C589.061294,292.55129 589.061294,133.303882 409.219392,133.303882 L409.217539,133.303882 L409.217539,292.55129 Z" id="Fill-9" fill="#42A147"></path>
                        <path d="M1482.14732,165.467253 L1482.14732,292.563024 L1141.93893,292.563024 C1290.3204,292.563024 1290.3204,161.164722 1438.7204,161.164722 C1454.82022,161.164722 1469.17853,162.704833 1482.14732,165.467253" id="Fill-11" fill="#66BB6A"></path>
                        <path d="M1482.14732,165.467253 L1482.14732,292.563024 L1438.7204,292.563024 L1438.7204,161.164722 C1454.82022,161.164722 1469.17853,162.704833 1482.14732,165.467253" id="Fill-13" fill="#42A147"></path>
                        <path d="M304.088089,252.621118 L304.088089,330.824498 C304.088089,333.530692 306.611445,335.72596 309.723954,335.72596 C312.836463,335.72596 315.361672,333.530692 315.361672,330.824498 L315.361672,252.621118 L304.088089,252.621118 Z" id="Fill-15" fill="#6E4D42"></path>
                        <path d="M315.360746,252.621118 L315.360746,330.824498 C315.360746,333.530692 312.83739,335.72596 309.72488,335.72596 L309.72488,252.621118 L315.360746,252.621118 Z" id="Fill-17" fill="#4E342E"></path>
                        <path d="M347.095558,205.453162 C347.095558,256.707055 330.363967,298.258254 309.725066,298.258254 C289.084312,298.258254 272.352721,256.707055 272.352721,205.453162 C272.352721,154.199268 289.084312,112.650514 309.725066,112.650514 C330.363967,112.650514 347.095558,154.199268 347.095558,205.453162" id="Fill-19" fill="#317E3E"></path>
                        <path d="M309.724139,112.649781 L309.724139,298.257521 C330.363041,298.257521 347.094631,256.706322 347.094631,205.452428 C347.094631,154.198535 330.363041,112.649781 309.724139,112.649781" id="Fill-21" fill="#1E5E2F"></path>
                        <path d="M295.993527,261.758373 C295.993527,264.381449 294.383544,266.505824 292.395614,266.505824 C290.409537,266.505824 288.797701,264.381449 288.797701,261.758373 C288.797701,259.13774 290.409537,257.010921 292.395614,257.010921 C294.383544,257.010921 295.993527,259.13774 295.993527,261.758373" id="Fill-23" fill="#1E5E2F"></path>
                        <path d="M305.679174,227.288015 C305.679174,229.911091 304.069192,232.035466 302.081261,232.035466 C300.095184,232.035466 298.483349,229.911091 298.483349,227.288015 C298.483349,224.667382 300.095184,222.540563 302.081261,222.540563 C304.069192,222.540563 305.679174,224.667382 305.679174,227.288015" id="Fill-25" fill="#1E5E2F"></path>
                        <path d="M283.033445,201.982046 C283.033445,204.605123 281.423463,206.729497 279.435533,206.729497 C277.449455,206.729497 275.83762,204.605123 275.83762,201.982046 C275.83762,199.361414 277.449455,197.234595 279.435533,197.234595 C281.423463,197.234595 283.033445,199.361414 283.033445,201.982046" id="Fill-27" fill="#1E5E2F"></path>
                        <path d="M302.081447,169.10778 C302.081447,171.730857 300.471464,173.855231 298.483534,173.855231 C296.495604,173.855231 294.885621,171.730857 294.885621,169.10778 C294.885621,166.487148 296.495604,164.360329 298.483534,164.360329 C300.471464,164.360329 302.081447,166.487148 302.081447,169.10778" id="Fill-29" fill="#1E5E2F"></path>
                        <path d="M320.960483,133.170406 C320.960483,135.793483 319.350501,137.917857 317.362571,137.917857 C315.376493,137.917857 313.764658,135.793483 313.764658,133.170406 C313.764658,130.549774 315.376493,128.422955 317.362571,128.422955 C319.350501,128.422955 320.960483,130.549774 320.960483,133.170406" id="Fill-31" fill="#317E3E"></path>
                        <path d="M335.605581,156.652199 C335.605581,159.275276 333.995599,161.39965 332.007668,161.39965 C330.019738,161.39965 328.409756,159.275276 328.409756,156.652199 C328.409756,154.029122 330.019738,151.904748 332.007668,151.904748 C333.995599,151.904748 335.605581,154.029122 335.605581,156.652199" id="Fill-33" fill="#317E3E"></path>
                        <path d="M320.960483,184.013359 C320.960483,186.636436 319.350501,188.76081 317.362571,188.76081 C315.376493,188.76081 313.764658,186.636436 313.764658,184.013359 C313.764658,181.392727 315.376493,179.265908 317.362571,179.265908 C319.350501,179.265908 320.960483,181.392727 320.960483,184.013359" id="Fill-35" fill="#317E3E"></path>
                        <path d="M335.605581,199.531804 C335.605581,202.154881 333.995599,204.279255 332.007668,204.279255 C330.019738,204.279255 328.409756,202.154881 328.409756,199.531804 C328.409756,196.911172 330.019738,194.784353 332.007668,194.784353 C333.995599,194.784353 335.605581,196.911172 335.605581,199.531804" id="Fill-37" fill="#317E3E"></path>
                        <path d="M319.738268,236.782672 C319.738268,239.405749 318.126432,241.530124 316.140355,241.530124 C314.152425,241.530124 312.542442,239.405749 312.542442,236.782672 C312.542442,234.159596 314.152425,232.035221 316.140355,232.035221 C318.126432,232.035221 319.738268,234.159596 319.738268,236.782672" id="Fill-39" fill="#317E3E"></path>
                        <path d="M331.344222,269.248687 C331.344222,271.871764 329.73424,273.996138 327.74631,273.996138 C325.760232,273.996138 324.148397,271.871764 324.148397,269.248687 C324.148397,266.628055 325.760232,264.501236 327.74631,264.501236 C329.73424,264.501236 331.344222,266.628055 331.344222,269.248687" id="Fill-41" fill="#317E3E"></path>
                        <path d="M295.993527,140.929628 C295.993527,143.552705 294.383544,145.67708 292.395614,145.67708 C290.409537,145.67708 288.797701,143.552705 288.797701,140.929628 C288.797701,138.308996 290.409537,136.182177 292.395614,136.182177 C294.383544,136.182177 295.993527,138.308996 295.993527,140.929628" id="Fill-43" fill="#1E5E2F"></path>
                        <path d="M166.524438,200.536543 L166.524438,307.371307 C166.524438,311.067571 169.972284,314.064675 174.224194,314.064675 C178.476104,314.064675 181.923949,311.067571 181.923949,307.371307 L181.923949,200.536543 L166.524438,200.536543 Z" id="Fill-45" fill="#6E4D42"></path>
                        <path d="M181.924134,200.536543 L181.924134,307.371307 C181.924134,311.067571 178.476289,314.064675 174.224379,314.064675 L174.224379,200.536543 L181.924134,200.536543 Z" id="Fill-47" fill="#4E342E"></path>
                        <path d="M225.276758,136.101505 C225.276758,206.120298 202.420194,262.879475 174.224194,262.879475 C146.028194,262.879475 123.171629,206.120298 123.171629,136.101505 C123.171629,66.0851561 146.028194,9.32353454 174.224194,9.32353454 C202.420194,9.32353454 225.276758,66.0851561 225.276758,136.101505" id="Fill-49" fill="#317E3E"></path>
                        <path d="M174.224194,9.32329007 L174.224194,262.879231 C202.420194,262.879231 225.276758,206.120054 225.276758,136.10126 C225.276758,66.0849116 202.420194,9.32329007 174.224194,9.32329007" id="Fill-51" fill="#1E5E2F"></path>
                        <path d="M155.466878,213.019259 C155.466878,216.600627 153.26589,219.504835 150.551707,219.504835 C147.837525,219.504835 145.636536,216.600627 145.636536,213.019259 C145.636536,209.437891 147.837525,206.533683 150.551707,206.533683 C153.26589,206.533683 155.466878,209.437891 155.466878,213.019259" id="Fill-53" fill="#1E5E2F"></path>
                        <path d="M168.698378,165.92953 C168.698378,169.510898 166.497389,172.415106 163.783207,172.415106 C161.069025,172.415106 158.868036,169.510898 158.868036,165.92953 C158.868036,162.348163 161.069025,159.443955 163.783207,159.443955 C166.497389,159.443955 168.698378,162.348163 168.698378,165.92953" id="Fill-55" fill="#1E5E2F"></path>
                        <path d="M137.762443,131.359676 C137.762443,134.941044 135.561455,137.845252 132.847272,137.845252 C130.13309,137.845252 127.932101,134.941044 127.932101,131.359676 C127.932101,127.778309 130.13309,124.874101 132.847272,124.874101 C135.561455,124.874101 137.762443,127.778309 137.762443,131.359676" id="Fill-57" fill="#1E5E2F"></path>
                        <path d="M163.783392,86.4503038 C163.783392,90.0316714 161.582403,92.9358795 158.868221,92.9358795 C156.154039,92.9358795 153.95305,90.0316714 153.95305,86.4503038 C153.95305,82.8689361 156.154039,79.9647281 158.868221,79.9647281 C161.582403,79.9647281 163.783392,82.8689361 163.783392,86.4503038" id="Fill-59" fill="#1E5E2F"></path>
                        <path d="M189.574052,37.3567204 C189.574052,40.9380881 187.373064,43.8422961 184.658881,43.8422961 C181.944699,43.8422961 179.74371,40.9380881 179.74371,37.3567204 C179.74371,33.7753527 181.944699,30.8711447 184.658881,30.8711447 C187.373064,30.8711447 189.574052,33.7753527 189.574052,37.3567204" id="Fill-61" fill="#317E3E"></path>
                        <path d="M209.580633,69.4350183 C209.580633,73.0163859 207.379644,75.9205939 204.665462,75.9205939 C201.951279,75.9205939 199.750291,73.0163859 199.750291,69.4350183 C199.750291,65.8536506 201.951279,62.9494426 204.665462,62.9494426 C207.379644,62.9494426 209.580633,65.8536506 209.580633,69.4350183" id="Fill-63" fill="#317E3E"></path>
                        <path d="M189.574052,106.812762 C189.574052,110.39413 187.373064,113.298338 184.658881,113.298338 C181.944699,113.298338 179.74371,110.39413 179.74371,106.812762 C179.74371,103.231395 181.944699,100.327187 184.658881,100.327187 C187.373064,100.327187 189.574052,103.231395 189.574052,106.812762" id="Fill-65" fill="#317E3E"></path>
                        <path d="M209.580633,128.012259 C209.580633,131.593626 207.379644,134.497834 204.665462,134.497834 C201.951279,134.497834 199.750291,131.593626 199.750291,128.012259 C199.750291,124.430891 201.951279,121.526683 204.665462,121.526683 C207.379644,121.526683 209.580633,124.430891 209.580633,128.012259" id="Fill-67" fill="#317E3E"></path>
                        <path d="M187.904043,178.900193 C187.904043,182.481561 185.703054,185.385769 182.988872,185.385769 C180.27469,185.385769 178.073701,182.481561 178.073701,178.900193 C178.073701,175.318825 180.27469,172.414617 182.988872,172.414617 C185.703054,172.414617 187.904043,175.318825 187.904043,178.900193" id="Fill-69" fill="#317E3E"></path>
                        <path d="M203.758943,223.251459 C203.758943,226.832826 201.557955,229.737034 198.843772,229.737034 C196.12959,229.737034 193.928601,226.832826 193.928601,223.251459 C193.928601,219.670091 196.12959,216.765883 198.843772,216.765883 C201.557955,216.765883 203.758943,219.670091 203.758943,223.251459" id="Fill-71" fill="#317E3E"></path>
                        <path d="M155.466878,47.9565908 C155.466878,51.5379585 153.26589,54.4421665 150.551707,54.4421665 C147.837525,54.4421665 145.636536,51.5379585 145.636536,47.9565908 C145.636536,44.3752232 147.837525,41.4710151 150.551707,41.4710151 C153.26589,41.4710151 155.466878,44.3752232 155.466878,47.9565908" id="Fill-73" fill="#1E5E2F"></path>
                        <path d="M1290.30484,231.14978 L1290.30484,322.776566 C1290.30484,325.947237 1293.26172,328.516532 1296.9078,328.516532 C1300.55574,328.516532 1303.51262,325.947237 1303.51262,322.776566 L1303.51262,231.14978 L1290.30484,231.14978 Z" id="Fill-75" fill="#6E4D42"></path>
                        <path d="M1303.51225,231.14978 L1303.51225,322.776566 C1303.51225,325.947237 1300.55537,328.516532 1296.90929,328.516532 L1296.90929,231.14978 L1303.51225,231.14978 Z" id="Fill-77" fill="#4E342E"></path>
                        <path d="M1340.69377,175.88671 C1340.69377,235.936345 1321.09052,284.618499 1296.90929,284.618499 C1272.7262,284.618499 1253.12295,235.936345 1253.12295,175.88671 C1253.12295,115.837075 1272.7262,67.1549216 1296.90929,67.1549216 C1321.09052,67.1549216 1340.69377,115.837075 1340.69377,175.88671" id="Fill-79" fill="#317E3E"></path>
                        <path d="M1296.90854,67.155655 L1296.90854,284.619232 C1321.08978,284.619232 1340.69303,235.937079 1340.69303,175.887444 C1340.69303,115.835364 1321.08978,67.155655 1296.90854,67.155655" id="Fill-81" fill="#1E5E2F"></path>
                        <path d="M1280.82132,241.855258 C1280.82132,244.928145 1278.93343,247.416768 1276.60646,247.416768 C1274.27764,247.416768 1272.3916,244.928145 1272.3916,241.855258 C1272.3916,238.782371 1274.27764,236.293749 1276.60646,236.293749 C1278.93343,236.293749 1280.82132,238.782371 1280.82132,241.855258" id="Fill-83" fill="#1E5E2F"></path>
                        <path d="M1292.16919,201.468676 C1292.16919,204.541563 1290.28316,207.030186 1287.95434,207.030186 C1285.62551,207.030186 1283.73948,204.541563 1283.73948,201.468676 C1283.73948,198.395789 1285.62551,195.907167 1287.95434,195.907167 C1290.28316,195.907167 1292.16919,198.395789 1292.16919,201.468676" id="Fill-85" fill="#1E5E2F"></path>
                        <path d="M1265.63709,171.819841 C1265.63709,174.892728 1263.7492,177.381351 1261.42223,177.381351 C1259.09341,177.381351 1257.20552,174.892728 1257.20552,171.819841 C1257.20552,168.746954 1259.09341,166.258332 1261.42223,166.258332 C1263.7492,166.258332 1265.63709,168.746954 1265.63709,171.819841" id="Fill-87" fill="#1E5E2F"></path>
                        <path d="M1287.95415,133.303638 C1287.95415,136.376525 1286.06627,138.865147 1283.73929,138.865147 C1281.41047,138.865147 1279.52259,136.376525 1279.52259,133.303638 C1279.52259,130.230751 1281.41047,127.742128 1283.73929,127.742128 C1286.06627,127.742128 1287.95415,130.230751 1287.95415,133.303638" id="Fill-89" fill="#1E5E2F"></path>
                        <path d="M1310.07316,91.1984883 C1310.07316,94.2713751 1308.18528,96.7599978 1305.85831,96.7599978 C1303.52948,96.7599978 1301.6416,94.2713751 1301.6416,91.1984883 C1301.6416,88.1256016 1303.52948,85.6369788 1305.85831,85.6369788 C1308.18528,85.6369788 1310.07316,88.1256016 1310.07316,91.1984883" id="Fill-91" fill="#317E3E"></path>
                        <path d="M1327.2318,118.710481 C1327.2318,121.783368 1325.34576,124.271991 1323.01694,124.271991 C1320.68812,124.271991 1318.80208,121.783368 1318.80208,118.710481 C1318.80208,115.637595 1320.68812,113.148972 1323.01694,113.148972 C1325.34576,113.148972 1327.2318,115.637595 1327.2318,118.710481" id="Fill-93" fill="#317E3E"></path>
                        <path d="M1310.07316,150.767511 C1310.07316,153.840398 1308.18528,156.32902 1305.85831,156.32902 C1303.52948,156.32902 1301.6416,153.840398 1301.6416,150.767511 C1301.6416,147.694624 1303.52948,145.206001 1305.85831,145.206001 C1308.18528,145.206001 1310.07316,147.694624 1310.07316,150.767511" id="Fill-95" fill="#317E3E"></path>
                        <path d="M1327.2318,168.949369 C1327.2318,172.022256 1325.34576,174.510878 1323.01694,174.510878 C1320.68812,174.510878 1318.80208,172.022256 1318.80208,168.949369 C1318.80208,165.876482 1320.68812,163.387859 1323.01694,163.387859 C1325.34576,163.387859 1327.2318,165.876482 1327.2318,168.949369" id="Fill-97" fill="#317E3E"></path>
                        <path d="M1308.64122,212.593162 C1308.64122,215.666049 1306.75334,218.154671 1304.42637,218.154671 C1302.09754,218.154671 1300.20966,215.666049 1300.20966,212.593162 C1300.20966,209.520275 1302.09754,207.031652 1304.42637,207.031652 C1306.75334,207.031652 1308.64122,209.520275 1308.64122,212.593162" id="Fill-99" fill="#317E3E"></path>
                        <path d="M1322.23918,250.631198 C1322.23918,253.704085 1320.3513,256.192707 1318.02433,256.192707 C1315.6955,256.192707 1313.80762,253.704085 1313.80762,250.631198 C1313.80762,247.558311 1315.6955,245.069688 1318.02433,245.069688 C1320.3513,245.069688 1322.23918,247.558311 1322.23918,250.631198" id="Fill-101" fill="#317E3E"></path>
                        <path d="M1280.82132,100.28954 C1280.82132,103.362426 1278.93343,105.851049 1276.60646,105.851049 C1274.27764,105.851049 1272.3916,103.362426 1272.3916,100.28954 C1272.3916,97.2166528 1274.27764,94.7280301 1276.60646,94.7280301 C1278.93343,94.7280301 1280.82132,97.2166528 1280.82132,100.28954" id="Fill-103" fill="#1E5E2F"></path>
                        <path d="M637.256464,325.304302 C629.310302,325.304302 622.870372,333.804245 622.870372,344.286773 L651.642556,344.286773 C651.642556,333.804245 645.202626,325.304302 637.256464,325.304302" id="Fill-105" fill="#317E3E"></path>
                        <path d="M650.521497,331.81188 C645.300633,331.81188 641.06725,337.397835 641.06725,344.286773 L659.975744,344.286773 C659.975744,337.397835 655.744214,331.81188 650.521497,331.81188" id="Fill-107" fill="#1E5E2F"></path>
                        <path d="M1410.56608,234.144195 L1410.56608,364.596428 C1410.56608,369.11164 1414.77538,372.771236 1419.96846,372.771236 C1425.16153,372.771236 1429.37083,369.11164 1429.37083,364.596428 L1429.37083,234.144195 L1410.56608,234.144195 Z" id="Fill-109" fill="#6E4D42"></path>
                        <path d="M1429.37027,234.144195 L1429.37027,364.596428 C1429.37027,369.11164 1425.16097,372.771236 1419.9679,372.771236 L1419.9679,234.144195 L1429.37027,234.144195 Z" id="Fill-111" fill="#4E342E"></path>
                        <g id="Group-115" transform="translate(1357.164794, 0.000000)">
                            <mask id="mask-2" fill="white">
                                <use xlink:href="#path-1"></use>
                            </mask>
                            <g id="Clip-114"></g>
                            <path d="M125.142594,155.463625 C125.142594,240.96175 97.2319071,310.269159 62.8034777,310.269159 C28.3731955,310.269159 0.464361548,240.96175 0.464361548,155.463625 C0.464361548,69.9679453 28.3731955,0.658091585 62.8034777,0.658091585 C97.2319071,0.658091585 125.142594,69.9679453 125.142594,155.463625" id="Fill-113" fill="#317E3E" mask="url(#mask-2)"></path>
                        </g>
                        <g id="Group-118" transform="translate(1419.156055, 0.000000)">
                            <mask id="mask-4" fill="white">
                                <use xlink:href="#path-3"></use>
                            </mask>
                            <g id="Clip-117"></g>
                            <path d="M0.812031461,0.657358199 L0.812031461,310.27087 C35.2404609,310.27087 63.1511476,240.961016 63.1511476,155.462892 C63.1511476,69.9672119 35.2404609,0.657358199 0.812031461,0.657358199" id="Fill-116" fill="#1E5E2F" mask="url(#mask-4)"></path>
                        </g>
                        <path d="M1397.06391,249.386642 C1397.06391,253.760066 1394.37752,257.304765 1391.06121,257.304765 C1387.74676,257.304765 1385.06037,253.760066 1385.06037,249.386642 C1385.06037,245.013218 1387.74676,241.466075 1391.06121,241.466075 C1394.37752,241.466075 1397.06391,245.013218 1397.06391,249.386642" id="Fill-119" fill="#1E5E2F"></path>
                        <path d="M1413.22061,191.886256 C1413.22061,196.259681 1410.53422,199.804379 1407.21791,199.804379 C1403.90346,199.804379 1401.21707,196.259681 1401.21707,191.886256 C1401.21707,187.512832 1403.90346,183.965689 1407.21791,183.965689 C1410.53422,183.965689 1413.22061,187.512832 1413.22061,191.886256" id="Fill-121" fill="#1E5E2F"></path>
                        <path d="M1375.44512,149.673544 C1375.44512,154.046968 1372.75873,157.591666 1369.44428,157.591666 C1366.12797,157.591666 1363.44158,154.046968 1363.44158,149.673544 C1363.44158,145.300119 1366.12797,141.752976 1369.44428,141.752976 C1372.75873,141.752976 1375.44512,145.300119 1375.44512,149.673544" id="Fill-123" fill="#1E5E2F"></path>
                        <path d="M1407.21884,94.8358378 C1407.21884,99.2092622 1404.53245,102.753961 1401.218,102.753961 C1397.90169,102.753961 1395.2153,99.2092622 1395.2153,94.8358378 C1395.2153,90.4624134 1397.90169,86.9152704 1401.218,86.9152704 C1404.53245,86.9152704 1407.21884,90.4624134 1407.21884,94.8358378" id="Fill-125" fill="#1E5E2F"></path>
                        <path d="M1438.71132,34.8886325 C1438.71132,39.2620569 1436.02493,42.8067552 1432.71048,42.8067552 C1429.39417,42.8067552 1426.70778,39.2620569 1426.70778,34.8886325 C1426.70778,30.5152081 1429.39417,26.9705097 1432.71048,26.9705097 C1436.02493,26.9705097 1438.71132,30.5152081 1438.71132,34.8886325" id="Fill-127" fill="#317E3E"></path>
                        <path d="M1463.14081,74.0585272 C1463.14081,78.4319516 1460.45442,81.97665 1457.13997,81.97665 C1453.82552,81.97665 1451.13727,78.4319516 1451.13727,74.0585272 C1451.13727,69.6851028 1453.82552,66.1379599 1457.13997,66.1379599 C1460.45442,66.1379599 1463.14081,69.6851028 1463.14081,74.0585272" id="Fill-129" fill="#317E3E"></path>
                        <path d="M1438.71132,119.699819 C1438.71132,124.073243 1436.02493,127.620386 1432.71048,127.620386 C1429.39417,127.620386 1426.70778,124.073243 1426.70778,119.699819 C1426.70778,115.326394 1429.39417,111.781696 1432.71048,111.781696 C1436.02493,111.781696 1438.71132,115.326394 1438.71132,119.699819" id="Fill-131" fill="#317E3E"></path>
                        <path d="M1463.14081,145.586384 C1463.14081,149.959809 1460.45442,153.504507 1457.13997,153.504507 C1453.82552,153.504507 1451.13727,149.959809 1451.13727,145.586384 C1451.13727,141.21296 1453.82552,137.665817 1457.13997,137.665817 C1460.45442,137.665817 1463.14081,141.21296 1463.14081,145.586384" id="Fill-133" fill="#317E3E"></path>
                        <path d="M1436.67244,207.724213 C1436.67244,212.097638 1433.98605,215.644781 1430.6716,215.644781 C1427.35529,215.644781 1424.6689,212.097638 1424.6689,207.724213 C1424.6689,203.350789 1427.35529,199.80609 1430.6716,199.80609 C1433.98605,199.80609 1436.67244,203.350789 1436.67244,207.724213" id="Fill-135" fill="#317E3E"></path>
                        <path d="M1456.03244,261.881093 C1456.03244,266.254517 1453.34604,269.799215 1450.03159,269.799215 C1446.71529,269.799215 1444.0289,266.254517 1444.0289,261.881093 C1444.0289,257.507668 1446.71529,253.96297 1450.03159,253.96297 C1453.34604,253.96297 1456.03244,257.507668 1456.03244,261.881093" id="Fill-137" fill="#317E3E"></path>
                        <path d="M1397.06391,47.8316707 C1397.06391,52.2050951 1394.37752,55.7497935 1391.06121,55.7497935 C1387.74676,55.7497935 1385.06037,52.2050951 1385.06037,47.8316707 C1385.06037,43.4582464 1387.74676,39.913548 1391.06121,39.913548 C1394.37752,39.913548 1397.06391,43.4582464 1397.06391,47.8316707" id="Fill-139" fill="#1E5E2F"></path>
                        <path d="M1429.42307,360.295609 C1424.20036,360.295609 1419.96883,365.881565 1419.96883,372.770503 L1438.87732,372.770503 C1438.87732,365.881565 1434.64394,360.295609 1429.42307,360.295609" id="Fill-141" fill="#317E3E"></path>
                        <path d="M1447.61995,351.730884 C1438.81415,351.730884 1431.6739,361.150003 1431.6739,372.771725 L1463.56601,372.771725 C1463.56601,361.150003 1456.42576,351.730884 1447.61995,351.730884" id="Fill-143" fill="#1E5E2F"></path>
                        <path d="M988.513891,341.73459 C980.145317,341.73459 973.36264,350.684343 973.36264,361.726689 L1003.66514,361.726689 C1003.66514,350.684343 996.882465,341.73459 988.513891,341.73459" id="Fill-145" fill="#F5F6F6"></path>
                        <path d="M1003.66551,361.726689 C1003.66551,350.684343 996.882836,341.73459 988.514262,341.73459 L988.514262,361.726689 L1003.66551,361.726689 Z" id="Fill-147" fill="#E1E1E0"></path>
                        <path d="M272.352906,326.959799 C263.984332,326.959799 257.201655,335.909551 257.201655,346.951897 L287.504157,346.951897 C287.504157,335.909551 280.721481,326.959799 272.352906,326.959799" id="Fill-149" fill="#F5F6F6"></path>
                        <path d="M287.504528,346.952142 C287.504528,335.909795 280.719999,326.960043 272.353277,326.960043 L272.353277,346.952142 L287.504528,346.952142 Z" id="Fill-151" fill="#E1E1E0"></path>
                        <path d="M1177.16605,297.723127 C1172.75851,297.723127 1169.18468,302.436353 1169.18468,308.254548 L1185.14556,308.254548 C1185.14556,302.436353 1181.57358,297.723127 1177.16605,297.723127" id="Fill-153" fill="#F5F6F6"></path>
                        <path d="M1185.14648,308.253325 C1185.14648,302.437575 1181.57266,297.721904 1177.16697,297.721904 L1177.16697,308.253325 L1185.14648,308.253325 Z" id="Fill-155" fill="#E1E1E0"></path>
                        <path d="M369.290528,311.856939 C364.882993,311.856939 361.309165,316.570166 361.309165,322.38836 L377.270039,322.38836 C377.270039,316.570166 373.698064,311.856939 369.290528,311.856939" id="Fill-157" fill="#F5F6F6"></path>
                        <path d="M377.270965,322.387382 C377.270965,316.571632 373.69899,311.855961 369.291455,311.855961 L369.291455,322.387382 L377.270965,322.387382 Z" id="Fill-159" fill="#E1E1E0"></path>
                        <path d="M1331.46296,318.677428 C1325.04711,318.677428 1319.84477,325.539475 1319.84477,334.007637 L1343.08114,334.007637 C1343.08114,325.539475 1337.8788,318.677428 1331.46296,318.677428" id="Fill-161" fill="#F5F6F6"></path>
                        <path d="M1343.08058,334.006904 C1343.08058,325.541186 1337.87825,318.676694 1331.4624,318.676694 L1331.4624,334.006904 L1343.08058,334.006904 Z" id="Fill-163" fill="#E1E1E0"></path>
                        <path d="M496.117133,138.836301 L496.117133,161.808391 C496.117133,162.602892 496.858207,163.248272 497.773433,163.248272 C498.686806,163.248272 499.42788,162.602892 499.42788,161.808391 L499.42788,138.836301 L496.117133,138.836301 Z" id="Fill-165" fill="#6E4D42"></path>
                        <path d="M499.428621,138.836301 L499.428621,161.808391 C499.428621,162.602892 498.687547,163.248272 497.772321,163.248272 L497.772321,138.836301 L499.428621,138.836301 Z" id="Fill-167" fill="#5D4037"></path>
                        <polygon id="Fill-169" fill="#317E3E" points="497.772877 87.8461815 482.58272 151.042042 512.963034 151.042042"></polygon>
                        <polygon id="Fill-171" fill="#1E5E2F" points="512.962478 151.042286 497.772321 87.846426 497.772321 151.042286"></polygon>
                        <path d="M368.080355,123.010323 L368.080355,139.79997 C368.080355,140.381789 368.623192,140.851156 369.290158,140.851156 C369.958977,140.851156 370.499961,140.381789 370.499961,139.79997 L370.499961,123.010323 L368.080355,123.010323 Z" id="Fill-173" fill="#6E4D42"></path>
                        <path d="M370.500516,123.010323 L370.500516,139.79997 C370.500516,140.381789 369.959533,140.851156 369.290714,140.851156 L369.290714,123.010323 L370.500516,123.010323 Z" id="Fill-175" fill="#5D4037"></path>
                        <polygon id="Fill-177" fill="#317E3E" points="369.290528 85.7445421 358.189245 131.930739 380.391812 131.930739"></polygon>
                        <polygon id="Fill-179" fill="#1E5E2F" points="380.391812 131.931228 369.290528 85.745031 369.290528 131.931228"></polygon>
                        <path d="M601.109114,239.75093 L601.109114,262.72302 C601.109114,263.519965 601.850188,264.1629 602.765414,264.1629 C603.678787,264.1629 604.419861,263.519965 604.419861,262.72302 L604.419861,239.75093 L601.109114,239.75093 Z" id="Fill-181" fill="#6E4D42"></path>
                        <path d="M604.420416,239.75093 L604.420416,262.72302 C604.420416,263.519965 603.679343,264.1629 602.764117,264.1629 L602.764117,239.75093 L604.420416,239.75093 Z" id="Fill-183" fill="#5D4037"></path>
                        <polygon id="Fill-185" fill="#317E3E" points="602.764858 188.761055 587.574701 251.956915 617.955015 251.956915"></polygon>
                        <polygon id="Fill-187" fill="#1E5E2F" points="617.954459 251.956915 602.764302 188.761055 602.764302 251.956915"></polygon>
                        <path d="M1221.47577,267.250944 L1221.47577,290.223034 C1221.47577,291.01998 1222.21684,291.662915 1223.13207,291.662915 C1224.04544,291.662915 1224.78651,291.01998 1224.78651,290.223034 L1224.78651,267.250944 L1221.47577,267.250944 Z" id="Fill-189" fill="#6E4D42"></path>
                        <path d="M1224.78707,267.250944 L1224.78707,290.223034 C1224.78707,291.01998 1224.046,291.662915 1223.13077,291.662915 L1223.13077,267.250944 L1224.78707,267.250944 Z" id="Fill-191" fill="#5D4037"></path>
                        <polygon id="Fill-193" fill="#317E3E" points="1223.13151 216.261069 1207.94135 279.456929 1238.32167 279.456929"></polygon>
                        <polygon id="Fill-195" fill="#1E5E2F" points="1238.32093 279.456929 1223.13077 216.261069 1223.13077 279.456929"></polygon>
                        <path d="M240.35594,202.050007 L240.35594,225.022097 C240.35594,225.816598 241.097013,226.461978 242.012239,226.461978 C242.925612,226.461978 243.666686,225.816598 243.666686,225.022097 L243.666686,202.050007 L240.35594,202.050007 Z" id="Fill-197" fill="#6E4D42"></path>
                        <path d="M243.667427,202.050007 L243.667427,225.022097 C243.667427,225.816598 242.926354,226.461978 242.011128,226.461978 L242.011128,202.050007 L243.667427,202.050007 Z" id="Fill-199" fill="#5D4037"></path>
                        <polygon id="Fill-201" fill="#317E3E" points="242.011869 151.060132 226.821711 214.255992 257.202026 214.255992"></polygon>
                        <polygon id="Fill-203" fill="#1E5E2F" points="257.201285 214.255992 242.011128 151.060132 242.011128 214.255992"></polygon>
                        <path d="M23.1450272,197.302556 L23.1450272,220.274646 C23.1450272,221.069147 23.8861009,221.714526 24.8013268,221.714526 C25.7147001,221.714526 26.4557738,221.069147 26.4557738,220.274646 L26.4557738,197.302556 L23.1450272,197.302556 Z" id="Fill-205" fill="#6E4D42"></path>
                        <path d="M26.4563296,197.302556 L26.4563296,220.274646 C26.4563296,221.069147 25.7152559,221.714526 24.80003,221.714526 L24.80003,197.302556 L26.4563296,197.302556 Z" id="Fill-207" fill="#5D4037"></path>
                        <polygon id="Fill-209" fill="#317E3E" points="24.800771 146.312436 9.61061373 209.508297 39.9909283 209.508297"></polygon>
                        <polygon id="Fill-211" fill="#1E5E2F" points="39.9901873 209.508541 24.80003 146.312681 24.80003 209.508541"></polygon>
                        <path d="M430.3839,233.707341 L430.3839,269.631025 C430.3839,270.872892 431.54368,271.880075 432.973952,271.880075 C434.402372,271.880075 435.562152,270.872892 435.562152,269.631025 L435.562152,233.707341 L430.3839,233.707341 Z" id="Fill-213" fill="#6E4D42"></path>
                        <path d="M435.561967,233.707341 L435.561967,269.631025 C435.561967,270.872892 434.402186,271.880075 432.973767,271.880075 L432.973767,233.707341 L435.561967,233.707341 Z" id="Fill-215" fill="#5D4037"></path>
                        <polygon id="Fill-217" fill="#317E3E" points="432.973211 153.973874 409.2218 252.79273 456.724622 252.79273"></polygon>
                        <polygon id="Fill-219" fill="#1E5E2F" points="456.725178 252.793953 432.973767 153.975096 432.973767 252.793953"></polygon>
                        <path d="M58.401977,245.309017 L58.401977,313.697249 C58.401977,316.06364 60.6085238,317.982667 63.3301169,317.982667 C66.0535625,317.982667 68.2601094,316.06364 68.2601094,313.697249 L68.2601094,245.309017 L58.401977,245.309017 Z" id="Fill-221" fill="#6E4D42"></path>
                        <path d="M68.2595536,245.309017 L68.2595536,313.697249 C68.2595536,316.06364 66.0530067,317.982667 63.3314137,317.982667 L63.3314137,245.309017 L68.2595536,245.309017 Z" id="Fill-223" fill="#4E342E"></path>
                        <path d="M96.0112799,204.061929 C96.0112799,248.881584 81.3787805,285.215964 63.3317843,285.215964 C45.2810826,285.215964 30.650436,248.881584 30.650436,204.061929 C30.650436,159.242274 45.2810826,122.907893 63.3317843,122.907893 C81.3787805,122.907893 96.0112799,159.242274 96.0112799,204.061929" id="Fill-225" fill="#317E3E"></path>
                        <path d="M63.3308579,122.906915 L63.3308579,285.217431 C81.3797069,285.217431 96.0103536,248.88305 96.0103536,204.060951 C96.0103536,159.241296 81.3797069,122.906915 63.3308579,122.906915" id="Fill-227" fill="#1E5E2F"></path>
                        <path d="M51.323612,253.2995 C51.323612,255.592553 49.915572,257.450464 48.1777543,257.450464 C46.4399366,257.450464 45.0318966,255.592553 45.0318966,253.2995 C45.0318966,251.006447 46.4399366,249.148536 48.1777543,249.148536 C49.915572,249.148536 51.323612,251.006447 51.323612,253.2995" id="Fill-229" fill="#1E5E2F"></path>
                        <path d="M59.7935281,223.155874 C59.7935281,225.448927 58.3854881,227.306838 56.6476704,227.306838 C54.9098527,227.306838 53.5018127,225.448927 53.5018127,223.155874 C53.5018127,220.862821 54.9098527,219.00491 56.6476704,219.00491 C58.3854881,219.00491 59.7935281,220.862821 59.7935281,223.155874" id="Fill-231" fill="#1E5E2F"></path>
                        <path d="M39.9901873,201.026689 C39.9901873,203.319742 38.5821473,205.177653 36.8443296,205.177653 C35.1065119,205.177653 33.6984719,203.319742 33.6984719,201.026689 C33.6984719,198.733636 35.1065119,196.875725 36.8443296,196.875725 C38.5821473,196.875725 39.9901873,198.733636 39.9901873,201.026689" id="Fill-233" fill="#1E5E2F"></path>
                        <path d="M56.6471146,172.278452 C56.6471146,174.571505 55.2390747,176.429416 53.5012569,176.429416 C51.7634392,176.429416 50.3553993,174.571505 50.3553993,172.278452 C50.3553993,169.985399 51.7634392,168.127488 53.5012569,168.127488 C55.2390747,168.127488 56.6471146,169.985399 56.6471146,172.278452" id="Fill-235" fill="#1E5E2F"></path>
                        <path d="M73.1565683,140.852134 C73.1565683,143.145187 71.7485283,145.003098 70.0107106,145.003098 C68.2728929,145.003098 66.8648529,143.145187 66.8648529,140.852134 C66.8648529,138.559081 68.2728929,136.70117 70.0107106,136.70117 C71.7485283,136.70117 73.1565683,138.559081 73.1565683,140.852134" id="Fill-237" fill="#317E3E"></path>
                        <path d="M85.963618,161.386449 C85.963618,163.679503 84.555578,165.537413 82.8177603,165.537413 C81.0799426,165.537413 79.6719026,163.679503 79.6719026,161.386449 C79.6719026,159.093396 81.0799426,157.235485 82.8177603,157.235485 C84.555578,157.235485 85.963618,159.093396 85.963618,161.386449" id="Fill-239" fill="#317E3E"></path>
                        <path d="M73.1565683,185.313163 C73.1565683,187.606216 71.7485283,189.464127 70.0107106,189.464127 C68.2728929,189.464127 66.8648529,187.606216 66.8648529,185.313163 C66.8648529,183.02011 68.2728929,181.162199 70.0107106,181.162199 C71.7485283,181.162199 73.1565683,183.02011 73.1565683,185.313163" id="Fill-241" fill="#317E3E"></path>
                        <path d="M85.963618,198.883735 C85.963618,201.176789 84.555578,203.034699 82.8177603,203.034699 C81.0799426,203.034699 79.6719026,201.176789 79.6719026,198.883735 C79.6719026,196.590682 81.0799426,194.732771 82.8177603,194.732771 C84.555578,194.732771 85.963618,196.590682 85.963618,198.883735" id="Fill-243" fill="#317E3E"></path>
                        <path d="M72.0877548,231.45878 C72.0877548,233.751833 70.6797149,235.609744 68.9418971,235.609744 C67.2040794,235.609744 65.7960395,233.751833 65.7960395,231.45878 C65.7960395,229.165727 67.2040794,227.307816 68.9418971,227.307816 C70.6797149,227.307816 72.0877548,229.165727 72.0877548,231.45878" id="Fill-245" fill="#317E3E"></path>
                        <path d="M82.2369438,259.849614 C82.2369438,262.142667 80.8289039,264.000578 79.0910861,264.000578 C77.3532684,264.000578 75.9452285,262.142667 75.9452285,259.849614 C75.9452285,257.556561 77.3532684,255.69865 79.0910861,255.69865 C80.8289039,255.69865 82.2369438,257.556561 82.2369438,259.849614" id="Fill-247" fill="#317E3E"></path>
                        <path d="M51.323612,147.637176 C51.323612,149.930229 49.915572,151.78814 48.1777543,151.78814 C46.4399366,151.78814 45.0318966,149.930229 45.0318966,147.637176 C45.0318966,145.344122 46.4399366,143.486212 48.1777543,143.486212 C49.915572,143.486212 51.323612,145.344122 51.323612,147.637176" id="Fill-249" fill="#1E5E2F"></path>
                        <path d="M55.8684315,314.105256 C51.2163416,314.105256 47.4461293,319.080057 47.4461293,325.218496 L64.2907336,325.218496 C64.2907336,319.080057 60.5205213,314.105256 55.8684315,314.105256" id="Fill-251" fill="#317E3E"></path>
                        <path d="M72.077565,306.475843 C64.2333004,306.475843 57.8730357,314.868221 57.8730357,325.218741 L86.2820944,325.218741 C86.2820944,314.868221 79.9218297,306.475843 72.077565,306.475843" id="Fill-253" fill="#1E5E2F"></path>
                    </g>
                </g>
            </g>
        </g>
    </g>
</svg>