<?xml version="1.0" encoding="UTF-8"?>
<svg width="106px" height="100px" viewBox="0 0 106 100" version="1.1" xmlns="http://www.w3.org/2000/svg" xmlns:xlink="http://www.w3.org/1999/xlink">
    <!-- Generator: Sketch 41.2 (35397) - http://www.bohemiancoding.com/sketch -->
    <title>recicla</title>
    <desc>Created with Sketch.</desc>
    <defs>
        <polygon id="path-1" points="32.7644737 47.7318421 32.7644737 0.450263158 0.786578947 0.450263158 0.786578947 47.7318421 32.7644737 47.7318421"></polygon>
    </defs>
    <g id="Page-1" stroke="none" stroke-width="1" fill="none" fill-rule="evenodd">
        <g id="Clima" transform="translate(-1054.000000, -5164.000000)">
            <g id="que-hacer" transform="translate(219.000000, 4935.000000)">
                <g id="items" transform="translate(25.000000, 229.000000)">
                    <g id="recicla" transform="translate(770.000000, 0.000000)">
                        <g transform="translate(40.000000, 0.000000)">
                            <polygon id="Fill-1" fill="#66BB6A" points="28.7540789 61.9096053 33.4172368 64.1925 27.6632895 42.5911842 6.80539474 50.4609211 11.5777632 53.1122368 0.244868421 76.7648684 21.2777632 76.7648684"></polygon>
                            <path d="M0.244868421,76.7648684 L0.00407894737,76.7648684 C0.00407894737,83.3438158 1.39618421,89.1188158 6.45934211,93.6425 C11.0646053,97.7596053 31.2119737,96.4030263 43.0540789,96.4030263 L43.0540789,76.7648684 L21.2777632,76.7648684 L0.244868421,76.7648684 Z" id="Fill-2" fill="#A0C849"></path>
                            <path d="M66.4109211,75.1978947 L66.3990789,69.9557895 L49.8898684,84.9505263 L66.4688158,99.865 L66.4569737,94.5031579 L92.7977632,93.815 L92.6938158,93.5531579 C91.1609211,90.5821053 87.1701316,82.8439474 83.1885526,75.1294737 L66.4109211,75.1978947 Z" id="Fill-4" fill="#66BB6A"></path>
                            <g id="Group-8" transform="translate(72.368421, 46.164474)">
                                <mask id="mask-2" fill="white">
                                    <use xlink:href="#path-1"></use>
                                </mask>
                                <g id="Clip-7"></g>
                                <path d="M18.3563158,0.450263158 C6.33657895,6.65289474 0.786578947,9.51473684 0.786578947,9.51473684 C0.786578947,9.51473684 5.79184211,19.22 10.8207895,28.9647368 C14.8023684,36.6805263 18.7931579,44.4186842 20.3247368,47.3884211 C20.3892105,47.5094737 20.4484211,47.6265789 20.5023684,47.7318421 C25.5155263,45.1463158 30.9115789,40.8226316 32.6128947,34.2489474 C34.1576316,28.2673684 23.5273684,10.4752632 18.3563158,0.450263158" id="Fill-6" fill="#A0C849" mask="url(#mask-2)"></path>
                            </g>
                            <path d="M60.2714474,36.5053947 L55.8727632,39.3580263 L77.4253947,45.0961842 L80.9622368,23.0764474 L76.4648684,25.9961842 L61.5990789,4.24092105 L61.4332895,4.47381579 C59.7648684,7.37644737 55.4319737,14.9238158 51.1122368,22.4475 L60.2714474,36.5053947 Z" id="Fill-9" fill="#66BB6A"></path>
                            <path d="M51.1122368,22.4475 C55.4319737,14.9238158 59.7648684,7.37644737 61.4332895,4.47381579 C61.5017105,4.35407895 61.5675,4.23828947 61.6280263,4.13302632 C56.7346053,1.32513158 50.1753947,-0.864342105 43.7306579,1.27513158 C37.8688158,3.21986842 28.6846053,21.8027632 23.0688158,31.5843421 C34.8003947,38.3185526 40.2161842,41.4277632 40.2161842,41.4277632 C40.2161842,41.4277632 45.6543421,31.9580263 51.1122368,22.4475" id="Fill-11" fill="#A0C849"></path>
                        </g>
                    </g>
                </g>
            </g>
        </g>
    </g>
</svg>