<?xml version="1.0" encoding="UTF-8"?>
<svg width="30px" height="24px" viewBox="0 0 30 24" version="1.1" xmlns="http://www.w3.org/2000/svg" xmlns:xlink="http://www.w3.org/1999/xlink">
    <!-- Generator: Sketch 42 (36781) - http://www.bohemiancoding.com/sketch -->
    <title>Shape</title>
    <desc>Created with Sketch.</desc>
    <defs></defs>
    <g id="Page-1" stroke="none" stroke-width="1" fill="none" fill-rule="evenodd">
        <g id="Clima" transform="translate(-667.000000, -6355.000000)" fill="#F4F4F4">
            <g id="comparte" transform="translate(496.000000, 6252.000000)">
                <g id="twitter" transform="translate(160.000000, 90.000000)">
                    <g id="icon-tw" transform="translate(11.000000, 13.000000)">
                        <g id="Group">
                            <path d="M18.2883333,0.276120887 C15.6516667,1.20362089 13.9858333,3.59528755 14.175,6.21362089 L14.2391667,7.22362089 L13.1833333,7.10112089 C9.345,6.62695422 5.99083333,5.01862089 3.1425,2.31528755 L1.75,0.976120887 L1.39166667,1.96528755 C0.6325,4.17195422 1.1175,6.50278755 2.7,8.06778755 C3.54333333,8.93528755 3.35333333,9.05778755 1.89833333,8.54195422 C1.3925,8.37778755 0.949166667,8.25445422 0.9075,8.31528755 C0.76,8.46028755 1.26583333,10.3352876 1.66666667,11.0777876 C2.21583333,12.1094542 3.3325,13.1186209 4.55583333,13.7169542 L5.59,14.1911209 L4.36666667,14.2111209 C3.18583333,14.2111209 3.14333333,14.2319542 3.27083333,14.6652876 C3.69166667,16.0061209 5.35916667,17.4286209 7.215,18.0477876 L8.5225,18.4811209 L7.38416667,19.1402876 C5.69666667,20.0902876 3.71333333,20.6244542 1.73083333,20.6652876 C0.779166667,20.6861209 0,20.7686209 0,20.8302876 C0,21.0352876 2.575,22.1894542 4.07166667,22.6452876 C8.56416667,23.9861209 13.9025,23.4069542 17.91,21.1194542 C20.7591667,19.4902876 23.6066667,16.2527876 24.935,13.1177876 C25.6525,11.4486209 26.37,8.39695422 26.37,6.93362089 C26.37,5.98445422 26.4325,5.86112089 27.615,4.72695422 C28.3108333,4.06778755 28.9633333,3.34528755 29.0908333,3.13945422 C29.3008333,2.74778755 29.28,2.74778755 28.2041667,3.09778755 C26.4108333,3.71528755 26.1575,3.63362089 27.045,2.70612089 C27.6991667,2.04612089 28.4791667,0.850287554 28.4791667,0.501120887 C28.4791667,0.43945422 28.1625,0.541120887 27.8041667,0.727787554 C27.4241667,0.933620887 26.58,1.24278755 25.9458333,1.42862089 L24.8075,1.77945422 L23.7741667,1.09862089 C23.2041667,0.72695422 22.4033333,0.315287554 21.9808333,0.191120887 C20.9041667,-0.0947124463 19.2583333,-0.0547124463 18.2883333,0.276120887 L18.2883333,0.276120887 Z" id="Shape"></path>
                        </g>
                    </g>
                </g>
            </g>
        </g>
    </g>
</svg>