<?xml version="1.0" encoding="UTF-8"?>
<svg width="301px" height="229px" viewBox="0 0 301 229" version="1.1" xmlns="http://www.w3.org/2000/svg" xmlns:xlink="http://www.w3.org/1999/xlink">
    <!-- Generator: Sketch 41.2 (35397) - http://www.bohemiancoding.com/sketch -->
    <title>Page 1</title>
    <desc>Created with Sketch.</desc>
    <defs></defs>
    <g id="Page-1" stroke="none" stroke-width="1" fill="none" fill-rule="evenodd">
        <g id="Clima" transform="translate(-911.000000, -4189.000000)">
            <g id="consecuencias" transform="translate(219.000000, 3200.000000)">
                <g id="tormentas" transform="translate(2.000000, 988.000000)">
                    <g id="Page-1" transform="translate(690.000000, 0.000000)">
                        <polygon id="Fill-1" fill="#F39323" points="71.5023 148.9734 58.3763 174.5694 48.1333 161.5864 16.9253 230.1124 48.3683 184.4184 60.2563 195.2914 85.8533 148.9484"></polygon>
                        <polygon id="Fill-2" fill="#F39323" points="38.592 149.1147 30.57 164.7517 23.942 156.3487 0 208.9077 24.379 173.4867 32.09 180.5417 49.585 149.0287"></polygon>
                        <polygon id="Fill-3" fill="#F39323" points="108.2129 148.1706 102.1579 159.9706 95.5249 151.5666 71.5919 204.1286 95.9649 168.7046 103.6799 175.7576 119.0039 148.1516"></polygon>
                        <g id="Group-26" transform="translate(10.000000, 0.112000)">
                            <path d="M261.0639,68.688 C261.0459,58.066 251.7339,46.644 237.5489,41.113 C227.8569,37.334 217.9809,37.124 210.3969,39.857 C205.8429,25.503 194.5539,15.342 181.3489,15.342 C174.7469,15.342 168.6259,17.884 163.5849,22.217 C156.1809,9.458 142.4509,0.888 126.7349,0.888 C103.2059,0.888 84.1249,20.097 84.0669,43.814 C70.5909,45.097 59.6619,55.115 57.0139,68.145 C43.9349,72.608 34.5289,85 34.5289,99.59 C34.5289,117.935 49.4009,132.661 67.7469,132.661 C69.3839,132.661 258.7149,132.431 259.6019,132.431 C276.4779,132.431 290.1589,118.194 290.1589,100.542 C290.1589,83.401 277.2609,69.486 261.0639,68.688" id="Fill-4" fill="#0465A8"></path>
                            <path d="M261.0639,68.688 C261.0459,58.066 251.7339,46.644 237.5489,41.113 C227.8569,37.334 217.9809,37.124 210.3969,39.857 C205.8429,25.503 194.5539,15.342 181.3489,15.342 C174.7469,15.342 168.6259,17.884 163.5849,22.217 C156.1809,9.458 142.4509,0.888 126.7349,0.888 C103.2059,0.888 84.1249,20.097 84.0669,43.814 C70.5909,45.097 59.6619,55.115 57.0139,68.145 C43.9349,72.608 34.5289,85 34.5289,99.589 C34.5289,117.935 49.4009,132.661 67.7469,132.661 C69.3839,132.661 258.7149,132.431 259.6019,132.431 C276.4779,132.431 290.1589,118.194 290.1589,100.541 C290.1589,83.401 277.2609,69.486 261.0639,68.688" id="Fill-6" fill="#1B80A7"></path>
                            <path d="M173.3208,83.7241 C173.3068,75.5991 166.1838,66.8611 155.3328,62.6301 C147.9188,59.7401 140.3638,59.5791 134.5628,61.6701 C131.0788,50.6891 122.4428,42.9161 112.3418,42.9161 C107.2918,42.9161 102.6098,44.8611 98.7538,48.1761 C93.0888,38.4161 82.5868,31.8601 70.5648,31.8601 C52.5658,31.8601 37.9688,46.5541 37.9248,64.6971 C27.6158,65.6781 19.2568,73.3411 17.2308,83.3091 C7.2258,86.7231 0.0308,96.2021 0.0308,107.3631 C0.0308,121.3961 11.4078,132.6611 25.4408,132.6611 C26.6928,132.6611 171.5248,132.4851 172.2018,132.4851 C185.1118,132.4851 195.5778,121.5941 195.5778,108.0911 C195.5778,94.9791 185.7118,84.3351 173.3208,83.7241" id="Fill-8" fill="#177ABF"></path>
                            <path d="M173.3208,83.7241 C173.3068,75.5991 166.1838,66.8611 155.3328,62.6301 C147.9188,59.7401 140.3638,59.5791 134.5628,61.6701 C131.0788,50.6891 122.4428,42.9161 112.3418,42.9161 C107.2918,42.9161 102.6098,44.8611 98.7538,48.1761 C93.0888,38.4161 82.5868,31.8601 70.5648,31.8601 C52.5658,31.8601 37.9688,46.5541 37.9248,64.6971 C27.6158,65.6781 19.2568,73.3411 17.2308,83.3091 C7.2258,86.7231 0.0308,96.2021 0.0308,107.3621 C0.0308,121.3961 11.4078,132.6611 25.4408,132.6611 C26.6928,132.6611 171.5248,132.4851 172.2018,132.4851 C185.1118,132.4851 195.5778,121.5941 195.5778,108.0901 C195.5778,94.9791 185.7118,84.3351 173.3208,83.7241" id="Fill-10" fill="#2594BE"></path>
                            <path d="M131.2578,144.0684 C131.2578,144.0684 110.0678,155.7624 105.2638,169.8714 C100.4568,183.9794 118.7048,192.8504 129.0818,186.3524 C139.4568,179.8544 134.9338,150.1574 131.2578,144.0684" id="Fill-12" fill="#1E5B7C"></path>
                            <path d="M148.8886,187.6143 C148.8886,187.6143 139.6596,192.7073 137.5666,198.8523 C135.4746,204.9963 143.4216,208.8603 147.9396,206.0303 C152.4586,203.2003 150.4906,190.2663 148.8886,187.6143" id="Fill-14" fill="#1E5B7C"></path>
                            <path d="M181.8886,168.6143 C181.8886,168.6143 172.6596,173.7073 170.5666,179.8523 C168.4746,185.9963 176.4216,189.8603 180.9396,187.0303 C185.4586,184.2003 183.4906,171.2663 181.8886,168.6143" id="Fill-16" fill="#1E5B7C"></path>
                            <path d="M242.0957,148.1753 C242.0957,148.1753 234.3557,152.4473 232.5997,157.6003 C230.8457,162.7543 237.5097,165.9953 241.3007,163.6213 C245.0917,161.2473 243.4397,150.3993 242.0957,148.1753" id="Fill-18" fill="#1E5B7C"></path>
                            <path d="M213.8047,184.04 C213.8047,184.04 200.7577,191.242 197.7987,199.929 C194.8397,208.617 206.0757,214.08 212.4647,210.078 C218.8557,206.077 216.0707,187.79 213.8047,184.04" id="Fill-20" fill="#1E5B7C"></path>
                            <path d="M212.8047,140.04 C212.8047,140.04 199.7577,147.242 196.7987,155.929 C193.8397,164.617 205.0757,170.08 211.4647,166.078 C217.8557,162.077 215.0707,143.79 212.8047,140.04" id="Fill-22" fill="#1E5B7C"></path>
                            <path d="M163.8984,135.8242 C163.8984,135.8242 152.5524,142.0872 149.9784,149.6412 C147.4064,157.1972 157.1774,161.9492 162.7344,158.4682 C168.2914,154.9882 165.8694,139.0852 163.8984,135.8242" id="Fill-24" fill="#1E5B7C"></path>
                        </g>
                    </g>
                </g>
            </g>
        </g>
    </g>
</svg>