<?xml version="1.0" encoding="UTF-8"?>
<svg width="301px" height="229px" viewBox="0 0 301 229" version="1.1" xmlns="http://www.w3.org/2000/svg" xmlns:xlink="http://www.w3.org/1999/xlink">
    <!-- Generator: Sketch 42 (36781) - http://www.bohemiancoding.com/sketch -->
    <title>storm</title>
    <desc>Created with Sketch.</desc>
    <defs></defs>
    <g id="Page-1" stroke="none" stroke-width="1" fill="none" fill-rule="evenodd">
        <g id="storm" fill-rule="nonzero">
            <polygon id="Fill-1" fill="#F39323" points="71.5023 147.9734 58.3763 173.5694 48.1333 160.5864 16.9253 229.1124 48.3683 183.4184 60.2563 194.2914 85.8533 147.9484"></polygon>
            <polygon id="Fill-2" fill="#F39323" points="38.592 148.1147 30.57 163.7517 23.942 155.3487 0 207.9077 24.379 172.4867 32.09 179.5417 49.585 148.0287"></polygon>
            <polygon id="Fill-3" fill="#F39323" points="108.2129 147.1706 102.1579 158.9706 95.5249 150.5666 71.5919 203.1286 95.9649 167.7046 103.6799 174.7576 119.0039 147.1516"></polygon>
            <g id="clouds" transform="translate(10.000000, 0.000000)">
                <path d="M261.0639,67.8 C261.0459,57.178 251.7339,45.756 237.5489,40.225 C227.8569,36.446 217.9809,36.236 210.3969,38.969 C205.8429,24.615 194.5539,14.454 181.3489,14.454 C174.7469,14.454 168.6259,16.996 163.5849,21.329 C156.1809,8.57 142.4509,0 126.7349,0 C103.2059,0 84.1249,19.209 84.0669,42.926 C70.5909,44.209 59.6619,54.227 57.0139,67.257 C43.9349,71.72 34.5289,84.112 34.5289,98.701 C34.5289,117.047 49.4009,131.773 67.7469,131.773 C69.3839,131.773 258.7149,131.543 259.6019,131.543 C276.4779,131.543 290.1589,117.306 290.1589,99.653 C290.1589,82.513 277.2609,68.598 261.0639,67.8" id="cloud-back" fill="#228AB2"></path>
                <path d="M173.3208,82.8361 C173.3068,74.7111 166.1838,65.9731 155.3328,61.7421 C147.9188,58.8521 140.3638,58.6911 134.5628,60.7821 C131.0788,49.8011 122.4428,42.0281 112.3418,42.0281 C107.2918,42.0281 102.6098,43.9731 98.7538,47.2881 C93.0888,37.5281 82.5868,30.9721 70.5648,30.9721 C52.5658,30.9721 37.9688,45.6661 37.9248,63.8091 C27.6158,64.7901 19.2568,72.4531 17.2308,82.4211 C7.2258,85.8351 0.0308,95.3141 0.0308,106.4741 C0.0308,120.5081 11.4078,131.7731 25.4408,131.7731 C26.6928,131.7731 171.5248,131.5971 172.2018,131.5971 C185.1118,131.5971 195.5778,120.7061 195.5778,107.2021 C195.5778,94.0911 185.7118,83.4471 173.3208,82.8361" id="cloud-front" fill="#30A0CA"></path>
            </g>
            <path d="M141.2578,143.1804 C141.2578,143.1804 120.0678,154.8744 115.2638,168.9834 C110.4568,183.0914 128.7048,191.9624 139.0818,185.4644 C149.4568,178.9664 144.9338,149.2694 141.2578,143.1804" id="Fill-12" fill="#1E5B7C"></path>
            <path d="M158.8886,186.7263 C158.8886,186.7263 149.6596,191.8193 147.5666,197.9643 C145.4746,204.1083 153.4216,207.9723 157.9396,205.1423 C162.4586,202.3123 160.4906,189.3783 158.8886,186.7263" id="Fill-14" fill="#1E5B7C"></path>
            <path d="M191.8886,167.7263 C191.8886,167.7263 182.6596,172.8193 180.5666,178.9643 C178.4746,185.1083 186.4216,188.9723 190.9396,186.1423 C195.4586,183.3123 193.4906,170.3783 191.8886,167.7263" id="Fill-16" fill="#1E5B7C"></path>
            <path d="M252.0957,147.2873 C252.0957,147.2873 244.3557,151.5593 242.5997,156.7123 C240.8457,161.8663 247.5097,165.1073 251.3007,162.7333 C255.0917,160.3593 253.4397,149.5113 252.0957,147.2873" id="Fill-18" fill="#1E5B7C"></path>
            <path d="M223.8047,183.152 C223.8047,183.152 210.7577,190.354 207.7987,199.041 C204.8397,207.729 216.0757,213.192 222.4647,209.19 C228.8557,205.189 226.0707,186.902 223.8047,183.152" id="Fill-20" fill="#1E5B7C"></path>
            <path d="M222.8047,139.152 C222.8047,139.152 209.7577,146.354 206.7987,155.041 C203.8397,163.729 215.0757,169.192 221.4647,165.19 C227.8557,161.189 225.0707,142.902 222.8047,139.152" id="Fill-22" fill="#1E5B7C"></path>
            <path d="M173.8984,134.9362 C173.8984,134.9362 162.5524,141.1992 159.9784,148.7532 C157.4064,156.3092 167.1774,161.0612 172.7344,157.5802 C178.2914,154.1002 175.8694,138.1972 173.8984,134.9362" id="Fill-24" fill="#1E5B7C"></path>
        </g>
    </g>
</svg>