<?xml version="1.0" encoding="UTF-8"?>
<svg width="98px" height="99px" viewBox="0 0 98 99" version="1.1" xmlns="http://www.w3.org/2000/svg" xmlns:xlink="http://www.w3.org/1999/xlink">
    <!-- Generator: Sketch 41.2 (35397) - http://www.bohemiancoding.com/sketch -->
    <title>tree</title>
    <desc>Created with Sketch.</desc>
    <defs>
        <polygon id="path-1" points="63.0582809 0.953125 0 0.953125 0 48.085 63.0582809 48.085 63.0582809 0.953125"></polygon>
    </defs>
    <g id="Page-1" stroke="none" stroke-width="1" fill="none" fill-rule="evenodd">
        <g id="Clima" transform="translate(-543.000000, -5165.000000)">
            <g id="que-hacer" transform="translate(219.000000, 4935.000000)">
                <g id="items" transform="translate(25.000000, 229.000000)">
                    <g id="cuida-tu-ambiente" transform="translate(246.000000, 0.000000)">
                        <g id="tree" transform="translate(53.000000, 0.000000)">
                            <path d="M51.5564583,53.9815625 C52.0439583,47.5815625 57.4429167,43.6867708 63.5283333,43.6867708 C64.0502083,43.6867708 64.5564583,43.7430208 65.054375,43.8315625 C68.448125,42.3596875 71.6991667,40.0107292 74.07,37.0951042 C73.1127083,36.9263542 72.1908333,36.5794792 71.3627083,36.0138542 C70.1064583,35.3242708 69.095,34.3732292 68.3283333,33.1648958 C66.9741667,34.6753125 65.4627083,35.9763542 63.7127083,37.2263542 C61.5304167,38.7857292 58.8022917,39.3232292 56.25125,40.2003125 C54.5783333,42.4211458 51.8970833,43.7638542 48.935625,43.9773958 C49.3814583,44.4398958 49.8283333,44.6576042 50.2679167,45.0940625 C49.9866667,45.8513542 49.8283333,46.1888542 49.7647917,47.2305208 L49.6064583,47.2305208 L49.148125,54.8044792 C47.07625,53.7128125 44.8439583,52.9294792 42.8939583,51.6232292 C40.4272917,49.9732292 38.985625,48.0836458 38.0877083,45.8638542 C36.5825,46.8409375 34.9283333,47.5419792 33.1252083,47.9096875 C33.4397917,50.1638542 34.1720833,52.3461458 35.6741667,54.3544792 C37.23875,56.4440625 40.1439583,58.2451042 42.4095833,59.4242708 C43.93875,60.2201042 45.47,61.0117708 46.98875,61.8221875 C47.6825,62.1930208 48.1220833,62.3711458 48.6366667,62.8690625 L46.7304167,93.0638542 L56.55125,93.0638542 L54.6366667,62.7326042 C54.7741667,62.6919792 54.91375,62.8378125 55.0554167,62.7971875 C52.6991667,60.4482292 51.3095833,57.2242708 51.5564583,53.9815625" id="Fill-17" fill="#7F6565"></path>
                            <g id="Group-21" transform="translate(0.000000, 0.088542)">
                                <mask id="mask-2" fill="white">
                                    <use xlink:href="#path-1"></use>
                                </mask>
                                <g id="Clip-20"></g>
                                <path d="M39.7721875,44.569375 C40.8128125,43.65375 41.7044792,42.5891667 42.4294792,41.4214583 C43.9221875,42.9308333 45.8971875,43.9214583 48.0992708,43.9214583 C48.3805208,43.9214583 48.6586458,43.9079167 48.9357292,43.8891667 C51.8971875,43.675625 54.5784375,42.3329167 56.2513542,40.1110417 C57.2221875,38.8214583 57.8586458,37.2433333 57.9992708,35.4079167 C58.2086458,32.6610417 56.9940625,29.7714583 54.9576042,27.8266667 C59.3742708,25.7516667 62.6044792,21.7235417 63.0221875,16.2547917 C63.5784375,8.94541667 57.6378125,0.952708333 49.8638542,0.952708333 C42.0878125,0.952708333 35.1878125,5.93083333 34.5628125,14.1110417 C34.5596875,14.1527083 34.5596875,14.194375 34.5576042,14.238125 C34.0898958,13.5120833 33.4534375,12.8277083 32.7159375,12.3329167 C30.3482292,10.3829167 26.9815625,9.89854167 24.1430208,11.281875 C20.2419792,13.1839583 18.5753125,18.0277083 20.4773958,21.92875 C20.6753125,22.331875 20.9086458,22.70375 21.1628125,23.0579167 C21.0930208,23.1172917 21.0211458,23.1704167 20.9503125,23.2308333 C20.3586458,23.7527083 19.8242708,24.331875 19.3305208,24.9433333 C19.1940625,24.8245833 19.0586458,24.7058333 18.9232292,24.588125 C17.1482292,23.4183333 15.2034375,22.7485417 13.0857292,22.5777083 C12.0357292,22.635 10.9846875,22.6922917 9.9346875,22.7495833 C7.74302083,23.1735417 5.80447917,24.119375 4.12010417,25.585 C1.75239583,27.6704167 0.273229167,30.6558333 0.0336458333,33.800625 C-0.213229167,37.0464583 0.888854167,40.3214583 3.04302083,42.76625 C3.8346875,43.456875 4.62739583,44.1485417 5.4190625,44.84125 C7.1940625,46.0089583 9.13989583,46.6797917 11.2576042,46.8495833 C12.3065625,46.7933333 13.3576042,46.7360417 14.4076042,46.67875 C16.5992708,46.2547917 18.5388542,45.3079167 20.2232292,43.8422917 C20.2357292,43.8308333 20.2471875,43.8172917 20.2596875,43.8058333 C20.9971875,44.4495833 21.7336458,45.0922917 22.4711458,45.7360417 C24.5440625,47.1027083 26.8180208,47.8860417 29.2940625,48.085 C30.5211458,48.0183333 31.7482292,47.950625 32.9753125,47.885 C33.0253125,47.8745833 33.0753125,47.8610417 33.1253125,47.850625 C34.9284375,47.481875 36.5815625,46.81 38.0878125,45.8339583 C38.6711458,45.456875 39.2336458,45.038125 39.7721875,44.569375" id="Fill-19" fill="#A0C849" mask="url(#mask-2)"></path>
                            </g>
                            <path d="M91.0813542,48.8454167 C89.2761458,48.8454167 87.5636458,49.3641667 86.1907292,50.313125 C86.2167708,50.150625 86.2438542,49.9766667 86.2751042,49.7808333 C86.4719792,48.4954167 86.0011458,46.6110417 85.4292708,45.49125 C84.7709375,44.1527083 83.8219792,43.0672917 82.5865625,42.2360417 C80.7386458,41.0079167 78.6448958,40.6777083 76.4813542,40.988125 C75.6803125,41.1016667 74.8865625,41.3579167 74.1886458,41.76625 C72.8657292,42.4172917 71.7917708,43.3547917 70.9698958,44.5766667 C70.5855208,45.16 70.2823958,45.7725 70.0594792,46.413125 C68.6615625,45.1047917 66.9511458,44.1683333 65.0542708,43.831875 C64.5573958,43.7433333 64.0501042,43.6870833 63.5282292,43.6870833 C57.4438542,43.6870833 52.0438542,47.581875 51.5563542,53.981875 C51.3094792,57.2245833 52.6990625,60.6360417 55.0553125,62.985 C56.8553125,64.7777083 59.2178125,65.9527083 61.8511458,65.9527083 C64.9584375,65.9527083 67.8751042,64.9277083 70.0584375,63.0797917 C71.4126042,65.70375 73.9844792,67.7266667 77.0282292,67.7266667 C80.9719792,67.7266667 84.5344792,65.6089583 85.8178125,62.0152083 C86.9605208,63.0120833 88.3886458,63.6495833 89.9667708,63.6495833 C94.0126042,63.6495833 97.6011458,61.0589583 97.9261458,56.8047917 C98.2157292,53.0016667 95.1251042,48.8454167 91.0813542,48.8454167" id="Fill-22" fill="#A0C849"></path>
                            <path d="M71.3623958,36.01375 C72.1905208,36.579375 73.1134375,36.92625 74.0696875,37.095 C76.2894792,37.4835417 78.7009375,36.891875 80.5905208,35.704375 C81.0144792,35.4377083 81.3978125,35.123125 81.7623958,34.7866667 C82.8936458,36.2575 84.4613542,37.354375 86.3519792,37.6720833 C91.0134375,38.4585417 95.6457292,36.2085417 96.8467708,31.37 C97.8769792,27.2116667 95.3603125,22.11375 91.0228125,21.0283333 C90.8717708,20.6502083 90.6946875,20.2835417 90.4790625,19.9345833 C89.5655208,18.4627083 87.8853125,17.0689583 86.1290625,16.773125 L86.1280208,16.773125 C85.5155208,16.7033333 84.9030208,16.6345833 84.2894792,16.5647917 C82.9821875,16.5970833 81.7676042,16.954375 80.6509375,17.6366667 C79.4498958,18.3825 78.5009375,19.4866667 77.9196875,20.766875 C77.1353125,20.5408333 76.3290625,20.4158333 75.4873958,20.4272917 C74.4238542,20.445 73.8144792,20.62 72.9738542,20.8502083 C70.1842708,21.6179167 67.9873958,24.0033333 67.2967708,26.7866667 C66.9436458,28.2314583 66.9759375,29.67 67.3936458,31.1002083 C67.6946875,31.7752083 67.9957292,32.448125 68.2978125,33.1220833 C68.3061458,33.1366667 68.3186458,33.148125 68.3280208,33.1647917 C69.0957292,34.373125 70.1061458,35.3241667 71.3623958,36.01375" id="Fill-24" fill="#A0C849"></path>
                            <polygon id="Fill-26" fill="#42A047" points="22.6263542 93.0638542 22.6263542 99.3138542 47.5190625 99.3138542 55.5596875 99.3138542 79.9180208 99.3138542 79.9180208 93.0638542 55.2711458 93.0638542 47.8086458 93.0638542"></polygon>
                        </g>
                    </g>
                </g>
            </g>
        </g>
    </g>
</svg>