<?xml version="1.0" encoding="UTF-8" standalone="no"?>
<svg xmlns="http://www.w3.org/2000/svg" height="52px" width="52px" version="1.1" xmlns:xlink="http://www.w3.org/1999/xlink" viewBox="0 0 52 52"><!-- Generator: Sketch 42 (36781) - http://www.bohemiancoding.com/sketch -->
 <title>twitter</title>
 <desc>Created with Sketch.</desc>
 <g id="Page-1" fill-rule="evenodd" fill="none">
  <g id="twitter" transform="translate(1 1)">
   <path id="Shape" fill-rule="nonzero" fill="#F4F4F4" d="m29.288 13.276c-2.636 0.928-4.302 3.319-4.113 5.938l0.064 1.01-1.056-0.123c-3.838-0.474-7.192-2.082-10.041-4.786l-1.392-1.339-0.358 0.989c-0.76 2.207-0.274 4.538 1.308 6.103 0.843 0.867 0.653 0.99-0.802 0.474-0.506-0.164-0.949-0.288-0.99-0.227-0.148 0.145 0.358 2.02 0.759 2.763 0.549 1.031 1.665 2.041 2.889 2.639l1.034 0.474-1.223 0.02c-1.181 0-1.224 0.021-1.096 0.454 0.421 1.341 2.088 2.764 3.944 3.383l1.307 0.433-1.138 0.659c-1.687 0.95-3.671 1.484-5.653 1.525-0.952 0.021-1.731 0.104-1.731 0.165 0 0.205 2.575 1.359 4.072 1.815 4.492 1.341 9.83 0.762 13.838-1.526 2.849-1.629 5.697-4.866 7.025-8.001 0.717-1.669 1.435-4.721 1.435-6.184 0-0.95 0.062-1.073 1.245-2.207 0.696-0.659 1.348-1.382 1.476-1.588 0.21-0.391 0.189-0.391-0.887-0.041-1.793 0.617-2.046 0.536-1.159-0.392 0.654-0.66 1.434-1.856 1.434-2.205 0-0.062-0.317 0.04-0.675 0.227-0.38 0.206-1.224 0.515-1.858 0.701l-1.138 0.35-1.034-0.68c-0.57-0.372-1.371-0.784-1.793-0.908-1.077-0.286-2.723-0.246-3.693 0.085z"/>
   <circle id="Oval" stroke-width="2" cy="25" stroke="#fff" cx="25" r="25"/>
  </g>
 </g>
</svg>
