<?xml version="1.0" encoding="UTF-8" standalone="no"?>
<svg xmlns="http://www.w3.org/2000/svg" height="32px" width="32px" version="1.1" xmlns:xlink="http://www.w3.org/1999/xlink" viewBox="0 0 32 32"><!-- Generator: Sketch 42 (36781) - http://www.bohemiancoding.com/sketch -->
 <title>up</title>
 <desc>Created with Sketch.</desc>
 <g id="Page-1" fill-rule="evenodd" fill="none">
  <g id="up" transform="translate(1 1)">
   <circle id="Oval" stroke-width="2" cy="15" stroke="#fff" cx="15" r="15"/>
   <path id="Shape" fill-rule="nonzero" fill="#fff" d="m15.004 22c0.239 0 0.486-0.088 0.669-0.27l6.047-5.788c0.373-0.358 0.373-0.932 0-1.289-0.374-0.358-0.973-0.358-1.346 0l-4.419 4.237v-10.979c0-0.5062-0.423-0.911-0.951-0.911-0.529 0-0.952 0.4048-0.952 0.9108v10.979l-4.4258-4.237c-0.3735-0.358-0.9725-0.358-1.3461 0-0.3735 0.357-0.3735 0.931 0 1.289l6.0539 5.788c0.183 0.176 0.43 0.27 0.67 0.27z" transform="translate(15 14.5) rotate(180) translate(-15 -14.5)"/>
  </g>
 </g>
</svg>
