<svg class="back-wave" xmlns="http://www.w3.org/2000/svg" viewBox="0 0 1480 239"><title>mar</title><g transform="translate(0 -471)"><linearGradient id="a" gradientUnits="userSpaceOnUse" x1="414.22" y1="1211.926" x2="414.22" y2="1211.579" gradientTransform="matrix(1480 0 0 -689 -612306 835488)"><stop offset="0" stop-color="#54D0ED"/><stop offset="1" stop-color="#1788B2"/></linearGradient><path fill="url(#a)" d="M763.1 471s-65.4 22.5-128.2 0c0 0-75.5 21-140.9 0 0 0-62.8 33.4-112.8 2.9 0 0-57.7 20.3-119.7 0 0 0-65.4 22.5-128.2 0 0 0-69.9 19.5-133.4 2.2V710h1480V480.7c-16.9 4.4-53.2 10-95.6-6.8 0 0-57.7 20.3-119.7 0 0 0-65.4 22.5-128.2 0 0 0-75.5 21-140.9 0 0 0-54.3 20.3-112.9-2.9.2 0-57.5 20.3-119.5 0z"/></g></svg>