<svg xmlns="http://www.w3.org/2000/svg" xmlns:xlink="http://www.w3.org/1999/xlink" xmlns:sketch="http://www.bohemiancoding.com/sketch/ns" width="2296px" height="180px" viewBox="0 0 2296 180" version="1.1"><style>.style0{fill:	none;fill-rule:	evenodd;}.style1{fill:	#81BFC1;}.style2{stroke: #000;stroke-opacity: 0.2; stroke-width:	2;}</style><!-- Generator: Sketch 3.3.3 (12072) - http://www.bohemiancoding.com/sketch --><title>Artboard 2</title><desc>Created with Sketch.</desc><defs/><g sketch:type="MSPage" class="style0"><g sketch:type="MSArtboardGroup"><g sketch:type="MSLayerGroup"><path d="M0.2 144 C172.1 143.6 452.9 133.8 646 81 C942 -0.1 1148 4 1148 4 L1148 181 L0.7 181 C0.7 181 -91.3 144.2 0.2 144 Z" sketch:type="MSShapeGroup" class="style1"/><path d="M0 144 C171.9 143.6 452.8 133.8 646 81 C942 -0.1 1148 4 1148 4 " sketch:type="MSShapeGroup" class="style2"/></g><g sketch:type="MSLayerGroup"><path d="M2295.8 144 C2123.9 143.6 1843.1 133.8 1650 81 C1354 -0.1 1148 4 1148 4 L1148 181 L2295.3 181 C2295.3 181 2387.3 144.2 2295.8 144 Z" sketch:type="MSShapeGroup" class="style1"/><path d="M2296 144 C2124.1 143.6 1843.2 133.8 1650 81 C1354 -0.1 1148 4 1148 4 " sketch:type="MSShapeGroup" class="style2"/></g></g></g></svg>