<?xml version="1.0" encoding="utf-8"?>
<!-- Generator: Adobe Illustrator 18.0.0, SVG Export Plug-In . SVG Version: 6.00 Build 0)  -->
<!DOCTYPE svg PUBLIC "-//W3C//DTD SVG 1.1//EN" "http://www.w3.org/Graphics/SVG/1.1/DTD/svg11.dtd">
<svg version="1.1" id="Capa_1" xmlns="http://www.w3.org/2000/svg" xmlns:xlink="http://www.w3.org/1999/xlink" x="0px" y="0px"
	 viewBox="61.5 64 231.9 164.5" enable-background="new 61.5 64 231.9 164.5" xml:space="preserve">
<g>
	<defs>
		<circle id="SVGID_1_" cx="177" cy="108.6" r="113.4"/>
	</defs>
	<clipPath id="SVGID_2_">
		<use xlink:href="#SVGID_1_"  overflow="visible"/>
	</clipPath>
	<path id="_x31_" clip-path="url(#SVGID_2_)" fill="#52CAE7" d="M289.9,75c-0.7,6.1-10,13-21.4,13c-9.7,0-23-7.5-23-14.3
		c0,6.7-11.4,14.3-22.8,14.3c-9.4,0-23.8-7.4-23.8-14.3c0,6.6-13.4,14.3-22,14.3c-11.4,0-22.8-7.6-22.8-14.3
		c0,6.7-11.7,14.3-23,14.3c-11.4,0-23-7.7-23-14.3c0,6.5-11.4,14.3-22.8,14.3c-11.4,0-20.7-6.9-21.4-13c-0.1-0.7-0.7-1.3-1.4-1.3
		c-0.8,0-1.5,0.5-1.5,1.3c0,0.2-0.1,0.4-0.1,0.6c0,0.1,0,0.2,0,0.3v68.7c0,0.8-0.8,79.9,0,79.9H291c0.8,0,1.9-81.3,1.9-82.1
		c0,0-0.7-68.8-1.5-68.8C290.6,73.7,290,74.2,289.9,75z"/>
	<path id="_x32_" clip-path="url(#SVGID_2_)" fill="#2FACCA" d="M292,104.8c-0.7,0-1.3,0.5-1.4,1.3c-0.7,6.1-10,13-21.4,13
		c-9.7,0-23-7.5-23-14.3c0,6.7-11.4,14.3-22.8,14.3c-9.4,0-23.8-7.4-23.8-14.3c0,6.6-13.4,14.3-22,14.3c-11.4,0-22.8-7.6-22.8-14.3
		c0,6.7-11.7,14.3-23,14.3c-11.4,0-23-7.7-23-14.3c0,6.5-11.4,14.3-22.8,14.3c-11.4,0-20.7-6.9-21.4-13c-0.1-0.7-0.7-1.3-1.4-1.3H63
		c-0.7,0-1.3,0.5-1.4,1.3c0,0.2-0.1,0.4-0.1,0.6c0,0.1,0,0.2,0,0.3v68.7c0,0.8,1,49.4,1.8,49.4l229.2-2.1c0.8,0,1.1-48.6,1.1-49.4
		v-67.4C293.5,105.5,292.8,104.8,292,104.8"/>
	<path id="_x33_" clip-path="url(#SVGID_2_)" fill="#2494BE" d="M291.7,132.5c-0.7,0-1.3,0.5-1.4,1.3c-0.7,6.1-10,13-21.4,13
		c-9.7,0-23-7.5-23-14.3c0,6.7-11.4,14.3-22.8,14.3c-9.4,0-23.8-7.4-23.8-14.3c0,6.6-13.4,14.3-22,14.3c-11.4,0-22.8-7.6-22.8-14.3
		c0,6.7-11.7,14.3-23,14.3c-11.4,0-23-7.7-23-14.3c0,6.5-11.4,14.3-22.8,14.3c-11.4,0-20.7-6.9-21.4-13c-0.1-0.7-0.7-1.3-1.4-1.3
		h-0.1c-0.7,0-1.3,0.5-1.4,1.3c0,0.2-0.1,0.4-0.1,0.6c0,0.1,0,0.2,0,0.3v68.7c0,0.8,0.7,27,1.5,27H291c0.8,0,2.2-28.4,2.2-29.2V134
		C293.2,133.2,292.5,132.5,291.7,132.5"/>
	<path id="_x34_" clip-path="url(#SVGID_2_)" fill="#1788B2" d="M291.4,165.1c-0.7,0-1.3,0.5-1.4,1.3c-0.7,6.1-10,13-21.4,13
		c-9.7,0-23-7.5-23-14.3c0,6.7-11.4,14.3-22.8,14.3c-9.4,0-23.8-7.4-23.8-14.3c0,6.6-13.4,14.3-22,14.3c-11.4,0-22.8-7.6-22.8-14.3
		c0,6.7-11.7,14.3-23,14.3c-11.4,0-23-7.7-23-14.3c0,6.5-11.4,14.3-22.8,14.3c-11.4,0-20.7-6.9-21.4-13c-0.1-0.7-0.7-1.3-1.4-1.3
		h-0.1c-0.7,0-1.3,0.5-1.4,1.3c0,0.2-0.1,0.4-0.1,0.6c0,0.1,0,0.2,0,0.3v68.7c0,0.8,0.6,1.4,1.4,1.4l229.2-2.1
		c0.8,0,1.4-0.6,1.4-1.4v-67.4C292.8,165.8,292.1,165.1,291.4,165.1"/>
</g>
</svg>
