<?xml version="1.0" encoding="UTF-8"?>
<svg width="1481px" height="199px" viewBox="0 0 1481 199" version="1.1" xmlns="http://www.w3.org/2000/svg" xmlns:xlink="http://www.w3.org/1999/xlink">
    <!-- Generator: Sketch 42 (36781) - http://www.bohemiancoding.com/sketch -->
    <title>waves</title>
    <desc>Created with Sketch.</desc>
    <defs>
        <linearGradient x1="49.9797297%" y1="-0.00585774057%" x2="49.9797297%" y2="100.02887%" id="linearGradient-1">
            <stop stop-color="#54D0ED" offset="0%"></stop>
            <stop stop-color="#1788B2" offset="100%"></stop>
        </linearGradient>
    </defs>
    <g id="Page-1" stroke="none" stroke-width="1" fill="none" fill-rule="evenodd">
        <g id="waves" fill="url(#linearGradient-1)" fill-rule="nonzero">
            <path d="M635.9,0 C635.9,0 560.4,21 495,0 C495,0 432.2,33.4 382.2,2.9 C382.2,2.9 324.5,23.2 262.5,2.9 C262.5,2.9 197.1,25.4 134.3,2.9 C134.3,2.9 64.4,22.4 0.9,5.1 L0.9,199 L1480.9,199 L1480.9,9.7 C1464,14.1 1427.7,19.7 1385.3,2.9 C1385.3,2.9 1327.6,23.2 1265.6,2.9 C1265.6,2.9 1200.2,25.4 1137.4,2.9 C1137.4,2.9 1061.9,23.9 996.5,2.9 C996.5,2.9 942.2,23.2 883.6,0 C883.8,0 826.1,20.3 764.1,0 C764.1,0 698.7,22.5 635.9,0 Z"></path>
        </g>
    </g>
</svg>