<?xml version="1.0" encoding="UTF-8"?>
<svg width="360px" height="222px" viewBox="0 0 360 222" version="1.1" xmlns="http://www.w3.org/2000/svg" xmlns:xlink="http://www.w3.org/1999/xlink">
    <!-- Generator: Sketch 41.2 (35397) - http://www.bohemiancoding.com/sketch -->
    <title>svg mar</title>
    <desc>Created with Sketch.</desc>
    <defs>
        <path d="M5.66325089,0.704458763 C2.33086528,14.3629632 0.564387097,28.6335741 0.564387097,43.3159794 C0.564387097,68.7318122 5.85723279,92.9129769 15.4021657,114.820056 L344.927853,114.820052 C354.47265,92.9129769 359.765419,68.7318122 359.765419,43.3159794 C359.765419,28.6344267 357.998062,14.3635725 354.666529,0.704458763 L5.66325089,0.704458763 L5.66325089,0.704458763 Z" id="path-1"></path>
        <path d="M0.631184666,0.704458763 C1.81568397,44.4541694 18.6856727,84.2947287 45.82809,114.820052 L314.502344,114.820052 C341.644394,84.2947287 358.514141,44.4541694 359.698623,0.704458763 L0.631184666,0.704458763 L0.631184666,0.704458763 Z" id="path-3"></path>
        <path d="M0.382264436,0.12456237 C18.321903,54.0985147 61.2394924,96.6926575 115.450562,114.240155 L226.300251,114.240155 C280.510644,96.6926575 323.42764,54.0985147 341.367026,0.12456237 L0.382259419,0.124561856 L0.382264436,0.12456237 Z" id="path-5"></path>
        <path d="M0.629210267,0.704458763 C33.2353064,45.9395587 86.4178567,75.3923969 146.488645,75.3923969 C206.55873,75.3923969 259.740577,45.9395587 292.346228,0.704458763 L0.629210267,0.704458763 L0.629210267,0.704458763 Z" id="path-7"></path>
    </defs>
    <g id="Page-1" stroke="none" stroke-width="1" fill="none" fill-rule="evenodd">
        <g id="Clima" transform="translate(-860.000000, -1131.000000)">
            <g id="porque-sube" transform="translate(221.000000, 1004.000000)">
                <g id="svg-mar" transform="translate(639.000000, 126.000000)">
                    <g id="Group-3" transform="translate(0.000000, 0.169519)">
                        <mask id="mask-2" fill="white">
                            <use xlink:href="#path-1"></use>
                        </mask>
                        <g id="Clip-2"></g>
                        <path d="M358.37489,2.70742268 C357.251923,12.3708247 342.573213,23.1777835 324.611535,23.1777835 C309.310374,23.1777835 288.416439,11.2736598 288.416439,0.704458763 C288.416439,11.2736598 270.363019,23.1777835 252.399019,23.1777835 C237.601858,23.1777835 214.835923,11.5636082 214.835923,0.704458763 C214.835923,11.1286856 193.731794,23.1777835 180.191148,23.1777835 C162.22831,23.1777835 144.173729,11.1286856 144.173729,0.704458763 C144.173729,11.2736598 125.762632,23.1777835 107.980955,23.1777835 C90.0169548,23.1777835 71.7870194,10.9837113 71.7870194,0.704458763 C71.7870194,10.9837113 53.7336,23.1777835 35.7719226,23.1777835 C17.8067613,23.1777835 3.12805161,12.3708247 2.00624516,2.70742268 C1.87385806,1.56502577 0.906503226,0.704458763 -0.244335484,0.704458763 C-1.56936774,0.704458763 -2.53556129,1.5592268 -2.67259355,2.69814433 C-2.71323871,3.03680412 -2.77594839,3.37082474 -2.85027097,3.70252577 C-2.88510968,3.86489691 -2.90369032,4.02726804 -2.90369032,4.19195876 L-2.90369032,112.556134 C-2.90369032,113.807552 -1.88872258,114.820052 -0.636851613,114.820052 L360.697471,111.468247 C361.949342,111.468247 362.96431,110.454588 362.96431,109.20549 L362.96431,2.96837629 C362.96431,1.71811856 361.878503,0.704458763 360.626632,0.704458763 C359.475794,0.704458763 358.508439,1.56502577 358.37489,2.70742268 Z" id="Fill-1" fill="#52CAE7" mask="url(#mask-2)"></path>
                    </g>
                    <g id="Group-6" transform="translate(0.000000, 47.721066)">
                        <mask id="mask-4" fill="white">
                            <use xlink:href="#path-3"></use>
                        </mask>
                        <g id="Clip-5"></g>
                        <path d="M358.884697,0.704458763 C357.733858,0.704458763 356.766503,1.56502577 356.632955,2.70742268 C355.509987,12.3708247 340.831277,23.1777835 322.8696,23.1777835 C307.568439,23.1777835 286.674503,11.2736598 286.674503,0.704458763 C286.674503,11.2736598 268.621084,23.1777835 250.657084,23.1777835 C235.859923,23.1777835 213.093987,11.5636082 213.093987,0.704458763 C213.093987,11.1286856 191.989858,23.1777835 178.449213,23.1777835 C160.486374,23.1777835 142.431794,11.1286856 142.431794,0.704458763 C142.431794,11.2736598 124.020697,23.1777835 106.239019,23.1777835 C88.2750194,23.1777835 70.0450839,10.9837113 70.0450839,0.704458763 C70.0450839,10.9837113 51.9916645,23.1777835 34.0299871,23.1777835 C16.0648258,23.1777835 1.38611613,12.3708247 0.264309677,2.70742268 C0.131922581,1.56502577 -0.835432258,0.704458763 -1.98627097,0.704458763 L-2.16394839,0.704458763 C-3.31130323,0.704458763 -4.27749677,1.5592268 -4.41452903,2.69814433 C-4.45517419,3.03680412 -4.51788387,3.37082474 -4.59220645,3.70252577 C-4.62704516,3.86489691 -4.64562581,4.02726804 -4.64562581,4.19195876 L-4.64562581,112.556134 C-4.64562581,113.807552 -3.63065806,114.820052 -2.3787871,114.820052 L358.955535,111.468247 C360.207406,111.468247 361.222374,110.454588 361.222374,109.20549 L361.222374,2.96837629 C361.222374,1.71811856 360.136568,0.704458763 358.884697,0.704458763" id="Fill-4" fill="#2FACCA" mask="url(#mask-4)"></path>
                    </g>
                    <g id="Group-9" transform="translate(9.290323, 99.911787)">
                        <mask id="mask-6" fill="white">
                            <use xlink:href="#path-5"></use>
                        </mask>
                        <g id="Clip-8"></g>
                        <path d="M351.916955,0.124561856 C350.766116,0.124561856 349.798761,0.985128866 349.665213,2.12752577 C348.542245,11.7909278 333.863535,22.5978866 315.901858,22.5978866 C300.600697,22.5978866 279.706761,10.6937629 279.706761,0.124561856 C279.706761,10.6937629 261.653342,22.5978866 243.689342,22.5978866 C228.892181,22.5978866 206.126245,10.9837113 206.126245,0.124561856 C206.126245,10.5487887 185.022116,22.5978866 171.481471,22.5978866 C153.518632,22.5978866 135.464052,10.5487887 135.464052,0.124561856 C135.464052,10.6937629 117.052955,22.5978866 99.2712774,22.5978866 C81.3072774,22.5978866 63.0773419,10.4038144 63.0773419,0.124561856 C63.0773419,10.4038144 45.0239226,22.5978866 27.0622452,22.5978866 C9.09708387,22.5978866 -5.58162581,11.7909278 -6.70343226,2.12752577 C-6.83581935,0.985128866 -7.80317419,0.124561856 -8.9540129,0.124561856 L-9.13169032,0.124561856 C-10.2790452,0.124561856 -11.2452387,0.979329897 -11.382271,2.11824742 C-11.4229161,2.45690722 -11.4856258,2.79092784 -11.5599484,3.12262887 C-11.5947871,3.285 -11.6133677,3.44737113 -11.6133677,3.61206186 L-11.6133677,111.976237 C-11.6133677,113.227655 -10.5984,114.240155 -9.34652903,114.240155 L351.987794,110.888351 C353.239665,110.888351 354.254632,109.874691 354.254632,108.625593 L354.254632,2.38847938 C354.254632,1.13822165 353.168826,0.124561856 351.916955,0.124561856" id="Fill-7" fill="#2494BE" mask="url(#mask-6)"></path>
                    </g>
                    <g id="Group-12" transform="translate(33.677419, 147.463334)">
                        <mask id="mask-8" fill="white">
                            <use xlink:href="#path-7"></use>
                        </mask>
                        <g id="Clip-11"></g>
                        <path d="M326.949213,0.704458763 C325.798374,0.704458763 324.831019,1.56502577 324.697471,2.70742268 C323.574503,12.3708247 308.895794,23.1777835 290.934116,23.1777835 C275.632955,23.1777835 254.739019,11.2736598 254.739019,0.704458763 C254.739019,11.2736598 236.6856,23.1777835 218.7216,23.1777835 C203.924439,23.1777835 181.158503,11.5636082 181.158503,0.704458763 C181.158503,11.1286856 160.054374,23.1777835 146.513729,23.1777835 C128.55089,23.1777835 110.49631,11.1286856 110.49631,0.704458763 C110.49631,11.2736598 92.0852129,23.1777835 74.3035355,23.1777835 C56.3395355,23.1777835 38.1096,10.9837113 38.1096,0.704458763 C38.1096,10.9837113 20.0561806,23.1777835 2.09450323,23.1777835 C-15.8706581,23.1777835 -30.5493677,12.3708247 -31.6711742,2.70742268 C-31.8035613,1.56502577 -32.7709161,0.704458763 -33.9217548,0.704458763 L-34.0994323,0.704458763 C-35.2467871,0.704458763 -36.2129806,1.5592268 -36.3500129,2.69814433 C-36.3906581,3.03680412 -36.4533677,3.37082474 -36.5276903,3.70252577 C-36.562529,3.86489691 -36.5811097,4.02726804 -36.5811097,4.19195876 L-36.5811097,112.556134 C-36.5811097,113.807552 -35.5661419,114.820052 -34.314271,114.820052 L327.020052,111.468247 C328.271923,111.468247 329.28689,110.454588 329.28689,109.20549 L329.28689,2.96837629 C329.28689,1.71811856 328.201084,0.704458763 326.949213,0.704458763" id="Fill-10" fill="#1788B2" mask="url(#mask-8)"></path>
                    </g>
                </g>
            </g>
        </g>
    </g>
</svg>