<?xml version="1.0" encoding="UTF-8"?>
<svg width="1393px" height="199px" viewBox="0 0 1393 199" version="1.1" xmlns="http://www.w3.org/2000/svg" xmlns:xlink="http://www.w3.org/1999/xlink">
    <!-- Generator: Sketch 42 (36781) - http://www.bohemiancoding.com/sketch -->
    <title>Shape</title>
    <desc>Created with Sketch.</desc>
    <defs>
        <linearGradient x1="49.9797297%" y1="-0.00585774057%" x2="49.9797297%" y2="100.02887%" id="linearGradient-1">
            <stop stop-color="#54D0ED" offset="0%"></stop>
            <stop stop-color="#1788B2" offset="100%"></stop>
        </linearGradient>
    </defs>
    <g id="Page-1" stroke="none" stroke-width="1" fill="none" fill-rule="evenodd">
        <g id="waves" transform="translate(-51.000000, -1.000000)" fill-rule="nonzero" fill="url(#linearGradient-1)">
            <path d="M635,-3.37507799e-14 C635,-3.37507799e-14 559.5,21 494.1,-3.37507799e-14 C494.1,-3.37507799e-14 431.3,33.4 381.3,2.9 C381.3,2.9 323.6,23.2 261.6,2.9 C261.6,2.9 196.2,25.4 133.4,2.9 C133.4,2.9 83.5669223,14.2062978 61.5,9.7 C14,-3.37507799e-14 38.5,5.1 0,5.1 L0,199 L1480,199 L1480,9.7 C1446.5,-3.37507799e-14 1426.8,19.7 1384.4,2.9 C1384.4,2.9 1326.7,23.2 1264.7,2.9 C1264.7,2.9 1199.3,25.4 1136.5,2.9 C1136.5,2.9 1061,23.9 995.6,2.9 C995.6,2.9 941.3,23.2 882.7,-3.37507799e-14 C882.9,-3.37507799e-14 825.2,20.3 763.2,-3.37507799e-14 C763.2,-3.37507799e-14 697.8,22.5 635,-3.37507799e-14 Z" id="Shape"></path>
        </g>
    </g>
</svg>