<?xml version="1.0" encoding="UTF-8"?>
<svg width="83px" height="100px" viewBox="0 0 83 100" version="1.1" xmlns="http://www.w3.org/2000/svg" xmlns:xlink="http://www.w3.org/1999/xlink">
    <!-- Generator: Sketch 41.2 (35397) - http://www.bohemiancoding.com/sketch -->
    <title>whater</title>
    <desc>Created with Sketch.</desc>
    <defs></defs>
    <g id="Page-1" stroke="none" stroke-width="1" fill="none" fill-rule="evenodd">
        <g id="Clima" transform="translate(-805.000000, -5164.000000)">
            <g id="que-hacer" transform="translate(219.000000, 4935.000000)">
                <g id="items" transform="translate(25.000000, 229.000000)">
                    <g id="agua" transform="translate(506.000000, 0.000000)">
                        <g id="whater" transform="translate(55.000000, 0.000000)">
                            <path d="M63.986875,67.48 C63.986875,84.914375 49.8545833,99.0466667 32.4191667,99.0466667 C14.9847917,99.0466667 0.8525,84.914375 0.8525,67.48 C0.8525,50.0445833 32.4191667,0.0508333333 32.4191667,0.0508333333 C32.4191667,0.0508333333 63.986875,50.0445833 63.986875,67.48" id="Fill-13" fill="#52CAE7"></path>
                            <path d="M82.6361458,53.5008333 C82.6361458,65.570625 72.8517708,75.355 60.7830208,75.355 C48.7111458,75.355 38.9278125,65.570625 38.9278125,53.5008333 C38.9278125,41.4320833 60.7830208,6.81958333 60.7830208,6.81958333 C60.7830208,6.81958333 82.6361458,41.4320833 82.6361458,53.5008333" id="Fill-15" fill="#C7F0EC"></path>
                        </g>
                    </g>
                </g>
            </g>
        </g>
    </g>
</svg>